<svg width="720" height="220" viewBox="0 0 720 220" fill="none" xmlns="http://www.w3.org/2000/svg">
<path d="M98.8 69.176H100.258V71.696H104.902V69.176H106.36V76.808H98.8V69.176ZM100.258 72.848V75.62H104.902V72.848H100.258ZM100.42 78.842H111.202V84.332H109.726V80.048H100.42V78.842ZM109.726 68.204H111.202V77.96H109.726V68.204ZM116.205 71.354V79.22C118.491 79.202 119.931 79.13 121.623 78.77L121.767 79.976C119.931 80.372 118.365 80.444 115.791 80.444H114.747V70.166H120.813V71.354H116.205ZM123.207 74.342V68.582H124.593V83.522H123.207V75.566H119.733V74.342H123.207ZM126.447 68.186H127.851V84.332H126.447V68.186ZM142.087 68.186H143.563V84.368H142.087V68.186ZM135.049 69.428C137.443 69.428 139.153 71.624 139.153 75.062C139.153 78.5 137.443 80.696 135.049 80.696C132.655 80.696 130.945 78.5 130.945 75.062C130.945 71.624 132.655 69.428 135.049 69.428ZM135.049 70.76C133.465 70.76 132.349 72.452 132.349 75.062C132.349 77.69 133.465 79.382 135.049 79.382C136.615 79.382 137.731 77.69 137.731 75.062C137.731 72.452 136.615 70.76 135.049 70.76ZM148.764 75.386V79.256C151.68 79.256 153.552 79.148 155.748 78.752L155.91 79.958C153.57 80.372 151.608 80.462 148.53 80.462H147.288V69.644H154.758V70.868H148.764V74.198H154.056V75.386H148.764ZM158.376 68.168H159.852V84.35H158.376V75.494H155.046V74.27H158.376V68.168ZM172.138 69.59V72.488C172.138 75.44 174.064 78.41 176.458 79.49L175.576 80.678C173.74 79.778 172.192 77.87 171.418 75.566C170.68 77.996 169.132 80.012 167.242 80.984L166.342 79.778C168.718 78.644 170.68 75.548 170.68 72.488V69.59H172.138ZM178.15 68.186H179.626V84.368H178.15V68.186ZM184.646 71.354V79.13C186.806 79.112 188.336 79.022 190.1 78.644L190.226 79.868C188.3 80.282 186.662 80.354 184.25 80.354H183.188V70.148H189.2V71.354H184.646ZM194.906 68.186H196.328V84.332H194.906V75.872H192.62V83.522H191.234V68.546H192.62V74.666H194.906V68.186ZM199.207 86.42L198.811 85.448C199.945 84.944 200.611 84.062 200.611 83C200.539 83.018 200.485 83.018 200.413 83.018C199.783 83.018 199.207 82.622 199.207 81.866C199.207 81.164 199.783 80.714 200.449 80.714C201.313 80.714 201.835 81.452 201.835 82.658C201.835 84.386 200.827 85.736 199.207 86.42ZM214.398 70.022C211.95 70.022 210.276 70.94 210.276 72.362C210.276 73.802 211.95 74.72 214.398 74.72C216.864 74.72 218.538 73.802 218.538 72.362C218.538 70.94 216.864 70.022 214.398 70.022ZM214.398 75.908C211.05 75.908 208.764 74.54 208.764 72.362C208.764 70.202 211.05 68.834 214.398 68.834C217.764 68.834 220.05 70.202 220.05 72.362C220.05 74.54 217.764 75.908 214.398 75.908ZM221.742 77.438V78.662H215.136V84.35H213.66V78.662H207.126V77.438H221.742ZM225.737 75.44V79.22C228.383 79.22 230.759 79.094 233.585 78.644L233.729 79.85C230.813 80.336 228.365 80.444 225.593 80.444H224.261V74.252H230.201V70.886H224.207V69.68H231.695V75.44H225.737ZM235.097 68.168H236.573V84.35H235.097V68.168ZM252.465 73.046V74.252H241.485V68.78H242.961V73.046H252.465ZM242.853 79.22V82.73H252.555V83.936H241.377V79.22H242.853ZM239.505 76.412H254.139V77.6H239.505V76.412ZM268.729 75.26L268.891 76.448C266.677 76.898 264.769 77.006 261.385 77.006H260.125V69.59H267.271V70.778H261.601V75.8C264.787 75.8 266.623 75.674 268.729 75.26ZM263.347 78.698V82.766H272.635V83.972H261.871V78.698H263.347ZM271.915 72.974H274.309V74.198H271.915V79.868H270.439V68.186H271.915V72.974ZM289.302 73.856L288.744 75.008C286.296 74.594 283.92 73.226 282.894 71.372C281.904 73.262 279.51 74.63 277.026 75.044L276.45 73.892C279.312 73.46 282.138 71.552 282.138 69.392V68.6H283.65V69.392C283.65 71.498 286.494 73.424 289.302 73.856ZM278.898 79.328V82.766H288.6V83.972H277.422V79.328H278.898ZM275.55 76.412H290.202V77.6H283.74V80.858H282.264V77.6H275.55V76.412ZM301.36 70.166V71.354H291.838V70.166H295.852V68.186H297.328V70.166H301.36ZM294.142 75.242C294.142 76.376 295.132 77.096 296.59 77.096C298.048 77.096 299.056 76.376 299.056 75.242C299.056 74.126 298.048 73.406 296.59 73.406C295.132 73.406 294.142 74.126 294.142 75.242ZM300.46 75.242C300.46 77.06 298.876 78.248 296.59 78.248C294.304 78.248 292.738 77.06 292.738 75.242C292.738 73.442 294.304 72.254 296.59 72.254C298.876 72.254 300.46 73.442 300.46 75.242ZM295.744 79.346V82.766H305.032V83.972H294.268V79.346H295.744ZM304.312 73.514H306.688V74.756H304.312V80.3H302.836V68.186H304.312V73.514ZM312.962 74.054L323.006 73.64C323.042 72.794 323.042 72.02 323.042 71.282V70.958H313.394V69.752H324.5V71.282C324.5 73.262 324.5 75.476 323.816 78.788L322.358 78.608C322.664 77.168 322.826 75.908 322.934 74.792L313.178 75.314L312.962 74.054ZM318.812 80.93H326.246V82.136H311.648V80.93H317.336V76.736H318.812V80.93ZM330.133 70.94V79.13C332.995 79.13 334.885 79.022 337.063 78.608L337.243 79.832C334.903 80.264 332.959 80.372 329.899 80.372H328.657V69.716H336.001V70.94H330.133ZM339.673 68.186H341.149V84.368H339.673V75.26H335.047V74.036H339.673V68.186ZM344.91 69.914H352.29C352.29 74.504 350.184 78.662 344.964 81.272L344.154 80.12C348.276 78.05 350.49 74.954 350.832 71.138H344.91V69.914ZM359.058 74.738V75.962H356.466V84.332H354.99V68.186H356.466V74.738H359.058ZM368.212 79.382C369.76 79.382 370.858 77.69 370.858 75.062C370.858 72.452 369.76 70.76 368.212 70.76C366.646 70.76 365.548 72.452 365.548 75.062C365.548 77.69 366.646 79.382 368.212 79.382ZM368.212 69.428C370.588 69.428 372.262 71.624 372.262 75.062C372.262 78.5 370.588 80.696 368.212 80.696C365.836 80.696 364.144 78.5 364.144 75.062C364.144 71.624 365.836 69.428 368.212 69.428ZM378.994 74.63V75.872H376.33V84.332H374.854V68.204H376.33V74.63H378.994ZM393.356 68.204V79.922H391.88V68.204H393.356ZM390.134 74.9L390.332 76.124C387.686 76.646 385.346 76.844 382.412 76.844H381.098V69.392H382.592V75.602C385.364 75.602 387.668 75.404 390.134 74.9ZM384.284 82.766H393.842V83.972H382.808V78.752H384.284V82.766ZM413.76 72.83L413.256 73.946C410.7 73.604 408.288 72.47 407.28 70.724C406.254 72.47 403.824 73.604 401.268 73.946L400.764 72.83C403.698 72.506 406.524 70.886 406.524 68.906V68.294H408.036V68.906C408.036 70.886 410.844 72.506 413.76 72.83ZM403.212 81.362V83H413.184V84.152H401.772V80.282H411.24V78.77H401.718V77.654H412.698V81.362H403.212ZM399.954 74.972H414.57V76.16H399.954V74.972ZM417.125 69.932H424.685C424.685 74.594 422.543 78.698 417.179 81.326L416.387 80.12C420.725 78.05 422.885 74.954 423.191 71.12H417.125V69.932ZM427.943 68.186H429.419V84.332H427.943V68.186ZM440.415 81.128H447.021V82.334H432.351V81.128H438.921V78.086H434.187V73.1H443.763V70.58H434.151V69.374H445.203V74.288H435.645V76.898H445.581V78.086H440.415V81.128ZM455.858 69.788C453.392 69.788 451.754 70.562 451.754 71.84C451.754 73.1 453.392 73.874 455.858 73.874C458.342 73.874 459.962 73.1 459.962 71.84C459.962 70.562 458.342 69.788 455.858 69.788ZM455.858 75.08C452.438 75.08 450.206 73.838 450.206 71.84C450.206 69.842 452.438 68.6 455.858 68.6C459.278 68.6 461.51 69.842 461.51 71.84C461.51 73.838 459.278 75.08 455.858 75.08ZM451.898 79.256V82.748H461.582V83.972H450.422V79.256H451.898ZM448.55 76.376H463.184V77.582H456.74V80.84H455.246V77.582H448.55V76.376ZM477 72.65H480.24V68.204H481.734V80.03H480.24V73.856H477V72.65ZM477.954 76.448L477.216 77.6C475.416 76.952 474.03 75.602 473.328 73.946C472.626 75.782 471.15 77.276 469.26 77.96L468.486 76.808C470.88 75.944 472.554 73.802 472.554 71.516V70.706H468.954V69.5H477.576V70.706H474.03V71.498C474.03 73.604 475.614 75.62 477.954 76.448ZM472.896 82.766H482.184V83.972H471.402V78.986H472.896V82.766ZM494.045 76.304L493.307 77.474C491.489 76.808 490.085 75.458 489.365 73.766C488.699 75.674 487.259 77.15 485.333 77.87L484.559 76.7C487.025 75.818 488.591 73.658 488.591 71.156V69.158H490.067V71.192C490.067 73.406 491.669 75.458 494.045 76.304ZM488.627 78.968V82.766H497.861V83.972H487.151V78.968H488.627ZM497.159 73.136H499.535V74.36H497.159V80.102H495.683V68.168H497.159V73.136ZM514.077 68.204V79.994H512.601V68.204H514.077ZM502.647 73.28C502.647 74.882 503.835 75.998 505.401 75.998C507.003 75.998 508.191 74.882 508.191 73.28C508.191 71.714 507.003 70.598 505.401 70.598C503.835 70.598 502.647 71.714 502.647 73.28ZM509.631 73.28C509.631 75.62 507.813 77.276 505.401 77.276C503.007 77.276 501.207 75.62 501.207 73.28C501.207 70.958 503.007 69.32 505.401 69.32C507.813 69.32 509.631 70.958 509.631 73.28ZM505.167 82.766H514.563V83.972H503.691V78.788H505.167V82.766ZM524.318 69.572C521.672 69.572 520.16 70.184 520.16 71.264C520.16 72.344 521.672 72.956 524.318 72.956C526.964 72.956 528.476 72.344 528.476 71.264C528.476 70.184 526.964 69.572 524.318 69.572ZM524.318 74.054C520.772 74.054 518.648 73.082 518.648 71.264C518.648 69.446 520.772 68.456 524.318 68.456C527.864 68.456 529.988 69.446 529.988 71.264C529.988 73.082 527.864 74.054 524.318 74.054ZM520.268 81.362V83H530.24V84.152H518.828V80.282H528.296V78.842H518.774V77.726H529.754V81.362H520.268ZM517.01 75.152H531.626V76.34H517.01V75.152ZM542.652 71.066V73.118C542.652 75.854 544.596 78.644 546.972 79.652L546.144 80.84C544.272 79.976 542.688 78.122 541.914 75.908C541.176 78.266 539.592 80.3 537.756 81.236L536.892 80.048C539.214 78.95 541.176 75.908 541.176 73.118V71.066H537.432V69.842H546.45V71.066H542.652ZM548.628 68.204H550.104V84.332H548.628V68.204ZM562.666 70.004V71.192H553.144V70.004H557.158V68.042H558.634V70.004H562.666ZM555.448 74.846C555.448 75.908 556.42 76.592 557.896 76.592C559.372 76.592 560.362 75.908 560.362 74.846C560.362 73.802 559.372 73.118 557.896 73.118C556.42 73.118 555.448 73.802 555.448 74.846ZM561.766 74.846C561.766 76.592 560.2 77.708 557.896 77.708C555.592 77.708 554.044 76.592 554.044 74.846C554.044 73.118 555.592 72.002 557.896 72.002C560.2 72.002 561.766 73.118 561.766 74.846ZM560.56 83.18C562.918 83.18 564.358 82.568 564.358 81.524C564.358 80.48 562.918 79.868 560.56 79.868C558.202 79.868 556.762 80.48 556.762 81.524C556.762 82.568 558.202 83.18 560.56 83.18ZM560.56 78.734C563.8 78.734 565.816 79.742 565.816 81.524C565.816 83.288 563.8 84.314 560.56 84.314C557.302 84.314 555.304 83.288 555.304 81.524C555.304 79.742 557.302 78.734 560.56 78.734ZM567.958 72.182H565.618V74.414H567.958V75.638H565.618V78.572H564.142V68.186H565.618V70.976H567.958V72.182ZM578.865 69.842V71.03H569.343V69.842H573.357V68.024H574.833V69.842H578.865ZM571.647 74.612C571.647 75.674 572.619 76.322 574.095 76.322C575.571 76.322 576.561 75.674 576.561 74.612C576.561 73.568 575.571 72.902 574.095 72.902C572.619 72.902 571.647 73.568 571.647 74.612ZM577.965 74.612C577.965 76.34 576.399 77.438 574.095 77.438C571.791 77.438 570.243 76.34 570.243 74.612C570.243 72.902 571.791 71.804 574.095 71.804C576.399 71.804 577.965 72.902 577.965 74.612ZM580.359 82.928V81.146H573.123V82.928H580.359ZM580.359 79.994V78.284H581.817V84.116H571.665V78.284H573.123V79.994H580.359ZM584.211 72.29V73.532H581.817V77.564H580.341V68.186H581.817V72.29H584.211ZM587.972 69.752V78.896C590.402 78.896 592.904 78.68 595.586 78.14L595.748 79.4C592.94 79.976 590.402 80.156 587.828 80.156H586.496V69.752H587.972ZM597.242 68.186H598.718V84.314H597.242V68.186ZM603.846 70.958V79.076C606.708 79.076 608.778 78.95 611.118 78.536L611.28 79.76C608.814 80.228 606.69 80.336 603.648 80.336H602.37V69.734H609.876V70.958H603.846ZM616.77 74.558V75.782H614.106V84.368H612.63V68.186H614.106V74.558H616.77ZM619.433 83.234C618.785 83.234 618.245 82.73 618.245 81.992C618.245 81.236 618.785 80.714 619.433 80.714C620.081 80.714 620.621 81.236 620.621 81.992C620.621 82.73 620.081 83.234 619.433 83.234ZM111.742 106.83L111.238 107.946C108.682 107.604 106.27 106.47 105.262 104.724C104.236 106.47 101.806 107.604 99.25 107.946L98.746 106.83C101.68 106.506 104.506 104.886 104.506 102.906V102.294H106.018V102.906C106.018 104.886 108.826 106.506 111.742 106.83ZM101.194 115.362V117H111.166V118.152H99.754V114.282H109.222V112.77H99.7V111.654H110.68V115.362H101.194ZM97.936 108.972H112.552V110.16H97.936V108.972ZM115.107 103.932H122.667C122.667 108.594 120.525 112.698 115.161 115.326L114.369 114.12C118.707 112.05 120.867 108.954 121.173 105.12H115.107V103.932ZM125.925 102.186H127.401V118.332H125.925V102.186ZM138.523 105.03V106.992C138.523 109.386 139.063 112.41 141.025 113.886L140.089 114.948C138.901 114.03 138.217 112.536 137.821 110.88C137.461 112.554 136.795 114.138 135.571 115.092C134.347 114.12 133.681 112.536 133.321 110.862C132.907 112.5 132.223 114.012 131.071 114.948L130.135 113.886C132.079 112.374 132.619 109.278 132.619 106.992V105.03H130.639V103.824H135.211V105.03H134.023V106.992C134.023 108.774 134.257 111.366 135.571 113.112C136.867 111.402 137.119 108.846 137.119 106.992V105.03H135.913V103.824H140.377V105.03H138.523ZM145.381 108.594V109.836H143.149V118.332H141.673V102.204H143.149V108.594H145.381ZM147.504 103.932H155.064C155.064 108.594 152.922 112.698 147.558 115.326L146.766 114.12C151.104 112.05 153.264 108.954 153.57 105.12H147.504V103.932ZM158.322 102.186H159.798V118.332H158.322V102.186ZM175.69 107.046V108.252H164.71V102.78H166.186V107.046H175.69ZM166.078 113.22V116.73H175.78V117.936H164.602V113.22H166.078ZM162.73 110.412H177.364V111.6H162.73V110.412ZM183.764 103.122H190.928C190.928 107.226 188.642 110.214 183.62 111.744L183.062 110.574C185.672 109.782 187.418 108.63 188.39 107.154L183.206 107.55L182.954 106.344L188.984 106.074C189.2 105.516 189.326 104.94 189.38 104.31H183.764V103.122ZM186.932 113.544V116.928H194.456V113.544H186.932ZM185.474 118.116V112.374H195.914V118.116H185.474ZM194.42 102.204H195.914V111.51H194.42V107.676H190.892V106.452H194.42V102.204ZM208.117 108.63V104.292H204.103V108.63H208.117ZM202.627 108.63V104.292H200.197V103.086H212.023V104.292H209.593V108.63H211.969V109.836H200.251V108.63H202.627ZM213.427 111.69V112.896H209.665V118.332H208.189V112.896H204.085V118.332H202.609V112.896H198.793V111.69H213.427ZM217.224 109.386V113.256C220.14 113.256 222.012 113.148 224.208 112.752L224.37 113.958C222.03 114.372 220.068 114.462 216.99 114.462H215.748V103.644H223.218V104.868H217.224V108.198H222.516V109.386H217.224ZM226.836 102.168H228.312V118.35H226.836V109.494H223.506V108.27H226.836V102.168ZM246.16 104.382V104.202H236.62V103.014H247.618V104.382C247.618 105.678 247.618 106.992 247.168 108.648L245.728 108.486C246.16 106.83 246.16 105.642 246.16 104.382ZM242.11 117.162C244.648 117.162 246.268 116.478 246.268 115.362C246.268 114.21 244.648 113.526 242.11 113.526C239.59 113.526 237.97 114.21 237.97 115.362C237.97 116.478 239.59 117.162 242.11 117.162ZM242.11 112.392C245.548 112.392 247.744 113.49 247.744 115.362C247.744 117.198 245.548 118.314 242.11 118.314C238.672 118.314 236.494 117.198 236.494 115.362C236.494 113.49 238.672 112.392 242.11 112.392ZM242.344 109.71H249.436V110.898H234.91V109.71H240.868V106.614H242.344V109.71ZM260.648 103.896V105.084H251.126V103.896H255.14V102.096H256.616V103.896H260.648ZM253.43 108.828C253.43 109.908 254.402 110.61 255.878 110.61C257.354 110.61 258.344 109.908 258.344 108.828C258.344 107.766 257.354 107.064 255.878 107.064C254.402 107.064 253.43 107.766 253.43 108.828ZM259.748 108.828C259.748 110.61 258.182 111.744 255.878 111.744C253.592 111.744 252.026 110.61 252.026 108.828C252.026 107.064 253.592 105.912 255.878 105.912C258.182 105.912 259.748 107.064 259.748 108.828ZM253.124 114.372V113.166H263.6V118.35H262.124V114.372H253.124ZM265.994 106.65V107.874H263.6V112.284H262.124V102.204H263.6V106.65H265.994ZM274.561 103.572C271.915 103.572 270.403 104.184 270.403 105.264C270.403 106.344 271.915 106.956 274.561 106.956C277.207 106.956 278.719 106.344 278.719 105.264C278.719 104.184 277.207 103.572 274.561 103.572ZM274.561 108.054C271.015 108.054 268.891 107.082 268.891 105.264C268.891 103.446 271.015 102.456 274.561 102.456C278.107 102.456 280.231 103.446 280.231 105.264C280.231 107.082 278.107 108.054 274.561 108.054ZM270.511 115.362V117H280.483V118.152H269.071V114.282H278.539V112.842H269.017V111.726H279.997V115.362H270.511ZM267.253 109.152H281.869V110.34H267.253V109.152ZM288.089 103.932H295.649C295.649 108.594 293.507 112.698 288.143 115.326L287.351 114.12C291.689 112.05 293.849 108.954 294.155 105.12H288.089V103.932ZM298.907 102.186H300.383V118.332H298.907V102.186ZM310.029 110.16V107.208H305.457V110.16H310.029ZM311.469 103.356V111.348H303.999V103.356H305.457V106.056H310.029V103.356H311.469ZM307.293 112.914V116.766H316.581V117.972H305.817V112.914H307.293ZM315.861 107.082H318.237V108.324H315.861V114.048H314.385V102.204H315.861V107.082ZM326.822 103.194C330.17 103.194 332.69 104.976 332.69 107.658C332.69 110.358 330.17 112.122 326.822 112.122C323.474 112.122 320.954 110.358 320.954 107.658C320.954 104.976 323.474 103.194 326.822 103.194ZM326.822 104.4C324.284 104.4 322.358 105.714 322.358 107.658C322.358 109.62 324.284 110.916 326.822 110.916C329.378 110.916 331.286 109.62 331.286 107.658C331.286 105.714 329.378 104.4 326.822 104.4ZM319.514 114.966H334.184V116.19H319.514V114.966ZM343.776 115.128H350.382V116.334H335.712V115.128H342.282V112.086H337.548V107.1H347.124V104.58H337.512V103.374H348.564V108.288H339.006V110.898H348.942V112.086H343.776V115.128ZM362.038 110.178H364.864V102.474H366.25V112.14H364.864V111.24H362.038V110.178ZM359.842 103.788C358.528 103.788 357.682 104.31 357.682 105.138C357.682 105.966 358.528 106.488 359.842 106.488C361.156 106.488 362.02 105.966 362.02 105.138C362.02 104.31 361.156 103.788 359.842 103.788ZM359.842 107.55C357.754 107.55 356.35 106.632 356.35 105.138C356.35 103.662 357.754 102.744 359.842 102.744C361.948 102.744 363.352 103.662 363.352 105.138C363.352 106.632 361.948 107.55 359.842 107.55ZM359.176 112.14V109.53C357.88 109.602 356.656 109.602 355.666 109.602L355.486 108.45C357.718 108.45 361.318 108.414 364 107.982L364.108 109.008C363.01 109.224 361.786 109.368 360.58 109.458V112.14H359.176ZM367.744 116.946V115.416H359.788V116.946H367.744ZM367.744 114.282V112.77H369.184V118.116H358.33V112.77H359.788V114.282H367.744ZM367.78 102.186H369.184V112.176H367.78V102.186ZM372.189 120.42L371.793 119.448C372.927 118.944 373.593 118.062 373.593 117C373.521 117.018 373.467 117.018 373.395 117.018C372.765 117.018 372.189 116.622 372.189 115.866C372.189 115.164 372.765 114.714 373.431 114.714C374.295 114.714 374.817 115.452 374.817 116.658C374.817 118.386 373.809 119.736 372.189 120.42ZM381.602 106.722C381.602 108.162 382.592 109.188 383.942 109.188C385.274 109.188 386.264 108.162 386.264 106.722C386.264 105.282 385.274 104.274 383.942 104.274C382.592 104.274 381.602 105.282 381.602 106.722ZM387.614 106.722C387.614 108.9 386.066 110.394 383.942 110.394C381.8 110.394 380.27 108.9 380.27 106.722C380.27 104.562 381.8 103.086 383.942 103.086C386.066 103.086 387.614 104.562 387.614 106.722ZM392.276 116.91V114.822H384.608V116.91H392.276ZM392.276 113.652V111.708H393.734V118.116H383.132V111.708H384.608V113.652H392.276ZM392.312 102.204H393.734V111.006H392.312V107.118H390.26V110.88H388.856V102.51H390.26V105.894H392.312V102.204ZM396.703 120.42L396.307 119.448C397.441 118.944 398.107 118.062 398.107 117C398.035 117.018 397.981 117.018 397.909 117.018C397.279 117.018 396.703 116.622 396.703 115.866C396.703 115.164 397.279 114.714 397.945 114.714C398.809 114.714 399.331 115.452 399.331 116.658C399.331 118.386 398.323 119.736 396.703 120.42ZM413.568 108.792V102.618H414.972V117.522H413.568V109.98H410.256C409.284 111.852 407.736 113.526 405.504 114.858L404.64 113.796C408.096 111.726 409.824 108.828 410.094 105.444H405.324V104.238H411.552C411.552 105.822 411.318 107.352 410.778 108.792H413.568ZM416.934 102.186H418.338V118.332H416.934V102.186ZM432.593 102.204H434.069V111.438H432.593V102.204ZM423.629 112.302H434.069V118.116H423.629V112.302ZM432.629 113.472H425.069V116.928H432.629V113.472ZM425.393 103.05C427.841 103.05 429.623 104.58 429.623 106.812C429.623 109.044 427.841 110.574 425.393 110.574C422.963 110.574 421.199 109.044 421.199 106.812C421.199 104.58 422.963 103.05 425.393 103.05ZM425.393 104.274C423.791 104.274 422.639 105.336 422.639 106.812C422.639 108.306 423.791 109.35 425.393 109.35C427.013 109.35 428.183 108.306 428.183 106.812C428.183 105.336 427.013 104.274 425.393 104.274ZM437.415 120.42L437.019 119.448C438.153 118.944 438.819 118.062 438.819 117C438.747 117.018 438.693 117.018 438.621 117.018C437.991 117.018 437.415 116.622 437.415 115.866C437.415 115.164 437.991 114.714 438.657 114.714C439.521 114.714 440.043 115.452 440.043 116.658C440.043 118.386 439.035 119.736 437.415 120.42ZM458.582 102.204V113.994H457.106V102.204H458.582ZM447.152 107.28C447.152 108.882 448.34 109.998 449.906 109.998C451.508 109.998 452.696 108.882 452.696 107.28C452.696 105.714 451.508 104.598 449.906 104.598C448.34 104.598 447.152 105.714 447.152 107.28ZM454.136 107.28C454.136 109.62 452.318 111.276 449.906 111.276C447.512 111.276 445.712 109.62 445.712 107.28C445.712 104.958 447.512 103.32 449.906 103.32C452.318 103.32 454.136 104.958 454.136 107.28ZM449.672 116.766H459.068V117.972H448.196V112.788H449.672V116.766ZM472.819 104.382V104.202H463.279V103.014H474.277V104.382C474.277 105.678 474.277 106.992 473.827 108.648L472.387 108.486C472.819 106.83 472.819 105.642 472.819 104.382ZM468.769 117.162C471.307 117.162 472.927 116.478 472.927 115.362C472.927 114.21 471.307 113.526 468.769 113.526C466.249 113.526 464.629 114.21 464.629 115.362C464.629 116.478 466.249 117.162 468.769 117.162ZM468.769 112.392C472.207 112.392 474.403 113.49 474.403 115.362C474.403 117.198 472.207 118.314 468.769 118.314C465.331 118.314 463.153 117.198 463.153 115.362C463.153 113.49 465.331 112.392 468.769 112.392ZM469.003 109.71H476.095V110.898H461.569V109.71H467.527V106.614H469.003V109.71ZM483.491 105.066V107.118C483.491 109.854 485.435 112.644 487.811 113.652L486.983 114.84C485.111 113.976 483.527 112.122 482.753 109.908C482.015 112.266 480.431 114.3 478.595 115.236L477.731 114.048C480.053 112.95 482.015 109.908 482.015 107.118V105.066H478.271V103.842H487.289V105.066H483.491ZM489.467 102.204H490.943V118.332H489.467V102.204ZM506.872 106.686V107.874H495.91V102.528H497.386V106.686H506.872ZM501.22 117.126C503.74 117.126 505.252 116.46 505.252 115.344C505.252 114.192 503.758 113.544 501.22 113.544C498.682 113.544 497.188 114.192 497.188 115.344C497.188 116.46 498.682 117.126 501.22 117.126ZM501.22 112.392C504.658 112.392 506.746 113.454 506.746 115.344C506.746 117.216 504.658 118.278 501.22 118.278C497.782 118.278 495.694 117.216 495.694 115.344C495.694 113.454 497.782 112.392 501.22 112.392ZM493.948 109.746H508.546V110.952H493.948V109.746ZM526.7 107.136V108.324H515.63V102.834H526.592V104.022H517.106V107.136H526.7ZM521.084 117.162C523.604 117.162 525.116 116.532 525.116 115.398C525.116 114.264 523.622 113.634 521.084 113.634C518.546 113.634 517.052 114.264 517.052 115.398C517.052 116.532 518.546 117.162 521.084 117.162ZM521.084 112.482C524.522 112.482 526.61 113.526 526.61 115.398C526.61 117.27 524.522 118.314 521.084 118.314C517.646 118.314 515.558 117.27 515.558 115.398C515.558 113.526 517.646 112.482 521.084 112.482ZM513.794 109.872H528.41V111.096H513.794V109.872ZM537.283 103.572C534.637 103.572 533.125 104.184 533.125 105.264C533.125 106.344 534.637 106.956 537.283 106.956C539.929 106.956 541.441 106.344 541.441 105.264C541.441 104.184 539.929 103.572 537.283 103.572ZM537.283 108.054C533.737 108.054 531.613 107.082 531.613 105.264C531.613 103.446 533.737 102.456 537.283 102.456C540.829 102.456 542.953 103.446 542.953 105.264C542.953 107.082 540.829 108.054 537.283 108.054ZM533.233 115.362V117H543.205V118.152H531.793V114.282H541.261V112.842H531.739V111.726H542.719V115.362H533.233ZM529.975 109.152H544.591V110.34H529.975V109.152ZM107.53 137.896V139.084H98.008V137.896H102.022V136.042H103.498V137.896H107.53ZM100.312 142.774C100.312 143.836 101.284 144.538 102.76 144.538C104.236 144.538 105.226 143.836 105.226 142.774C105.226 141.712 104.236 141.01 102.76 141.01C101.284 141.01 100.312 141.712 100.312 142.774ZM106.63 142.774C106.63 144.52 105.064 145.636 102.76 145.636C100.456 145.636 98.908 144.52 98.908 142.774C98.908 141.01 100.456 139.894 102.76 139.894C105.064 139.894 106.63 141.01 106.63 142.774ZM101.788 147.994V150.928H109.024V147.994H101.788ZM100.348 152.116V146.824H110.482V152.116H100.348ZM112.876 140.488V141.712H110.482V145.906H109.006V136.204H110.482V140.488H112.876ZM114.531 138.112H118.113C118.113 141.568 117.663 145.366 115.341 148.498L114.189 147.85C116.187 145.276 116.745 142.324 116.853 139.318H114.531V138.112ZM123.531 142.522V136.6H124.917V151.504H123.531V143.728H121.281C120.903 145.744 120.219 147.778 118.923 149.542L117.771 148.876C119.967 145.996 120.345 142.36 120.399 139.318H118.653V138.112H121.677C121.677 139.444 121.641 140.956 121.461 142.522H123.531ZM126.519 136.186H127.923V152.314H126.519V136.186ZM139.381 147.094V142.828H135.997V147.094H139.381ZM139.381 141.658V137.716H140.767V148.282H134.593V137.716H135.997V141.658H139.381ZM146.329 136.186H147.733V152.332H146.329V143.782H144.151V151.54H142.765V136.546H144.151V142.576H146.329V136.186ZM157.487 138.022C155.039 138.022 153.365 138.94 153.365 140.362C153.365 141.802 155.039 142.72 157.487 142.72C159.953 142.72 161.627 141.802 161.627 140.362C161.627 138.94 159.953 138.022 157.487 138.022ZM157.487 143.908C154.139 143.908 151.853 142.54 151.853 140.362C151.853 138.202 154.139 136.834 157.487 136.834C160.853 136.834 163.139 138.202 163.139 140.362C163.139 142.54 160.853 143.908 157.487 143.908ZM164.831 145.438V146.662H158.225V152.35H156.749V146.662H150.215V145.438H164.831ZM177.808 139.408V139.012H167.962V137.806H179.284V139.408C179.284 141.406 179.284 143.62 178.672 146.878L177.196 146.716C177.808 143.62 177.808 141.352 177.808 139.408ZM173.578 148.858H181.03V150.064H166.432V148.858H172.102V143.08H173.578V148.858ZM188.384 137.752V147.004C190.706 147.004 193.1 146.806 195.71 146.284L195.89 147.508C193.136 148.066 190.67 148.246 188.204 148.246H186.926V137.752H188.384ZM201.29 142.63V143.854H198.698V152.332H197.222V136.186H198.698V142.63H201.29ZM215.436 141.604V142.81H204.348V137.014H205.842V141.604H215.436ZM217.128 145.24V146.446H210.486V152.332H209.01V146.446H202.458V145.24H217.128ZM231.617 141.046V142.252H220.637V136.78H222.113V141.046H231.617ZM222.005 147.22V150.73H231.707V151.936H220.529V147.22H222.005ZM218.657 144.412H233.291V145.6H218.657V144.412ZM244.299 139.066V141.118C244.299 143.854 246.243 146.644 248.619 147.652L247.791 148.84C245.919 147.976 244.335 146.122 243.561 143.908C242.823 146.266 241.239 148.3 239.403 149.236L238.539 148.048C240.861 146.95 242.823 143.908 242.823 141.118V139.066H239.079V137.842H248.097V139.066H244.299ZM250.275 136.204H251.751V152.332H250.275V136.204ZM264.476 143.782L263.738 144.952C261.884 144.286 260.426 142.9 259.706 141.118C259.004 143.026 257.528 144.52 255.638 145.24L254.882 144.07C257.312 143.188 258.95 140.938 258.95 138.526V136.942H260.426V138.526C260.426 140.848 262.082 142.954 264.476 143.782ZM257.186 147.922V146.734H267.986V152.35H266.51V147.922H257.186ZM266.51 136.204H267.986V145.906H266.51V136.204ZM275.952 142.774L275.43 141.604C278.256 141.28 280.83 139.894 280.956 138.112H275.952V136.924H287.886V138.112H282.864C282.99 139.894 285.564 141.28 288.39 141.604L287.868 142.774C285.222 142.45 282.81 141.262 281.91 139.48C281.028 141.262 278.598 142.45 275.952 142.774ZM285.924 149.47C285.924 148.39 284.412 147.778 281.892 147.778C279.354 147.778 277.86 148.39 277.86 149.47C277.86 150.55 279.354 151.18 281.892 151.18C284.412 151.18 285.924 150.55 285.924 149.47ZM289.2 144.934H282.648V146.662C285.654 146.806 287.418 147.796 287.418 149.47C287.418 151.306 285.348 152.314 281.91 152.314C278.454 152.314 276.366 151.306 276.366 149.47C276.366 147.796 278.148 146.806 281.154 146.662V144.934H274.602V143.746H289.2V144.934ZM300.574 143.494L299.836 144.664C297.982 144.016 296.506 142.648 295.768 140.902C295.066 142.774 293.572 144.268 291.664 144.97L290.908 143.818C293.356 142.936 295.012 140.776 295.012 138.4V136.834H296.488V138.4C296.488 140.686 298.18 142.702 300.574 143.494ZM295.048 147.472V150.928H302.608V147.472H295.048ZM293.608 152.116V146.302H304.048V152.116H293.608ZM302.572 136.204H304.048V145.384H302.572V136.204ZM319.952 144.61V138.994H315.938V144.61H319.952ZM314.462 144.61V138.994H311.96V137.806H323.93V138.994H321.428V144.61H323.894V145.816H311.996V144.61H314.462ZM310.664 149.038H325.298V150.262H310.664V149.038ZM334.909 149.128H341.515V150.334H326.845V149.128H333.415V146.086H328.681V141.1H338.257V138.58H328.645V137.374H339.697V142.288H330.139V144.898H340.075V146.086H334.909V149.128ZM349.721 140.344H352.151V136.546H353.555V145.942H352.151V141.55H349.721V140.344ZM350.981 144.16L350.243 145.294C348.767 144.646 347.705 143.476 347.147 142.072C346.589 143.638 345.473 144.97 343.907 145.672L343.133 144.538C345.221 143.638 346.409 141.55 346.409 139.624V138.706H343.439V137.5H350.603V138.706H347.831V139.606C347.831 141.388 348.965 143.296 350.981 144.16ZM345.833 147.976V146.788H356.687V152.35H355.211V147.976H345.833ZM355.265 136.204H356.687V146.068H355.265V136.204ZM372.22 144.898V146.086H361.132V137.59H372.058V138.778H362.626V141.172H371.698V142.342H362.626V144.898H372.22ZM359.242 149.038H373.894V150.244H359.242V149.038ZM379.472 145.708C378.824 145.708 378.284 145.186 378.284 144.466C378.284 143.71 378.824 143.188 379.472 143.188C380.12 143.188 380.66 143.71 380.66 144.466C380.66 145.186 380.12 145.708 379.472 145.708ZM399.102 144.304L398.436 145.528C395.988 144.97 393.468 143.242 392.442 140.866C391.416 143.224 388.896 144.952 386.466 145.528L385.8 144.304C388.626 143.746 391.668 141.316 391.668 138.562V137.32H393.216V138.562C393.216 141.316 396.276 143.764 399.102 144.304ZM385.188 148.948H399.822V150.172H385.188V148.948ZM403.601 143.386V147.256C406.517 147.256 408.389 147.148 410.585 146.752L410.747 147.958C408.407 148.372 406.445 148.462 403.367 148.462H402.125V137.644H409.595V138.868H403.601V142.198H408.893V143.386H403.601ZM413.213 136.168H414.689V152.35H413.213V143.494H409.883V142.27H413.213V136.168ZM420.087 138.958V147.094C423.201 147.094 425.235 147.004 427.611 146.554L427.773 147.796C425.289 148.246 423.183 148.354 419.925 148.354H418.629V137.716H426.261V138.958H420.087ZM429.321 136.186H430.797V152.368H429.321V136.186ZM444.757 151.18C447.277 151.18 448.771 150.55 448.771 149.416C448.771 148.282 447.277 147.652 444.757 147.652C442.201 147.652 440.707 148.282 440.707 149.416C440.707 150.55 442.201 151.18 444.757 151.18ZM444.757 146.5C448.177 146.5 450.265 147.544 450.265 149.416C450.265 151.288 448.177 152.332 444.757 152.332C441.301 152.332 439.213 151.288 439.213 149.416C439.213 147.544 441.301 146.5 444.757 146.5ZM445.495 144.16H452.065V145.348H437.449V144.16H444.019V142.288H439.285V136.924H450.247V138.112H440.761V141.1H450.355V142.288H445.495V144.16ZM457.95 147.382C459.498 147.382 460.596 145.69 460.596 143.062C460.596 140.452 459.498 138.76 457.95 138.76C456.384 138.76 455.286 140.452 455.286 143.062C455.286 145.69 456.384 147.382 457.95 147.382ZM457.95 137.428C460.326 137.428 462 139.624 462 143.062C462 146.5 460.326 148.696 457.95 148.696C455.574 148.696 453.882 146.5 453.882 143.062C453.882 139.624 455.574 137.428 457.95 137.428ZM468.732 142.63V143.872H466.068V152.332H464.592V136.204H466.068V142.63H468.732ZM472.259 143.44V147.22C474.905 147.22 477.281 147.094 480.107 146.644L480.251 147.85C477.335 148.336 474.887 148.444 472.115 148.444H470.783V142.252H476.723V138.886H470.729V137.68H478.217V143.44H472.259ZM481.619 136.168H483.095V152.35H481.619V136.168ZM497.817 136.204H499.293V144.862H497.817V136.204ZM488.889 145.654H490.347V147.634H497.835V145.654H499.293V152.116H488.889V145.654ZM490.347 148.786V150.928H497.835V148.786H490.347ZM490.617 136.96C493.065 136.96 494.847 138.472 494.847 140.668C494.847 142.9 493.065 144.394 490.617 144.394C488.187 144.394 486.423 142.9 486.423 140.668C486.423 138.472 488.187 136.96 490.617 136.96ZM490.617 138.184C489.015 138.184 487.863 139.21 487.863 140.668C487.863 142.144 489.015 143.17 490.617 143.17C492.255 143.17 493.407 142.144 493.407 140.668C493.407 139.21 492.255 138.184 490.617 138.184ZM504.728 137.752V146.896C507.158 146.896 509.66 146.68 512.342 146.14L512.504 147.4C509.696 147.976 507.158 148.156 504.584 148.156H503.252V137.752H504.728ZM513.998 136.186H515.474V152.314H513.998V136.186ZM520.602 138.958V147.076C523.464 147.076 525.534 146.95 527.874 146.536L528.036 147.76C525.57 148.228 523.446 148.336 520.404 148.336H519.126V137.734H526.632V138.958H520.602ZM533.526 142.558V143.782H530.862V152.368H529.386V136.186H530.862V142.558H533.526ZM536.189 151.234C535.541 151.234 535.001 150.73 535.001 149.992C535.001 149.236 535.541 148.714 536.189 148.714C536.837 148.714 537.377 149.236 537.377 149.992C537.377 150.73 536.837 151.234 536.189 151.234Z" fill="#A1A1A1"/>
<line y1="27.5" x2="720" y2="27.5" stroke="url(#paint0_linear_704_291)"/>
<line x1="52.5" y1="2.18557e-08" x2="52.5" y2="220" stroke="url(#paint1_linear_704_291)"/>
<line x1="668.5" y1="2.18557e-08" x2="668.5" y2="220" stroke="url(#paint2_linear_704_291)"/>
<line y1="191.5" x2="720" y2="191.5" stroke="url(#paint3_linear_704_291)"/>
<rect x="48" y="24" width="8" height="8" fill="#1F1F1F"/>
<rect x="664" y="24" width="8" height="8" fill="#1F1F1F"/>
<rect x="48" y="188" width="8" height="8" fill="#1F1F1F"/>
<rect x="664" y="188" width="8" height="8" fill="#1F1F1F"/>
<defs>
<linearGradient id="paint0_linear_704_291" x1="0" y1="28.5" x2="720" y2="28.5" gradientUnits="userSpaceOnUse">
<stop stop-color="#1F1F1F" stop-opacity="0"/>
<stop offset="0.2" stop-color="#1F1F1F"/>
<stop offset="0.8" stop-color="#1F1F1F"/>
<stop offset="1" stop-color="#1F1F1F" stop-opacity="0"/>
</linearGradient>
<linearGradient id="paint1_linear_704_291" x1="51.5" y1="-2.18557e-08" x2="51.5" y2="220" gradientUnits="userSpaceOnUse">
<stop stop-color="#1F1F1F" stop-opacity="0"/>
<stop offset="0.2" stop-color="#1F1F1F"/>
<stop offset="0.8" stop-color="#1F1F1F"/>
<stop offset="1" stop-color="#1F1F1F" stop-opacity="0"/>
</linearGradient>
<linearGradient id="paint2_linear_704_291" x1="667.5" y1="-2.18557e-08" x2="667.5" y2="220" gradientUnits="userSpaceOnUse">
<stop stop-color="#1F1F1F" stop-opacity="0"/>
<stop offset="0.2" stop-color="#1F1F1F"/>
<stop offset="0.8" stop-color="#1F1F1F"/>
<stop offset="1" stop-color="#1F1F1F" stop-opacity="0"/>
</linearGradient>
<linearGradient id="paint3_linear_704_291" x1="0" y1="192.5" x2="720" y2="192.5" gradientUnits="userSpaceOnUse">
<stop stop-color="#1F1F1F" stop-opacity="0"/>
<stop offset="0.2" stop-color="#1F1F1F"/>
<stop offset="0.8" stop-color="#1F1F1F"/>
<stop offset="1" stop-color="#1F1F1F" stop-opacity="0"/>
</linearGradient>
</defs>
</svg>
