<svg width="560" height="220" viewBox="0 0 560 220" fill="none" xmlns="http://www.w3.org/2000/svg">
<rect width="560" height="220" rx="16" fill="#0F0F0F"/>
<path d="M183.6 118.12C184.24 117.907 184.933 117.667 185.68 117.4C186.48 117.08 187.253 116.787 188 116.52C188.747 116.307 189.44 116.12 190.08 115.96C190.72 115.8 191.253 115.72 191.68 115.72C191.947 115.72 192.32 115.853 192.8 116.12C193.28 116.333 193.76 116.6 194.24 116.92C194.72 117.293 195.147 117.667 195.52 118.04C195.893 118.413 196.08 118.733 196.08 119C196.08 119.373 196 119.8 195.84 120.28C195.733 120.707 195.6 121.16 195.44 121.64C195.227 122.12 195.013 122.573 194.8 123C194.587 123.373 194.427 123.667 194.32 123.88L193.28 129H194.88C195.52 129 196.027 129.24 196.4 129.72C196.827 130.2 197.04 130.76 197.04 131.4C197.04 131.667 196.933 131.987 196.72 132.36C196.56 132.68 196.267 132.84 195.84 132.84H162V137.32C162 138.387 162.347 139.213 163.04 139.8C163.733 140.387 164.693 140.68 165.92 140.68H185.76C187.2 140.68 188.347 140.6 189.2 140.44C190.053 140.28 190.72 139.933 191.2 139.4C191.467 139.133 191.627 138.893 191.68 138.68C191.733 138.413 191.733 138.173 191.68 137.96L192.24 136.68C192.827 136.68 193.413 136.733 194 136.84C194.64 136.893 195.28 137.133 195.92 137.56C196.827 138.093 197.467 138.947 197.84 140.12C198.267 141.24 198.293 142.173 197.92 142.92C197.6 143.613 197.093 144.04 196.4 144.2C195.707 144.413 194.373 144.52 192.4 144.52H156C154.933 144.52 154.08 144.173 153.44 143.48C152.8 142.787 152.48 142.04 152.48 141.24V132.44C152.48 131.8 152.4 131.373 152.24 131.16C152.133 130.893 151.947 130.707 151.68 130.6C151.307 130.44 150.933 130.36 150.56 130.36C150.187 130.36 149.947 130.093 149.84 129.56C149.733 129.133 149.813 128.787 150.08 128.52C150.347 128.253 150.72 128.04 151.2 127.88C151.68 127.773 152.187 127.72 152.72 127.72C153.307 127.667 153.813 127.64 154.24 127.64C155.573 127.64 157.04 127.72 158.64 127.88C160.24 128.04 161.653 128.413 162.88 129H184.64V121.96H164.72C162.587 121.96 161.013 122.093 160 122.36C159.04 122.573 158.187 122.813 157.44 123.08C157.013 123.187 156.64 123.32 156.32 123.48C156 123.587 155.627 123.64 155.2 123.64C154.933 123.64 154.427 123.453 153.68 123.08C152.987 122.707 152.32 122.04 151.68 121.08C151.307 120.6 150.933 119.96 150.56 119.16C150.187 118.307 149.947 117.64 149.84 117.16L152.08 116.6C152.72 117.133 153.6 117.533 154.72 117.8C155.84 118.067 156.827 118.2 157.68 118.2L183.6 118.12ZM171.36 89.08C167.733 91.64 164.373 93.6933 161.28 95.24C158.187 96.7333 155.12 97.9867 152.08 99C150.907 99.4267 149.627 99.64 148.24 99.64C147.813 99.64 147.44 99.6133 147.12 99.56C146.853 99.4533 146.613 99.3467 146.4 99.24C146.187 99.1333 146 99.0267 145.84 98.92L146.16 96.44C146.427 96.4933 146.747 96.5467 147.12 96.6C147.44 96.6533 147.787 96.68 148.16 96.68C148.587 96.6267 149.04 96.52 149.52 96.36C151.067 95.8267 153.013 94.8133 155.36 93.32C157.707 91.8267 160.293 89.5867 163.12 86.6C165.147 84.4133 166.693 82.6 167.76 81.16C168.88 79.72 169.493 78.4133 169.6 77.24C169.76 76.0133 169.253 74.5467 168.08 72.84L170.56 71.4C171.787 71.8267 173.147 72.44 174.64 73.24C176.187 74.04 177.573 74.9733 178.8 76.04C179.707 76.7867 180.213 77.3467 180.32 77.72C180.48 78.0933 180.533 78.5733 180.48 79.16C180.427 80.7067 179.573 82.3067 177.92 83.96C178.987 84.5467 180.08 85.16 181.2 85.8C182.373 86.44 183.493 87.0267 184.56 87.56C185.627 88.0933 186.587 88.5467 187.44 88.92C188.293 89.2933 188.96 89.5067 189.44 89.56C190.187 89.72 190.8 89.7467 191.28 89.64C191.813 89.48 192.213 89.3467 192.48 89.24L194.72 89.56C194.987 89.88 195.387 90.3867 195.92 91.08C196.453 91.7733 196.853 92.4667 197.12 93.16C197.333 93.7467 197.547 94.4133 197.76 95.16C197.973 95.8533 198.133 96.52 198.24 97.16C198.293 97.8533 198.24 98.4667 198.08 99C197.973 99.5333 197.68 99.88 197.2 100.04C196.773 100.2 196.293 100.2 195.76 100.04C195.227 99.8267 194.693 99.56 194.16 99.24C193.573 98.9733 193.013 98.68 192.48 98.36C192 97.9867 191.573 97.6667 191.2 97.4C190.24 96.76 189.067 96.04 187.68 95.24C186.293 94.3867 184.827 93.48 183.28 92.52C181.733 91.6133 180.16 90.7067 178.56 89.8C177.013 88.84 175.547 87.9333 174.16 87.08C173.733 87.4 173.28 87.72 172.8 88.04C172.373 88.36 171.893 88.7067 171.36 89.08ZM200.24 110.84C199.547 110.787 198.693 110.76 197.68 110.76C196.72 110.76 195.68 110.76 194.56 110.76H155.36C153.76 110.76 152.427 110.84 151.36 111C150.293 111.107 149.387 111.24 148.64 111.4C147.893 111.56 147.253 111.747 146.72 111.96C146.24 112.173 145.813 112.36 145.44 112.52C145.12 112.68 144.72 112.867 144.24 113.08C143.76 113.293 143.307 113.4 142.88 113.4C142.613 113.4 142.08 113.24 141.28 112.92C140.48 112.6 139.68 111.96 138.88 111C137.92 109.933 137.2 108.84 136.72 107.72C136.24 106.6 135.867 105.64 135.6 104.84L138.24 103.64C138.347 103.747 138.453 103.827 138.56 103.88C138.72 103.933 138.853 104.013 138.96 104.12C139.6 104.493 140.347 104.867 141.2 105.24C142.107 105.613 142.987 105.88 143.84 106.04C144.64 106.253 145.52 106.387 146.48 106.44C147.493 106.493 148.293 106.52 148.88 106.52H192.16C194.933 106.52 196.907 106.12 198.08 105.32C199.253 104.467 199.947 103.667 200.16 102.92L202.48 102.28C202.853 102.493 203.253 102.733 203.68 103C204.053 103.267 204.48 103.587 204.96 103.96C205.44 104.333 205.92 104.787 206.4 105.32C207.147 106.12 207.68 106.84 208 107.48C208.32 108.067 208.533 108.547 208.64 108.92C208.8 109.453 208.88 109.933 208.88 110.36C208.88 110.787 208.667 111.16 208.24 111.48C207.813 111.853 207.28 112.013 206.64 111.96C206 111.853 205.44 111.72 204.96 111.56C204.053 111.347 203.253 111.187 202.56 111.08C201.92 110.973 201.147 110.893 200.24 110.84ZM270.254 141.24C270.147 142.467 269.88 143.347 269.454 143.88C269.08 144.467 268.44 144.973 267.534 145.4C266.787 145.72 265.827 145.88 264.654 145.88C263.747 145.88 263 145.773 262.414 145.56C261.827 145.4 261.24 145.213 260.654 145C260.014 144.787 259.4 144.413 258.814 143.88C258.227 143.4 257.8 142.973 257.534 142.6L258.254 141.4C258.894 141.56 259.454 141.613 259.934 141.56C260.574 141.453 260.947 141.187 261.054 140.76C261.214 140.333 261.294 139.8 261.294 139.16V72.84C261.294 72.4133 261.187 72.0133 260.974 71.64C260.76 71.2667 260.52 70.92 260.254 70.6L261.934 69.56C264.814 69.9333 266.92 70.4667 268.254 71.16C269.587 71.8 270.254 72.3067 270.254 72.68V140.36V141.24ZM244.734 102.52C242.92 104.867 241.08 107.027 239.214 109C237.4 110.92 235.48 112.707 233.454 114.36C231.427 116.013 229.214 117.533 226.814 118.92C224.467 120.307 221.88 121.587 219.054 122.76C218.2 123.133 217.374 123.373 216.574 123.48C215.774 123.587 214.974 123.64 214.174 123.64C213.534 123.64 212.947 123.533 212.414 123.32C211.934 123.053 211.56 122.813 211.294 122.6L212.254 119.64C212.787 119.907 213.48 120.04 214.334 120.04C214.92 120.04 215.587 119.933 216.334 119.72C217.08 119.453 217.667 119.187 218.094 118.92C220.334 117.64 222.52 116.067 224.654 114.2C226.84 112.333 229.054 109.933 231.294 107C233.534 104.067 235.64 100.893 237.614 97.48C239.64 94.0133 241.107 90.6 242.014 87.24H228.174C227.107 87.24 226.254 87.2933 225.614 87.4C224.974 87.4533 224.467 87.5333 224.094 87.64C223.667 87.8 223.294 87.96 222.974 88.12C222.707 88.2267 222.414 88.3333 222.094 88.44C221.667 88.6 221.32 88.7333 221.054 88.84C220.84 88.8933 220.52 88.92 220.094 88.92C219.827 88.92 219.32 88.7333 218.574 88.36C217.827 87.9333 217.134 87.2133 216.494 86.2C216.12 85.72 215.747 85.08 215.374 84.28C215 83.4267 214.76 82.7333 214.654 82.2L216.814 81.64C217.08 81.7467 217.4 81.9067 217.774 82.12C218.147 82.3333 218.547 82.52 218.974 82.68C220.2 83.1067 221.107 83.3467 221.694 83.4C222.334 83.4533 222.707 83.48 222.814 83.48L240.334 83.4C240.974 83.1867 241.694 82.9467 242.494 82.68C243.294 82.36 244.094 82.0667 244.894 81.8C245.694 81.5867 246.44 81.4 247.134 81.24C247.827 81.08 248.387 81 248.814 81C249.027 81 249.374 81.16 249.854 81.48C250.334 81.7467 250.84 82.0667 251.374 82.44C251.854 82.8667 252.28 83.32 252.654 83.8C253.08 84.28 253.294 84.68 253.294 85C253.294 85.9067 252.947 87.1867 252.254 88.84C251.614 90.44 250.84 92.12 249.934 93.88C249.027 95.64 248.094 97.32 247.134 98.92C246.174 100.52 245.374 101.72 244.734 102.52ZM343.29 113.4C342.597 113.347 341.743 113.32 340.73 113.32C339.77 113.32 338.73 113.32 337.61 113.32H298.41C296.81 113.32 295.477 113.373 294.41 113.48C293.343 113.587 292.437 113.72 291.69 113.88C290.943 114.093 290.303 114.307 289.77 114.52C289.29 114.68 288.863 114.84 288.49 115C288.17 115.107 287.77 115.267 287.29 115.48C286.81 115.693 286.357 115.8 285.93 115.8C285.663 115.8 285.13 115.667 284.33 115.4C283.53 115.08 282.73 114.467 281.93 113.56C280.97 112.547 280.25 111.533 279.77 110.52C279.29 109.507 278.917 108.627 278.65 107.88L281.29 106.76L282.01 107.16C282.65 107.533 283.397 107.907 284.25 108.28C285.157 108.6 286.037 108.84 286.89 109C287.69 109.16 288.57 109.267 289.53 109.32C290.543 109.373 291.343 109.4 291.93 109.4H312.41V102.76C312.41 102.333 312.33 101.96 312.17 101.64C312.01 101.267 311.823 100.947 311.61 100.68H307.05C306.677 100.68 306.197 100.733 305.61 100.84C305.023 100.947 304.41 101.08 303.77 101.24C303.13 101.4 302.517 101.533 301.93 101.64C301.343 101.747 300.89 101.8 300.57 101.8C299.93 101.8 299.237 101.64 298.49 101.32C297.797 100.947 297.157 100.52 296.57 100.04C295.983 99.56 295.503 99.08 295.13 98.6C294.757 98.0667 294.57 97.64 294.57 97.32C294.57 96.7333 294.65 96.04 294.81 95.24C295.023 94.44 295.157 93.6133 295.21 92.76V89.16C295.21 88.2533 295.077 87.6933 294.81 87.48C294.597 87.2133 294.117 87.08 293.37 87.08C292.943 87.08 292.65 86.92 292.49 86.6C292.383 86.2267 292.41 85.88 292.57 85.56C292.677 85.3467 292.917 85.1333 293.29 84.92C293.663 84.6533 294.197 84.4667 294.89 84.36C295.743 84.2533 296.543 84.2 297.29 84.2C298.09 84.2 299.103 84.28 300.33 84.44C301.717 84.6533 302.917 84.8933 303.93 85.16C304.943 85.3733 305.503 85.5067 305.61 85.56H327.61V78.44H307.85C305.663 78.44 304.063 78.5733 303.05 78.84C302.09 79.1067 301.237 79.3733 300.49 79.64C300.063 79.7467 299.69 79.88 299.37 80.04C299.05 80.2 298.677 80.28 298.25 80.28C298.037 80.28 297.557 80.04 296.81 79.56C296.063 79.0267 295.37 78.28 294.73 77.32C294.357 76.7867 293.983 76.2267 293.61 75.64C293.29 75 293.077 74.4933 292.97 74.12L294.73 73C294.89 73.1067 295.077 73.2133 295.29 73.32C295.45 73.4267 295.637 73.5333 295.85 73.64C296.063 73.6933 296.303 73.7467 296.57 73.8C297.903 74.2267 298.863 74.4667 299.45 74.52C300.037 74.5733 300.383 74.6 300.49 74.6H326.25C327.263 74.1733 328.25 73.7733 329.21 73.4C330.063 73.1333 330.943 72.8667 331.85 72.6C332.81 72.3333 333.717 72.2 334.57 72.2C334.837 72.2 335.21 72.3333 335.69 72.6C336.223 72.8133 336.73 73.08 337.21 73.4C337.69 73.72 338.117 74.0667 338.49 74.44C338.863 74.8133 339.05 75.16 339.05 75.48C339.05 76.12 338.837 76.9733 338.41 78.04C337.983 79.0533 337.61 79.88 337.29 80.52L336.17 85.56H337.69C338.277 85.56 338.757 85.8 339.13 86.28C339.557 86.7067 339.77 87.32 339.77 88.12C339.77 88.44 339.663 88.7333 339.45 89C339.237 89.2667 338.757 89.4 338.01 89.4H304.81V93.56C304.81 94.4133 305.05 95.1867 305.53 95.88C306.063 96.52 306.863 96.84 307.93 96.84H328.09C329.583 96.84 330.677 96.84 331.37 96.84C332.117 96.7867 332.81 96.5467 333.45 96.12C333.877 95.8533 334.143 95.56 334.25 95.24C334.357 94.8667 334.383 94.4933 334.33 94.12L335.05 92.84C335.37 92.84 335.717 92.8667 336.09 92.92C336.41 92.9733 336.783 93.0533 337.21 93.16C337.637 93.2667 338.09 93.4533 338.57 93.72C339.53 94.2 340.197 94.9733 340.57 96.04C340.943 97.1067 340.997 98.0933 340.73 99C340.677 99.16 340.597 99.3467 340.49 99.56C340.383 99.72 340.17 99.88 339.85 100.04C339.477 100.2 338.997 100.36 338.41 100.52C337.823 100.627 337.023 100.68 336.01 100.68H317.93C320.117 101.427 321.21 102.013 321.21 102.44V106.6C321.21 107.347 321.37 108.013 321.69 108.6C322.01 109.187 322.543 109.48 323.29 109.48H335.37C336.757 109.48 337.93 109.373 338.89 109.16C339.85 108.947 340.65 108.68 341.29 108.36C341.877 108.093 342.33 107.773 342.65 107.4C342.97 107.027 343.183 106.68 343.29 106.36L345.45 105.64L346.73 106.28C347.103 106.493 347.53 106.76 348.01 107.08C348.49 107.4 348.97 107.8 349.45 108.28C350.197 109.027 350.73 109.693 351.05 110.28C351.37 110.867 351.583 111.32 351.69 111.64C351.85 112.12 351.93 112.573 351.93 113C351.93 113.373 351.717 113.72 351.29 114.04C350.863 114.36 350.33 114.493 349.69 114.44C349.05 114.333 348.49 114.227 348.01 114.12C347.103 113.907 346.303 113.747 345.61 113.64C344.97 113.533 344.197 113.453 343.29 113.4ZM337.05 117.96C339.503 118.547 340.73 119.373 340.73 120.44C340.73 120.867 340.597 121.32 340.33 121.8C340.063 122.227 339.877 122.547 339.77 122.76L339.53 123.08V139.8C339.53 140.92 339.157 141.8 338.41 142.44C337.717 143.027 336.73 143.32 335.45 143.32H304.49V143.88C304.223 144.04 303.93 144.2 303.61 144.36C303.29 144.573 302.757 144.733 302.01 144.84C300.677 145.107 299.317 145.24 297.93 145.24C296.383 145.24 295.103 145.08 294.09 144.76C293.503 144.653 292.97 144.44 292.49 144.12C292.063 143.853 291.717 143.587 291.45 143.32L291.69 141.8C292.223 141.907 292.73 141.853 293.21 141.64C294.01 141.267 294.49 140.813 294.65 140.28C294.863 139.747 294.97 139.107 294.97 138.36V122.12C294.97 121.587 294.863 121.107 294.65 120.68C294.437 120.2 294.197 119.747 293.93 119.32L295.45 117.8C298.33 118.12 300.543 118.6 302.09 119.24C303.69 119.88 304.49 120.36 304.49 120.68V131.16C306.303 130.093 308.25 129.24 310.33 128.6C312.41 127.907 314.037 127.4 315.21 127.08C316.81 126.653 318.41 126.36 320.01 126.2C321.61 125.987 323.103 125.853 324.49 125.8C325.823 125.747 326.997 125.72 328.01 125.72C329.023 125.72 329.743 125.72 330.17 125.72V121.08C330.17 120.653 330.09 120.28 329.93 119.96C329.823 119.587 329.69 119.293 329.53 119.08L329.93 117.48C330.197 117.48 330.543 117.48 330.97 117.48C331.397 117.427 331.877 117.4 332.41 117.4C333.317 117.4 334.143 117.453 334.89 117.56C335.69 117.667 336.41 117.8 337.05 117.96ZM330.01 129.56C328.357 129.507 326.677 129.507 324.97 129.56C323.53 129.667 321.93 129.827 320.17 130.04C318.41 130.2 316.73 130.547 315.13 131.08C313.263 131.667 311.37 132.36 309.45 133.16C307.583 133.907 305.93 134.653 304.49 135.4V139.48H327.21C328.543 139.48 329.343 139.133 329.61 138.44C329.877 137.747 330.01 136.787 330.01 135.56V129.56ZM401.064 136.52C401.064 138.12 400.904 139.24 400.584 139.88C400.264 140.52 399.57 141.08 398.504 141.56C398.13 141.72 397.784 141.853 397.464 141.96C397.197 142.067 396.77 142.12 396.184 142.12C395.277 142.12 394.504 142.04 393.864 141.88C393.224 141.667 392.61 141.427 392.024 141.16C391.384 140.893 390.85 140.547 390.424 140.12C390.05 139.693 389.73 139.32 389.464 139L390.184 137.8C390.397 137.853 390.584 137.907 390.744 137.96C390.957 138.013 391.17 137.987 391.384 137.88C391.97 137.773 392.317 137.507 392.424 137.08C392.584 136.6 392.664 136.04 392.664 135.4V105.88C391.33 106.04 390.237 106.253 389.384 106.52C388.584 106.733 387.89 106.947 387.304 107.16C387.09 107.267 386.85 107.373 386.584 107.48C386.37 107.587 386.104 107.693 385.784 107.8C385.41 107.907 384.93 107.853 384.344 107.64C383.757 107.373 383.01 106.92 382.104 106.28C381.197 105.64 380.424 104.84 379.784 103.88C379.357 104.627 378.797 105.533 378.104 106.6C377.304 107.827 376.45 108.973 375.544 110.04C374.69 111.107 373.864 112.067 373.064 112.92C372.264 113.827 371.517 114.6 370.824 115.24C370.13 115.88 369.544 116.387 369.064 116.76C368.104 117.507 367.224 118.2 366.424 118.84C365.677 119.48 364.93 120.04 364.184 120.52C363.384 121.053 362.557 121.56 361.704 122.04C360.85 122.52 359.917 122.973 358.904 123.4C358.477 123.613 357.944 123.8 357.304 123.96C356.664 124.067 356.05 124.12 355.464 124.12C354.717 124.12 354.104 124.013 353.624 123.8C353.197 123.533 352.904 123.293 352.744 123.08L353.704 120.52C355.304 120.893 356.584 120.76 357.544 120.12C359.997 118.467 362.184 116.467 364.104 114.12C366.077 111.72 367.997 108.813 369.864 105.4C371.09 103.16 372.13 101.027 372.984 99C373.89 96.9733 374.61 95.1867 375.144 93.64C375.73 91.8267 376.21 90.12 376.584 88.52H368.664C366.637 88.5733 365.09 88.7333 364.024 89C362.957 89.2667 362.077 89.5333 361.384 89.8C360.957 89.96 360.584 90.12 360.264 90.28C359.944 90.3867 359.57 90.44 359.144 90.44C358.877 90.44 358.477 90.3067 357.944 90.04C357.464 89.7733 356.77 89.1867 355.864 88.28C355.65 88.0667 355.41 87.7733 355.144 87.4C354.93 86.9733 354.717 86.5467 354.504 86.12C354.237 85.6933 353.997 85.2933 353.784 84.92C353.624 84.4933 353.517 84.1467 353.464 83.88L355.704 83.16H355.784C355.944 83.2667 356.184 83.4 356.504 83.56C356.877 83.6667 357.304 83.8 357.784 83.96C359.117 84.3333 360.077 84.5733 360.664 84.68C361.25 84.7333 361.597 84.76 361.704 84.76L374.344 84.68L374.504 84.6C375.09 84.3867 375.784 84.1467 376.584 83.88C377.384 83.6133 378.184 83.3467 378.984 83.08C379.784 82.8667 380.504 82.68 381.144 82.52C381.837 82.36 382.397 82.28 382.824 82.28C383.037 82.28 383.384 82.44 383.864 82.76C384.344 83.0267 384.85 83.3467 385.384 83.72C385.864 84.1467 386.29 84.6 386.664 85.08C387.09 85.56 387.304 85.96 387.304 86.28C387.304 86.92 387.09 87.7733 386.664 88.84C386.29 89.8533 385.89 90.7333 385.464 91.48C385.357 91.8533 385.037 92.84 384.504 94.44C383.97 95.9867 382.984 98.12 381.544 100.84C382.29 101.107 383.117 101.32 384.024 101.48C384.93 101.64 385.784 101.72 386.584 101.72H392.664V76.92C392.664 76.5467 392.557 76.1733 392.344 75.8C392.13 75.3733 391.89 75.0267 391.624 74.76L393.224 72.92C396.104 73.2933 398.13 73.8267 399.304 74.52C400.477 75.16 401.064 75.6667 401.064 76.04V136.52ZM415.784 140.52C415.784 142.12 415.624 143.24 415.304 143.88C414.984 144.52 414.29 145.08 413.224 145.56C412.85 145.773 412.504 145.907 412.184 145.96C411.917 146.067 411.49 146.12 410.904 146.12C409.997 146.12 409.224 146.013 408.584 145.8C407.944 145.64 407.33 145.453 406.744 145.24C406.104 145.027 405.49 144.653 404.904 144.12C404.317 143.64 403.864 143.213 403.544 142.84L404.344 141.64C404.984 141.8 405.544 141.853 406.024 141.8C406.61 141.693 406.984 141.427 407.144 141C407.304 140.573 407.384 140.04 407.384 139.4V73.4C407.384 72.9733 407.277 72.5733 407.064 72.2C406.85 71.7733 406.61 71.4267 406.344 71.16L408.024 69.72C410.904 70.0933 412.904 70.6267 414.024 71.32C415.197 71.96 415.784 72.4667 415.784 72.84V140.52Z" fill="#72BF6B"/>
<path d="M104.656 91.4C103.216 91.4 102.096 91 101.296 90.2C100.549 89.3467 100.096 88.4667 99.9356 87.56C99.829 87.0267 99.7756 86.44 99.7756 85.8C99.7756 85.16 99.829 84.52 99.9356 83.88C100.629 81.2133 101.749 79.2667 103.296 78.04C104.896 76.76 106.149 75.88 107.056 75.4C107.429 75.2933 107.722 75.2667 107.936 75.32C108.149 75.3733 108.309 75.5333 108.416 75.8C108.469 76.0667 108.416 76.36 108.256 76.68C108.149 77 107.989 77.24 107.776 77.4C106.976 77.6667 106.202 78.1467 105.456 78.84C104.762 79.5333 104.122 80.7333 103.536 82.44C103.696 82.44 103.909 82.44 104.176 82.44C104.496 82.3867 104.869 82.36 105.296 82.36C106.362 82.36 107.216 82.8133 107.856 83.72C108.549 84.5733 108.896 85.7733 108.896 87.32C108.736 89.9333 107.322 91.2933 104.656 91.4ZM93.3756 91.4C92.0423 91.4 90.9756 91 90.1756 90.2C89.3756 89.3467 88.8956 88.4667 88.7356 87.56C88.6823 87.0267 88.6556 86.44 88.6556 85.8C88.6556 85.16 88.6823 84.52 88.7356 83.88C89.3756 81.2133 90.4956 79.2667 92.0956 78.04C93.749 76.76 94.9756 75.88 95.7756 75.4C96.149 75.2933 96.4423 75.2667 96.6556 75.32C96.9223 75.3733 97.109 75.5333 97.2156 75.8C97.269 76.0667 97.2156 76.36 97.0556 76.68C96.8956 77 96.709 77.24 96.4956 77.4C95.749 77.6667 95.0023 78.1467 94.2556 78.84C93.509 79.5333 92.869 80.7333 92.3356 82.44C92.4423 82.44 92.629 82.44 92.8956 82.44C93.2156 82.3867 93.6156 82.36 94.0956 82.36C95.1623 82.36 96.0423 82.8133 96.7356 83.72C97.429 84.5733 97.7756 85.7733 97.7756 87.32C97.6156 89.9333 96.149 91.2933 93.3756 91.4Z" fill="#72BF6B"/>
<path d="M465.336 75.08C466.722 75.08 467.789 75.5067 468.536 76.36C469.282 77.2133 469.736 78.0933 469.896 79C470.002 79.5867 470.056 80.2 470.056 80.84C470.056 81.4267 470.002 82.04 469.896 82.68C469.309 85.4 468.216 87.3733 466.616 88.6C465.016 89.8267 463.762 90.68 462.856 91.16C462.536 91.2667 462.269 91.2933 462.056 91.24C461.842 91.1867 461.682 91.0267 461.576 90.76C461.522 90.4933 461.549 90.2 461.656 89.88C461.816 89.56 462.002 89.32 462.216 89.16C462.909 88.8933 463.629 88.44 464.376 87.8C465.176 87.1067 465.816 85.88 466.296 84.12C466.189 84.12 466.002 84.12 465.736 84.12C465.469 84.12 465.122 84.12 464.696 84.12C463.522 84.12 462.616 83.6933 461.976 82.84C461.336 81.9867 461.016 80.7867 461.016 79.24C461.176 76.6267 462.616 75.24 465.336 75.08ZM454.136 75.08C455.469 75.08 456.536 75.5067 457.336 76.36C458.136 77.2133 458.616 78.0933 458.776 79C458.882 79.5867 458.936 80.2 458.936 80.84C458.936 81.4267 458.882 82.04 458.776 82.68C458.136 85.4 456.989 87.3733 455.336 88.6C453.736 89.8267 452.536 90.68 451.736 91.16C451.362 91.2667 451.042 91.2933 450.776 91.24C450.562 91.1867 450.402 91.0267 450.296 90.76C450.242 90.4933 450.296 90.2 450.456 89.88C450.616 89.56 450.802 89.32 451.016 89.16C451.762 88.8933 452.509 88.44 453.256 87.8C454.002 87.1067 454.642 85.88 455.176 84.12C455.069 84.12 454.856 84.12 454.536 84.12C454.269 84.12 453.896 84.12 453.416 84.12C452.349 84.12 451.469 83.6933 450.776 82.84C450.082 81.9867 449.736 80.7867 449.736 79.24C449.896 76.6267 451.362 75.24 454.136 75.08Z" fill="#72BF6B"/>
</svg>
