<svg width="840" height="380" viewBox="0 0 840 380" fill="none" xmlns="http://www.w3.org/2000/svg">
<rect width="840" height="380" rx="16" fill="#72BF6B"/>
<path d="M209.286 257.504V264.32H212.79V257.504H209.286ZM207.654 265.632V256.192H214.422V265.632H207.654ZM220.598 260.432V261.792H218.342V269.248H216.694V254.784H218.342V260.432H220.598ZM223.653 261.472V264.416C225.509 264.4 226.757 264.336 228.229 264.08L228.373 265.424C226.709 265.728 225.301 265.776 223.045 265.776H222.069V256.368H227.829V257.696H223.653V260.176H227.573V261.472H223.653ZM232.325 254.784H233.893V269.216H232.325V261.84H230.709V268.544H229.173V255.056H230.709V260.496H232.325V254.784ZM237.395 265.984V264.656H247.411V269.248H245.763V265.984H237.395ZM239.267 257.872V259.296H245.699V257.872H239.267ZM243.299 262.096H249.027V263.44H235.923V262.096H241.635V260.608H237.635V255.136H239.267V256.608H245.699V255.136H247.331V260.608H243.299V262.096ZM256.882 255.088C260.034 255.088 262.034 256.128 262.034 257.856C262.034 259.568 260.034 260.624 256.882 260.624C253.73 260.624 251.73 259.568 251.73 257.856C251.73 256.128 253.73 255.088 256.882 255.088ZM256.882 256.368C254.738 256.368 253.426 256.896 253.426 257.856C253.426 258.8 254.738 259.328 256.882 259.328C259.026 259.328 260.322 258.8 260.322 257.856C260.322 256.896 259.026 256.368 256.882 256.368ZM251.906 264.224H261.826V269.056H251.906V264.224ZM260.21 265.536H253.538V267.744H260.21V265.536ZM250.338 261.68H263.41V262.992H250.338V261.68ZM268.587 268V266.48H271.163V258.288H269.051V257.12C270.155 256.912 270.939 256.64 271.611 256.208H273.003V266.48H275.307V268H268.587ZM280.576 268.208C278.272 268.208 276.768 266.16 276.768 262.064C276.768 257.984 278.272 256 280.576 256C282.88 256 284.384 258 284.384 262.064C284.384 266.16 282.88 268.208 280.576 268.208ZM280.576 266.752C281.776 266.752 282.624 265.472 282.624 262.064C282.624 258.688 281.776 257.456 280.576 257.456C279.376 257.456 278.528 258.688 278.528 262.064C278.528 265.472 279.376 266.752 280.576 266.752ZM287.205 261.92C286.517 261.92 285.973 261.376 285.973 260.64C285.973 259.888 286.517 259.328 287.205 259.328C287.893 259.328 288.437 259.888 288.437 260.64C288.437 261.376 287.893 261.92 287.205 261.92ZM287.205 268.208C286.517 268.208 285.973 267.68 285.973 266.928C285.973 266.16 286.517 265.616 287.205 265.616C287.893 265.616 288.437 266.16 288.437 266.928C288.437 267.68 287.893 268.208 287.205 268.208ZM290.642 268V266.48H293.218V258.288H291.106V257.12C292.21 256.912 292.994 256.64 293.666 256.208H295.058V266.48H297.362V268H290.642ZM302.855 261.984C302.183 261.984 301.367 262.352 300.663 263.36C300.855 265.696 301.703 266.8 302.967 266.8C303.991 266.8 304.807 265.872 304.807 264.336C304.807 262.832 304.119 261.984 302.855 261.984ZM302.983 268.208C300.743 268.208 298.919 266.336 298.919 262.336C298.919 257.808 301.047 256 303.367 256C304.679 256 305.639 256.56 306.311 257.264L305.303 258.384C304.871 257.872 304.151 257.504 303.463 257.504C301.959 257.504 300.711 258.64 300.631 262C301.319 261.152 302.343 260.64 303.191 260.64C305.175 260.64 306.503 261.856 306.503 264.336C306.503 266.672 304.903 268.208 302.983 268.208ZM312.348 255.792C314.604 255.792 316.284 257.216 316.284 259.264C316.284 261.312 314.604 262.736 312.348 262.736C310.092 262.736 308.428 261.312 308.428 259.264C308.428 257.216 310.092 255.792 312.348 255.792ZM312.348 257.2C311.02 257.2 310.044 258 310.044 259.264C310.044 260.512 311.02 261.328 312.348 261.328C313.692 261.328 314.668 260.512 314.668 259.264C314.668 258 313.692 257.2 312.348 257.2ZM317.916 254.768H319.58V269.248H317.916V254.768ZM307.964 266.192L307.756 264.832C310.348 264.832 313.948 264.816 317.052 264.352L317.164 265.552C313.98 266.16 310.524 266.192 307.964 266.192ZM331.013 260.112V256.848H327.493V260.112H331.013ZM332.629 255.536V261.424H325.861V255.536H332.629ZM328.965 266.432V267.744H337.125V269.056H327.349V265.232H335.013V264H327.317V262.704H336.645V266.432H328.965ZM336.645 257.744H338.677V259.104H336.645V262.08H334.997V254.784H336.645V257.744ZM352.579 259.264L351.795 260.48C350.435 260 349.539 259.088 349.043 257.984C348.579 259.136 347.683 260.144 346.275 260.64C344.867 260.128 343.987 259.104 343.507 257.968C343.011 259.04 342.115 259.968 340.787 260.464L339.987 259.264C341.811 258.608 342.691 257.12 342.691 255.872V255.072H344.339V255.872C344.339 256.944 344.947 258.256 346.275 259.056C347.603 258.272 348.211 256.992 348.211 255.872V255.072H349.875V255.872C349.875 257.232 350.739 258.64 352.579 259.264ZM342.947 265.424V267.744H349.619V265.424H342.947ZM341.315 269.056V264.128H351.235V269.056H341.315ZM339.747 261.504H352.851V262.832H339.747V261.504ZM357.41 264.608C358.402 264.608 359.01 263.312 359.01 261.024C359.01 258.736 358.402 257.456 357.41 257.456C356.418 257.456 355.81 258.736 355.81 261.024C355.81 263.312 356.418 264.608 357.41 264.608ZM362.034 260.256V255.056H363.57V268.544H362.034V261.616H360.498C360.354 264.432 359.17 266.16 357.41 266.16C355.538 266.16 354.306 264.192 354.306 261.024C354.306 257.856 355.538 255.904 357.41 255.904C359.138 255.904 360.306 257.552 360.482 260.256H362.034ZM364.93 254.784H366.498V269.216H364.93V254.784ZM373.793 255.952V258.336C373.793 261.024 375.169 263.648 377.377 264.672L376.401 266C374.769 265.184 373.601 263.6 372.977 261.664C372.337 263.712 371.153 265.392 369.505 266.24L368.465 264.928C370.721 263.824 372.129 261.04 372.129 258.336V255.952H373.793ZM378.897 254.752H380.561V269.248H378.897V260.848H375.809V259.504H378.897V254.752ZM394.761 261.808L393.977 263.088C392.345 262.624 391.161 261.6 390.537 260.304C389.881 261.728 388.681 262.832 386.985 263.36L386.201 262.064C388.425 261.392 389.673 259.696 389.673 257.904V257.744H386.633V256.432H389.673V254.72H391.337V256.432H394.361V257.744H391.321V257.904C391.321 259.568 392.553 261.168 394.761 261.808ZM388.009 265.632V264.304H397.513V269.264H395.865V265.632H388.009ZM399.561 258.512V259.872H397.513V263.616H395.865V254.768H397.513V258.512H399.561ZM402.424 259.36C402.424 260.688 403.384 261.552 404.648 261.552C405.912 261.552 406.888 260.688 406.888 259.36C406.888 258.048 405.912 257.184 404.648 257.184C403.384 257.184 402.424 258.048 402.424 259.36ZM408.504 259.36C408.504 261.472 406.84 262.976 404.648 262.976C402.472 262.976 400.808 261.472 400.808 259.36C400.808 257.248 402.472 255.76 404.648 255.76C406.84 255.76 408.504 257.248 408.504 259.36ZM404.424 264.288V267.616H412.488V268.96H402.76V264.288H404.424ZM411.912 259.072H413.96V260.432H411.912V265.376H410.264V254.784H411.912V259.072ZM418.551 264.624C419.527 264.624 420.215 263.84 420.215 262.64C420.215 261.44 419.527 260.64 418.551 260.64C417.575 260.64 416.887 261.44 416.887 262.64C416.887 263.84 417.575 264.624 418.551 264.624ZM418.551 259.28C420.375 259.28 421.687 260.64 421.687 262.64C421.687 264.624 420.375 266 418.551 266C416.727 266 415.415 264.624 415.415 262.64C415.415 260.64 416.727 259.28 418.551 259.28ZM419.367 255.2V257.136H422.071V258.464H414.999V257.136H417.735V255.2H419.367ZM425.767 254.784H427.335V269.232H425.767V262.128H424.231V268.56H422.695V255.088H424.231V260.768H425.767V254.784ZM438.031 257.584V258.96C438.031 261.36 439.519 263.856 441.775 264.816L440.863 266.112C439.183 265.376 437.887 263.808 437.215 261.936C436.575 263.952 435.279 265.664 433.583 266.48L432.639 265.168C434.879 264.128 436.367 261.44 436.367 258.96V257.584H433.151V256.224H441.247V257.584H438.031ZM442.927 254.784H444.591V269.232H442.927V254.784ZM454.062 257.136V258.464H447.07V257.136H449.742V255.168H451.374V257.136H454.062ZM450.542 264.704C451.486 264.704 452.142 263.92 452.142 262.704C452.142 261.472 451.486 260.672 450.542 260.672C449.598 260.672 448.942 261.472 448.942 262.704C448.942 263.92 449.598 264.704 450.542 264.704ZM455.15 259.568V255.072H456.702V268.56H455.15V264.256H453.31C452.814 265.392 451.806 266.096 450.542 266.08C448.766 266.08 447.502 264.688 447.502 262.704C447.502 260.672 448.766 259.28 450.542 259.28C452.318 259.28 453.598 260.672 453.598 262.704C453.598 262.768 453.598 262.848 453.598 262.928H455.15V260.896H453.358V259.568H455.15ZM457.87 254.784H459.438V269.248H457.87V254.784ZM468.845 266.176H474.589V267.536H461.501V266.176H467.197V263.712H463.085V259.056H471.405V257.12H463.053V255.792H473.037V260.368H464.701V262.384H473.357V263.712H468.845V266.176ZM482.428 256.432C480.38 256.432 479.052 257.024 479.052 258.048C479.052 259.072 480.38 259.664 482.428 259.664C484.46 259.664 485.788 259.072 485.788 258.048C485.788 257.024 484.46 256.432 482.428 256.432ZM482.428 260.992C479.324 260.992 477.308 259.856 477.308 258.048C477.308 256.24 479.324 255.104 482.428 255.104C485.516 255.104 487.548 256.24 487.548 258.048C487.548 259.856 485.516 260.992 482.428 260.992ZM479.164 264.688V267.616H487.548V268.96H477.5V264.688H479.164ZM475.884 261.968H488.988V263.312H483.388V266.048H481.708V263.312H475.884V261.968ZM498.26 261.088V259.056H495.7V261.088H498.26ZM499.796 255.648V262.416H494.148V255.648H495.7V257.76H498.26V255.648H499.796ZM497.812 265.152V267.744H504.196V265.152H497.812ZM496.18 269.056V263.856H505.796V269.056H496.18ZM504.228 254.8H505.796V263.152H504.228V259.648H502.708V263.008H501.156V255.056H502.708V258.288H504.228V254.8ZM512.627 255.792C514.883 255.792 516.563 257.216 516.563 259.264C516.563 261.312 514.883 262.736 512.627 262.736C510.371 262.736 508.707 261.312 508.707 259.264C508.707 257.216 510.371 255.792 512.627 255.792ZM512.627 257.2C511.299 257.2 510.323 258 510.323 259.264C510.323 260.512 511.299 261.328 512.627 261.328C513.971 261.328 514.947 260.512 514.947 259.264C514.947 258 513.971 257.2 512.627 257.2ZM518.195 254.768H519.859V269.248H518.195V254.768ZM508.243 266.192L508.035 264.832C510.627 264.832 514.227 264.816 517.331 264.352L517.443 265.552C514.259 266.16 510.803 266.192 508.243 266.192ZM535.964 264.064V262.304H533.756V260.976H535.964V259.456H533.788V258.112H535.964V254.784H537.612V264.064H535.964ZM533.692 256.24V257.552H525.676V256.24H528.924V254.656H530.572V256.24H533.692ZM527.964 260.88C527.964 261.792 528.684 262.336 529.74 262.336C530.812 262.336 531.532 261.792 531.532 260.88C531.532 260 530.812 259.44 529.74 259.44C528.684 259.44 527.964 260 527.964 260.88ZM533.068 260.88C533.068 262.496 531.708 263.584 529.74 263.584C527.788 263.584 526.428 262.496 526.428 260.88C526.428 259.28 527.788 258.192 529.74 258.192C531.708 258.192 533.068 259.28 533.068 260.88ZM532.828 267.968C534.78 267.968 535.948 267.536 535.948 266.72C535.948 265.904 534.78 265.488 532.828 265.488C530.844 265.488 529.676 265.904 529.676 266.72C529.676 267.536 530.844 267.968 532.828 267.968ZM532.828 264.224C535.82 264.224 537.692 265.152 537.692 266.72C537.692 268.304 535.82 269.232 532.828 269.232C529.804 269.232 527.948 268.304 527.948 266.72C527.948 265.152 529.804 264.224 532.828 264.224ZM548.442 261.392L547.578 262.688C546.026 262.128 544.874 261.024 544.266 259.664C543.626 261.232 542.442 262.48 540.778 263.088L539.898 261.776C542.17 260.992 543.402 259.024 543.402 256.944V255.52H545.066V257.072C545.066 258.928 546.298 260.688 548.442 261.392ZM546.666 267.936C548.682 267.936 549.85 267.44 549.85 266.512C549.85 265.616 548.682 265.104 546.666 265.104C544.65 265.104 543.482 265.616 543.482 266.512C543.482 267.44 544.65 267.936 546.666 267.936ZM546.666 263.808C549.658 263.808 551.482 264.816 551.482 266.512C551.482 268.224 549.658 269.232 546.666 269.232C543.69 269.232 541.85 268.224 541.85 266.512C541.85 264.816 543.69 263.808 546.666 263.808ZM551.322 258.352H553.37V259.712H551.322V263.456H549.674V254.768H551.322V258.352ZM560.969 256.24C558.729 256.24 557.529 256.672 557.529 257.504C557.529 258.32 558.729 258.752 560.969 258.752C563.209 258.752 564.409 258.32 564.409 257.504C564.409 256.672 563.209 256.24 560.969 256.24ZM560.969 259.984C557.721 259.984 555.817 259.104 555.817 257.504C555.817 255.888 557.721 255.008 560.969 255.008C564.201 255.008 566.121 255.888 566.121 257.504C566.121 259.104 564.201 259.984 560.969 259.984ZM557.641 266.64V267.84H566.281V269.104H556.009V265.472H564.249V264.432H555.977V263.184H565.865V266.64H557.641ZM554.425 260.832H567.513V262.144H554.425V260.832ZM580.385 260.448L580.545 261.776C578.673 262.176 576.977 262.256 573.873 262.256H572.705V255.712H579.105V257.04H574.353V260.912C577.089 260.896 578.641 260.816 580.385 260.448ZM575.793 264.944V267.728H581.777V264.944H575.793ZM574.161 269.056V263.648H583.393V269.056H574.161ZM585.441 258.192V259.552H583.393V262.928H581.745V254.768H583.393V258.192H585.441ZM590.528 256.976C589.232 256.976 588.304 257.792 588.304 259.04C588.304 260.288 589.232 261.104 590.528 261.104C591.824 261.104 592.768 260.288 592.768 259.04C592.768 257.792 591.824 256.976 590.528 256.976ZM590.528 262.496C588.336 262.496 586.688 261.072 586.688 259.04C586.688 257.008 588.336 255.6 590.528 255.6C592.736 255.6 594.384 257.008 594.384 259.04C594.384 261.072 592.736 262.496 590.528 262.496ZM596.72 263.584V264.24C596.72 265.76 597.664 267.232 599.52 267.856L598.688 269.056C597.296 268.56 596.384 267.616 595.888 266.448C595.424 267.6 594.56 268.64 593.248 269.2C591.872 268.672 591.024 267.664 590.576 266.48C590.064 267.616 589.152 268.56 587.808 269.056L586.992 267.856C588.848 267.184 589.776 265.664 589.776 264.24V263.584H591.376V264.24C591.376 265.472 591.952 266.784 593.216 267.6C594.512 266.72 595.104 265.36 595.104 264.24V263.584H596.72ZM597.792 258.08H599.84V259.44H597.792V262.96H596.144V254.784H597.792V258.08ZM607.439 255.6C610.447 255.6 612.751 257.232 612.751 259.68C612.751 262.144 610.447 263.76 607.439 263.76C604.415 263.76 602.127 262.144 602.127 259.68C602.127 257.232 604.415 255.6 607.439 255.6ZM607.439 256.96C605.295 256.96 603.727 258.016 603.727 259.68C603.727 261.344 605.295 262.4 607.439 262.4C609.567 262.4 611.151 261.344 611.151 259.68C611.151 258.016 609.567 256.96 607.439 256.96ZM600.911 266.048H613.999V267.408H600.911V266.048ZM622.558 262.112H625.646V259.488H622.558V262.112ZM620.942 264.336V257.44H617.47V264.336H620.942ZM625.646 254.768H627.31V269.264H625.646V263.44H622.558V265.632H615.854V256.128H622.558V258.16H625.646V254.768ZM630.157 271.2L629.741 270.16C630.845 269.712 631.485 268.896 631.485 267.968C631.421 267.984 631.373 267.984 631.309 267.984C630.653 267.984 630.077 267.568 630.077 266.8C630.077 266.08 630.653 265.616 631.357 265.616C632.253 265.616 632.781 266.368 632.781 267.6C632.781 269.28 631.805 270.576 630.157 271.2ZM238.078 290.584L237.454 289.256C240.494 288.84 242.478 287.192 242.574 285.256H238.046V283.912H242.59V282.04H244.238V283.912H248.766V285.256H244.254C244.35 287.192 246.334 288.84 249.374 289.256L248.75 290.584C246.318 290.2 244.366 289.08 243.422 287.448C242.462 289.08 240.51 290.2 238.078 290.584ZM244.238 293.144H249.966V294.488H236.878V293.144H242.59V290.072H244.238V293.144ZM252.733 293.272V291.944H262.797V296.152H261.149V293.272H252.733ZM258.637 289.64H264.365V290.968H251.261V289.64H256.989V288.328H252.941V284.6H261.085V283.384H252.909V282.12H262.717V285.784H254.557V287.064H263.005V288.328H258.637V289.64ZM272.907 288.456L272.027 289.704C270.747 289.176 269.851 288.2 269.323 287.032C268.795 288.36 267.851 289.48 266.475 290.088L265.595 288.824C267.531 287.944 268.507 286.104 268.507 284.456V282.616H270.107V284.456C270.107 286.072 271.035 287.704 272.907 288.456ZM268.107 292.584V291.256H277.899V296.248H276.251V292.584H268.107ZM276.331 281.784H277.899V290.536H276.331V286.776H274.811V290.456H273.259V282.024H274.811V285.432H276.331V281.784ZM286.602 283.56C284.474 283.56 283.146 284.152 283.146 285.16C283.146 286.184 284.474 286.776 286.602 286.776C288.714 286.776 290.042 286.184 290.042 285.16C290.042 284.152 288.714 283.56 286.602 283.56ZM286.602 288.104C283.482 288.104 281.45 287 281.45 285.16C281.45 283.336 283.482 282.232 286.602 282.232C289.722 282.232 291.754 283.336 291.754 285.16C291.754 287 289.722 288.104 286.602 288.104ZM283.37 291.752V294.616H291.674V295.96H281.706V291.752H283.37ZM280.058 289.272H293.13V290.616H280.058V289.272ZM306.883 286.84V290.2H305.331V282.056H306.883V285.496H308.403V281.8H309.971V290.664H308.403V286.84H306.883ZM304.995 288.408L304.115 289.64C302.835 289.144 301.939 288.184 301.395 287.032C300.867 288.36 299.923 289.48 298.531 290.088L297.667 288.824C299.603 287.944 300.579 286.136 300.579 284.488V282.664H302.179V284.488C302.179 286.088 303.123 287.672 304.995 288.408ZM305.155 294.968C307.187 294.968 308.403 294.472 308.403 293.592C308.403 292.696 307.187 292.2 305.155 292.2C303.123 292.2 301.907 292.696 301.907 293.592C301.907 294.472 303.123 294.968 305.155 294.968ZM305.155 290.936C308.163 290.936 310.051 291.928 310.051 293.592C310.051 295.24 308.163 296.232 305.155 296.232C302.147 296.232 300.259 295.24 300.259 293.592C300.259 291.928 302.147 290.936 305.155 290.936ZM317.857 288.056V284.168H314.385V288.056H317.857ZM322.465 285.352H319.457V286.872H322.465V285.352ZM319.457 288.216V289.368H312.769V282.856H319.457V284.008H322.465V281.784H324.113V290.296H322.465V288.216H319.457ZM319.297 294.952C321.345 294.952 322.529 294.424 322.529 293.464C322.529 292.52 321.345 291.992 319.297 291.992C317.249 291.992 316.081 292.52 316.081 293.464C316.081 294.424 317.249 294.952 319.297 294.952ZM319.297 290.696C322.321 290.696 324.177 291.72 324.177 293.464C324.177 295.208 322.321 296.232 319.297 296.232C316.289 296.232 314.433 295.208 314.433 293.464C314.433 291.72 316.289 290.696 319.297 290.696ZM334.048 288.472L334.224 289.8C332.48 290.104 331.008 290.152 328.176 290.152H327.12V285.672H331.728V283.944H327.088V282.616H333.36V286.936H328.736V288.808C331.152 288.808 332.48 288.744 334.048 288.472ZM328.736 292.744V291.4H338.512V296.264H336.864V292.744H328.736ZM336.864 281.784H338.512V290.68H336.864V288.216H334.272V286.888H336.864V285.192H334.272V283.864H336.864V281.784ZM348.511 289.912L346.895 289.768C347.263 287.528 347.295 285.848 347.295 284.632H341.567V283.304H348.911V284.264C348.911 285.528 348.911 287.352 348.511 289.912ZM345.279 287.448V291.768C346.783 291.704 348.303 291.608 349.711 291.432L349.791 292.632C346.815 293.128 343.503 293.192 340.975 293.192L340.799 291.832C341.679 291.832 342.655 291.816 343.663 291.8V287.448H345.279ZM354.271 287.72V289.112H352.143V296.232H350.479V281.784H352.143V287.72H354.271ZM368.935 290.296V286.008H366.007V284.664H368.935V281.768H370.583V290.296H368.935ZM367.191 288.424L366.311 289.72C364.759 289.16 363.639 288.072 363.015 286.664C362.375 288.264 361.159 289.528 359.415 290.152L358.551 288.824C360.871 288.04 362.135 286.088 362.135 283.976V282.552H363.799V283.896C363.799 285.896 364.999 287.704 367.191 288.424ZM365.767 294.936C367.815 294.936 368.999 294.408 368.999 293.464C368.999 292.52 367.815 291.992 365.767 291.992C363.719 291.992 362.551 292.52 362.551 293.464C362.551 294.408 363.719 294.936 365.767 294.936ZM365.767 290.696C368.791 290.696 370.647 291.72 370.647 293.464C370.647 295.208 368.791 296.232 365.767 296.232C362.759 296.232 360.903 295.208 360.903 293.464C360.903 291.72 362.759 290.696 365.767 290.696ZM381.494 288.584L380.694 289.864C379.078 289.352 377.926 288.312 377.302 286.968C376.662 288.504 375.446 289.736 373.718 290.328L372.886 289.032C375.158 288.248 376.422 286.392 376.422 284.424V284.136H373.35V282.808H381.11V284.136H378.086V284.408C378.086 286.2 379.286 287.88 381.494 288.584ZM379.638 294.936C381.654 294.936 382.822 294.424 382.822 293.496C382.822 292.552 381.654 292.056 379.638 292.056C377.622 292.056 376.454 292.552 376.454 293.496C376.454 294.424 377.622 294.936 379.638 294.936ZM379.638 290.76C382.614 290.76 384.454 291.768 384.454 293.496C384.454 295.208 382.614 296.232 379.638 296.232C376.662 296.232 374.822 295.208 374.822 293.496C374.822 291.768 376.662 290.76 379.638 290.76ZM384.294 285.304H386.342V286.664H384.294V290.424H382.646V281.784H384.294V285.304ZM387.861 298.2L387.445 297.16C388.549 296.712 389.189 295.896 389.189 294.968C389.125 294.984 389.077 294.984 389.013 294.984C388.357 294.984 387.781 294.568 387.781 293.8C387.781 293.08 388.357 292.616 389.061 292.616C389.957 292.616 390.485 293.368 390.485 294.6C390.485 296.28 389.509 297.576 387.861 298.2ZM407.516 285.688L406.956 286.936C404.556 286.648 402.588 285.624 401.66 284.184C400.732 285.624 398.764 286.648 396.364 286.936L395.804 285.688C398.716 285.384 400.812 283.928 400.812 282.296V281.88H402.508V282.296C402.508 283.928 404.62 285.384 407.516 285.688ZM398.332 293.624V294.84H406.972V296.104H396.7V292.472H404.94V291.368H396.668V290.12H406.556V293.624H398.332ZM395.116 287.704H408.204V289.016H395.116V287.704ZM410.347 283.304H417.195C417.195 287.608 415.467 291.256 410.507 293.656L409.627 292.344C413.419 290.52 415.211 287.976 415.499 284.648H410.347V283.304ZM419.803 281.784H421.451V296.232H419.803V281.784ZM431.274 293.176H437.018V294.536H423.93V293.176H429.626V290.712H425.514V286.056H433.834V284.12H425.482V282.792H435.466V287.368H427.13V289.384H435.786V290.712H431.274V293.176ZM444.857 283.432C442.809 283.432 441.481 284.024 441.481 285.048C441.481 286.072 442.809 286.664 444.857 286.664C446.889 286.664 448.217 286.072 448.217 285.048C448.217 284.024 446.889 283.432 444.857 283.432ZM444.857 287.992C441.753 287.992 439.737 286.856 439.737 285.048C439.737 283.24 441.753 282.104 444.857 282.104C447.945 282.104 449.977 283.24 449.977 285.048C449.977 286.856 447.945 287.992 444.857 287.992ZM441.593 291.688V294.616H449.977V295.96H439.929V291.688H441.593ZM438.313 288.968H451.417V290.312H445.817V293.048H444.137V290.312H438.313V288.968ZM464.145 287.944L464.321 289.24C462.353 289.592 460.673 289.656 457.729 289.656H456.593V282.632H463.281V283.96H458.241V285.464H463.009V286.76H458.241V288.328C460.801 288.328 462.337 288.264 464.145 287.944ZM459.681 292.28V294.744H465.665V292.28H459.681ZM458.049 296.056V290.968H467.281V296.056H458.049ZM469.329 285.272V286.632H467.281V290.264H465.633V281.768H467.281V285.272H469.329ZM483.472 288.84V290.2H477.712V296.232H476.048V290.2H470.4V288.84H479.792C480.208 286.824 480.208 285.32 480.208 283.992H471.968V282.664H481.824V283.928C481.824 285.288 481.824 286.792 481.456 288.84H483.472ZM492.559 285.416H495.119V281.784H496.767V290.392H495.119V286.76H492.559V285.416ZM493.391 288.632L492.575 289.928C490.975 289.368 489.823 288.232 489.215 286.84C488.575 288.424 487.359 289.704 485.647 290.312L484.799 289C487.039 288.2 488.335 286.28 488.335 284.296V284.088H485.279V282.76H493.007V284.088H489.999V284.28C489.999 286.088 491.231 287.88 493.391 288.632ZM491.967 294.968C493.999 294.968 495.183 294.456 495.183 293.512C495.183 292.568 493.999 292.056 491.967 292.056C489.903 292.056 488.735 292.568 488.735 293.512C488.735 294.456 489.903 294.968 491.967 294.968ZM491.967 290.776C494.975 290.776 496.831 291.8 496.831 293.512C496.831 295.24 494.975 296.248 491.967 296.248C488.943 296.248 487.087 295.24 487.087 293.512C487.087 291.8 488.943 290.776 491.967 290.776ZM511.101 281.8V292.36H509.453V281.8H511.101ZM507.949 288.776L507.101 290.088C505.453 289.48 504.269 288.296 503.645 286.792C502.989 288.408 501.789 289.72 500.093 290.36L499.245 289.032C501.517 288.2 502.781 286.136 502.781 284.024V282.584H504.461V284.024C504.461 286.072 505.725 288.008 507.949 288.776ZM503.325 294.616H511.517V295.96H501.661V291.368H503.325V294.616ZM520.124 283.24C517.884 283.24 516.684 283.672 516.684 284.504C516.684 285.32 517.884 285.752 520.124 285.752C522.364 285.752 523.564 285.32 523.564 284.504C523.564 283.672 522.364 283.24 520.124 283.24ZM520.124 286.984C516.876 286.984 514.972 286.104 514.972 284.504C514.972 282.888 516.876 282.008 520.124 282.008C523.356 282.008 525.276 282.888 525.276 284.504C525.276 286.104 523.356 286.984 520.124 286.984ZM516.796 293.64V294.84H525.436V296.104H515.164V292.472H523.404V291.432H515.132V290.184H525.02V293.64H516.796ZM513.58 287.832H526.668V289.144H513.58V287.832ZM536.357 290.104V293.208H539.205V290.104H536.357ZM536.117 284.36V288.776H539.445V284.36H536.117ZM540.837 293.208H544.373V294.568H531.269V293.208H534.709V290.104H532.389V288.776H534.469V284.36H532.341V283.032H543.205V284.36H541.077V288.776H543.157V290.104H540.837V293.208ZM555.987 292.808V289.912H553.779V288.584H555.987V286.856H553.779V285.512H555.987V281.784H557.635V292.808H555.987ZM553.715 283.432V284.744H545.699V283.432H548.947V281.768H550.595V283.432H553.715ZM548.003 288.216C548.003 289.16 548.723 289.72 549.763 289.72C550.819 289.72 551.539 289.16 551.539 288.216C551.539 287.288 550.819 286.696 549.763 286.696C548.723 286.696 548.003 287.288 548.003 288.216ZM553.091 288.216C553.091 289.88 551.731 291.016 549.763 291.016C547.811 291.016 546.451 289.88 546.451 288.216C546.451 286.536 547.811 285.416 549.763 285.416C551.731 285.416 553.091 286.536 553.091 288.216ZM549.891 294.616H557.971V295.96H548.227V291.88H549.891V294.616ZM568.61 283.16V284.488H560.082V283.16H563.522V281.656H565.17V283.16H568.61ZM562.418 287.56C562.418 288.392 563.186 288.888 564.338 288.888C565.49 288.888 566.274 288.392 566.274 287.56C566.274 286.744 565.49 286.248 564.338 286.248C563.186 286.248 562.418 286.744 562.418 287.56ZM567.842 287.56C567.842 289.096 566.434 290.12 564.338 290.12C562.258 290.12 560.834 289.096 560.834 287.56C560.834 286.04 562.258 285.016 564.338 285.016C566.434 285.016 567.842 286.04 567.842 287.56ZM569.714 294.744V293.416H563.746V294.744H569.714ZM569.714 292.136V290.808H571.346V296.056H562.114V290.808H563.746V292.136H569.714ZM573.394 285.384V286.744H571.346V290.216H569.698V281.784H571.346V285.384H573.394ZM576.945 283.192V291.176C578.993 291.16 581.153 290.984 583.425 290.52L583.601 291.896C581.121 292.408 578.785 292.584 576.545 292.584H575.313V283.192H576.945ZM584.753 281.784H586.401V296.232H584.753V281.784ZM591.087 284.488V291.32C593.423 291.304 595.183 291.208 597.199 290.856L597.375 292.216C595.183 292.616 593.231 292.696 590.623 292.696H589.439V283.144H596.159V284.488H591.087ZM602.303 287.336V288.696H600.047V296.248H598.399V281.768H600.047V287.336H602.303ZM604.83 295.208C604.142 295.208 603.598 294.68 603.598 293.928C603.598 293.16 604.142 292.616 604.83 292.616C605.518 292.616 606.062 293.16 606.062 293.928C606.062 294.68 605.518 295.208 604.83 295.208Z" fill="#0F0F0F"/>
<path d="M362.007 140.101C342.558 131.323 331.218 123.941 331.218 110.256C331.218 96.5716 342.606 89.4314 355.346 89.4314C368.086 89.4314 375.445 95.3461 381.229 102.331C389.357 112.145 389.793 121.984 389.793 121.984H390.432V87.1401H389.793C387.589 113.071 383.345 87.7796 352.203 87.7796C321.06 87.7796 315.843 110.93 315.843 118.52C315.843 126.111 316.899 139.83 342.96 151.717C369.026 163.6 382.28 171.433 382.28 185.955C382.28 200.478 369.157 209.425 353.026 209.425C336.895 209.425 326.345 200.914 321.782 194.413C315.227 185.078 314.922 176.974 314.922 176.974H314.283V211.818H314.922C314.922 211.818 315.227 200.134 319.001 200.134C324.538 200.134 333.771 211.275 356.732 211.275C379.693 211.275 397.65 196.961 397.65 176.863C397.65 156.765 381.446 148.878 362.002 140.101H362.007Z" fill="#0F0F0F"/>
<path d="M485.251 175.274C485.251 207.337 474.666 208.243 470.166 208.243H434.625V101.498C434.625 87.7892 437.139 87.7796 447.937 87.7796V87.1401H402.329V87.7796C413.127 87.7796 415.641 87.7844 415.641 101.498V194.524C415.641 208.233 413.127 208.243 402.329 208.243V210.118H485.895V175.274H485.256H485.251Z" fill="#0F0F0F"/>
<path d="M492.682 87.1401V89.0148C503.479 89.0148 505.993 89.0197 505.993 102.733V194.529C505.993 208.238 503.479 208.248 492.682 208.248V210.122H576.247V175.279H575.608C575.608 207.342 565.024 208.248 560.523 208.248H524.982V150.336H551.039C555.539 150.336 566.123 150.336 566.123 171.975H566.763V126.823H566.123C566.123 148.462 555.539 148.462 551.039 148.462H524.982V89.0148H560.523C565.024 89.0148 575.608 89.9207 575.608 121.984H576.247V87.1401H492.682Z" fill="#0F0F0F"/>
<path d="M272.672 148.874C283.818 146.611 288.924 142.116 288.924 133.9C288.924 124.212 272.086 111.104 250.733 133.019C250.597 133.154 250.757 133.377 250.927 133.285C252.603 132.379 256.366 130.626 262.707 129.163C271.717 127.085 279.914 127.661 279.914 133.896C279.914 139.156 270.54 139.563 259.317 141.511C250.694 136.826 243.767 132.781 243.767 128.49C243.767 122.023 263.671 120.642 263.671 103.252C263.671 101.251 264.132 100.248 265.517 97.6326C266.902 95.0167 266.98 92.3186 265.134 87.3921C263.289 82.4657 262.363 80 259.743 80C257.122 80 256.202 82.4657 254.351 87.3921C252.506 92.3186 252.578 95.0167 253.969 97.6326C255.354 100.248 255.814 101.251 255.814 103.252C255.814 108.256 254.623 111.143 245.729 115.764C236.835 120.385 235.106 123.762 235.106 128.47C235.106 133.179 236.598 137.96 246.407 144.436C237.184 147.028 230 150.782 230 160.669C230 172.794 239.378 174.325 248.272 177.904C249.653 178.461 251.038 179.009 252.385 179.561C247.511 181.639 245.269 183.8 245.269 187.772C245.269 193.163 255.16 197.203 261.211 198.627C257.854 202.168 253.988 205.927 253.988 210.244C253.988 216.09 256.672 218.944 257.921 219.961C258.062 220.077 258.261 219.912 258.173 219.753C257.326 218.159 255.47 213.954 257.393 210.476C259.82 206.087 272.987 198.468 272.987 190.383C272.987 186.672 271.659 183.591 268.956 180.801C269.106 180.762 269.262 180.719 269.407 180.68C276.222 178.834 286.729 176.984 286.729 166.821C286.729 158.402 280.732 153.587 272.672 148.878V148.874ZM262.238 86.5638C262.281 86.433 262.446 86.3894 262.552 86.4766C262.954 86.7914 263.72 87.5665 263.269 88.5983C263.231 88.6855 263.129 88.7339 263.032 88.7097C262.63 88.5983 261.68 88.1623 262.238 86.5638ZM256.938 86.4766C257.045 86.3894 257.209 86.433 257.253 86.5638C257.81 88.1623 256.861 88.5983 256.459 88.7097C256.366 88.7339 256.26 88.6855 256.221 88.5983C255.771 87.5665 256.536 86.7914 256.938 86.4766ZM263.235 196.399C260.62 195.508 250.699 191.913 250.699 188.503C250.699 186.134 255.02 184.449 259.946 183.078C263.584 185.161 266.06 187.554 266.06 190.722C266.06 192.606 264.868 194.481 263.235 196.404V196.399ZM262.591 176.005C260.053 174.513 257.045 173.051 253.547 171.549C240.381 165.891 237.586 164.433 238.196 160.204C238.816 155.912 246.15 152.846 257.965 150.947C275.031 159.797 277.947 162.393 277.947 166.816C277.947 171.239 271.732 173.084 262.586 176.01L262.591 176.005Z" fill="#0F0F0F"/>
</svg>
