<svg width="300" height="360" viewBox="0 0 300 360" fill="none" xmlns="http://www.w3.org/2000/svg">
<rect width="300" height="360" rx="16" fill="#1F1F1F"/>
<path d="M49.104 108.96L48.656 109.952C46.384 109.648 44.24 108.64 43.344 107.088C42.432 108.64 40.272 109.648 38 109.952L37.552 108.96C40.16 108.672 42.672 107.232 42.672 105.472V104.928H44.016V105.472C44.016 107.232 46.512 108.672 49.104 108.96ZM39.728 116.544V118H48.592V119.024H38.448V115.584H46.864V114.24H38.4V113.248H48.16V116.544H39.728ZM36.832 110.864H49.824V111.92H36.832V110.864ZM52.0948 106.384H58.8148C58.8148 110.528 56.9108 114.176 52.1428 116.512L51.4388 115.44C55.2948 113.6 57.2148 110.848 57.4868 107.44H52.0948V106.384ZM61.7108 104.832H63.0228V119.184H61.7108V104.832ZM72.7975 116.336H78.6695V117.408H65.6295V116.336H71.4695V113.632H67.2615V109.2H75.7735V106.96H67.2295V105.888H77.0535V110.256H68.5575V112.576H77.3895V113.632H72.7975V116.336ZM86.5243 106.256C84.3323 106.256 82.8763 106.944 82.8763 108.08C82.8763 109.2 84.3323 109.888 86.5243 109.888C88.7323 109.888 90.1723 109.2 90.1723 108.08C90.1723 106.944 88.7323 106.256 86.5243 106.256ZM86.5243 110.96C83.4843 110.96 81.5003 109.856 81.5003 108.08C81.5003 106.304 83.4843 105.2 86.5243 105.2C89.5643 105.2 91.5483 106.304 91.5483 108.08C91.5483 109.856 89.5643 110.96 86.5243 110.96ZM83.0043 114.672V117.776H91.6123V118.864H81.6923V114.672H83.0043ZM80.0283 112.112H93.0363V113.184H87.3083V116.08H85.9803V113.184H80.0283V112.112ZM105.317 108.8H108.197V104.848H109.525V115.36H108.197V109.872H105.317V108.8ZM106.165 112.176L105.509 113.2C103.909 112.624 102.677 111.424 102.053 109.952C101.429 111.584 100.117 112.912 98.4371 113.52L97.7491 112.496C99.8771 111.728 101.365 109.824 101.365 107.792V107.072H98.1651V106H105.829V107.072H102.677V107.776C102.677 109.648 104.085 111.44 106.165 112.176ZM101.669 117.792H109.925V118.864H100.341V114.432H101.669V117.792ZM120.468 112.048L119.812 113.088C118.196 112.496 116.948 111.296 116.308 109.792C115.716 111.488 114.436 112.8 112.724 113.44L112.036 112.4C114.228 111.616 115.62 109.696 115.62 107.472V105.696H116.932V107.504C116.932 109.472 118.356 111.296 120.468 112.048ZM115.652 114.416V117.792H123.86V118.864H114.34V114.416H115.652ZM123.236 109.232H125.348V110.32H123.236V115.424H121.924V104.816H123.236V109.232ZM138.275 104.848V115.328H136.963V104.848H138.275ZM128.115 109.36C128.115 110.784 129.171 111.776 130.563 111.776C131.987 111.776 133.043 110.784 133.043 109.36C133.043 107.968 131.987 106.976 130.563 106.976C129.171 106.976 128.115 107.968 128.115 109.36ZM134.323 109.36C134.323 111.44 132.707 112.912 130.563 112.912C128.435 112.912 126.835 111.44 126.835 109.36C126.835 107.296 128.435 105.84 130.563 105.84C132.707 105.84 134.323 107.296 134.323 109.36ZM130.355 117.792H138.707V118.864H129.043V114.256H130.355V117.792ZM147.377 105.728C150.353 105.728 152.593 107.312 152.593 109.696C152.593 112.096 150.353 113.664 147.377 113.664C144.401 113.664 142.161 112.096 142.161 109.696C142.161 107.312 144.401 105.728 147.377 105.728ZM147.377 106.8C145.121 106.8 143.409 107.968 143.409 109.696C143.409 111.44 145.121 112.592 147.377 112.592C149.649 112.592 151.345 111.44 151.345 109.696C151.345 107.968 149.649 106.8 147.377 106.8ZM140.881 116.192H153.921V117.28H140.881V116.192ZM162.448 116.336H168.32V117.408H155.28V116.336H161.12V113.632H156.912V109.2H165.424V106.96H156.88V105.888H166.704V110.256H158.208V112.576H167.04V113.632H162.448V116.336ZM47.344 140.328V135.96H44.224V134.888H47.344V131.848H48.672V140.328H47.344ZM45.264 138.632L44.56 139.656C42.992 139.064 41.776 137.928 41.152 136.44C40.544 138.136 39.248 139.432 37.52 140.088L36.832 139.016C39.04 138.232 40.464 136.312 40.464 134.12V132.648H41.776V134.072C41.776 136.12 43.168 137.896 45.264 138.632ZM43.936 145.128C46.096 145.128 47.408 144.504 47.408 143.464C47.408 142.408 46.096 141.784 43.936 141.784C41.776 141.784 40.464 142.408 40.464 143.464C40.464 144.504 41.776 145.128 43.936 145.128ZM43.936 140.76C46.88 140.76 48.72 141.736 48.72 143.464C48.72 145.176 46.88 146.168 43.936 146.168C40.992 146.168 39.152 145.176 39.152 143.464C39.152 141.736 40.992 140.76 43.936 140.76ZM59.5668 138.776L58.9428 139.8C57.3108 139.272 56.0788 138.136 55.4708 136.712C54.8628 138.344 53.5668 139.624 51.8548 140.232L51.1828 139.192C53.3428 138.44 54.7828 136.584 54.7828 134.52V133.96H51.5668V132.904H59.2628V133.96H56.0948V134.52C56.0948 136.392 57.4548 138.072 59.5668 138.776ZM57.8228 145.128C59.9348 145.128 61.2308 144.536 61.2308 143.512C61.2308 142.504 59.9348 141.912 57.8228 141.912C55.6788 141.912 54.3988 142.504 54.3988 143.512C54.3988 144.536 55.6788 145.128 57.8228 145.128ZM57.8228 140.872C60.7348 140.872 62.5428 141.848 62.5428 143.512C62.5428 145.192 60.7348 146.168 57.8228 146.168C54.8788 146.168 53.0868 145.192 53.0868 143.512C53.0868 141.848 54.8788 140.872 57.8228 140.872ZM62.3828 135.464H64.5108V136.568H62.3828V140.504H61.0708V131.848H62.3828V135.464ZM69.8535 141.896C71.1655 141.896 72.1095 140.968 72.1095 139.688C72.1095 138.392 71.1655 137.464 69.8535 137.464C68.5575 137.464 67.6135 138.392 67.6135 139.688C67.6135 140.968 68.5575 141.896 69.8535 141.896ZM69.8535 136.376C71.9015 136.376 73.3575 137.752 73.3575 139.688C73.3575 141.64 71.9015 142.984 69.8535 142.984C67.8375 142.984 66.3815 141.64 66.3815 139.688C66.3815 137.752 67.8375 136.376 69.8535 136.376ZM70.4935 132.008V134.136H74.0295V135.192H65.5655V134.136H69.1815V132.008H70.4935ZM79.0535 137.736V138.84H76.7015V146.184H75.3895V131.848H76.7015V137.736H79.0535ZM90.1723 134.696V134.344H81.4203V133.272H91.4843V134.696C91.4843 136.472 91.4843 138.44 90.9403 141.336L89.6283 141.192C90.1723 138.44 90.1723 136.424 90.1723 134.696ZM86.4123 143.096H93.0363V144.168H80.0603V143.096H85.1003V137.96H86.4123V143.096ZM103.653 137.64V135.496H99.5891V137.64H103.653ZM104.933 132.424V138.696H98.2931V132.424H99.5891V134.488H103.653V132.424H104.933ZM101.045 143.416V144.984H109.365V146.024H99.7651V142.44H107.541V140.968H99.7171V139.928H108.837V143.416H101.045ZM108.837 134.92H110.965V136.008H108.837V139.256H107.525V131.848H108.837V134.92ZM119.716 135.8H122.596V131.848H123.924V142.36H122.596V136.872H119.716V135.8ZM120.564 139.176L119.908 140.2C118.308 139.624 117.076 138.424 116.452 136.952C115.828 138.584 114.516 139.912 112.836 140.52L112.148 139.496C114.276 138.728 115.764 136.824 115.764 134.792V134.072H112.564V133H120.228V134.072H117.076V134.776C117.076 136.648 118.484 138.44 120.564 139.176ZM116.068 144.792H124.324V145.864H114.74V141.432H116.068V144.792ZM135.011 133.304V134.36H126.547V133.304H130.115V131.688H131.427V133.304H135.011ZM128.595 137.544C128.595 138.488 129.459 139.064 130.771 139.064C132.083 139.064 132.963 138.488 132.963 137.544C132.963 136.616 132.083 136.024 130.771 136.024C129.459 136.024 128.595 136.616 128.595 137.544ZM134.211 137.544C134.211 139.08 132.819 140.056 130.771 140.056C128.723 140.056 127.347 139.08 127.347 137.544C127.347 136.024 128.723 135.048 130.771 135.048C132.819 135.048 134.211 136.024 134.211 137.544ZM136.339 144.936V143.352H129.907V144.936H136.339ZM136.339 142.328V140.808H137.635V145.992H128.611V140.808H129.907V142.328H136.339ZM139.763 135.48V136.584H137.635V140.168H136.323V131.832H137.635V135.48H139.763ZM143.105 133.224V141.352C145.265 141.352 147.489 141.16 149.873 140.68L150.017 141.8C147.521 142.312 145.265 142.472 142.977 142.472H141.793V133.224H143.105ZM151.345 131.832H152.657V146.168H151.345V131.832ZM157.216 134.296V141.512C159.76 141.512 161.6 141.4 163.68 141.032L163.824 142.12C161.632 142.536 159.744 142.632 157.04 142.632H155.904V133.208H162.576V134.296H157.216ZM168.704 137.496V138.584H166.336V146.216H165.024V131.832H166.336V137.496H168.704ZM171.071 145.208C170.495 145.208 170.015 144.76 170.015 144.104C170.015 143.432 170.495 142.968 171.071 142.968C171.647 142.968 172.127 143.432 172.127 144.104C172.127 144.76 171.647 145.208 171.071 145.208Z" fill="#A1A1A1"/>
<path d="M49.968 71.472C55.344 71.472 57.6 68.016 58.944 63.456H59.472L58.848 72H36.912V71.472H37.44C39.216 71.472 40.464 70.272 40.464 68.448V40.224C40.464 38.4 39.216 37.2 37.44 37.2H36.912V36.672H58.848L59.472 45.216H58.944C57.6 40.656 55.344 37.2 49.968 37.2H45.984V54H52.8C55.056 54 55.824 50.448 55.824 48.432H56.352V60.048H55.824C55.824 58.032 55.056 54.48 52.8 54.48H45.984V71.472H49.968ZM75.0383 72H73.9343L66.1583 50.304C65.4863 48.48 63.8543 47.28 62.0783 47.28H61.5503V46.752H73.9823V47.28H73.4543C71.6303 47.28 70.8143 48.48 71.4863 50.304L76.9103 65.28L82.2383 50.304C82.9103 48.48 82.0943 47.28 80.2703 47.28H79.7903V46.752H87.3743V47.28H86.8943C85.0703 47.28 83.4383 48.48 82.8143 50.304L75.0383 72ZM86.6621 59.376C86.6621 51.84 91.6061 46.272 99.0941 46.272C106.486 46.272 111.43 51.84 111.43 59.376C111.43 66.96 106.486 72.528 99.0941 72.528C91.6061 72.528 86.6621 66.96 86.6621 59.376ZM91.9421 59.376C91.9421 68.688 94.7741 72 99.0941 72C103.318 72 106.15 68.688 106.15 59.376C106.15 50.112 103.318 46.752 99.0941 46.752C94.7741 46.752 91.9421 50.112 91.9421 59.376ZM121.341 36.672V68.448C121.341 70.272 122.541 71.472 124.365 71.472H124.845V72H112.749V71.472H113.277C115.053 71.472 116.301 70.272 116.301 68.448V40.224C116.301 38.4 115.053 37.2 113.277 37.2H112.749V36.672H121.341ZM137.991 72H136.887L129.111 50.304C128.439 48.48 126.807 47.28 125.031 47.28H124.503V46.752H136.935V47.28H136.407C134.583 47.28 133.767 48.48 134.439 50.304L139.863 65.28L145.191 50.304C145.863 48.48 145.047 47.28 143.223 47.28H142.743V46.752H150.327V47.28H149.847C148.023 47.28 146.391 48.48 145.767 50.304L137.991 72ZM170.639 55.296H155.039C154.991 55.872 154.991 56.4 154.991 57.024C154.991 65.04 158.255 69.984 163.439 69.984C167.135 69.984 170.303 67.44 170.303 61.248H170.783C171.167 67.872 166.751 72.528 160.559 72.528C154.031 72.528 149.711 67.392 149.711 59.712C149.711 51.84 154.271 46.272 160.943 46.272C166.367 46.272 169.967 49.92 170.639 55.296ZM155.135 54.816H165.599C165.407 50.016 163.631 46.752 160.559 46.752C157.775 46.752 155.567 49.392 155.135 54.816Z" fill="white"/>
<mask id="mask0_519_26" style="mask-type:alpha" maskUnits="userSpaceOnUse" x="0" y="170" width="300" height="190">
<rect y="170" width="300" height="190" rx="16" fill="#202020"/>
</mask>
<g mask="url(#mask0_519_26)">
<path d="M237.997 270.949L238.116 272.062L238.865 271.231L286.215 218.813L250.996 280.045L250.438 281.014L251.532 280.783L320.646 266.209L256.166 295.044L255.146 295.5L256.166 295.956L320.646 324.79L251.532 310.217L250.438 309.986L250.996 310.955L286.215 372.186L238.865 319.769L238.116 318.938L237.997 320.051L230.5 390.29L223.003 320.051L222.884 318.938L222.135 319.769L174.784 372.186L210.004 310.955L210.562 309.986L209.468 310.217L140.353 324.79L204.834 295.956L205.854 295.5L204.834 295.044L140.353 266.209L209.468 280.783L210.562 281.014L210.004 280.045L174.784 218.813L222.135 271.231L222.884 272.062L223.003 270.949L230.5 200.709L237.997 270.949Z" fill="#72BF6B" stroke="white"/>
<path d="M92.5492 277.323L92.2678 278.074L93.0657 277.997L109.153 276.429L94.4376 283.117L93.708 283.449L94.3271 283.959L106.809 294.226L91.6767 288.549L90.9258 288.268L91.003 289.066L92.5698 305.153L85.8831 290.438L85.551 289.708L85.0414 290.327L74.7744 302.809L80.4508 287.677L80.7321 286.926L79.9342 287.003L63.8463 288.569L78.5624 281.883L79.2919 281.551L78.6728 281.041L66.1898 270.774L81.3232 276.451L82.0742 276.732L81.9969 275.934L80.4298 259.846L87.1168 274.562L87.4489 275.292L87.9586 274.673L98.226 262.19L92.5492 277.323Z" fill="#72BF6B" stroke="white"/>
<path d="M128.621 221.805L128.406 222.287L128.898 222.475L135.38 224.957L128.898 227.44L128.406 227.629L128.621 228.11L131.448 234.448L125.11 231.621L124.629 231.406L124.44 231.898L121.958 238.379L119.475 231.898L119.287 231.406L118.805 231.621L112.468 234.448L115.295 228.11L115.509 227.629L115.017 227.44L108.536 224.957L115.017 222.475L115.509 222.287L115.295 221.805L112.467 215.467L118.805 218.295L119.287 218.509L119.475 218.017L121.958 211.535L124.44 218.017L124.629 218.509L125.11 218.295L131.448 215.467L128.621 221.805Z" fill="#72BF6B" stroke="white"/>
</g>
</svg>
