<svg width="300" height="360" viewBox="0 0 300 360" fill="none" xmlns="http://www.w3.org/2000/svg">
<rect width="300" height="360" rx="16" fill="#1F1F1F"/>
<path d="M37.872 105.664H44.24C44.24 109.312 42.208 111.968 37.744 113.328L37.248 112.288C39.568 111.584 41.12 110.56 41.984 109.248L37.376 109.6L37.152 108.528L42.512 108.288C42.704 107.792 42.816 107.28 42.864 106.72H37.872V105.664ZM40.688 114.928V117.936H47.376V114.928H40.688ZM39.392 118.992V113.888H48.672V118.992H39.392ZM47.344 104.848H48.672V113.12H47.344V109.712H44.208V108.624H47.344V104.848ZM59.5188 110.56V106.704H55.9508V110.56H59.5188ZM54.6388 110.56V106.704H52.4788V105.632H62.9908V106.704H60.8308V110.56H62.9428V111.632H52.5268V110.56H54.6388ZM64.2388 113.28V114.352H60.8948V119.184H59.5828V114.352H55.9348V119.184H54.6228V114.352H51.2308V113.28H64.2388ZM67.6135 111.232V114.672C70.2055 114.672 71.8695 114.576 73.8215 114.224L73.9655 115.296C71.8855 115.664 70.1415 115.744 67.4055 115.744H66.3015V106.128H72.9415V107.216H67.6135V110.176H72.3175V111.232H67.6135ZM76.1575 104.816H77.4695V119.2H76.1575V111.328H73.1975V110.24H76.1575V104.816ZM93.3344 106.784V106.624H84.8544V105.568H94.6304V106.784C94.6304 107.936 94.6304 109.104 94.2304 110.576L92.9504 110.432C93.3344 108.96 93.3344 107.904 93.3344 106.784ZM89.7344 118.144C91.9904 118.144 93.4304 117.536 93.4304 116.544C93.4304 115.52 91.9904 114.912 89.7344 114.912C87.4944 114.912 86.0544 115.52 86.0544 116.544C86.0544 117.536 87.4944 118.144 89.7344 118.144ZM89.7344 113.904C92.7904 113.904 94.7424 114.88 94.7424 116.544C94.7424 118.176 92.7904 119.168 89.7344 119.168C86.6784 119.168 84.7424 118.176 84.7424 116.544C84.7424 114.88 86.6784 113.904 89.7344 113.904ZM89.9424 111.52H96.2464V112.576H83.3344V111.52H88.6304V108.768H89.9424V111.52ZM106.213 106.352V107.408H97.7491V106.352H101.317V104.752H102.629V106.352H106.213ZM99.7971 110.736C99.7971 111.696 100.661 112.32 101.973 112.32C103.285 112.32 104.165 111.696 104.165 110.736C104.165 109.792 103.285 109.168 101.973 109.168C100.661 109.168 99.7971 109.792 99.7971 110.736ZM105.413 110.736C105.413 112.32 104.021 113.328 101.973 113.328C99.9411 113.328 98.5491 112.32 98.5491 110.736C98.5491 109.168 99.9411 108.144 101.973 108.144C104.021 108.144 105.413 109.168 105.413 110.736ZM99.5251 115.664V114.592H108.837V119.2H107.525V115.664H99.5251ZM110.965 108.8V109.888H108.837V113.808H107.525V104.848H108.837V108.8H110.965ZM118.58 106.064C116.228 106.064 114.884 106.608 114.884 107.568C114.884 108.528 116.228 109.072 118.58 109.072C120.932 109.072 122.276 108.528 122.276 107.568C122.276 106.608 120.932 106.064 118.58 106.064ZM118.58 110.048C115.428 110.048 113.54 109.184 113.54 107.568C113.54 105.952 115.428 105.072 118.58 105.072C121.732 105.072 123.62 105.952 123.62 107.568C123.62 109.184 121.732 110.048 118.58 110.048ZM114.98 116.544V118H123.844V119.024H113.7V115.584H122.116V114.304H113.652V113.312H123.412V116.544H114.98ZM112.084 111.024H125.076V112.08H112.084V111.024ZM130.605 106.384H137.325C137.325 110.528 135.421 114.176 130.653 116.512L129.949 115.44C133.805 113.6 135.725 110.848 135.997 107.44H130.605V106.384ZM140.221 104.832H141.533V119.184H140.221V104.832ZM150.108 111.92V109.296H146.044V111.92H150.108ZM151.388 105.872V112.976H144.748V105.872H146.044V108.272H150.108V105.872H151.388ZM147.676 114.368V117.792H155.932V118.864H146.364V114.368H147.676ZM155.292 109.184H157.404V110.288H155.292V115.376H153.98V104.848H155.292V109.184ZM165.034 105.728C168.01 105.728 170.25 107.312 170.25 109.696C170.25 112.096 168.01 113.664 165.034 113.664C162.058 113.664 159.818 112.096 159.818 109.696C159.818 107.312 162.058 105.728 165.034 105.728ZM165.034 106.8C162.778 106.8 161.066 107.968 161.066 109.696C161.066 111.44 162.778 112.592 165.034 112.592C167.306 112.592 169.002 111.44 169.002 109.696C169.002 107.968 167.306 106.8 165.034 106.8ZM158.538 116.192H171.578V117.28H158.538V116.192ZM180.105 116.336H185.977V117.408H172.937V116.336H178.777V113.632H174.569V109.2H183.081V106.96H174.537V105.888H184.361V110.256H175.865V112.576H184.697V113.632H180.105V116.336ZM45.36 133.352V134.408H36.896V133.352H40.464V131.704H41.776V133.352H45.36ZM38.944 137.688C38.944 138.632 39.808 139.256 41.12 139.256C42.432 139.256 43.312 138.632 43.312 137.688C43.312 136.744 42.432 136.12 41.12 136.12C39.808 136.12 38.944 136.744 38.944 137.688ZM44.56 137.688C44.56 139.24 43.168 140.232 41.12 140.232C39.072 140.232 37.696 139.24 37.696 137.688C37.696 136.12 39.072 135.128 41.12 135.128C43.168 135.128 44.56 136.12 44.56 137.688ZM40.256 142.328V144.936H46.688V142.328H40.256ZM38.976 145.992V141.288H47.984V145.992H38.976ZM50.112 135.656V136.744H47.984V140.472H46.672V131.848H47.984V135.656H50.112ZM51.5828 133.544H54.7668C54.7668 136.616 54.3668 139.992 52.3028 142.776L51.2788 142.2C53.0548 139.912 53.5508 137.288 53.6468 134.616H51.5828V133.544ZM59.5828 137.464V132.2H60.8148V145.448H59.5828V138.536H57.5828C57.2468 140.328 56.6388 142.136 55.4868 143.704L54.4628 143.112C56.4148 140.552 56.7508 137.32 56.7988 134.616H55.2468V133.544H57.9348C57.9348 134.728 57.9028 136.072 57.7428 137.464H59.5828ZM62.2388 131.832H63.4868V146.168H62.2388V131.832ZM73.6716 141.528V137.736H70.6636V141.528H73.6716ZM73.6716 136.696V133.192H74.9036V142.584H69.4156V133.192H70.6636V136.696H73.6716ZM79.8476 131.832H81.0956V146.184H79.8476V138.584H77.9116V145.48H76.6796V132.152H77.9116V137.512H79.8476V131.832ZM89.7664 133.464C87.5904 133.464 86.1024 134.28 86.1024 135.544C86.1024 136.824 87.5904 137.64 89.7664 137.64C91.9584 137.64 93.4464 136.824 93.4464 135.544C93.4464 134.28 91.9584 133.464 89.7664 133.464ZM89.7664 138.696C86.7904 138.696 84.7584 137.48 84.7584 135.544C84.7584 133.624 86.7904 132.408 89.7664 132.408C92.7584 132.408 94.7904 133.624 94.7904 135.544C94.7904 137.48 92.7584 138.696 89.7664 138.696ZM96.2944 140.056V141.144H90.4224V146.2H89.1104V141.144H83.3024V140.056H96.2944ZM107.829 134.696V134.344H99.0771V133.272H109.141V134.696C109.141 136.472 109.141 138.44 108.597 141.336L107.285 141.192C107.829 138.44 107.829 136.424 107.829 134.696ZM104.069 143.096H110.693V144.168H97.7171V143.096H102.757V137.96H104.069V143.096ZM117.23 133.224V141.448C119.294 141.448 121.422 141.272 123.742 140.808L123.902 141.896C121.454 142.392 119.262 142.552 117.07 142.552H115.934V133.224H117.23ZM128.702 137.56V138.648H126.398V146.184H125.086V131.832H126.398V137.56H128.702ZM141.245 135.64V136.696H131.517V132.088H132.829V135.64H141.245ZM139.741 144.936V143.208H132.813V144.936H139.741ZM139.741 142.168V140.472H141.037V145.992H131.517V140.472H132.813V142.168H139.741ZM129.773 138.168H142.749V139.224H136.909V141.352H135.597V139.224H129.773V138.168ZM146.364 133.224V141.352C148.524 141.352 150.748 141.16 153.132 140.68L153.276 141.8C150.78 142.312 148.524 142.472 146.236 142.472H145.052V133.224H146.364ZM154.604 131.832H155.916V146.168H154.604V131.832ZM160.474 134.296V141.512C163.018 141.512 164.858 141.4 166.938 141.032L167.082 142.12C164.89 142.536 163.002 142.632 160.298 142.632H159.162V133.208H165.834V134.296H160.474ZM171.962 137.496V138.584H169.594V146.216H168.282V131.832H169.594V137.496H171.962ZM174.329 145.208C173.753 145.208 173.273 144.76 173.273 144.104C173.273 143.432 173.753 142.968 174.329 142.968C174.905 142.968 175.385 143.432 175.385 144.104C175.385 144.76 174.905 145.208 174.329 145.208Z" fill="#A1A1A1"/>
<path d="M45.984 40.224V71.472H49.968C55.344 71.472 57.6 68.016 58.944 63.456H59.472L58.848 72H36.912V71.472H37.44C39.216 71.472 40.464 70.272 40.464 68.448V40.224C40.464 38.4 39.216 37.2 37.44 37.2H36.912V36.672H49.536V37.2H49.008C47.184 37.2 45.984 38.4 45.984 40.224ZM82.5611 55.296H66.9611C66.9131 55.872 66.9131 56.4 66.9131 57.024C66.9131 65.04 70.1771 69.984 75.3611 69.984C79.0571 69.984 82.2251 67.44 82.2251 61.248H82.7051C83.0891 67.872 78.6731 72.528 72.4811 72.528C65.9531 72.528 61.6331 67.392 61.6331 59.712C61.6331 51.84 66.1931 46.272 72.8651 46.272C78.2891 46.272 81.8891 49.92 82.5611 55.296ZM67.0571 54.816H77.5211C77.3291 50.016 75.5531 46.752 72.4811 46.752C69.6971 46.752 67.4891 49.392 67.0571 54.816ZM100.454 54.192C100.454 47.28 97.7659 46.752 96.1339 46.752C93.1099 46.752 90.6139 48.576 91.5259 55.296L86.5819 51.84C88.5019 48.144 91.6699 46.272 96.1819 46.272C102.374 46.272 105.494 49.632 105.494 54.672V66.672C105.494 68.688 105.542 70.656 106.838 70.656C107.414 70.656 108.566 70.272 109.286 68.256H109.766C109.286 70.848 107.03 72.528 104.582 72.528C102.086 72.528 100.598 70.8 100.454 68.112C98.3899 70.32 95.8459 72.528 92.3419 72.528C88.8859 72.528 86.0059 70.272 86.0059 66.192C86.0059 59.472 93.9259 57.36 100.454 54.816V54.192ZM100.454 67.248V55.296C94.2139 57.984 91.2859 61.152 91.2859 65.76C91.2859 70.032 93.8779 69.984 94.4059 69.984C96.4219 69.984 98.5339 69.072 100.454 67.248ZM119.799 46.752V52.032C121.143 48.672 123.975 46.272 127.719 46.272V51.84C126.615 50.592 125.319 50.064 124.119 50.064C122.103 50.064 120.327 51.552 119.799 53.52V68.448C119.799 70.272 120.999 71.472 122.823 71.472H123.303V72H111.207V71.472H111.735C113.511 71.472 114.759 70.272 114.759 68.448V50.304C114.759 48.48 113.511 47.28 111.735 47.28H111.207V46.752H119.799ZM137.799 46.752V52.416C139.719 48.672 143.271 46.272 147.207 46.272C150.471 46.272 152.871 47.904 152.871 52.416V68.448C152.871 70.272 154.071 71.472 155.895 71.472H156.423V72H144.279V71.472H144.807C146.631 71.472 147.831 70.272 147.831 68.448V52.128C147.831 50.112 146.535 48.768 144.279 48.768C141.783 48.768 138.999 50.496 137.799 53.52V68.448C137.799 70.272 138.999 71.472 140.823 71.472H141.303V72H129.207V71.472H129.735C131.511 71.472 132.759 70.272 132.759 68.448V50.304C132.759 48.48 131.511 47.28 129.735 47.28H129.207V46.752H137.799Z" fill="white"/>
<mask id="mask0_519_59" style="mask-type:alpha" maskUnits="userSpaceOnUse" x="0" y="170" width="300" height="190">
<rect y="170" width="300" height="190" rx="16" fill="#202020"/>
</mask>
<g mask="url(#mask0_519_59)">
<rect x="162.5" y="244.5" width="161" height="131" fill="#72BF6B" stroke="white"/>
<rect x="110.5" y="204.5" width="51" height="39" fill="#72BF6B" stroke="white"/>
<rect x="66.5" y="253.5" width="30" height="29" fill="#72BF6B" stroke="white"/>
<g filter="url(#filter0_d_519_59)">
<path d="M100.125 320.907L91.7487 293.611L117.622 305.685L105.068 308.921L100.125 320.907Z" fill="white"/>
</g>
</g>
<defs>
<filter id="filter0_d_519_59" x="79.7487" y="281.611" width="49.8737" height="51.2959" filterUnits="userSpaceOnUse" color-interpolation-filters="sRGB">
<feFlood flood-opacity="0" result="BackgroundImageFix"/>
<feColorMatrix in="SourceAlpha" type="matrix" values="0 0 0 0 0 0 0 0 0 0 0 0 0 0 0 0 0 0 127 0" result="hardAlpha"/>
<feOffset/>
<feGaussianBlur stdDeviation="6"/>
<feComposite in2="hardAlpha" operator="out"/>
<feColorMatrix type="matrix" values="0 0 0 0 0 0 0 0 0 0 0 0 0 0 0 0 0 0 0.05 0"/>
<feBlend mode="normal" in2="BackgroundImageFix" result="effect1_dropShadow_519_59"/>
<feBlend mode="normal" in="SourceGraphic" in2="effect1_dropShadow_519_59" result="shape"/>
</filter>
</defs>
</svg>
