<svg width="64" height="24" viewBox="0 0 64 24" fill="none" xmlns="http://www.w3.org/2000/svg">
<g clip-path="url(#clip0_555_117)">
<path d="M27.1297 10.3028C23.7955 8.79813 21.8515 7.53257 21.8515 5.18664C21.8515 2.8407 23.8038 1.61667 25.9878 1.61667C28.1718 1.61667 29.4332 2.63061 30.4248 3.82807C31.8182 5.5105 31.8929 7.19708 31.8929 7.19708H32.0026V1.22388H31.8929C31.5151 5.66911 30.7876 1.33349 25.4489 1.33349C20.1101 1.33349 19.2158 5.30206 19.2158 6.60333C19.2158 7.9046 19.3968 10.2563 23.8644 12.2942C28.3329 14.3312 30.605 15.674 30.605 18.1636C30.605 20.6532 28.3554 22.187 25.5901 22.187C22.8248 22.187 21.0161 20.7279 20.2339 19.6135C19.1103 18.0133 19.058 16.624 19.058 16.624H18.9484V22.5972H19.058C19.058 22.5972 19.1103 20.5942 19.7572 20.5942C20.7064 20.5942 22.2891 22.5042 26.2253 22.5042C30.1615 22.5042 33.2399 20.0503 33.2399 16.6049C33.2399 13.1595 30.4621 11.8076 27.1288 10.3028H27.1297Z" fill="white"/>
<path d="M48.2572 16.3325C48.2572 21.8291 46.4428 21.9844 45.6713 21.9844H39.5785V3.68524C39.5785 1.33515 40.0095 1.33349 41.8605 1.33349V1.22388H34.0421V1.33349C35.8931 1.33349 36.3241 1.33432 36.3241 3.68524V19.6326C36.3241 21.9827 35.8931 21.9844 34.0421 21.9844V22.3057H48.3677V16.3325H48.2581H48.2572Z" fill="white"/>
<path d="M49.5311 1.22388V1.54525C51.3821 1.54525 51.8131 1.54608 51.8131 3.897V19.6334C51.8131 21.9835 51.3821 21.9852 49.5311 21.9852V22.3066H63.8567V16.3334H63.7471C63.7471 21.8299 61.9326 21.9852 61.1611 21.9852H55.0684V12.0575H59.5352C60.3066 12.0575 62.1211 12.0575 62.1211 15.767H62.2307V8.02667H62.1211C62.1211 11.7362 60.3066 11.7362 59.5352 11.7362H55.0684V1.54525H61.1611C61.9326 1.54525 63.7471 1.70054 63.7471 7.19708H63.8567V1.22388H49.5311Z" fill="white"/>
<path d="M7.31516 11.8069C9.22595 11.4191 10.1012 10.6485 10.1012 9.24007C10.1012 7.57923 7.21468 5.33212 3.55419 9.08893C3.53094 9.11219 3.55835 9.15038 3.58741 9.13461C3.87473 8.97932 4.51997 8.67871 5.60699 8.42792C7.15157 8.07167 8.55664 8.17049 8.55664 9.23924C8.55664 10.1411 6.94978 10.2108 5.0257 10.5447C3.54755 9.74164 2.36005 9.04824 2.36005 8.31249C2.36005 7.20388 5.77224 6.96721 5.77224 3.98601C5.77224 3.64305 5.85113 3.47115 6.08863 3.02272C6.32613 2.5743 6.33942 2.11176 6.02303 1.26722C5.70664 0.422683 5.54803 0 5.09877 0C4.64952 0 4.49174 0.422683 4.17452 1.26722C3.85813 2.11176 3.87058 2.5743 4.10891 3.02272C4.34641 3.47115 4.4253 3.64305 4.4253 3.98601C4.4253 4.84383 4.22102 5.33876 2.69637 6.13098C1.17172 6.9232 0.875262 7.502 0.875262 8.30917C0.875262 9.11634 1.13103 9.93596 2.81263 11.0462C1.23151 11.4905 0 12.1341 0 13.829C0 15.9075 1.60769 16.1699 3.13234 16.7836C3.36901 16.8791 3.60651 16.9729 3.83737 17.0676C3.00196 17.4238 2.61748 17.7942 2.61748 18.4752C2.61748 19.3994 4.3132 20.092 5.35039 20.3361C4.77491 20.9432 4.11223 21.5876 4.11223 22.3275C4.11223 23.3298 4.57229 23.8189 4.78653 23.9933C4.81062 24.0132 4.84466 23.985 4.82972 23.9576C4.68439 23.6844 4.36634 22.9636 4.69602 22.3673C5.11206 21.615 7.36914 20.3087 7.36914 18.9228C7.36914 18.2867 7.1416 17.7585 6.67823 17.2802C6.70397 17.2735 6.73055 17.2661 6.75546 17.2594C7.92386 16.943 9.72504 16.6258 9.72504 14.8836C9.72504 13.4403 8.69698 12.6149 7.31516 11.8077V11.8069ZM5.52644 1.12522C5.53391 1.1028 5.56215 1.09532 5.58041 1.11027C5.64934 1.16425 5.78055 1.29711 5.70332 1.47399C5.69667 1.48894 5.67923 1.49725 5.66263 1.49309C5.5937 1.47399 5.43094 1.39926 5.52644 1.12522ZM4.61796 1.11027C4.63623 1.09532 4.66446 1.1028 4.67194 1.12522C4.76744 1.39926 4.60467 1.47399 4.53575 1.49309C4.51997 1.49725 4.5017 1.48894 4.49506 1.47399C4.41783 1.29711 4.54904 1.16425 4.61796 1.11027ZM5.6975 19.9541C5.24908 19.8013 3.54838 19.1852 3.54838 18.6006C3.54838 18.1945 4.28911 17.9055 5.13365 17.6705C5.75729 18.0276 6.18164 18.4378 6.18164 18.9809C6.18164 19.3039 5.97736 19.6253 5.6975 19.955V19.9541ZM5.58706 16.4581C5.15192 16.2023 4.63623 15.9515 4.03667 15.6941C1.77959 14.7242 1.30044 14.4742 1.40507 13.7492C1.51136 13.0135 2.76862 12.4878 4.79401 12.1623C7.71957 13.6795 8.21949 14.1246 8.21949 14.8828C8.21949 15.6409 7.15406 15.9573 5.58623 16.4589L5.58706 16.4581Z" fill="white"/>
</g>
<defs>
<clipPath id="clip0_555_117">
<rect width="64" height="24" fill="white"/>
</clipPath>
</defs>
</svg>
