<svg width="280" height="88" viewBox="0 0 280 88" fill="none" xmlns="http://www.w3.org/2000/svg">
<rect width="280" height="88" rx="16" fill="#72BF6B"/>
<path d="M116.002 60.806H127.594V61.982H116.002V60.806ZM121.182 61.534H122.652V64.376H121.182V61.534ZM117.472 54.926H126.11V59.546H117.472V54.926ZM124.654 56.088H118.9V58.384H124.654V56.088ZM117.416 65.706H126.306V66.896H117.416V65.706ZM117.416 63.214H118.886V66.112H117.416V63.214ZM132.605 55.248C133.277 55.248 133.874 55.3787 134.397 55.64C134.92 55.9013 135.33 56.2653 135.629 56.732C135.928 57.1893 136.077 57.7213 136.077 58.328C136.077 58.9253 135.928 59.4573 135.629 59.924C135.33 60.3907 134.92 60.7547 134.397 61.016C133.874 61.2773 133.277 61.408 132.605 61.408C131.942 61.408 131.35 61.2773 130.827 61.016C130.304 60.7547 129.889 60.3907 129.581 59.924C129.282 59.4573 129.133 58.9253 129.133 58.328C129.133 57.7213 129.282 57.1893 129.581 56.732C129.889 56.2653 130.304 55.9013 130.827 55.64C131.35 55.3787 131.942 55.248 132.605 55.248ZM132.605 56.522C132.222 56.522 131.872 56.5967 131.555 56.746C131.247 56.886 131.004 57.0913 130.827 57.362C130.65 57.6327 130.561 57.9547 130.561 58.328C130.561 58.692 130.65 59.014 130.827 59.294C131.004 59.5647 131.247 59.7747 131.555 59.924C131.872 60.0733 132.222 60.148 132.605 60.148C132.997 60.148 133.342 60.0733 133.641 59.924C133.949 59.7747 134.192 59.5647 134.369 59.294C134.546 59.014 134.635 58.692 134.635 58.328C134.635 57.9547 134.546 57.6327 134.369 57.362C134.192 57.0913 133.949 56.886 133.641 56.746C133.342 56.5967 132.997 56.522 132.605 56.522ZM137.533 54.352H139.003V67.176H137.533V54.352ZM128.727 64.46L128.531 63.256C129.306 63.256 130.155 63.2513 131.079 63.242C132.003 63.2233 132.95 63.186 133.921 63.13C134.901 63.0647 135.848 62.962 136.763 62.822L136.875 63.9C135.932 64.0773 134.976 64.208 134.005 64.292C133.044 64.3667 132.11 64.4133 131.205 64.432C130.3 64.4507 129.474 64.46 128.727 64.46ZM149.39 54.366H150.86V67.162H149.39V54.366ZM150.524 59.504H152.834V60.722H150.524V59.504ZM140.864 56.34H148.368V57.516H140.864V56.34ZM144.672 58.426C145.279 58.426 145.82 58.5567 146.296 58.818C146.772 59.07 147.145 59.42 147.416 59.868C147.696 60.316 147.836 60.8293 147.836 61.408C147.836 61.996 147.696 62.514 147.416 62.962C147.145 63.41 146.772 63.7647 146.296 64.026C145.82 64.278 145.274 64.404 144.658 64.404C144.051 64.404 143.51 64.278 143.034 64.026C142.558 63.7647 142.18 63.41 141.9 62.962C141.629 62.514 141.494 61.996 141.494 61.408C141.494 60.8293 141.629 60.316 141.9 59.868C142.18 59.42 142.558 59.07 143.034 58.818C143.51 58.5567 144.056 58.426 144.672 58.426ZM144.658 59.63C144.322 59.63 144.019 59.7047 143.748 59.854C143.477 60.0033 143.263 60.2133 143.104 60.484C142.955 60.7453 142.88 61.0533 142.88 61.408C142.88 61.772 142.955 62.0893 143.104 62.36C143.263 62.6213 143.477 62.8267 143.748 62.976C144.019 63.1253 144.322 63.2 144.658 63.2C145.003 63.2 145.307 63.1253 145.568 62.976C145.839 62.8267 146.049 62.6213 146.198 62.36C146.357 62.0893 146.436 61.772 146.436 61.408C146.436 61.0533 146.357 60.7453 146.198 60.484C146.049 60.2133 145.839 60.0033 145.568 59.854C145.307 59.7047 145.003 59.63 144.658 59.63ZM143.916 54.534H145.386V56.83H143.916V54.534ZM162.493 54.352H163.963V67.148H162.493V54.352ZM158.727 55.71H160.183C160.183 56.662 160.08 57.572 159.875 58.44C159.67 59.308 159.334 60.134 158.867 60.918C158.41 61.6927 157.803 62.4113 157.047 63.074C156.3 63.7367 155.376 64.334 154.275 64.866L153.491 63.704C154.732 63.1067 155.736 62.4253 156.501 61.66C157.266 60.8947 157.826 60.0407 158.181 59.098C158.545 58.146 158.727 57.1007 158.727 55.962V55.71ZM154.121 55.71H159.385V56.886H154.121V55.71Z" fill="#365833"/>
<path d="M117.527 41V23.216H128.471V26.192H121.079V30.824H127.391V33.8H121.079V41H117.527ZM135.43 41.336C134.198 41.336 133.142 41.104 132.262 40.64C131.398 40.176 130.742 39.568 130.294 38.816C129.846 38.048 129.622 37.208 129.622 36.296C129.622 35.336 129.822 34.52 130.222 33.848C130.622 33.176 131.134 32.592 131.758 32.096C132.382 31.6 133.046 31.152 133.75 30.752C134.454 30.352 135.118 29.96 135.742 29.576C136.382 29.192 136.894 28.784 137.278 28.352C137.678 27.904 137.878 27.384 137.878 26.792C137.878 26.504 137.83 26.24 137.734 26C137.638 25.76 137.494 25.576 137.302 25.448C137.11 25.32 136.862 25.256 136.558 25.256C136.03 25.256 135.598 25.456 135.262 25.856C134.926 26.24 134.758 26.752 134.758 27.392C134.758 28.128 134.974 28.92 135.406 29.768C135.838 30.6 136.406 31.44 137.11 32.288C137.814 33.12 138.598 33.912 139.462 34.664C140.342 35.416 141.23 36.08 142.126 36.656C142.862 37.12 143.574 37.512 144.262 37.832C144.95 38.136 145.582 38.344 146.158 38.456L145.318 41.336C144.47 41.144 143.59 40.848 142.678 40.448C141.782 40.032 140.886 39.52 139.99 38.912C138.918 38.16 137.894 37.312 136.918 36.368C135.958 35.424 135.094 34.44 134.326 33.416C133.558 32.376 132.95 31.344 132.502 30.32C132.07 29.28 131.854 28.312 131.854 27.416C131.854 26.584 132.046 25.832 132.43 25.16C132.814 24.472 133.35 23.928 134.038 23.528C134.726 23.112 135.542 22.904 136.486 22.904C137.75 22.904 138.75 23.264 139.486 23.984C140.238 24.688 140.614 25.624 140.614 26.792C140.614 27.56 140.43 28.248 140.062 28.856C139.694 29.464 139.214 30.016 138.622 30.512C138.046 31.008 137.438 31.472 136.798 31.904C136.158 32.336 135.542 32.768 134.95 33.2C134.374 33.616 133.902 34.056 133.534 34.52C133.166 34.984 132.982 35.504 132.982 36.08C132.982 36.576 133.102 37.016 133.342 37.4C133.598 37.784 133.942 38.08 134.374 38.288C134.806 38.496 135.302 38.6 135.862 38.6C136.518 38.6 137.166 38.432 137.806 38.096C138.446 37.76 139.062 37.304 139.654 36.728C140.374 36.008 140.998 35.176 141.526 34.232C142.07 33.288 142.494 32.232 142.798 31.064H146.038C145.638 32.408 145.11 33.688 144.454 34.904C143.814 36.12 143.022 37.256 142.078 38.312C141.278 39.224 140.318 39.96 139.198 40.52C138.094 41.064 136.838 41.336 135.43 41.336ZM155.428 41.336C153.86 41.336 152.476 40.968 151.276 40.232C150.092 39.48 149.164 38.408 148.492 37.016C147.82 35.624 147.484 33.96 147.484 32.024C147.484 30.104 147.82 28.464 148.492 27.104C149.164 25.744 150.092 24.704 151.276 23.984C152.476 23.264 153.86 22.904 155.428 22.904C157.012 22.904 158.396 23.272 159.58 24.008C160.764 24.728 161.692 25.768 162.364 27.128C163.036 28.472 163.372 30.104 163.372 32.024C163.372 33.96 163.036 35.624 162.364 37.016C161.692 38.408 160.764 39.48 159.58 40.232C158.396 40.968 157.012 41.336 155.428 41.336ZM155.428 38.432C156.308 38.432 157.068 38.176 157.708 37.664C158.364 37.152 158.868 36.416 159.22 35.456C159.572 34.496 159.748 33.352 159.748 32.024C159.748 30.76 159.572 29.68 159.22 28.784C158.868 27.872 158.364 27.176 157.708 26.696C157.068 26.2 156.308 25.952 155.428 25.952C154.548 25.952 153.78 26.2 153.124 26.696C152.484 27.176 151.988 27.872 151.636 28.784C151.3 29.68 151.132 30.76 151.132 32.024C151.132 33.352 151.3 34.496 151.636 35.456C151.988 36.416 152.484 37.152 153.124 37.664C153.78 38.176 154.548 38.432 155.428 38.432ZM161.188 45.824C159.924 45.824 158.796 45.608 157.804 45.176C156.812 44.744 155.972 44.152 155.284 43.4C154.596 42.664 154.06 41.824 153.676 40.88L157.276 40.52C157.516 41.096 157.852 41.568 158.284 41.936C158.732 42.304 159.244 42.568 159.82 42.728C160.396 42.904 160.98 42.992 161.572 42.992C161.956 42.992 162.308 42.96 162.628 42.896C162.964 42.832 163.26 42.76 163.516 42.68L164.164 45.296C163.844 45.44 163.428 45.56 162.916 45.656C162.404 45.768 161.828 45.824 161.188 45.824Z" fill="#060606"/>
</svg>
