<svg width="280" height="88" viewBox="0 0 280 88" fill="none" xmlns="http://www.w3.org/2000/svg">
<rect width="280" height="88" rx="16" fill="#72BF6B"/>
<path d="M69.21 65.972C71.058 65.972 72.108 65.566 72.108 64.782C72.108 64.012 71.058 63.592 69.21 63.592C67.362 63.592 66.326 64.012 66.326 64.782C66.326 65.566 67.362 65.972 69.21 65.972ZM69.21 62.486C71.926 62.486 73.564 63.326 73.564 64.782C73.564 66.252 71.926 67.092 69.21 67.092C66.508 67.092 64.856 66.252 64.856 64.782C64.856 63.326 66.508 62.486 69.21 62.486ZM69.966 60.54H74.964V61.716H63.54V60.54H68.524V59.28H64.954V54.996H73.564V56.144H66.382V58.118H73.648V59.28H69.966V60.54ZM79.3449 62.99C80.4369 62.99 81.2069 61.8 81.2069 59.826C81.2069 57.852 80.4369 56.662 79.3449 56.662C78.2389 56.662 77.4829 57.852 77.4829 59.826C77.4829 61.8 78.2389 62.99 79.3449 62.99ZM79.3449 55.36C81.2349 55.36 82.5929 57.096 82.5929 59.826C82.5929 62.556 81.2349 64.278 79.3449 64.278C77.4549 64.278 76.0969 62.556 76.0969 59.826C76.0969 57.096 77.4549 55.36 79.3449 55.36ZM87.7449 59.378V60.568H85.7709V67.092H84.3289V54.436H85.7709V59.378H87.7449ZM90.6138 60.246V62.906C92.6158 62.892 94.3658 62.794 96.3678 62.472L96.5218 63.648C94.3518 64.026 92.4618 64.096 90.2358 64.096H89.1578V59.084H93.5678V56.732H89.1298V55.556H95.0238V60.246H90.6138ZM97.4178 54.408H98.8738V67.106H97.4178V54.408ZM110.781 60.918V56.788H107.869V60.918H110.781ZM106.427 60.918V56.788H104.565V55.626H114.071V56.788H112.209V60.918H114.043V62.094H104.607V60.918H106.427ZM103.613 64.334H115.093V65.524H103.613V64.334ZM122.512 64.404H127.538V65.594H116.086V64.404H121.07V62.248H117.472V58.174H124.752V56.48H117.444V55.318H126.18V59.322H118.886V61.086H126.46V62.248H122.512V64.404ZM133.767 57.628H135.433V54.702H136.777V62.066H135.433V58.818H133.767V57.628ZM134.761 60.568L134.033 61.674C132.913 61.226 132.143 60.386 131.709 59.378C131.261 60.498 130.449 61.436 129.245 61.94L128.489 60.834C130.155 60.134 130.981 58.594 130.981 57.124V56.578H128.811V55.416H134.411V56.578H132.395V57.124C132.395 58.51 133.179 59.924 134.761 60.568ZM130.673 63.83V62.668H139.241V67.078H137.799V63.83H130.673ZM137.869 54.436H139.241V62.15H137.869V54.436ZM151.182 61.114V62.276H142.418V55.458H151.084V56.62H143.888V58.244H150.804V59.378H143.888V61.114H151.182ZM141.004 64.348H152.47V65.524H141.004V64.348ZM160.611 56.886V58.104C160.611 60.064 161.857 62.304 163.775 63.214L162.977 64.348C161.563 63.676 160.485 62.276 159.911 60.68C159.351 62.444 158.231 63.956 156.775 64.67L155.949 63.522C157.881 62.598 159.169 60.204 159.169 58.104V56.886H156.411V55.696H163.285V56.886H160.611ZM167.947 59.42V60.61H165.973V67.078H164.531V54.436H165.973V59.42H167.947ZM172.524 55.598V57.81C172.524 59.854 173.294 61.996 174.988 63.06L174.176 64.18C173.028 63.48 172.272 62.248 171.838 60.834C171.39 62.388 170.564 63.718 169.346 64.46L168.464 63.368C170.256 62.304 171.124 60.036 171.124 57.88V55.598H172.524ZM175.492 58.86V54.674H176.85V66.49H175.492V60.036H173.63V58.86H175.492ZM178.068 54.436H179.44V67.078H178.068V54.436ZM185.165 63.172C186.201 63.172 186.957 62.472 186.957 61.408C186.957 60.344 186.201 59.644 185.165 59.644C184.129 59.644 183.373 60.344 183.373 61.408C183.373 62.472 184.129 63.172 185.165 63.172ZM185.165 58.454C186.999 58.454 188.343 59.686 188.343 61.408C188.343 63.144 186.999 64.362 185.165 64.362C183.331 64.362 181.987 63.144 181.987 61.408C181.987 59.686 183.331 58.454 185.165 58.454ZM185.879 54.604V56.41H188.917V57.572H181.371V56.41H184.423V54.604H185.879ZM190.051 54.436H191.507V67.078H190.051V54.436ZM199.005 58.566V60.638H204.997V58.566H199.005ZM202.715 64.348H207.741V65.538H196.289V64.348H201.273V61.8H197.577V55.276H199.005V57.404H204.997V55.276H206.425V61.8H202.715V64.348ZM209.462 55.766H215.454C215.454 59.532 213.942 62.724 209.602 64.824L208.832 63.676C212.15 62.08 213.718 59.854 213.97 56.942H209.462V55.766ZM217.736 54.436H219.178V67.078H217.736V54.436Z" fill="#365833"/>
<path d="M66.4143 42V24.216H69.9663V39.024H77.1903V42H66.4143ZM85.0258 42.336C81.2578 42.336 78.3298 39.72 78.3298 35.28C78.3298 30.936 81.4018 28.224 84.5938 28.224C88.2898 28.224 90.2098 30.936 90.2098 34.632C90.2098 35.304 90.1378 35.952 90.0418 36.264H81.7618C82.0498 38.472 83.4898 39.624 85.4818 39.624C86.5858 39.624 87.5458 39.288 88.5058 38.688L89.7058 40.848C88.3858 41.76 86.6818 42.336 85.0258 42.336ZM81.7138 33.912H87.1858C87.1858 32.112 86.3698 30.96 84.6418 30.96C83.2258 30.96 81.9778 31.968 81.7138 33.912ZM95.6189 42.336C93.2189 42.336 91.6349 40.632 91.6349 38.352C91.6349 35.472 93.9629 33.96 99.3869 33.384C99.3149 32.064 98.7389 31.056 97.0829 31.056C95.8349 31.056 94.6349 31.608 93.3869 32.328L92.1149 30C93.6989 29.016 95.6189 28.224 97.7309 28.224C101.139 28.224 102.891 30.264 102.891 34.152V42H100.011L99.7709 40.56H99.6749C98.4989 41.568 97.1549 42.336 95.6189 42.336ZM96.7709 39.576C97.7789 39.576 98.5229 39.096 99.3869 38.256V35.544C96.0989 35.952 94.9949 36.864 94.9949 38.064C94.9949 39.12 95.7389 39.576 96.7709 39.576ZM106.007 42V28.56H108.887L109.151 30.936H109.223C110.207 29.184 111.647 28.224 113.039 28.224C113.783 28.224 114.215 28.344 114.623 28.512L114.023 31.56C113.543 31.416 113.159 31.344 112.607 31.344C111.551 31.344 110.279 32.04 109.535 33.984V42H106.007ZM115.98 42V28.56H118.86L119.124 30.336H119.196C120.372 29.184 121.74 28.224 123.564 28.224C126.468 28.224 127.716 30.24 127.716 33.624V42H124.188V34.056C124.188 31.968 123.612 31.248 122.292 31.248C121.188 31.248 120.492 31.776 119.508 32.76V42H115.98ZM135.832 42V28.56H138.712L138.976 30.36H139.048C140.176 29.184 141.424 28.224 143.176 28.224C145.096 28.224 146.224 29.088 146.872 30.576C148.096 29.28 149.392 28.224 151.144 28.224C154 28.224 155.32 30.24 155.32 33.624V42H151.792V34.056C151.792 31.968 151.192 31.248 149.92 31.248C149.152 31.248 148.288 31.752 147.328 32.76V42H143.824V34.056C143.824 31.968 143.2 31.248 141.928 31.248C141.16 31.248 140.296 31.752 139.36 32.76V42H135.832ZM164.101 42.336C160.741 42.336 157.645 39.744 157.645 35.28C157.645 30.816 160.741 28.224 164.101 28.224C167.461 28.224 170.557 30.816 170.557 35.28C170.557 39.744 167.461 42.336 164.101 42.336ZM164.101 39.456C165.925 39.456 166.957 37.824 166.957 35.28C166.957 32.76 165.925 31.104 164.101 31.104C162.277 31.104 161.245 32.76 161.245 35.28C161.245 37.824 162.277 39.456 164.101 39.456ZM173.029 42V28.56H175.909L176.173 30.936H176.245C177.229 29.184 178.669 28.224 180.061 28.224C180.805 28.224 181.237 28.344 181.645 28.512L181.045 31.56C180.565 31.416 180.181 31.344 179.629 31.344C178.573 31.344 177.301 32.04 176.557 33.984V42H173.029ZM188.576 42.336C184.808 42.336 181.88 39.72 181.88 35.28C181.88 30.936 184.952 28.224 188.144 28.224C191.84 28.224 193.76 30.936 193.76 34.632C193.76 35.304 193.688 35.952 193.592 36.264H185.312C185.6 38.472 187.04 39.624 189.032 39.624C190.136 39.624 191.096 39.288 192.056 38.688L193.256 40.848C191.936 41.76 190.232 42.336 188.576 42.336ZM185.264 33.912H190.736C190.736 32.112 189.92 30.96 188.192 30.96C186.776 30.96 185.528 31.968 185.264 33.912Z" fill="#060606"/>
<path d="M211.175 40L212.825 41.6497L220.65 33.8248L212.825 26L211.175 27.6497L216.184 32.6582H205V34.9915H216.184L211.175 40Z" fill="#060606"/>
</svg>
