<svg width="1185" height="270" viewBox="0 0 1185 270" fill="none" xmlns="http://www.w3.org/2000/svg">
<path d="M510.256 194.382C511.804 194.382 512.902 192.69 512.902 190.062C512.902 187.452 511.804 185.76 510.256 185.76C508.69 185.76 507.592 187.452 507.592 190.062C507.592 192.69 508.69 194.382 510.256 194.382ZM510.256 184.428C512.632 184.428 514.306 186.624 514.306 190.062C514.306 193.5 512.632 195.696 510.256 195.696C507.88 195.696 506.188 193.5 506.188 190.062C506.188 186.624 507.88 184.428 510.256 184.428ZM521.038 189.63V190.872H518.374V199.332H516.898V183.204H518.374V189.63H521.038ZM533.889 183.186H535.365V199.368H533.889V183.186ZM526.851 184.428C529.245 184.428 530.955 186.624 530.955 190.062C530.955 193.5 529.245 195.696 526.851 195.696C524.457 195.696 522.747 193.5 522.747 190.062C522.747 186.624 524.457 184.428 526.851 184.428ZM526.851 185.76C525.267 185.76 524.151 187.452 524.151 190.062C524.151 192.69 525.267 194.382 526.851 194.382C528.417 194.382 529.533 192.69 529.533 190.062C529.533 187.452 528.417 185.76 526.851 185.76ZM540.853 185.958V194.094C543.967 194.094 546.001 194.004 548.377 193.554L548.539 194.796C546.055 195.246 543.949 195.354 540.691 195.354H539.395V184.716H547.027V185.958H540.853ZM550.087 183.186H551.563V199.368H550.087V183.186ZM558.87 194.382C560.4 194.382 561.48 192.69 561.48 190.062C561.48 187.452 560.4 185.76 558.87 185.76C557.322 185.76 556.242 187.452 556.242 190.062C556.242 192.69 557.322 194.382 558.87 194.382ZM566.376 183.186H567.852V199.368H566.376V190.548H562.866C562.722 193.716 561.12 195.696 558.87 195.696C556.512 195.696 554.838 193.5 554.838 190.062C554.838 186.624 556.512 184.428 558.87 184.428C561.048 184.428 562.632 186.318 562.866 189.342H566.376V183.186ZM582.052 186.012V184.698H572.584V183.654H583.51V187.02H574.078V188.406H583.798V189.468H572.62V186.012H582.052ZM573.988 196.56V198.054H584.068V199.116H572.53V195.534H582.106V194.184H572.494V193.122H583.564V196.56H573.988ZM570.748 190.692H585.382V191.808H570.748V190.692ZM603.842 183.204V191.556H602.366V183.204H603.842ZM600.386 189.936L599.648 191.088C597.794 190.44 596.318 189.09 595.58 187.38C594.878 189.234 593.384 190.71 591.476 191.394L590.72 190.242C593.15 189.396 594.824 187.236 594.824 184.896V183.672H596.3V184.896C596.3 187.128 597.992 189.144 600.386 189.936ZM594.896 197.982H604.4V199.152H593.438V195.138H602.402V193.518H593.402V192.366H603.86V196.254H594.896V197.982ZM611.545 186.282V187.74C611.545 190.548 612.751 193.356 614.983 194.616L614.083 195.696C612.517 194.76 611.401 193.032 610.843 190.98C610.285 193.194 609.115 195.084 607.513 196.092L606.613 194.994C608.863 193.644 610.123 190.71 610.123 187.74V186.282H607.063V185.076H614.425V186.282H611.545ZM615.865 188.982V183.546H617.269V198.486H615.865V190.188H613.201V188.982H615.865ZM619.105 183.168H620.527V199.314H619.105V183.168ZM631.056 196.128H637.662V197.334H622.992V196.128H629.562V193.086H624.828V188.1H634.404V185.58H624.792V184.374H635.844V189.288H626.286V191.898H636.222V193.086H631.056V196.128ZM657.49 191.178V192.384H650.902V199.35H649.408V192.384H642.892V191.178H653.602C654.106 188.856 654.106 187.146 654.106 185.634V185.418H644.71V184.23H655.546V185.634C655.546 187.146 655.546 188.856 655.096 191.178H657.49ZM668.144 187.488H670.862V183.204H672.356V195.498H670.862V192.078H668.144V190.872H670.862V188.694H668.144V187.488ZM668.144 185.166V186.354H659.108V185.166H662.96V183.168H664.436V185.166H668.144ZM661.43 190.314C661.43 191.466 662.348 192.258 663.68 192.258C665.012 192.258 665.93 191.466 665.93 190.314C665.93 189.18 665.012 188.406 663.68 188.406C662.348 188.406 661.43 189.18 661.43 190.314ZM667.334 190.314C667.334 192.168 665.822 193.41 663.68 193.41C661.538 193.41 660.026 192.168 660.026 190.314C660.026 188.478 661.538 187.254 663.68 187.254C665.822 187.254 667.334 188.478 667.334 190.314ZM663.464 197.766H672.734V198.972H661.988V194.454H663.464V197.766ZM680.005 194.508C681.481 194.508 682.543 193.464 682.543 192.024C682.543 190.566 681.481 189.522 680.005 189.522C678.547 189.522 677.485 190.566 677.485 192.024C677.485 193.464 678.547 194.508 680.005 194.508ZM680.005 188.298C682.309 188.298 683.947 189.846 683.947 192.024C683.947 194.22 682.309 195.732 680.005 195.732C677.737 195.732 676.099 194.22 676.099 192.024C676.099 189.846 677.737 188.298 680.005 188.298ZM680.725 183.384V185.778H684.703V186.966H675.181V185.778H679.249V183.384H680.725ZM690.355 189.828V191.07H687.709V199.332H686.233V183.204H687.709V189.828H690.355ZM704.411 188.046V189.252H693.431V183.78H694.907V188.046H704.411ZM694.799 194.22V197.73H704.501V198.936H693.323V194.22H694.799ZM691.451 191.412H706.085V192.6H691.451V191.412ZM713.493 185.958V194.076C716.355 194.076 718.425 193.95 720.765 193.536L720.927 194.76C718.461 195.228 716.337 195.336 713.295 195.336H712.017V184.734H719.523V185.958H713.493ZM726.417 189.558V190.782H723.753V199.368H722.277V183.186H723.753V189.558H726.417ZM729.278 187.938C729.278 189.45 730.43 190.512 732.05 190.512C733.652 190.512 734.822 189.45 734.822 187.938C734.822 186.426 733.652 185.382 732.05 185.382C730.43 185.382 729.278 186.426 729.278 187.938ZM736.262 187.938C736.262 190.188 734.48 191.754 732.05 191.754C729.602 191.754 727.838 190.188 727.838 187.938C727.838 185.706 729.602 184.158 732.05 184.158C734.48 184.158 736.262 185.706 736.262 187.938ZM734.93 198.144C737.306 198.144 738.764 197.442 738.764 196.29C738.764 195.12 737.306 194.436 734.93 194.436C732.536 194.436 731.078 195.12 731.078 196.29C731.078 197.442 732.536 198.144 734.93 198.144ZM734.93 193.266C738.188 193.266 740.24 194.364 740.24 196.29C740.24 198.198 738.188 199.314 734.93 199.314C731.654 199.314 729.602 198.198 729.602 196.29C729.602 194.364 731.654 193.266 734.93 193.266ZM742.418 186.804H740.078V189.036H742.418V190.26H740.078V192.762H738.602V183.204H740.078V185.598H742.418V186.804ZM753.306 185.166V186.354H743.784V185.166H747.798V183.186H749.274V185.166H753.306ZM746.088 190.242C746.088 191.376 747.078 192.096 748.536 192.096C749.994 192.096 751.002 191.376 751.002 190.242C751.002 189.126 749.994 188.406 748.536 188.406C747.078 188.406 746.088 189.126 746.088 190.242ZM752.406 190.242C752.406 192.06 750.822 193.248 748.536 193.248C746.25 193.248 744.684 192.06 744.684 190.242C744.684 188.442 746.25 187.254 748.536 187.254C750.822 187.254 752.406 188.442 752.406 190.242ZM747.69 194.346V197.766H756.978V198.972H746.214V194.346H747.69ZM756.258 188.514H758.634V189.756H756.258V195.3H754.782V183.186H756.258V188.514ZM773.512 190.206L773.674 191.376C771.316 191.772 769.354 191.844 765.826 191.844H764.512V184.176H772.216V185.364H765.988V187.362H771.766V188.532H765.988V190.656C769.354 190.656 771.262 190.584 773.512 190.206ZM767.842 194.814V197.928H775.402V194.814H767.842ZM766.402 199.116V193.626H776.842V199.116H766.402ZM775.366 183.204H776.842V192.834H775.366V183.204ZM792.746 191.61V185.994H788.732V191.61H792.746ZM787.256 191.61V185.994H784.754V184.806H796.724V185.994H794.222V191.61H796.688V192.816H784.79V191.61H787.256ZM783.458 196.038H798.092V197.262H783.458V196.038ZM807.703 196.128H814.309V197.334H799.639V196.128H806.209V193.086H801.475V188.1H811.051V185.58H801.439V184.374H812.491V189.288H802.933V191.898H812.869V193.086H807.703V196.128ZM822.516 187.344H824.946V183.546H826.35V192.942H824.946V188.55H822.516V187.344ZM823.776 191.16L823.038 192.294C821.562 191.646 820.5 190.476 819.942 189.072C819.384 190.638 818.268 191.97 816.702 192.672L815.928 191.538C818.016 190.638 819.204 188.55 819.204 186.624V185.706H816.234V184.5H823.398V185.706H820.626V186.606C820.626 188.388 821.76 190.296 823.776 191.16ZM818.628 194.976V193.788H829.482V199.35H828.006V194.976H818.628ZM828.06 183.204H829.482V193.068H828.06V183.204ZM845.014 191.898V193.086H833.926V184.59H844.852V185.778H835.42V188.172H844.492V189.342H835.42V191.898H845.014ZM832.036 196.038H846.688V197.244H832.036V196.038ZM859.557 186.012V184.698H850.089V183.654H861.015V187.02H851.583V188.406H861.303V189.468H850.125V186.012H859.557ZM851.493 196.56V198.054H861.573V199.116H850.035V195.534H859.611V194.184H849.999V193.122H861.069V196.56H851.493ZM848.253 190.692H862.887V191.808H848.253V190.692ZM881.365 183.204V195.012H879.889V183.204H881.365ZM877.981 191.538L877.261 192.708C875.407 192.06 873.931 190.728 873.193 189.036C872.509 190.872 871.015 192.33 869.107 193.014L868.333 191.862C870.781 191.016 872.419 188.91 872.419 186.606V185.724H868.729V184.536H877.585V185.724H873.931V186.606C873.931 188.784 875.605 190.746 877.981 191.538ZM872.455 197.766H881.851V198.972H870.979V193.896H872.455V197.766ZM894.467 188.784V192.816H893.063V183.492H894.467V187.578H896.519V183.186H897.941V193.41H896.519V188.784H894.467ZM892.415 185.112L892.433 186.282H884.225V185.112H887.609V183.312H889.067V185.112H892.415ZM886.223 189.882C886.223 190.89 887.069 191.556 888.347 191.556C889.607 191.556 890.471 190.89 890.471 189.882C890.471 188.892 889.607 188.226 888.347 188.226C887.069 188.226 886.223 188.892 886.223 189.882ZM891.785 189.882C891.785 191.574 890.381 192.654 888.347 192.654C886.313 192.654 884.891 191.574 884.891 189.882C884.891 188.226 886.313 187.128 888.347 187.128C890.381 187.128 891.785 188.226 891.785 189.882ZM892.631 198.18C895.079 198.18 896.555 197.568 896.555 196.506C896.555 195.426 895.079 194.814 892.631 194.814C890.165 194.814 888.689 195.426 888.689 196.506C888.689 197.568 890.165 198.18 892.631 198.18ZM892.631 193.68C895.997 193.68 898.031 194.688 898.031 196.506C898.031 198.306 895.997 199.314 892.631 199.314C889.265 199.314 887.231 198.306 887.231 196.506C887.231 194.688 889.265 193.68 892.631 193.68ZM910.09 184.842V186.03H900.568V184.842H904.582V183.024H906.058V184.842H910.09ZM902.872 189.612C902.872 190.674 903.844 191.322 905.32 191.322C906.796 191.322 907.786 190.674 907.786 189.612C907.786 188.568 906.796 187.902 905.32 187.902C903.844 187.902 902.872 188.568 902.872 189.612ZM909.19 189.612C909.19 191.34 907.624 192.438 905.32 192.438C903.016 192.438 901.468 191.34 901.468 189.612C901.468 187.902 903.016 186.804 905.32 186.804C907.624 186.804 909.19 187.902 909.19 189.612ZM911.584 197.928V196.146H904.348V197.928H911.584ZM911.584 194.994V193.284H913.042V199.116H902.89V193.284H904.348V194.994H911.584ZM915.436 187.29V188.532H913.042V192.564H911.566V183.186H913.042V187.29H915.436ZM919.197 184.752V193.896C921.627 193.896 924.129 193.68 926.811 193.14L926.973 194.4C924.165 194.976 921.627 195.156 919.053 195.156H917.721V184.752H919.197ZM928.467 183.186H929.943V199.314H928.467V183.186ZM935.071 185.958V194.076C937.933 194.076 940.003 193.95 942.343 193.536L942.505 194.76C940.039 195.228 937.915 195.336 934.873 195.336H933.595V184.734H941.101V185.958H935.071ZM947.995 189.558V190.782H945.331V199.368H943.855V183.186H945.331V189.558H947.995ZM950.658 198.234C950.01 198.234 949.47 197.73 949.47 196.992C949.47 196.236 950.01 195.714 950.658 195.714C951.306 195.714 951.846 196.236 951.846 196.992C951.846 197.73 951.306 198.234 950.658 198.234ZM506.908 218.932H514.468C514.468 223.594 512.326 227.698 506.962 230.326L506.17 229.12C510.508 227.05 512.668 223.954 512.974 220.12H506.908V218.932ZM517.726 217.186H519.202V233.332H517.726V217.186ZM532.215 218.662V219.778H522.765V218.662H526.743V217.096H528.219V218.662H532.215ZM525.051 222.784C525.051 223.612 526.023 224.152 527.481 224.152C528.975 224.152 529.929 223.612 529.929 222.784C529.929 221.938 528.975 221.416 527.481 221.416C526.023 221.416 525.051 221.938 525.051 222.784ZM532.611 225.826L532.701 226.87C529.191 227.446 525.339 227.5 522.441 227.5L522.225 226.33C523.575 226.33 525.141 226.33 526.743 226.276V225.16C524.853 224.962 523.665 224.08 523.665 222.784C523.665 221.308 525.195 220.372 527.481 220.372C529.803 220.372 531.333 221.308 531.333 222.784C531.333 224.098 530.127 224.98 528.219 225.16V226.204C529.713 226.132 531.207 226.024 532.611 225.826ZM524.547 229.93V228.76H535.365V233.332H533.889V229.93H524.547ZM533.889 217.222H535.365V228.004H533.889V217.222ZM549.655 223.612V221.236H541.645V223.612H549.655ZM551.131 217.834V224.818H540.187V217.834H541.645V220.048H549.655V217.834H551.131ZM552.985 226.762V227.95H546.361V233.35H544.885V227.95H538.333V226.762H552.985ZM556.764 224.386V228.256C559.68 228.256 561.552 228.148 563.748 227.752L563.91 228.958C561.57 229.372 559.608 229.462 556.53 229.462H555.288V218.644H562.758V219.868H556.764V223.198H562.056V224.386H556.764ZM566.376 217.168H567.852V233.35H566.376V224.494H563.046V223.27H566.376V217.168ZM575.026 219.274H581.326C581.326 223.432 579.868 227.284 575.278 229.876L574.414 228.814C578.122 226.744 579.652 223.828 579.868 220.48H575.026V219.274ZM586.69 217.186H588.112V233.332H586.69V224.89H584.494V232.522H583.108V217.618H584.494V223.684H586.69V217.186ZM597.308 223.72V221.308H592.736V223.72H597.308ZM598.748 217.852V224.908H591.278V217.852H592.736V220.174H597.308V217.852H598.748ZM594.374 230.218V231.982H603.734V233.152H592.934V229.12H601.682V227.464H592.88V226.294H603.14V230.218H594.374ZM603.14 220.66H605.534V221.884H603.14V225.538H601.664V217.204H603.14V220.66ZM607.207 235.42L606.811 234.448C607.945 233.944 608.611 233.062 608.611 232C608.539 232.018 608.485 232.018 608.413 232.018C607.783 232.018 607.207 231.622 607.207 230.866C607.207 230.164 607.783 229.714 608.449 229.714C609.313 229.714 609.835 230.452 609.835 231.658C609.835 233.386 608.827 234.736 607.207 235.42ZM620.49 228.094V223.828H617.106V228.094H620.49ZM620.49 222.658V218.716H621.876V229.282H615.702V218.716H617.106V222.658H620.49ZM627.438 217.186H628.842V233.332H627.438V224.782H625.26V232.54H623.874V217.546H625.26V223.576H627.438V217.186ZM636.599 219.922V225.214H640.613V219.922H636.599ZM639.353 230.11H645.959V231.316H631.325V230.11H637.859V226.402H632.657V225.214H635.123V219.922H632.621V218.734H644.591V219.922H642.089V225.214H644.555V226.402H639.353V230.11ZM647.991 218.932H652.365C652.365 222.82 651.555 226.6 648.621 229.696L647.469 228.868C649.863 226.384 650.799 223.396 650.961 220.156H647.991V218.932ZM652.905 218.932H656.775C656.775 222.82 656.217 227.266 653.247 230.776L652.059 229.966C654.543 227.104 655.263 223.576 655.389 220.156H652.905V218.932ZM662.607 223.846V225.07H660.213V233.332H658.737V217.186H660.213V223.846H662.607ZM669.482 220.066V222.118C669.482 224.854 671.426 227.644 673.802 228.652L672.974 229.84C671.102 228.976 669.518 227.122 668.744 224.908C668.006 227.266 666.422 229.3 664.586 230.236L663.722 229.048C666.044 227.95 668.006 224.908 668.006 222.118V220.066H664.262V218.842H673.28V220.066H669.482ZM675.458 217.204H676.934V233.332H675.458V217.204ZM692.154 221.65H695.394V217.204H696.888V229.03H695.394V222.856H692.154V221.65ZM693.108 225.448L692.37 226.6C690.57 225.952 689.184 224.602 688.482 222.946C687.78 224.782 686.304 226.276 684.414 226.96L683.64 225.808C686.034 224.944 687.708 222.802 687.708 220.516V219.706H684.108V218.5H692.73V219.706H689.184V220.498C689.184 222.604 690.768 224.62 693.108 225.448ZM688.05 231.766H697.338V232.972H686.556V227.986H688.05V231.766ZM711.874 226.24L710.398 226.096C710.848 223.414 710.884 221.452 710.884 220.156H704.17V218.95H712.324V219.832C712.324 221.128 712.324 223.234 711.874 226.24ZM708.166 223.558V228.49C709.93 228.418 711.73 228.31 713.368 228.112L713.458 229.192C710.11 229.732 706.312 229.804 703.45 229.804L703.288 228.58C704.314 228.58 705.502 228.562 706.708 228.526V223.558H708.166ZM718.408 223.936V225.178H715.834V233.332H714.358V217.186H715.834V223.936H718.408ZM728.27 221.38H731.456V217.204H732.95V226.816H731.456V222.586H728.27V221.38ZM729.17 225.052L728.432 226.204C726.632 225.556 725.246 224.224 724.544 222.568C723.86 224.44 722.366 225.952 720.476 226.672L719.702 225.502C722.114 224.62 723.77 222.442 723.77 220.12V219.562H720.17V218.374H728.792V219.562H725.246V220.12C725.246 222.19 726.83 224.224 729.17 225.052ZM727.622 232.18C730.052 232.18 731.528 231.496 731.528 230.326C731.528 229.156 730.052 228.454 727.622 228.454C725.192 228.454 723.716 229.156 723.716 230.326C723.716 231.496 725.192 232.18 727.622 232.18ZM727.622 227.32C730.934 227.32 733.004 228.418 733.004 230.326C733.004 232.234 730.934 233.332 727.622 233.332C724.31 233.332 722.24 232.234 722.24 230.326C722.24 228.418 724.31 227.32 727.622 227.32ZM743.137 218.572C740.491 218.572 738.979 219.184 738.979 220.264C738.979 221.344 740.491 221.956 743.137 221.956C745.783 221.956 747.295 221.344 747.295 220.264C747.295 219.184 745.783 218.572 743.137 218.572ZM743.137 223.054C739.591 223.054 737.467 222.082 737.467 220.264C737.467 218.446 739.591 217.456 743.137 217.456C746.683 217.456 748.807 218.446 748.807 220.264C748.807 222.082 746.683 223.054 743.137 223.054ZM739.087 230.362V232H749.059V233.152H737.647V229.282H747.115V227.842H737.593V226.726H748.573V230.362H739.087ZM735.829 224.152H750.445V225.34H735.829V224.152ZM765.287 218.896V220.084H755.765V218.896H759.779V217.042H761.255V218.896H765.287ZM758.069 223.774C758.069 224.836 759.041 225.538 760.517 225.538C761.993 225.538 762.983 224.836 762.983 223.774C762.983 222.712 761.993 222.01 760.517 222.01C759.041 222.01 758.069 222.712 758.069 223.774ZM764.387 223.774C764.387 225.52 762.821 226.636 760.517 226.636C758.213 226.636 756.665 225.52 756.665 223.774C756.665 222.01 758.213 220.894 760.517 220.894C762.821 220.894 764.387 222.01 764.387 223.774ZM759.545 228.994V231.928H766.781V228.994H759.545ZM758.105 233.116V227.824H768.239V233.116H758.105ZM770.633 221.488V222.712H768.239V226.906H766.763V217.204H768.239V221.488H770.633ZM772.288 219.112H775.87C775.87 222.568 775.42 226.366 773.098 229.498L771.946 228.85C773.944 226.276 774.502 223.324 774.61 220.318H772.288V219.112ZM781.288 223.522V217.6H782.674V232.504H781.288V224.728H779.038C778.66 226.744 777.976 228.778 776.68 230.542L775.528 229.876C777.724 226.996 778.102 223.36 778.156 220.318H776.41V219.112H779.434C779.434 220.444 779.398 221.956 779.218 223.522H781.288ZM784.276 217.186H785.68V233.314H784.276V217.186ZM792.842 228.508C794.318 228.508 795.38 227.464 795.38 226.024C795.38 224.566 794.318 223.522 792.842 223.522C791.384 223.522 790.322 224.566 790.322 226.024C790.322 227.464 791.384 228.508 792.842 228.508ZM792.842 222.298C795.146 222.298 796.784 223.846 796.784 226.024C796.784 228.22 795.146 229.732 792.842 229.732C790.574 229.732 788.936 228.22 788.936 226.024C788.936 223.846 790.574 222.298 792.842 222.298ZM793.562 217.384V219.778H797.54V220.966H788.018V219.778H792.086V217.384H793.562ZM803.192 223.828V225.07H800.546V233.332H799.07V217.204H800.546V223.828H803.192ZM812.299 225.502H816.133V222.262H812.299V225.502ZM810.841 228.076V219.94H806.395V228.076H810.841ZM816.133 217.186H817.609V233.368H816.133V226.708H812.299V229.246H804.955V218.77H812.299V221.056H816.133V217.186ZM837.401 217.204V225.556H835.925V217.204H837.401ZM833.945 223.936L833.207 225.088C831.353 224.44 829.877 223.09 829.139 221.38C828.437 223.234 826.943 224.71 825.035 225.394L824.279 224.242C826.709 223.396 828.383 221.236 828.383 218.896V217.672H829.859V218.896C829.859 221.128 831.551 223.144 833.945 223.936ZM828.455 231.982H837.959V233.152H826.997V229.138H835.961V227.518H826.961V226.366H837.419V230.254H828.455V231.982ZM848.937 221.65H852.177V217.204H853.671V229.03H852.177V222.856H848.937V221.65ZM849.891 225.448L849.153 226.6C847.353 225.952 845.967 224.602 845.265 222.946C844.563 224.782 843.087 226.276 841.197 226.96L840.423 225.808C842.817 224.944 844.491 222.802 844.491 220.516V219.706H840.891V218.5H849.513V219.706H845.967V220.498C845.967 222.604 847.551 224.62 849.891 225.448ZM844.833 231.766H854.121V232.972H843.339V227.986H844.833V231.766ZM872.041 221.362H868.009C866.965 223.954 864.517 225.844 861.043 226.852L860.449 225.682C864.301 224.53 866.695 222.388 866.965 219.598H861.277V218.41H868.567C868.567 219.004 868.495 219.598 868.387 220.156H872.041V217.204H873.535V226.852H872.041V224.728H867.811V223.522H872.041V221.362ZM868.261 232.108C870.637 232.108 872.149 231.37 872.149 230.146C872.149 228.94 870.637 228.202 868.261 228.202C865.885 228.202 864.373 228.94 864.373 230.146C864.373 231.37 865.885 232.108 868.261 232.108ZM868.261 227.032C871.519 227.032 873.607 228.202 873.607 230.146C873.607 232.09 871.519 233.26 868.261 233.26C865.003 233.26 862.915 232.09 862.915 230.146C862.915 228.202 865.003 227.032 868.261 227.032ZM885.81 218.878V220.066H876.45V218.878H880.392V217.024H881.868V218.878H885.81ZM878.79 223.774C878.79 224.818 879.762 225.538 881.13 225.538C882.498 225.538 883.47 224.818 883.47 223.774C883.47 222.73 882.498 222.01 881.13 222.01C879.762 222.01 878.79 222.73 878.79 223.774ZM884.856 223.774C884.856 225.502 883.308 226.636 881.13 226.636C878.934 226.636 877.386 225.502 877.386 223.774C877.386 222.046 878.934 220.894 881.13 220.894C883.308 220.894 884.856 222.046 884.856 223.774ZM880.68 228.994V231.928H888.294V228.994H880.68ZM879.24 233.116V227.824H889.734V233.116H879.24ZM888.24 217.204H889.734V226.96H888.24V223.306H885.558V222.1H888.24V217.204ZM901.055 226.24L899.579 226.096C900.029 223.414 900.065 221.452 900.065 220.156H893.351V218.95H901.505V219.832C901.505 221.128 901.505 223.234 901.055 226.24ZM897.347 223.558V228.49C899.111 228.418 900.911 228.31 902.549 228.112L902.639 229.192C899.291 229.732 895.493 229.804 892.631 229.804L892.469 228.58C893.495 228.58 894.683 228.562 895.889 228.526V223.558H897.347ZM907.589 223.936V225.178H905.015V233.332H903.539V217.186H905.015V223.936H907.589ZM917.769 219.922V225.214H921.783V219.922H917.769ZM920.523 230.11H927.129V231.316H912.495V230.11H919.029V226.402H913.827V225.214H916.293V219.922H913.791V218.734H925.761V219.922H923.259V225.214H925.725V226.402H920.523V230.11ZM941.653 225.898V227.086H930.565V218.59H941.491V219.778H932.059V222.172H941.131V223.342H932.059V225.898H941.653ZM928.675 230.038H943.327V231.244H928.675V230.038ZM948.132 230.452V232.036H958.104V233.152H946.692V229.408H956.16V228.076H946.638V226.978H957.618V230.452H948.132ZM950.166 218.752V221.83H954.18V218.752H950.166ZM952.92 224.512H959.472V225.7H944.874V224.512H951.444V222.964H946.296V221.83H948.69V218.752H946.242V217.618H958.086V218.752H955.656V221.83H958.032V222.964H952.92V224.512ZM963.502 224.44V228.22C966.148 228.22 968.524 228.094 971.35 227.644L971.494 228.85C968.578 229.336 966.13 229.444 963.358 229.444H962.026V223.252H967.966V219.886H961.972V218.68H969.46V224.44H963.502ZM972.862 217.168H974.338V233.35H972.862V217.168ZM980.133 222.478C980.133 224.332 982.023 225.538 984.597 225.538C987.171 225.538 989.043 224.332 989.043 222.478C989.043 220.624 987.171 219.418 984.597 219.418C982.023 219.418 980.133 220.624 980.133 222.478ZM985.335 230.038H991.941V231.262H977.271V230.038H983.841V226.672C980.835 226.456 978.711 224.854 978.711 222.478C978.711 219.904 981.177 218.248 984.597 218.248C987.999 218.248 990.447 219.904 990.447 222.478C990.447 224.854 988.341 226.456 985.335 226.672V230.038ZM1004.79 220.012V218.698H995.324V217.654H1006.25V221.02H996.818V222.406H1006.54V223.468H995.36V220.012H1004.79ZM996.728 230.56V232.054H1006.81V233.116H995.27V229.534H1004.85V228.184H995.234V227.122H1006.3V230.56H996.728ZM993.488 224.692H1008.12V225.808H993.488V224.692ZM1018.64 224.944C1017.42 224.188 1016.75 222.91 1016.39 221.596C1015.98 222.892 1015.22 224.08 1014 224.782L1013.23 223.738C1015.04 222.676 1015.71 220.48 1015.71 218.932V217.852H1017.13V218.932C1017.13 220.138 1017.44 222.028 1018.64 223.288C1019.85 222.064 1020.17 220.228 1020.17 218.95V217.87H1020.46V217.852H1021.56V218.932C1021.56 220.678 1022.24 222.748 1024.06 223.738L1023.27 224.782C1022.05 224.116 1021.29 223 1020.88 221.704C1020.52 223 1019.85 224.242 1018.64 224.962V224.944ZM1021.2 232.234C1023.27 232.234 1024.44 231.784 1024.44 230.974C1024.44 230.164 1023.27 229.714 1021.2 229.714C1019.09 229.714 1017.92 230.164 1017.92 230.974C1017.92 231.784 1019.09 232.234 1021.2 232.234ZM1021.2 228.634C1024.15 228.634 1025.9 229.462 1025.9 230.974C1025.9 232.486 1024.15 233.314 1021.2 233.314C1018.21 233.314 1016.48 232.486 1016.48 230.974C1016.48 229.462 1018.21 228.634 1021.2 228.634ZM1021.94 225.142V226.726H1026.89V227.86H1015.48V226.726H1020.44V225.142H1021.94ZM1026.22 220.678H1028.29V221.902H1026.22V225.772H1024.75V217.204H1026.22V220.678ZM1036.84 218.572C1034.19 218.572 1032.68 219.184 1032.68 220.264C1032.68 221.344 1034.19 221.956 1036.84 221.956C1039.49 221.956 1041 221.344 1041 220.264C1041 219.184 1039.49 218.572 1036.84 218.572ZM1036.84 223.054C1033.29 223.054 1031.17 222.082 1031.17 220.264C1031.17 218.446 1033.29 217.456 1036.84 217.456C1040.39 217.456 1042.51 218.446 1042.51 220.264C1042.51 222.082 1040.39 223.054 1036.84 223.054ZM1032.79 230.362V232H1042.76V233.152H1031.35V229.282H1040.82V227.842H1031.3V226.726H1042.28V230.362H1032.79ZM1029.53 224.152H1044.15V225.34H1029.53V224.152ZM1063.31 223.342L1062.7 224.53C1060.2 224.098 1057.77 222.694 1056.72 220.75C1055.71 222.712 1053.28 224.098 1050.76 224.53L1050.17 223.342C1053.1 222.91 1055.95 220.966 1055.95 218.662V217.762H1057.5V218.662C1057.5 220.912 1060.38 222.91 1063.31 223.342ZM1064.01 226.276L1064.03 227.5H1057.42V233.35H1055.95V227.5H1049.43V226.276H1064.01ZM1082.53 217.204V226.42H1081.05V217.204H1082.53ZM1073.85 219.364C1072.25 219.364 1071.1 220.426 1071.1 221.902C1071.1 223.396 1072.25 224.44 1073.85 224.44C1075.45 224.44 1076.64 223.396 1076.64 221.902C1076.64 220.426 1075.45 219.364 1073.85 219.364ZM1073.85 225.664C1071.42 225.664 1069.66 224.134 1069.66 221.902C1069.66 219.67 1071.42 218.14 1073.85 218.14C1076.3 218.14 1078.08 219.67 1078.08 221.902C1078.08 224.134 1076.3 225.664 1073.85 225.664ZM1080.73 227.122V227.986C1080.73 229.66 1081.91 231.316 1083.97 232L1083.23 233.116C1081.64 232.54 1080.53 231.424 1079.99 230.074C1079.48 231.388 1078.49 232.612 1077 233.26C1075.45 232.648 1074.48 231.478 1073.99 230.128C1073.42 231.424 1072.32 232.54 1070.81 233.116L1070.07 232C1072.1 231.28 1073.31 229.534 1073.31 227.986V227.122H1074.73V227.986C1074.73 229.408 1075.47 230.938 1076.96 231.82C1078.51 230.866 1079.29 229.246 1079.29 227.986V227.122H1080.73ZM1089.8 228.382C1091.33 228.382 1092.41 226.69 1092.41 224.062C1092.41 221.452 1091.33 219.76 1089.8 219.76C1088.25 219.76 1087.17 221.452 1087.17 224.062C1087.17 226.69 1088.25 228.382 1089.8 228.382ZM1097.3 217.186H1098.78V233.368H1097.3V224.548H1093.79C1093.65 227.716 1092.05 229.696 1089.8 229.696C1087.44 229.696 1085.76 227.5 1085.76 224.062C1085.76 220.624 1087.44 218.428 1089.8 218.428C1091.97 218.428 1093.56 220.318 1093.79 223.342H1097.3V217.186ZM1106.73 226.24V230.038H1111.23V226.24C1110.55 226.402 1109.78 226.492 1108.97 226.492C1108.17 226.492 1107.4 226.402 1106.73 226.24ZM1108.97 219.364C1106.37 219.364 1104.52 220.552 1104.52 222.352C1104.52 224.152 1106.37 225.34 1108.97 225.34C1111.56 225.34 1113.43 224.152 1113.43 222.352C1113.43 220.552 1111.56 219.364 1108.97 219.364ZM1112.71 230.038H1116.33V231.262H1101.66V230.038H1105.26V225.682C1103.91 224.98 1103.1 223.81 1103.1 222.352C1103.1 219.832 1105.55 218.212 1108.97 218.212C1112.4 218.212 1114.83 219.832 1114.83 222.352C1114.83 223.81 1114.04 224.962 1112.71 225.664V230.038ZM1119.42 232.234C1118.77 232.234 1118.23 231.73 1118.23 230.992C1118.23 230.236 1118.77 229.714 1119.42 229.714C1120.07 229.714 1120.61 230.236 1120.61 230.992C1120.61 231.73 1120.07 232.234 1119.42 232.234Z" fill="#A1A1A1"/>
<path d="M29.0533 74.84C29.0533 75.8533 28.8533 76.6267 28.4533 77.16C28.0533 77.6667 27.2933 77.92 26.1733 77.92C25.4 77.92 24.6533 77.7867 23.9333 77.52C23.24 77.2267 22.64 76.7333 22.1333 76.04L22.4933 74.88C22.7333 75.0133 23.0266 75.0133 23.3733 74.88C23.64 74.7733 23.7733 74.4533 23.7733 73.92V44.92C23.7733 44.7333 23.72 44.5467 23.6133 44.36C23.5066 44.1467 23.3866 43.9733 23.2533 43.84L24.3733 42.56C25.28 42.6667 26.0266 42.8133 26.6133 43C27.2266 43.16 27.72 43.3333 28.0933 43.52C28.44 43.7067 28.68 43.8933 28.8133 44.08C28.9733 44.24 29.0533 44.3733 29.0533 44.48V56.16C29.6666 56.08 30.2 55.9467 30.6533 55.76C31.1066 55.5733 31.48 55.3733 31.7733 55.16V43.16C31.7733 42.7867 31.5866 42.4133 31.2133 42.04L32.4933 40.96C33.3733 41.0667 34.1066 41.2133 34.6933 41.4C35.28 41.56 35.76 41.7333 36.1333 41.92C36.48 42.1067 36.72 42.2933 36.8533 42.48C37.0133 42.64 37.0933 42.7733 37.0933 42.88V76.52C37.0933 77.32 37 77.9067 36.8133 78.28C36.6266 78.6533 36.2266 79 35.6133 79.32C35.24 79.5067 34.72 79.6 34.0533 79.6C33.1733 79.6 32.4 79.44 31.7333 79.12C31.0933 78.8267 30.4666 78.3333 29.8533 77.64L30.5333 76.56C30.6666 76.6133 30.8133 76.6533 30.9733 76.68C31.1333 76.7067 31.2933 76.68 31.4533 76.6C31.6133 76.52 31.7066 76.3867 31.7333 76.2C31.76 75.9867 31.7733 75.7467 31.7733 75.48V58.76H29.0533V74.84ZM21.2933 64.84C21.2933 65.5333 21.0266 66.04 20.4933 66.36C19.96 66.68 19.3466 66.8533 18.6533 66.88H10.9733V67.36C10.36 67.68 9.74662 67.9067 9.13328 68.04C8.51995 68.1733 7.86662 68.24 7.17328 68.24C6.53328 68.24 5.83995 68.16 5.09328 68C4.37328 67.8133 3.69328 67.4533 3.05328 66.92L3.49328 65.24C4.05328 65.5333 4.39995 65.6667 4.53328 65.64C4.74662 65.5333 4.86662 65.3867 4.89328 65.2C4.91995 64.9867 4.93328 64.7333 4.93328 64.44V49.56C4.93328 49.2667 4.86662 48.9867 4.73328 48.72C4.62662 48.4533 4.49328 48.2133 4.33328 48L5.01328 46.76C6.98662 46.9733 8.45328 47.2933 9.41328 47.72C10.4 48.12 10.92 48.4267 10.9733 48.64V53.68C11.6666 53.2 12.3466 52.8267 13.0133 52.56C13.7066 52.2667 14.52 52.08 15.4533 52V48.36C15.4533 47.64 15.3466 47.12 15.1333 46.8L15.4933 45.64C16.1066 45.64 16.76 45.6667 17.4533 45.72C18.1733 45.7733 18.7066 45.84 19.0533 45.92C19.8533 46.1333 20.4933 46.36 20.9733 46.6C21.4533 46.84 21.7333 47.1067 21.8133 47.4C21.8666 47.6667 21.84 47.96 21.7333 48.28C21.6266 48.6 21.5066 48.92 21.3733 49.24L21.2533 49.48C21.2533 50.1733 21.2533 51.0667 21.2533 52.16C21.28 53.2267 21.2933 54.3467 21.2933 55.52C21.2933 56.6933 21.2933 57.8533 21.2933 59C21.2933 60.1467 21.2933 61.1333 21.2933 61.96V64.84ZM15.3333 54.92C14.5066 54.9733 13.7066 55.2133 12.9333 55.64C12.1866 56.04 11.5333 56.5467 10.9733 57.16V64.36H14.1733C14.7333 64.36 15.0666 64.2267 15.1733 63.96C15.28 63.6933 15.3333 63.1867 15.3333 62.44V54.92ZM73.4548 74.56C73.8282 74.7733 74.1348 75.1467 74.3748 75.68C74.6148 76.1867 74.7348 76.6533 74.7348 77.08C74.7348 77.2133 74.7082 77.3867 74.6548 77.6C74.6282 77.8133 74.5215 78.0267 74.3349 78.24C74.1215 78.4267 73.8148 78.6 73.4149 78.76C73.0148 78.92 72.4682 79 71.7748 79H53.1748C52.0548 79 51.1615 78.6667 50.4948 78C49.8548 77.3067 49.5348 76.4267 49.5348 75.36V70.16C49.5348 69.9467 49.5082 69.7733 49.4548 69.64C49.4282 69.48 49.3615 69.3867 49.2548 69.36C49.0415 69.28 48.8015 69.2 48.5348 69.12C48.2948 69.04 48.1748 68.88 48.1748 68.64C48.1748 68.2133 48.4548 67.8933 49.0148 67.68C49.6015 67.4667 50.2415 67.36 50.9348 67.36C51.3082 67.36 51.7615 67.3867 52.2948 67.44C52.8282 67.4667 53.3348 67.56 53.8148 67.72C54.2948 67.88 54.7082 68.12 55.0548 68.44C55.4015 68.7333 55.5748 69.1333 55.5748 69.64V75.12C55.5748 75.5467 55.6948 75.88 55.9348 76.12C56.1748 76.3333 56.4948 76.44 56.8948 76.44H67.8948C68.4815 76.44 68.9082 76.4267 69.1748 76.4C69.4415 76.3467 69.6682 76.24 69.8548 76.08C70.1215 75.8667 70.2682 75.6667 70.2948 75.48C70.3482 75.2667 70.3482 75.0933 70.2948 74.96L70.7348 74.08C71.2415 74.08 71.7348 74.1067 72.2148 74.16C72.6948 74.2133 73.1082 74.3467 73.4548 74.56ZM74.8949 63.96C74.5482 63.9333 74.1348 63.92 73.6548 63.92C73.1748 63.92 72.6548 63.92 72.0948 63.92H65.3748C65.3482 64.0267 65.3215 64.1867 65.2948 64.4C65.2948 64.5867 65.2948 64.7733 65.2948 64.96C65.2682 65.1733 65.2548 65.36 65.2548 65.52C65.2548 65.68 65.2548 65.8 65.2548 65.88C65.2548 66.3867 65.2682 66.9067 65.2948 67.44C65.3215 67.9733 65.3348 68.6267 65.3348 69.4C65.3348 69.8533 65.2282 70.2267 65.0148 70.52C64.8282 70.7867 64.3882 71.1067 63.6948 71.48C62.4415 72.1733 61.0282 72.5467 59.4548 72.6L58.8948 71.32C59.0815 70.8667 59.2015 70.5067 59.2548 70.24C59.3082 69.9467 59.3348 69.6933 59.3348 69.48V63.92H52.4948C51.7215 63.92 50.8948 63.96 50.0148 64.04C49.1615 64.12 48.3882 64.3467 47.6948 64.72C47.4815 64.8 47.2415 64.8933 46.9748 65C46.7082 65.1067 46.4682 65.16 46.2548 65.16C46.0415 65.16 45.6815 65.08 45.1748 64.92C44.6948 64.76 44.2282 64.44 43.7748 63.96C43.2415 63.4267 42.8282 62.8667 42.5348 62.28C42.2682 61.6667 42.0682 61.1467 41.9348 60.72L43.9348 59.92C44.7882 60.3733 45.6148 60.72 46.4148 60.96C47.2415 61.1733 48.1882 61.2933 49.2548 61.32L59.4948 61.24L70.9748 61.28C71.5615 61.28 72.0548 61.24 72.4548 61.16C72.8815 61.0533 73.2282 60.92 73.4948 60.76C73.7615 60.6267 73.9615 60.48 74.0948 60.32C74.2282 60.16 74.3215 60 74.3748 59.84L76.0149 59.28C76.2815 59.4133 76.5615 59.5467 76.8548 59.68C77.0948 59.8133 77.3615 59.9733 77.6549 60.16C77.9482 60.32 78.2148 60.52 78.4548 60.76C78.9348 61.24 79.2548 61.64 79.4148 61.96C79.5748 62.28 79.6815 62.5067 79.7348 62.64C79.8415 62.9333 79.8682 63.2 79.8148 63.44C79.7882 63.68 79.6282 63.9333 79.3349 64.2C79.0949 64.4133 78.7482 64.5067 78.2948 64.48C77.8415 64.4533 77.4548 64.4 77.1349 64.32C76.6815 64.2133 76.2815 64.1333 75.9348 64.08C75.6148 64.0267 75.2682 63.9867 74.8949 63.96ZM56.9748 51.4C56.9748 52.0933 57.0948 52.7467 57.3348 53.36C57.6015 53.9733 57.9615 54.4933 58.4148 54.92C58.8415 55.3733 59.3215 55.7333 59.8548 56C60.4148 56.24 61.0015 56.36 61.6148 56.36C62.2015 56.36 62.7615 56.2533 63.2948 56.04C63.8548 55.8 64.3482 55.4667 64.7748 55.04C65.2015 54.64 65.5482 54.1333 65.8148 53.52C66.0815 52.9067 66.2148 52.2 66.2148 51.4C66.2148 49.7733 65.7882 48.52 64.9348 47.64C64.0815 46.76 62.9748 46.32 61.6148 46.32C60.9748 46.32 60.3748 46.4267 59.8148 46.64C59.2548 46.8533 58.7748 47.16 58.3748 47.56C57.9482 47.9867 57.6015 48.52 57.3348 49.16C57.0948 49.8 56.9748 50.5467 56.9748 51.4ZM72.0548 51.52C71.9748 52.8 71.6015 53.92 70.9348 54.88C70.2682 55.8133 69.4415 56.5867 68.4548 57.2C67.4415 57.8133 66.3215 58.2667 65.0948 58.56C63.8948 58.8533 62.7082 59 61.5348 59C60.4948 59 59.3482 58.88 58.0948 58.64C56.8682 58.3733 55.7215 57.9467 54.6548 57.36C53.5882 56.7733 52.6948 56.0133 51.9748 55.08C51.2815 54.12 50.9348 52.9467 50.9348 51.56C50.9348 50.2533 51.1882 49.16 51.6948 48.28C52.2015 47.3733 52.8682 46.6267 53.6948 46.04C54.5215 45.48 55.4548 45.04 56.4948 44.72C57.5348 44.4 58.5882 44.1333 59.6548 43.92C59.8682 43.8667 59.9348 43.8133 59.8548 43.76C59.7748 43.68 59.6948 43.6133 59.6148 43.56C59.5615 43.5333 59.4815 43.5067 59.3748 43.48C59.2682 43.4533 59.1615 43.4267 59.0548 43.4C58.9482 43.3733 58.8282 43.3467 58.6948 43.32L59.2148 41.6C59.5082 41.5467 59.8948 41.5467 60.3748 41.6C60.8548 41.6267 61.3482 41.68 61.8548 41.76C62.3348 41.84 62.7882 41.9467 63.2148 42.08C63.6682 42.2133 64.0148 42.36 64.2548 42.52C64.5482 42.7333 64.7215 42.9333 64.7748 43.12C64.8548 43.28 64.8015 43.4667 64.6148 43.68C64.5615 43.7333 64.5215 43.8133 64.4948 43.92C64.4948 44 64.5348 44.0533 64.6148 44.08C65.5215 44.32 66.4282 44.6267 67.3348 45C68.2415 45.3733 69.0548 45.8533 69.7748 46.44C70.4948 47.0267 71.0548 47.7333 71.4548 48.56C71.8815 49.3867 72.0815 50.3733 72.0548 51.52ZM124.646 59.16C124.646 59.9867 124.526 60.5733 124.286 60.92C124.072 61.2667 123.619 61.6 122.926 61.92C122.552 62.1067 121.992 62.2 121.246 62.2C120.659 62.2 120.192 62.16 119.846 62.08C119.526 62 119.219 61.9067 118.926 61.8C118.499 61.64 118.099 61.4 117.726 61.08C117.379 60.76 117.112 60.4933 116.926 60.28L117.566 59.24C117.779 59.2933 117.952 59.3333 118.086 59.36C118.246 59.3867 118.392 59.3733 118.526 59.32C118.712 59.24 118.806 58.9867 118.806 58.56V55.16C117.792 55.2133 116.979 55.3067 116.366 55.44C115.779 55.5733 115.299 55.72 114.926 55.88C114.739 55.9333 114.552 56.0133 114.366 56.12C114.179 56.2 113.979 56.24 113.766 56.24C113.606 56.24 113.339 56.2 112.966 56.12C112.619 56.04 112.179 55.76 111.646 55.28H111.686C111.472 55.0933 111.246 54.9067 111.006 54.72C110.792 54.5333 110.579 54.2933 110.366 54C109.859 54.5867 109.352 55.1333 108.846 55.64C108.366 56.1467 107.912 56.5867 107.486 56.96C105.912 58.3733 104.432 59.56 103.046 60.52C101.686 61.4533 100.232 62.24 98.6858 62.88C97.7258 63.28 96.8324 63.48 96.0058 63.48C95.5524 63.48 95.1391 63.3867 94.7658 63.2C94.3924 63.0133 94.1124 62.84 93.9258 62.68L94.5658 60.68C94.8858 60.84 95.1658 60.9467 95.4058 61C95.6458 61.0267 95.8458 61.04 96.0058 61.04C96.5391 61.04 97.1258 60.84 97.7658 60.44C98.4058 60.04 99.0591 59.52 99.7258 58.88C100.366 58.2667 101.006 57.5867 101.646 56.84C102.286 56.0667 102.886 55.32 103.446 54.6C103.766 54.1733 104.099 53.7067 104.446 53.2C104.819 52.6933 105.179 52.16 105.526 51.6C105.846 51.0667 106.139 50.5467 106.406 50.04C106.672 49.5067 106.886 49 107.046 48.52H102.166C101.419 48.5467 100.872 48.6133 100.526 48.72C100.179 48.8 99.8858 48.8933 99.6458 49C99.4058 49.08 99.1658 49.16 98.9258 49.24C98.6858 49.32 98.4191 49.36 98.1258 49.36C97.9391 49.36 97.5924 49.2533 97.0858 49.04C96.6058 48.8 96.1791 48.4133 95.8058 47.88C95.5924 47.5867 95.3658 47.1867 95.1258 46.68C94.9124 46.1733 94.7658 45.7733 94.6858 45.48L96.5258 45.04C96.8991 45.3067 97.3658 45.5333 97.9258 45.72C98.4858 45.88 99.0058 45.9733 99.4858 46L106.886 45.96C107.206 45.8533 107.579 45.7333 108.006 45.6C108.432 45.44 108.859 45.2933 109.286 45.16C109.686 45.0533 110.059 44.96 110.406 44.88C110.779 44.8 111.072 44.76 111.286 44.76C111.419 44.76 111.646 44.8533 111.966 45.04C112.286 45.2 112.606 45.4 112.926 45.64C113.246 45.88 113.526 46.1333 113.766 46.4C114.032 46.6667 114.166 46.8933 114.166 47.08C114.166 47.7733 113.939 48.56 113.486 49.44C113.059 50.32 112.512 51.2133 111.846 52.12C112.486 52.4133 113.086 52.56 113.646 52.56H118.806V42.84C118.806 42.68 118.739 42.5067 118.606 42.32C118.499 42.1067 118.379 41.8933 118.246 41.68L119.526 40.84C121.259 41.0533 122.539 41.3733 123.366 41.8C124.219 42.2267 124.646 42.5467 124.646 42.76V59.16ZM102.926 63.72C103.886 64.2 104.832 64.48 105.766 64.56H117.606C118.299 64.3733 118.992 64.12 119.686 63.8C120.379 63.48 121.099 63.32 121.846 63.32C122.032 63.32 122.286 63.4 122.606 63.56C122.926 63.6933 123.246 63.8533 123.566 64.04C123.886 64.2533 124.152 64.48 124.366 64.72C124.606 64.9333 124.726 65.12 124.726 65.28C124.726 65.4667 124.686 65.6933 124.606 65.96C124.552 66.2267 124.486 66.4933 124.406 66.76C124.326 67.0267 124.232 67.28 124.126 67.52C124.019 67.76 123.926 67.9467 123.846 68.08L123.366 70.32C123.926 70.32 124.366 70.48 124.686 70.8C125.032 71.0933 125.192 71.44 125.166 71.84C125.166 72.0533 125.072 72.28 124.886 72.52C124.699 72.76 124.379 72.88 123.926 72.88H108.326V75.16C108.326 75.5867 108.446 75.92 108.686 76.16C108.926 76.3733 109.232 76.48 109.606 76.48H119.366C119.952 76.48 120.406 76.4667 120.726 76.44C121.072 76.3867 121.366 76.2533 121.606 76.04C121.659 75.9867 121.686 75.9067 121.686 75.8C121.686 75.6667 121.672 75.5467 121.646 75.44L122.046 74.48C122.579 74.48 123.099 74.52 123.606 74.6C124.112 74.68 124.606 74.8667 125.086 75.16C125.326 75.2933 125.526 75.48 125.686 75.72C125.846 75.96 125.966 76.2267 126.046 76.52C126.126 76.7867 126.166 77.0667 126.166 77.36C126.166 77.6533 126.112 77.8933 126.006 78.08C125.899 78.2933 125.779 78.4533 125.646 78.56C125.512 78.6933 125.326 78.8 125.086 78.88C124.846 78.9333 124.526 78.9733 124.126 79C123.752 79.0267 123.259 79.04 122.646 79.04H104.646C103.952 79.04 103.379 78.8267 102.926 78.4C102.472 78 102.246 77.5733 102.246 77.12V72.12C102.246 71.9333 102.219 71.8267 102.166 71.8C102.112 71.7467 102.032 71.7067 101.926 71.68C101.632 71.6267 101.392 71.56 101.206 71.48C101.019 71.3733 100.926 71.1467 100.926 70.8C100.926 70.5333 101.019 70.32 101.206 70.16C101.419 70 101.672 69.88 101.966 69.8C102.232 69.72 102.526 69.68 102.846 69.68C103.192 69.6533 103.499 69.64 103.766 69.64C104.459 69.64 105.219 69.68 106.046 69.76C106.899 69.84 107.646 70.0267 108.286 70.32H117.726V67.08H109.246C108.312 67.08 107.592 67.1467 107.086 67.28C106.579 67.3867 106.166 67.5067 105.846 67.64C105.366 67.8267 104.912 67.92 104.486 67.92C104.006 67.92 103.579 67.8 103.206 67.56C102.832 67.32 102.512 67.0133 102.246 66.64C101.952 66.2667 101.712 65.8667 101.526 65.44C101.339 64.9867 101.192 64.56 101.086 64.16L102.926 63.72ZM150.028 63.88C149.335 63.88 148.655 63.8133 147.988 63.68C147.321 63.52 146.668 63.1733 146.028 62.64L146.228 61.24C146.815 61.4 147.215 61.4267 147.428 61.32C147.588 61.2133 147.681 61.0667 147.708 60.88C147.761 60.6667 147.788 60.36 147.788 59.96V47.08C147.788 46.8667 147.735 46.6933 147.628 46.56C147.548 46.4 147.441 46.2133 147.308 46L148.708 44.96C149.561 45.0667 150.308 45.2267 150.948 45.44C151.588 45.6267 152.121 45.8267 152.548 46.04C152.975 46.2533 153.295 46.4533 153.508 46.64C153.721 46.8267 153.828 46.9733 153.828 47.08V47.52C153.881 47.4667 154.095 47.3333 154.468 47.12C154.868 46.9067 155.415 46.6533 156.108 46.36C157.175 45.96 158.135 45.6667 158.988 45.48C159.868 45.2667 160.828 45.16 161.868 45.16C162.375 45.16 162.895 45.2667 163.428 45.48C163.988 45.6933 164.495 45.9067 164.948 46.12C165.508 46.4133 165.948 46.68 166.268 46.92C166.615 47.16 166.881 47.3733 167.068 47.56C167.228 47.7467 167.335 47.8933 167.388 48C167.441 48.1067 167.468 48.1867 167.468 48.24C167.468 48.4267 167.401 48.7467 167.268 49.2C167.161 49.6533 167.015 50.1067 166.828 50.56C166.828 50.56 166.815 50.7867 166.788 51.24C166.788 51.6933 166.788 52.2667 166.788 52.96C166.761 53.6533 166.735 54.4133 166.708 55.24C166.681 56.0667 166.655 56.84 166.628 57.56C166.601 58.3067 166.575 58.96 166.548 59.52C166.521 60.0533 166.508 60.3867 166.508 60.52C166.428 61.16 166.161 61.6533 165.708 62C165.255 62.3467 164.681 62.5333 163.988 62.56H153.828V63C153.215 63.32 152.601 63.5467 151.988 63.68C151.375 63.8133 150.721 63.88 150.028 63.88ZM176.308 66.92C176.308 67.3467 176.281 67.7067 176.228 68C176.175 68.2667 176.081 68.4933 175.948 68.68C175.815 68.8933 175.641 69.08 175.428 69.24C175.241 69.3733 174.988 69.52 174.668 69.68C174.455 69.8133 174.201 69.9067 173.908 69.96C173.615 69.9867 173.281 70 172.908 70C171.281 70 169.841 69.3467 168.588 68.04L169.228 67C169.441 67.0533 169.628 67.12 169.788 67.2C169.975 67.2533 170.135 67.2533 170.268 67.2C170.348 67.1467 170.401 67.04 170.428 66.88C170.455 66.72 170.468 66.5333 170.468 66.32V43.12C170.468 42.9333 170.401 42.7333 170.268 42.52C170.161 42.3067 170.028 42.12 169.868 41.96L171.188 40.96C172.921 41.1467 174.201 41.4533 175.028 41.88C175.881 42.3067 176.308 42.6267 176.308 42.84V54.64C176.895 54.5867 177.375 54.48 177.748 54.32C178.148 54.16 178.468 53.9733 178.708 53.76C178.921 53.5733 179.081 53.3867 179.188 53.2C179.295 53.0133 179.375 52.8533 179.428 52.72L181.428 52.44C181.588 52.5733 181.775 52.76 181.988 53C182.228 53.24 182.468 53.5067 182.708 53.8C182.948 54.12 183.161 54.4533 183.348 54.8C183.535 55.1467 183.668 55.4933 183.748 55.84C183.801 56.1067 183.828 56.3867 183.828 56.68C183.828 56.9467 183.695 57.1733 183.428 57.36C183.188 57.52 182.935 57.5867 182.668 57.56C182.428 57.5067 182.175 57.4533 181.908 57.4C181.481 57.2933 180.908 57.24 180.188 57.24H176.308V66.92ZM173.308 74C173.735 74 174.175 74.04 174.628 74.12C175.108 74.2 175.548 74.36 175.948 74.6C176.321 74.8133 176.628 75.12 176.868 75.52C177.135 75.8933 177.268 76.3867 177.268 77C177.268 77.1067 177.241 77.2667 177.188 77.48C177.161 77.6933 177.055 77.9067 176.868 78.12C176.655 78.3067 176.348 78.48 175.948 78.64C175.548 78.8 175.001 78.88 174.308 78.88H157.028C155.908 78.88 155.015 78.5467 154.348 77.88C153.708 77.2133 153.388 76.3467 153.388 75.28V69.44C153.388 69.0133 153.308 68.7467 153.148 68.64C153.041 68.5867 152.921 68.56 152.788 68.56C152.681 68.5333 152.575 68.5067 152.468 68.48C152.335 68.4533 152.228 68.4 152.148 68.32C152.068 68.2133 152.028 68.0533 152.028 67.84C152.028 67.4667 152.215 67.2 152.588 67.04C152.988 66.8533 153.455 66.7333 153.988 66.68C154.495 66.6533 155.001 66.6667 155.508 66.72C156.041 66.7467 156.428 66.7733 156.668 66.8C157.388 66.9067 158.028 67.1467 158.588 67.52C159.148 67.8933 159.428 68.3733 159.428 68.96V75C159.428 75.4267 159.548 75.76 159.788 76C160.028 76.24 160.348 76.36 160.748 76.36H170.428C171.015 76.36 171.455 76.3333 171.748 76.28C172.041 76.2267 172.321 76.08 172.588 75.84C172.748 75.7067 172.828 75.56 172.828 75.4C172.855 75.2133 172.841 75.0533 172.788 74.92L173.308 74ZM153.828 60H160.188C160.481 60 160.668 59.9333 160.748 59.8C160.855 59.6667 160.908 59.4 160.908 59V47.76C160.401 47.76 159.841 47.84 159.228 48C158.615 48.16 157.881 48.4133 157.028 48.76C156.575 48.9467 156.161 49.16 155.788 49.4C155.415 49.6133 155.081 49.8267 154.788 50.04C154.441 50.28 154.121 50.52 153.828 50.76V60ZM207.884 65.24C208.47 64.9467 209.15 64.68 209.924 64.44C210.697 64.1733 211.43 64.04 212.124 64.04C212.284 64.04 212.524 64.12 212.844 64.28C213.164 64.4133 213.484 64.5733 213.804 64.76C214.124 64.9733 214.39 65.2 214.604 65.44C214.844 65.6533 214.964 65.84 214.964 66C214.964 66.3467 214.857 66.7733 214.644 67.28C214.43 67.7867 214.244 68.1867 214.084 68.48L213.604 70.76C214.164 70.76 214.604 70.92 214.924 71.24C215.27 71.5333 215.444 71.88 215.444 72.28C215.444 72.4933 215.35 72.72 215.164 72.96C214.977 73.2 214.657 73.32 214.204 73.32H197.924V75.16C197.924 75.5867 198.044 75.92 198.284 76.16C198.524 76.4 198.844 76.52 199.244 76.52H209.164C209.777 76.52 210.244 76.5067 210.564 76.48C210.884 76.4267 211.15 76.2933 211.364 76.08C211.497 75.9467 211.537 75.7467 211.484 75.48L211.884 74.52C212.337 74.52 212.817 74.56 213.324 74.64C213.83 74.6933 214.244 74.8133 214.564 75C215.097 75.32 215.497 75.7733 215.764 76.36C216.057 76.9467 216.084 77.5067 215.844 78.04C215.63 78.52 215.31 78.8133 214.884 78.92C214.457 79.0267 213.657 79.08 212.484 79.08H194.284C193.59 79.08 193.017 78.8667 192.564 78.44C192.11 78.04 191.884 77.6 191.884 77.12V72.8C191.884 72.5333 191.857 72.36 191.804 72.28C191.75 72.2 191.657 72.1467 191.524 72.12C191.284 72.0667 191.07 72.0133 190.884 71.96C190.724 71.88 190.617 71.7067 190.564 71.44C190.484 71.12 190.537 70.88 190.724 70.72C190.91 70.5333 191.164 70.3867 191.484 70.28C191.777 70.2 192.097 70.1467 192.444 70.12C192.79 70.0933 193.11 70.08 193.404 70.08C194.097 70.08 194.857 70.12 195.684 70.2C196.537 70.28 197.284 70.4667 197.924 70.76H207.964V67.8H198.644C197.684 67.8 196.964 67.8667 196.484 68C196.004 68.1067 195.577 68.2267 195.204 68.36C194.777 68.5467 194.337 68.64 193.884 68.64C193.697 68.64 193.364 68.5467 192.884 68.36C192.404 68.1467 191.977 67.7733 191.604 67.24C191.39 66.9467 191.164 66.56 190.924 66.08C190.71 65.5733 190.564 65.1733 190.484 64.88L192.524 64.4C192.87 64.6933 193.297 64.92 193.804 65.08C194.31 65.2133 194.75 65.28 195.124 65.28L207.884 65.24ZM198.684 56.52C198.524 56.52 198.284 56.56 197.964 56.64C197.67 56.6933 197.337 56.7733 196.964 56.88C196.937 56.88 196.91 56.8933 196.884 56.92C196.857 56.92 196.817 56.92 196.764 56.92H196.804C196.43 57.0267 196.07 57.12 195.724 57.2C195.377 57.2533 195.057 57.28 194.764 57.28C194.364 57.28 193.937 57.1733 193.484 56.96C193.057 56.7467 192.67 56.4933 192.324 56.2C191.95 55.9067 191.644 55.6133 191.404 55.32C191.19 55 191.084 54.76 191.084 54.6C191.084 54.5733 191.11 54.48 191.164 54.32L191.284 54C191.337 53.8133 191.39 53.6 191.444 53.36C191.497 53.0933 191.524 52.7867 191.524 52.44V46.32C191.524 46.1067 191.51 45.9467 191.484 45.84C191.484 45.7333 191.47 45.6533 191.444 45.6H191.404C191.35 45.6 191.27 45.6 191.164 45.6C191.084 45.5733 191.017 45.56 190.964 45.56C190.83 45.5067 190.67 45.44 190.484 45.36C190.324 45.2533 190.217 45.1333 190.164 45L190.244 45.08C190.19 44.9467 190.177 44.8 190.204 44.64C190.257 44.4533 190.337 44.2933 190.444 44.16C190.524 44.08 190.684 43.9867 190.924 43.88C191.164 43.7733 191.497 43.6933 191.924 43.64C192.324 43.5867 192.724 43.56 193.124 43.56C193.55 43.56 194.097 43.6 194.764 43.68C195.377 43.76 195.924 43.8667 196.404 44C196.91 44.1067 197.27 44.1867 197.484 44.24H205.524C206.857 44.24 207.83 44.1333 208.444 43.92C209.057 43.7067 209.51 43.4133 209.804 43.04V43.08L209.844 43C209.87 42.9733 209.884 42.9333 209.884 42.88C209.884 42.8267 209.91 42.7467 209.964 42.64L211.604 42.36C212.004 42.6 212.444 42.8933 212.924 43.24C213.404 43.5867 213.764 44.0667 214.004 44.68C214.057 44.8133 214.097 44.9867 214.124 45.2C214.15 45.4133 214.164 45.6267 214.164 45.84C214.164 46.08 214.137 46.2933 214.084 46.48C214.03 46.64 213.964 46.76 213.884 46.84C213.67 47 213.444 47.0667 213.204 47.04C212.964 47.0133 212.697 46.9867 212.404 46.96C212.19 46.9067 211.964 46.8667 211.724 46.84C211.51 46.8133 211.257 46.8 210.964 46.8H197.564V52.6C197.564 52.7067 197.577 52.88 197.604 53.12C197.63 53.3333 197.697 53.4933 197.804 53.6C198.017 53.76 198.19 53.8667 198.324 53.92C198.484 53.9467 198.67 53.96 198.884 53.96H208.764C209.35 53.96 209.83 53.92 210.204 53.84C210.577 53.76 210.884 53.5733 211.124 53.28H211.084C211.19 53.1467 211.244 53.0133 211.244 52.88C211.244 52.72 211.23 52.56 211.204 52.4L211.644 51.56H212.284C212.524 51.56 212.844 51.6133 213.244 51.72C213.67 51.8 214.044 51.96 214.364 52.2C214.79 52.5733 215.11 52.9467 215.324 53.32C215.537 53.6933 215.63 54.1867 215.604 54.8C215.604 54.9067 215.577 55.0667 215.524 55.28C215.497 55.4667 215.39 55.6533 215.204 55.84C214.99 56.0267 214.684 56.1867 214.284 56.32C213.91 56.4533 213.364 56.52 212.644 56.52H198.684ZM218.604 62.6C217.937 62.44 217.244 62.3333 216.524 62.28C215.804 62.2267 214.817 62.2 213.564 62.2H193.964C193.19 62.2 192.39 62.2533 191.564 62.36C190.764 62.44 190.004 62.6667 189.284 63.04C189.097 63.12 188.857 63.2267 188.564 63.36C188.297 63.4667 188.017 63.52 187.724 63.52C187.137 63.52 186.617 63.36 186.164 63.04C185.71 62.72 185.31 62.32 184.964 61.84C184.617 61.3867 184.31 60.8933 184.044 60.36C183.804 59.8 183.604 59.28 183.444 58.8L185.604 57.84C186.244 58.48 187.017 58.9067 187.924 59.12C188.857 59.3067 189.79 59.4133 190.724 59.44H212.364C213.564 59.44 214.404 59.24 214.884 58.84C215.39 58.44 215.697 58.0667 215.804 57.72L217.604 57.28C217.87 57.44 218.15 57.6 218.444 57.76C218.684 57.8933 218.937 58.0667 219.204 58.28C219.47 58.4667 219.724 58.68 219.964 58.92C220.417 59.3733 220.724 59.7733 220.884 60.12C221.044 60.44 221.15 60.6933 221.204 60.88C221.31 61.1733 221.35 61.4667 221.324 61.76C221.297 62.0267 221.137 62.2667 220.844 62.48C220.55 62.7467 220.177 62.8667 219.724 62.84C219.27 62.7867 218.897 62.7067 218.604 62.6ZM255.692 76.64C255.692 77.0667 255.665 77.4267 255.612 77.72C255.559 77.9867 255.465 78.2267 255.332 78.44C255.199 78.6267 255.025 78.7867 254.812 78.92C254.599 79.08 254.332 79.24 254.012 79.4H254.052C253.705 79.6133 253.119 79.72 252.292 79.72C251.759 79.72 251.305 79.68 250.932 79.6C250.559 79.52 250.212 79.4 249.892 79.24H249.932C249.532 79.08 249.159 78.84 248.812 78.52C248.465 78.2267 248.185 77.9733 247.972 77.76L248.612 76.72C248.825 76.7733 249.052 76.8267 249.292 76.88C249.532 76.9067 249.692 76.92 249.772 76.92C249.825 76.84 249.852 76.5467 249.852 76.04V58.08C249.239 58.16 248.745 58.2533 248.372 58.36C247.999 58.4667 247.679 58.5733 247.412 58.68H247.452L247.252 58.8C247.172 58.8533 247.065 58.9067 246.932 58.96C246.799 58.9867 246.665 59.0133 246.532 59.04C246.185 59.12 245.719 59.0133 245.132 58.72C244.919 59.84 244.479 60.8533 243.812 61.76C243.172 62.64 242.372 63.3867 241.412 64C240.452 64.64 239.385 65.1333 238.212 65.48C237.065 65.8 235.892 65.96 234.692 65.96C233.439 65.96 232.199 65.76 230.972 65.36C229.772 64.96 228.692 64.3733 227.732 63.6C226.772 62.8533 225.985 61.9333 225.372 60.84C224.785 59.7467 224.492 58.52 224.492 57.16C224.492 55.96 224.692 54.8667 225.092 53.88C225.492 52.8667 226.052 51.9733 226.772 51.2C227.465 50.4267 228.279 49.7867 229.212 49.28C230.172 48.7733 231.199 48.4133 232.292 48.2C232.345 48.1467 232.359 48.0533 232.332 47.92C232.305 47.8133 232.159 47.7067 231.892 47.6C231.785 47.5467 231.639 47.5067 231.452 47.48L231.972 45.6H232.692C232.932 45.6 233.212 45.6267 233.532 45.68C233.852 45.7067 234.225 45.7467 234.652 45.8C235.292 45.9333 235.785 46.08 236.132 46.24C236.505 46.4 236.799 46.5467 237.012 46.68C237.225 46.8667 237.372 47.0667 237.452 47.28C237.532 47.4667 237.479 47.6533 237.292 47.84V48.12C237.292 48.2 237.332 48.2533 237.412 48.28C237.705 48.36 237.999 48.4267 238.292 48.48C239.225 48.72 240.105 49.0667 240.932 49.52C241.785 49.9733 242.532 50.5333 243.172 51.2C244.159 52.2933 244.785 53.6 245.052 55.12C245.639 55.28 246.225 55.36 246.812 55.36H249.852V43.12C249.852 42.9067 249.785 42.7067 249.652 42.52C249.545 42.3333 249.425 42.1467 249.292 41.96L250.572 40.96C252.305 41.1467 253.585 41.4533 254.412 41.88C255.265 42.3067 255.692 42.6267 255.692 42.84V76.64ZM230.412 57C230.412 57.64 230.505 58.32 230.692 59.04C230.879 59.76 231.159 60.4133 231.532 61C231.905 61.5867 232.359 62.08 232.892 62.48C233.452 62.8533 234.092 63.04 234.812 63.04C235.532 63.04 236.159 62.8667 236.692 62.52C237.225 62.1467 237.679 61.6667 238.052 61.08C238.425 60.52 238.705 59.88 238.892 59.16C239.079 58.44 239.172 57.72 239.172 57C239.172 56.3067 239.092 55.5867 238.932 54.84C238.772 54.0933 238.532 53.4133 238.212 52.8C237.865 52.2133 237.412 51.7333 236.852 51.36C236.292 50.96 235.612 50.76 234.812 50.76C234.039 50.76 233.372 50.9467 232.812 51.32C232.279 51.6667 231.839 52.1333 231.492 52.72C231.119 53.3067 230.839 53.9733 230.652 54.72C230.492 55.4667 230.412 56.2267 230.412 57ZM288.163 74.84C288.163 75.8533 287.963 76.6267 287.563 77.16C287.163 77.6667 286.403 77.92 285.283 77.92C284.51 77.92 283.763 77.7867 283.043 77.52C282.35 77.2267 281.75 76.7333 281.243 76.04L281.603 74.88C281.843 75.0133 282.136 75.0133 282.483 74.88C282.75 74.7733 282.883 74.4533 282.883 73.92V44.92C282.883 44.7333 282.83 44.5467 282.723 44.36C282.616 44.1467 282.496 43.9733 282.363 43.84L283.483 42.56C284.39 42.6667 285.136 42.8133 285.723 43C286.336 43.16 286.83 43.3333 287.203 43.52C287.55 43.7067 287.79 43.8933 287.923 44.08C288.083 44.24 288.163 44.3733 288.163 44.48V56.16C288.776 56.08 289.31 55.9467 289.763 55.76C290.216 55.5733 290.59 55.3733 290.883 55.16V43.16C290.883 42.7867 290.696 42.4133 290.323 42.04L291.603 40.96C292.483 41.0667 293.216 41.2133 293.803 41.4C294.39 41.56 294.87 41.7333 295.243 41.92C295.59 42.1067 295.83 42.2933 295.963 42.48C296.123 42.64 296.203 42.7733 296.203 42.88V76.52C296.203 77.32 296.11 77.9067 295.923 78.28C295.736 78.6533 295.336 79 294.723 79.32C294.35 79.5067 293.83 79.6 293.163 79.6C292.283 79.6 291.51 79.44 290.843 79.12C290.203 78.8267 289.576 78.3333 288.963 77.64L289.643 76.56C289.776 76.6133 289.923 76.6533 290.083 76.68C290.243 76.7067 290.403 76.68 290.563 76.6C290.723 76.52 290.816 76.3867 290.843 76.2C290.87 75.9867 290.883 75.7467 290.883 75.48V58.76H288.163V74.84ZM280.843 62.76C281.243 63.1333 281.55 63.5067 281.763 63.88C281.976 64.2533 282.07 64.7467 282.043 65.36C282.043 65.4667 282.016 65.6133 281.963 65.8C281.936 65.9867 281.83 66.1733 281.643 66.36C281.43 66.5467 281.123 66.7067 280.723 66.84C280.35 66.9733 279.803 67.04 279.083 67.04H271.563C270.976 67.04 270.403 67.1733 269.843 67.44C269.31 67.68 268.71 67.8 268.043 67.8C267.643 67.8 267.23 67.6933 266.803 67.48C266.376 67.2667 265.99 67.0133 265.643 66.72C265.27 66.4267 264.963 66.1333 264.723 65.84C264.51 65.5467 264.403 65.32 264.403 65.16C264.403 64.84 264.456 64.5333 264.563 64.24C264.67 63.92 264.75 63.5867 264.803 63.24V49.12C264.803 48.72 264.683 48.4533 264.443 48.32C264.203 48.24 263.963 48.1467 263.723 48.04C263.51 47.9067 263.403 47.72 263.403 47.48C263.403 47.24 263.483 47.04 263.643 46.88C263.83 46.72 264.07 46.5867 264.363 46.48C264.63 46.4 264.936 46.3467 265.283 46.32C265.63 46.2933 265.976 46.28 266.323 46.28C266.696 46.28 267.043 46.2933 267.363 46.32C267.683 46.3467 267.923 46.3733 268.083 46.4C268.803 46.5067 269.416 46.7467 269.923 47.12C270.43 47.4933 270.683 47.9733 270.683 48.56V63.52C270.683 63.8933 270.83 64.16 271.123 64.32C271.416 64.4533 271.75 64.52 272.123 64.52H275.243C275.856 64.52 276.336 64.48 276.683 64.4C277.03 64.32 277.31 64.16 277.523 63.92C277.656 63.7867 277.723 63.6267 277.723 63.44C277.723 63.2267 277.696 63.0533 277.643 62.92L278.083 62.16C278.59 62.16 279.083 62.2 279.563 62.28C280.07 62.36 280.483 62.52 280.803 62.76H280.843ZM331.571 52.24C332.024 52.56 332.371 52.9467 332.611 53.4C332.878 53.8533 332.984 54.3867 332.931 55C332.878 55.2933 332.798 55.56 332.691 55.8C332.611 56.04 332.451 56.24 332.211 56.4C331.944 56.5867 331.598 56.7333 331.171 56.84C330.744 56.92 330.198 56.96 329.531 56.96H315.451C314.864 56.96 314.304 57.0933 313.771 57.36C313.238 57.6 312.638 57.72 311.971 57.72C311.571 57.72 311.144 57.6133 310.691 57.4C310.264 57.1867 309.878 56.9333 309.531 56.64C309.158 56.3467 308.851 56.0533 308.611 55.76C308.398 55.4667 308.291 55.24 308.291 55.08C308.291 54.76 308.344 54.4533 308.451 54.16C308.558 53.84 308.638 53.5067 308.691 53.16V46.36C308.691 45.8533 308.598 45.5867 308.411 45.56C308.118 45.5067 307.851 45.44 307.611 45.36C307.398 45.28 307.291 45.0533 307.291 44.68C307.291 44.2267 307.584 43.92 308.171 43.76C308.784 43.5733 309.451 43.48 310.171 43.48C310.544 43.48 310.891 43.4933 311.211 43.52C311.531 43.5467 311.798 43.5867 312.011 43.64C312.784 43.8 313.398 44.0533 313.851 44.4C314.331 44.7467 314.571 45.2 314.571 45.76V53.4C314.571 54.0667 315.064 54.4 316.051 54.4H325.651C326.264 54.4 326.744 54.3733 327.091 54.32C327.464 54.24 327.758 54.08 327.971 53.84C328.104 53.7067 328.158 53.5467 328.131 53.36C328.131 53.1733 328.118 53.0133 328.091 52.88L329.131 51.6C329.478 51.6267 329.798 51.68 330.091 51.76C330.358 51.8133 330.624 51.88 330.891 51.96C331.184 52.04 331.411 52.1333 331.571 52.24ZM332.211 74.56C332.584 74.7733 332.891 75.1467 333.131 75.68C333.371 76.1867 333.491 76.6533 333.491 77.08C333.491 77.2133 333.464 77.3867 333.411 77.6C333.384 77.8133 333.278 78.0267 333.091 78.24C332.878 78.4267 332.571 78.6 332.171 78.76C331.771 78.92 331.224 79 330.531 79H311.931C310.811 79 309.918 78.6667 309.251 78C308.611 77.3067 308.291 76.4267 308.291 75.36V70.16C308.291 69.9467 308.264 69.7733 308.211 69.64C308.184 69.48 308.118 69.3867 308.011 69.36C307.798 69.28 307.558 69.2 307.291 69.12C307.051 69.04 306.931 68.88 306.931 68.64C306.931 68.2133 307.211 67.8933 307.771 67.68C308.358 67.4667 308.998 67.36 309.691 67.36C310.064 67.36 310.518 67.3867 311.051 67.44C311.584 67.4667 312.091 67.56 312.571 67.72C313.051 67.88 313.464 68.12 313.811 68.44C314.158 68.7333 314.331 69.1333 314.331 69.64V75.12C314.331 75.5467 314.451 75.88 314.691 76.12C314.931 76.3333 315.251 76.44 315.651 76.44H326.651C327.238 76.44 327.664 76.4267 327.931 76.4C328.198 76.3467 328.424 76.24 328.611 76.08C328.878 75.8667 329.024 75.6667 329.051 75.48C329.104 75.2667 329.104 75.0933 329.051 74.96L329.491 74.08C329.998 74.08 330.491 74.1067 330.971 74.16C331.451 74.2133 331.864 74.3467 332.211 74.56ZM333.651 64.52C333.304 64.4933 332.891 64.48 332.411 64.48C331.931 64.48 331.411 64.48 330.851 64.48H311.251C309.918 64.48 308.918 64.5733 308.251 64.76C307.611 64.92 307.118 65.08 306.771 65.24H306.811L306.571 65.32C306.384 65.4 306.144 65.5067 305.851 65.64C305.584 65.7467 305.304 65.8 305.011 65.8C304.798 65.8 304.438 65.72 303.931 65.56C303.451 65.3733 302.984 65.0133 302.531 64.48C301.998 63.8667 301.598 63.2667 301.331 62.68C301.064 62.0667 300.864 61.5333 300.731 61.08L302.891 60.12L303.251 60.44L303.091 60.4C303.144 60.4267 303.184 60.4533 303.211 60.48C303.264 60.48 303.318 60.5067 303.371 60.56C303.664 60.6933 304.038 60.8667 304.491 61.08C304.971 61.2933 305.344 61.4267 305.611 61.48C306.011 61.5867 306.438 61.6533 306.891 61.68C307.371 61.7067 307.744 61.72 308.011 61.72H329.651C330.851 61.72 331.691 61.52 332.171 61.12C332.678 60.72 332.984 60.3467 333.091 60L334.891 59.56C335.158 59.72 335.438 59.88 335.731 60.04C336.238 60.3333 336.744 60.7333 337.251 61.24V61.2C337.704 61.6533 338.011 62.0533 338.171 62.4C338.331 62.72 338.438 62.9733 338.491 63.16C338.598 63.4533 338.624 63.7467 338.571 64.04C338.544 64.3067 338.384 64.5467 338.091 64.76H338.131C337.838 65.0267 337.464 65.1467 337.011 65.12C336.558 65.0667 336.171 64.9867 335.851 64.88H335.891C335.438 64.7733 335.038 64.6933 334.691 64.64C334.371 64.5867 334.024 64.5467 333.651 64.52ZM386.002 77.8C385.922 78.2267 385.749 78.56 385.482 78.8C385.242 79.04 384.869 79.2667 384.362 79.48C383.989 79.6667 383.429 79.76 382.682 79.76C382.175 79.76 381.789 79.72 381.522 79.64C381.255 79.5867 381.002 79.52 380.762 79.44L380.482 79.32C380.082 79.16 379.682 78.92 379.282 78.6C378.909 78.28 378.629 78.0133 378.442 77.8L379.082 76.76C379.295 76.8133 379.522 76.8667 379.762 76.92C380.002 76.9467 380.162 76.96 380.242 76.96C380.322 76.88 380.362 76.5867 380.362 76.08V42.92C380.362 42.7333 380.295 42.5467 380.162 42.36C380.055 42.1467 379.922 41.9467 379.762 41.76L381.122 40.92C382.829 41.1333 384.082 41.4533 384.882 41.88C385.709 42.3067 386.122 42.6267 386.122 42.84V77.8H386.002ZM370.562 64.12C369.895 63.1333 369.215 62.1467 368.522 61.16C367.829 60.1733 367.135 59.1733 366.442 58.16C365.749 59.0667 364.989 59.9733 364.162 60.88C363.335 61.7867 362.482 62.64 361.602 63.44C360.695 64.24 359.775 64.9733 358.842 65.64C357.909 66.28 356.989 66.8 356.082 67.2C355.789 67.3333 355.455 67.44 355.082 67.52C354.709 67.6 354.362 67.64 354.042 67.64C353.669 67.64 353.362 67.6 353.122 67.52C352.909 67.4133 352.735 67.2933 352.602 67.16C352.442 67.0267 352.322 66.8533 352.242 66.64L353.242 65.44C353.375 65.4933 353.522 65.52 353.682 65.52C353.815 65.52 353.975 65.5067 354.162 65.48C354.349 65.4267 354.549 65.3333 354.762 65.2C355.215 64.9067 355.749 64.4133 356.362 63.72C356.975 63.0267 357.615 62.2267 358.282 61.32C358.949 60.44 359.615 59.48 360.282 58.44C360.949 57.4 361.562 56.3733 362.122 55.36C363.002 53.7067 363.615 52.3467 363.962 51.28C364.309 50.2133 364.482 49.2933 364.482 48.52C364.482 48.04 364.242 47.56 363.762 47.08C363.602 46.92 363.455 46.7733 363.322 46.64C363.189 46.48 363.069 46.3467 362.962 46.24C362.855 46.1333 362.762 46.0267 362.682 45.92L364.202 44.44C365.055 44.5733 365.802 44.76 366.442 45C367.082 45.2133 367.709 45.48 368.322 45.8C369.522 46.44 370.335 46.9733 370.762 47.4C371.189 47.8267 371.375 48.2667 371.322 48.72C371.082 50.56 370.162 52.72 368.562 55.2L368.722 55.36C369.255 56.0533 369.789 56.7733 370.322 57.52C370.855 58.24 371.362 58.9733 371.842 59.72C372.029 60.0133 372.229 60.1733 372.442 60.2C372.655 60.2 372.789 60.1867 372.842 60.16L374.562 60.52C375.069 61.32 375.429 62.2267 375.642 63.24C375.855 64.2267 375.922 65.2133 375.842 66.2C375.789 66.8133 375.602 67.2933 375.282 67.64C374.989 67.96 374.549 68.0667 373.962 67.96C373.642 67.9067 373.335 67.76 373.042 67.52C372.749 67.2533 372.469 66.9467 372.202 66.6C371.935 66.2533 371.682 65.8933 371.442 65.52C371.229 65.1467 371.029 64.8267 370.842 64.56L370.562 64.12ZM421.436 66.92C421.436 67.3467 421.409 67.7067 421.356 68C421.302 68.2667 421.209 68.4933 421.076 68.68C420.942 68.8933 420.769 69.08 420.556 69.24C420.369 69.3733 420.116 69.52 419.796 69.68C419.582 69.8133 419.329 69.9067 419.036 69.96C418.742 69.9867 418.409 70 418.036 70C416.409 70 414.969 69.3467 413.716 68.04L414.356 67C414.569 67.0533 414.756 67.12 414.916 67.2C415.102 67.2533 415.262 67.2533 415.396 67.2C415.476 67.1467 415.529 67.04 415.556 66.88C415.582 66.72 415.596 66.5333 415.596 66.32V43.12C415.596 42.9333 415.529 42.7333 415.396 42.52C415.289 42.3067 415.156 42.12 414.996 41.96L416.316 40.96C418.049 41.1467 419.329 41.4533 420.156 41.88C421.009 42.3067 421.436 42.6267 421.436 42.84V54.64C422.022 54.5867 422.502 54.48 422.876 54.32C423.276 54.16 423.596 53.9733 423.836 53.76C424.049 53.5733 424.209 53.3867 424.316 53.2C424.422 53.0133 424.502 52.8533 424.556 52.72L426.556 52.44C426.716 52.5733 426.902 52.76 427.116 53C427.356 53.24 427.596 53.5067 427.836 53.8C428.076 54.12 428.289 54.4533 428.476 54.8C428.662 55.1467 428.796 55.4933 428.876 55.84C428.929 56.1067 428.956 56.3867 428.956 56.68C428.956 56.9467 428.822 57.1733 428.556 57.36C428.316 57.52 428.062 57.5867 427.796 57.56C427.556 57.5067 427.302 57.4533 427.036 57.4C426.609 57.2933 426.036 57.24 425.316 57.24H421.436V66.92ZM407.116 54.6C405.436 56.5467 403.609 58.36 401.636 60.04C399.689 61.6933 397.436 63.0667 394.876 64.16C394.022 64.5067 393.169 64.68 392.316 64.68C391.862 64.68 391.476 64.5867 391.156 64.4C390.862 64.2133 390.622 64.04 390.436 63.88L391.116 61.76C391.329 61.8933 391.516 62 391.676 62.08C391.862 62.1333 392.102 62.16 392.396 62.16C392.822 62.16 393.249 62.0133 393.676 61.72C394.289 61.2933 394.876 60.8667 395.436 60.44C395.996 60.0133 396.556 59.5333 397.116 59C397.649 58.4933 398.209 57.92 398.796 57.28C399.382 56.64 400.009 55.88 400.676 55C401.769 53.5867 402.582 52.3867 403.116 51.4C403.676 50.3867 404.142 49.44 404.516 48.56H399.516C398.769 48.5867 398.222 48.6533 397.876 48.76C397.529 48.84 397.236 48.9333 396.996 49.04C396.782 49.12 396.542 49.2 396.276 49.28C396.036 49.36 395.769 49.4 395.476 49.4C395.289 49.4 394.942 49.2933 394.436 49.08C393.956 48.84 393.529 48.44 393.156 47.88V47.92C392.942 47.6267 392.716 47.2267 392.476 46.72C392.262 46.2133 392.116 45.8133 392.036 45.52L394.036 45C394.196 45.16 394.356 45.28 394.516 45.36C394.676 45.44 394.876 45.5333 395.116 45.64C395.569 45.7733 395.956 45.88 396.276 45.96C396.596 46.0133 396.782 46.04 396.836 46.04L404.156 46C404.476 45.8933 404.849 45.7733 405.276 45.64C405.702 45.48 406.129 45.3333 406.556 45.2C406.956 45.0933 407.329 45 407.676 44.92C408.049 44.84 408.342 44.8 408.556 44.8C408.689 44.8 408.916 44.8933 409.236 45.08C409.556 45.24 409.876 45.44 410.196 45.68C410.516 45.92 410.796 46.1733 411.036 46.44C411.302 46.7067 411.436 46.9333 411.436 47.12C411.436 47.7333 411.289 48.3733 410.996 49.04C410.702 49.7067 410.342 50.36 409.916 51C409.489 51.6667 409.022 52.3067 408.516 52.92C408.009 53.5333 407.542 54.0933 407.116 54.6ZM418.436 74C418.862 74 419.302 74.04 419.756 74.12C420.236 74.2 420.676 74.36 421.076 74.6C421.449 74.8133 421.756 75.12 421.996 75.52C422.262 75.8933 422.396 76.3867 422.396 77C422.396 77.1067 422.369 77.2667 422.316 77.48C422.289 77.6933 422.182 77.9067 421.996 78.12C421.782 78.3067 421.476 78.48 421.076 78.64C420.676 78.8 420.129 78.88 419.436 78.88H402.156C401.036 78.88 400.142 78.5467 399.476 77.88C398.836 77.2133 398.516 76.3467 398.516 75.28V69.44C398.516 69.0133 398.436 68.7467 398.276 68.64C398.169 68.5867 398.049 68.56 397.916 68.56C397.809 68.5333 397.702 68.5067 397.596 68.48C397.462 68.4533 397.356 68.4 397.276 68.32C397.196 68.2133 397.156 68.0533 397.156 67.84C397.156 67.4667 397.342 67.2 397.716 67.04C398.116 66.8533 398.582 66.7333 399.116 66.68C399.622 66.6533 400.129 66.6667 400.636 66.72C401.169 66.7467 401.556 66.7733 401.796 66.8C402.516 66.9067 403.156 67.1467 403.716 67.52C404.276 67.8933 404.556 68.3733 404.556 68.96V75C404.556 75.4267 404.676 75.76 404.916 76C405.156 76.24 405.476 76.36 405.876 76.36H415.556C416.142 76.36 416.582 76.3333 416.876 76.28C417.169 76.2267 417.449 76.08 417.716 75.84C417.876 75.7067 417.956 75.56 417.956 75.4C417.982 75.2133 417.969 75.0533 417.916 74.92L418.436 74Z" fill="#72BF6B"/>
<path d="M519.85 146.524L519.22 147.928C516.52 147.604 514.306 146.452 513.262 144.832C512.218 146.452 510.004 147.604 507.304 147.928L506.674 146.524C509.95 146.182 512.308 144.544 512.308 142.708V142.24H514.216V142.708C514.216 144.544 516.592 146.182 519.85 146.524ZM509.518 155.452V156.82H519.238V158.242H507.682V154.156H516.952V152.914H507.646V151.51H518.77V155.452H509.518ZM505.9 148.792H520.624V150.268H505.9V148.792ZM523.035 143.842H530.739C530.739 148.684 528.795 152.788 523.215 155.488L522.225 154.012C526.491 151.96 528.507 149.098 528.831 145.354H523.035V143.842ZM533.673 142.132H535.527V158.386H533.673V142.132ZM546.775 145.174V146.614C546.775 149.17 547.207 152.104 549.187 153.634L548.035 154.966C546.937 154.102 546.253 152.734 545.875 151.168C545.479 152.77 544.777 154.21 543.589 155.11C542.419 154.21 541.717 152.77 541.339 151.168C540.943 152.734 540.277 154.102 539.179 154.966L538.027 153.634C540.007 152.086 540.439 149.098 540.439 146.614V145.174H538.585V143.662H543.283V145.174H542.185V146.614C542.185 148.468 542.401 150.898 543.607 152.644C544.777 150.916 544.993 148.54 544.993 146.614V145.174H543.913V143.662H548.413V145.174H546.775ZM553.399 148.45V149.98H551.365V158.404H549.511V142.132H551.365V148.45H553.399ZM555.432 143.842H563.136C563.136 148.684 561.192 152.788 555.612 155.488L554.622 154.012C558.888 151.96 560.904 149.098 561.228 145.354H555.432V143.842ZM566.07 142.132H567.924V158.386H566.07V142.132ZM583.762 146.794V148.306H572.602V142.708H574.456V146.794H583.762ZM574.348 153.238V156.532H583.852V158.026H572.494V153.238H574.348ZM570.694 150.25H585.454V151.744H570.694V150.25ZM591.224 157V155.29H594.122V146.074H591.746V144.76C592.988 144.526 593.87 144.22 594.626 143.734H596.192V155.29H598.784V157H591.224ZM602.282 147.856C602.282 149.548 603.038 150.52 604.424 150.52C605.252 150.52 606.188 150.034 606.944 148.9C606.746 146.29 605.756 145.102 604.316 145.102C603.182 145.102 602.282 146.128 602.282 147.856ZM603.956 157.234C602.426 157.234 601.346 156.622 600.572 155.83L601.706 154.552C602.228 155.146 603.038 155.542 603.866 155.542C605.468 155.542 606.854 154.246 606.98 150.466C606.206 151.42 605.072 152.014 604.064 152.014C601.85 152.014 600.356 150.628 600.356 147.856C600.356 145.228 602.156 143.5 604.298 143.5C606.836 143.5 608.888 145.534 608.888 149.926C608.888 155.146 606.512 157.234 603.956 157.234ZM612.187 147.856C612.187 149.548 612.943 150.52 614.329 150.52C615.157 150.52 616.093 150.034 616.849 148.9C616.651 146.29 615.661 145.102 614.221 145.102C613.087 145.102 612.187 146.128 612.187 147.856ZM613.861 157.234C612.331 157.234 611.251 156.622 610.477 155.83L611.611 154.552C612.133 155.146 612.943 155.542 613.771 155.542C615.373 155.542 616.759 154.246 616.885 150.466C616.111 151.42 614.977 152.014 613.969 152.014C611.755 152.014 610.261 150.628 610.261 147.856C610.261 145.228 612.061 143.5 614.203 143.5C616.741 143.5 618.793 145.534 618.793 149.926C618.793 155.146 616.417 157.234 613.861 157.234ZM624.217 157.234C622.129 157.234 620.815 156.388 619.879 155.47L620.869 154.12C621.625 154.876 622.579 155.542 623.965 155.542C625.459 155.542 626.593 154.48 626.593 152.716C626.593 150.952 625.585 149.944 624.073 149.944C623.227 149.944 622.723 150.196 621.949 150.7L620.941 150.034L621.337 143.734H628.051V145.498H623.137L622.831 148.9C623.407 148.612 623.929 148.432 624.649 148.432C626.863 148.432 628.681 149.746 628.681 152.644C628.681 155.578 626.539 157.234 624.217 157.234ZM641.826 154.138V148.666H637.506V147.19H641.826V145.588H637.506V144.112H641.826V142.132H643.68V154.138H641.826ZM639.306 149.782L639.486 151.294C636.966 151.744 634.806 151.852 632.394 151.852H631.134V143.248H632.988V150.322C635.094 150.304 637.056 150.178 639.306 149.782ZM634.986 156.568H644.094V158.08H633.132V153.076H634.986V156.568ZM657.467 148.378V146.308H650.033V148.378H657.467ZM659.321 142.762V149.872H648.179V142.762H650.033V144.814H657.467V142.762H659.321ZM661.139 151.636V153.13H654.641V158.404H652.787V153.13H646.397V151.636H661.139ZM665.188 149.584V153.094C667.78 153.076 669.634 152.986 671.758 152.626L671.92 154.12C669.598 154.534 667.564 154.606 664.612 154.606H663.334V143.536H670.876V145.066H665.188V148.108H670.21V149.584H665.188ZM674.242 142.096H676.114V158.404H674.242V149.602H671.128V148.072H674.242V142.096ZM688.489 145.282V146.83C688.489 149.53 690.163 152.338 692.701 153.418L691.675 154.876C689.785 154.048 688.327 152.284 687.571 150.178C686.851 152.446 685.393 154.372 683.485 155.29L682.423 153.814C684.943 152.644 686.617 149.62 686.617 146.83V145.282H682.999V143.752H692.107V145.282H688.489ZM693.997 142.132H695.869V158.386H693.997V142.132ZM702.294 153.796V156.712H709.764V153.796H702.294ZM700.476 158.188V152.32H711.582V158.188H700.476ZM711.168 148.846H713.418V150.358H698.694V148.846H709.314C709.728 147.028 709.764 145.66 709.764 144.436H700.548V142.924H711.582V144.184C711.582 145.462 711.582 146.902 711.168 148.846ZM715.324 143.842H719.716C719.716 148.018 719.068 151.672 716.17 154.822L714.694 153.796C717.016 151.33 717.808 148.63 717.97 145.372H715.324V143.842ZM720.274 143.842H724.18C724.18 148.108 723.694 152.356 720.796 155.902L719.302 154.858C721.642 152.05 722.308 148.882 722.434 145.372H720.274V143.842ZM730.012 148.684V150.214H727.726V158.368H725.872V142.132H727.726V148.684H730.012ZM737.085 145.282V146.83C737.085 149.53 738.759 152.338 741.297 153.418L740.271 154.876C738.381 154.048 736.923 152.284 736.167 150.178C735.447 152.446 733.989 154.372 732.081 155.29L731.019 153.814C733.539 152.644 735.213 149.62 735.213 146.83V145.282H731.595V143.752H740.703V145.282H737.085ZM742.593 142.132H744.465V158.386H742.593V142.132ZM753.475 145.174V152.86C756.103 152.842 758.083 152.734 760.351 152.338L760.549 153.868C758.083 154.318 755.887 154.408 752.953 154.408H751.621V143.662H759.181V145.174H753.475ZM766.093 148.378V149.908H763.555V158.404H761.701V142.114H763.555V148.378H766.093ZM769.187 146.938C769.187 148.36 770.249 149.26 771.689 149.26C773.147 149.26 774.209 148.36 774.209 146.938C774.209 145.534 773.147 144.616 771.689 144.616C770.249 144.616 769.187 145.534 769.187 146.938ZM776.027 146.938C776.027 149.224 774.173 150.826 771.689 150.826C769.223 150.826 767.369 149.224 767.369 146.938C767.369 144.652 769.223 143.068 771.689 143.068C774.173 143.068 776.027 144.652 776.027 146.938ZM774.623 156.91C776.891 156.91 778.205 156.334 778.205 155.272C778.205 154.192 776.891 153.616 774.623 153.616C772.355 153.616 771.041 154.192 771.041 155.272C771.041 156.334 772.355 156.91 774.623 156.91ZM774.623 152.14C777.971 152.14 780.041 153.31 780.041 155.272C780.041 157.216 777.971 158.386 774.623 158.386C771.293 158.386 769.205 157.216 769.205 155.272C769.205 153.31 771.293 152.14 774.623 152.14ZM782.111 145.876H779.861V147.856H782.111V149.386H779.861V151.69H778.007V142.114H779.861V144.346H782.111V145.876ZM792.982 143.986V145.462H783.388V143.986H787.258V142.132H789.112V143.986H792.982ZM786.016 149.296C786.016 150.322 786.898 150.934 788.176 150.934C789.472 150.934 790.354 150.322 790.354 149.296C790.354 148.27 789.472 147.658 788.176 147.658C786.898 147.658 786.016 148.27 786.016 149.296ZM792.118 149.296C792.118 151.15 790.516 152.374 788.176 152.374C785.854 152.374 784.234 151.15 784.234 149.296C784.234 147.46 785.854 146.218 788.176 146.218C790.516 146.218 792.118 147.46 792.118 149.296ZM787.636 153.382V156.568H796.708V158.08H785.764V153.382H787.636ZM796.06 147.316H798.364V148.846H796.06V154.318H794.206V142.132H796.06V147.316ZM812.449 150.466V145.156H808.705V150.466H812.449ZM806.851 150.466V145.156H804.457V143.662H816.679V145.156H814.285V150.466H816.643V151.978H804.511V150.466H806.851ZM803.233 154.858H817.993V156.388H803.233V154.858ZM827.712 154.948H834.174V156.478H819.45V154.948H825.858V152.176H821.232V146.938H830.592V144.76H821.196V143.266H832.428V148.414H823.05V150.682H832.788V152.176H827.712V154.948ZM842.362 146.236H844.504V142.474H846.232V151.942H844.504V147.766H842.362V146.236ZM843.64 150.016L842.704 151.438C841.264 150.862 840.274 149.782 839.716 148.486C839.14 149.926 838.096 151.132 836.548 151.78L835.576 150.358C837.718 149.458 838.78 147.478 838.78 145.588V144.886H835.99V143.392H843.19V144.886H840.598V145.588C840.598 147.37 841.606 149.188 843.64 150.016ZM838.384 154.21V152.716H849.4V158.386H847.546V154.21H838.384ZM847.636 142.132H849.4V152.05H847.636V142.132ZM864.933 150.718V152.212H853.665V143.446H864.807V144.94H855.555V147.028H864.447V148.486H855.555V150.718H864.933ZM851.847 154.876H866.589V156.388H851.847V154.876ZM879.08 144.904V143.806H869.882V142.528H880.916V146.11H871.736V147.262H881.204V148.558H869.918V144.904H879.08ZM871.61 155.686V156.928H881.456V158.206H869.774V154.48H879.134V153.328H869.738V152.05H880.97V155.686H871.61ZM868.028 149.584H882.77V150.952H868.028V149.584ZM901.319 142.15V153.976H899.465V142.15H901.319ZM897.953 150.34L897.017 151.798C895.145 151.186 893.777 149.926 893.057 148.324C892.337 150.052 890.969 151.438 889.025 152.086L888.053 150.646C890.627 149.782 892.085 147.676 892.085 145.48V144.886H888.557V143.392H897.449V144.886H893.975V145.48C893.975 147.55 895.451 149.53 897.953 150.34ZM892.571 156.568H901.787V158.08H890.699V152.896H892.571V156.568ZM914.422 147.892V151.816H912.694V142.438H914.422V146.362H916.114V142.114H917.878V152.374H916.114V147.892H914.422ZM912.136 143.95V145.408H904.036V143.95H907.186V142.276H909.004V143.95H912.136ZM906.286 148.918C906.286 149.8 907.006 150.376 908.104 150.376C909.202 150.376 909.94 149.8 909.94 148.918C909.94 148.036 909.202 147.46 908.104 147.46C907.006 147.46 906.286 148.036 906.286 148.918ZM911.596 148.918C911.596 150.61 910.156 151.726 908.104 151.726C906.07 151.726 904.63 150.61 904.63 148.918C904.63 147.244 906.07 146.11 908.104 146.11C910.156 146.11 911.596 147.244 911.596 148.918ZM912.478 156.982C914.818 156.982 916.114 156.46 916.114 155.488C916.114 154.516 914.818 154.012 912.478 154.012C910.156 154.012 908.824 154.516 908.824 155.488C908.824 156.46 910.156 156.982 912.478 156.982ZM912.478 152.608C915.898 152.608 917.968 153.652 917.968 155.488C917.968 157.324 915.898 158.386 912.478 158.386C909.04 158.386 906.97 157.324 906.97 155.488C906.97 153.652 909.04 152.608 912.478 152.608ZM924.284 153.202C925.382 153.202 926.156 152.32 926.156 150.97C926.156 149.62 925.382 148.72 924.284 148.72C923.186 148.72 922.412 149.62 922.412 150.97C922.412 152.32 923.186 153.202 924.284 153.202ZM924.284 147.19C926.336 147.19 927.812 148.72 927.812 150.97C927.812 153.202 926.336 154.75 924.284 154.75C922.232 154.75 920.756 153.202 920.756 150.97C920.756 148.72 922.232 147.19 924.284 147.19ZM925.202 142.6V144.778H928.244V146.272H920.288V144.778H923.366V142.6H925.202ZM932.402 142.132H934.166V158.386H932.402V150.394H930.674V157.63H928.946V142.474H930.674V148.864H932.402V142.132ZM942.78 145.66C942.78 146.668 943.716 147.334 945.084 147.334C946.452 147.334 947.37 146.668 947.37 145.66C947.37 144.616 946.452 143.968 945.084 143.968C943.716 143.968 942.78 144.616 942.78 145.66ZM950.142 149.494L950.286 150.772C946.902 151.384 943.14 151.438 940.386 151.456L940.17 149.998C941.34 149.998 942.726 149.998 944.184 149.944V148.612C942.294 148.36 941.052 147.226 941.052 145.66C941.052 143.824 942.708 142.618 945.084 142.618C947.46 142.618 949.098 143.824 949.098 145.66C949.098 147.208 947.892 148.342 946.038 148.612V149.872C947.424 149.8 948.828 149.692 950.142 149.494ZM951.618 152.68V153.022C951.618 154.66 952.68 156.19 954.768 156.856L953.886 158.206C952.302 157.684 951.258 156.676 950.7 155.416C950.178 156.676 949.206 157.792 947.712 158.35C946.2 157.792 945.246 156.694 944.742 155.434C944.166 156.676 943.122 157.684 941.592 158.206L940.71 156.856C942.78 156.172 943.842 154.606 943.842 153.022V152.68H945.642V153.022C945.642 154.318 946.29 155.74 947.694 156.586C949.116 155.704 949.8 154.3 949.8 153.022V152.68H951.618ZM952.932 146.326H955.164V147.856H952.932V151.978H951.078V142.15H952.932V146.326ZM970.319 146.992L969.653 148.432C967.007 148.072 964.811 146.848 963.749 145.156C962.705 146.848 960.509 148.072 957.863 148.432L957.179 146.992C960.437 146.578 962.795 144.814 962.795 142.924V142.294H964.703V142.924C964.703 144.796 967.097 146.578 970.319 146.992ZM967.367 156.712V154.966H960.041V156.712H967.367ZM967.367 153.544V151.888H969.221V158.188H958.205V151.888H960.041V153.544H967.367ZM956.387 149.404H971.111V150.88H956.387V149.404ZM975.393 143.716V152.698C977.697 152.68 980.127 152.482 982.683 151.96L982.881 153.508C980.091 154.084 977.463 154.282 974.943 154.282H973.557V143.716H975.393ZM984.177 142.132H986.031V158.386H984.177V142.132ZM991.304 145.174V152.86C993.932 152.842 995.912 152.734 998.18 152.338L998.378 153.868C995.912 154.318 993.716 154.408 990.782 154.408H989.45V143.662H997.01V145.174H991.304ZM1003.92 148.378V149.908H1001.38V158.404H999.53V142.114H1001.38V148.378H1003.92ZM1006.76 157.234C1005.99 157.234 1005.38 156.64 1005.38 155.794C1005.38 154.93 1005.99 154.318 1006.76 154.318C1007.54 154.318 1008.15 154.93 1008.15 155.794C1008.15 156.64 1007.54 157.234 1006.76 157.234Z" fill="white"/>
<line x1="345" y1="109.5" x2="1185" y2="109.5" stroke="url(#paint0_linear_707_215)"/>
<line x1="465.5" y1="2.18557e-08" x2="465.5" y2="270" stroke="url(#paint1_linear_707_215)"/>
<rect x="461.5" y="106.5" width="7" height="7" fill="#72BF6B" stroke="url(#paint2_linear_707_215)"/>
<defs>
<linearGradient id="paint0_linear_707_215" x1="345" y1="110.5" x2="1185" y2="110.5" gradientUnits="userSpaceOnUse">
<stop stop-color="#72BF6B" stop-opacity="0"/>
<stop offset="0.0970248" stop-color="#72BF6B" stop-opacity="0.5"/>
<stop offset="0.601478" stop-color="#72BF6B" stop-opacity="0.3"/>
<stop offset="1" stop-color="#72BF6B" stop-opacity="0"/>
</linearGradient>
<linearGradient id="paint1_linear_707_215" x1="464.5" y1="-2.18557e-08" x2="464.5" y2="270" gradientUnits="userSpaceOnUse">
<stop stop-color="#72BF6B" stop-opacity="0"/>
<stop offset="0.2" stop-color="#72BF6B" stop-opacity="0.5"/>
<stop offset="0.8" stop-color="#72BF6B" stop-opacity="0.3"/>
<stop offset="1" stop-color="#72BF6B" stop-opacity="0"/>
</linearGradient>
<linearGradient id="paint2_linear_707_215" x1="461" y1="110" x2="469" y2="110" gradientUnits="userSpaceOnUse">
<stop stop-color="#72BF6B" stop-opacity="0"/>
<stop offset="0.2" stop-color="#72BF6B"/>
<stop offset="0.8" stop-color="#72BF6B"/>
<stop offset="1" stop-color="#72BF6B" stop-opacity="0"/>
</linearGradient>
</defs>
</svg>
