<svg width="840" height="220" viewBox="0 0 840 220" fill="none" xmlns="http://www.w3.org/2000/svg">
<path d="M255.217 53.32C254.47 53.32 253.87 53.0933 253.417 52.64C252.99 52.1867 252.723 51.6933 252.617 51.16C252.563 50.8667 252.537 50.5467 252.537 50.2C252.537 49.8267 252.563 49.4667 252.617 49.12C252.99 47.6533 253.617 46.6 254.497 45.96C255.377 45.2933 256.043 44.8 256.497 44.48C256.737 44.4 256.91 44.3867 257.017 44.44C257.15 44.4667 257.243 44.5733 257.297 44.76C257.323 44.92 257.297 45.08 257.217 45.24C257.137 45.3733 257.043 45.48 256.937 45.56C256.51 45.72 256.097 45.9867 255.697 46.36C255.297 46.7333 254.937 47.4133 254.617 48.4C254.67 48.4 254.777 48.3867 254.937 48.36C255.123 48.3333 255.337 48.32 255.577 48.32C256.163 48.32 256.643 48.5867 257.017 49.12C257.39 49.6267 257.577 50.2933 257.577 51.12C257.497 52.56 256.71 53.2933 255.217 53.32ZM249.177 53.32C248.43 53.32 247.843 53.0933 247.417 52.64C247.017 52.1867 246.763 51.6933 246.657 51.16C246.577 50.8667 246.537 50.5467 246.537 50.2C246.537 49.8267 246.577 49.4667 246.657 49.12C247.03 47.6533 247.643 46.6 248.497 45.96C249.377 45.2933 250.057 44.8 250.537 44.48C250.723 44.4 250.87 44.3867 250.977 44.44C251.11 44.4667 251.203 44.5733 251.257 44.76C251.283 44.92 251.257 45.08 251.177 45.24C251.097 45.3733 251.003 45.48 250.897 45.56C250.523 45.72 250.123 45.9867 249.697 46.36C249.297 46.7333 248.95 47.4133 248.657 48.4C248.71 48.4 248.803 48.3867 248.937 48.36C249.097 48.3333 249.297 48.32 249.537 48.32C250.177 48.32 250.67 48.5867 251.017 49.12C251.39 49.6267 251.577 50.2933 251.577 51.12C251.47 52.56 250.67 53.2933 249.177 53.32ZM282.521 65.24C283.108 64.9467 283.788 64.68 284.561 64.44C285.334 64.1733 286.068 64.04 286.761 64.04C286.921 64.04 287.161 64.12 287.481 64.28C287.801 64.4133 288.121 64.5733 288.441 64.76C288.761 64.9733 289.028 65.2 289.241 65.44C289.481 65.6533 289.601 65.84 289.601 66C289.601 66.3467 289.494 66.7733 289.281 67.28C289.068 67.7867 288.881 68.1867 288.721 68.48L288.241 70.76C288.801 70.76 289.241 70.92 289.561 71.24C289.908 71.5333 290.081 71.88 290.081 72.28C290.081 72.4933 289.988 72.72 289.801 72.96C289.614 73.2 289.294 73.32 288.841 73.32H272.561V75.16C272.561 75.5867 272.681 75.92 272.921 76.16C273.161 76.4 273.481 76.52 273.881 76.52H283.801C284.414 76.52 284.881 76.5067 285.201 76.48C285.521 76.4267 285.788 76.2933 286.001 76.08C286.134 75.9467 286.174 75.7467 286.121 75.48L286.521 74.52C286.974 74.52 287.454 74.56 287.961 74.64C288.468 74.6933 288.881 74.8133 289.201 75C289.734 75.32 290.134 75.7733 290.401 76.36C290.694 76.9467 290.721 77.5067 290.481 78.04C290.268 78.52 289.948 78.8133 289.521 78.92C289.094 79.0267 288.294 79.08 287.121 79.08H268.921C268.228 79.08 267.654 78.8667 267.201 78.44C266.748 78.04 266.521 77.6 266.521 77.12V72.8C266.521 72.5333 266.494 72.36 266.441 72.28C266.388 72.2 266.294 72.1467 266.161 72.12C265.921 72.0667 265.708 72.0133 265.521 71.96C265.361 71.88 265.254 71.7067 265.201 71.44C265.121 71.12 265.174 70.88 265.361 70.72C265.548 70.5333 265.801 70.3867 266.121 70.28C266.414 70.2 266.734 70.1467 267.081 70.12C267.428 70.0933 267.748 70.08 268.041 70.08C268.734 70.08 269.494 70.12 270.321 70.2C271.174 70.28 271.921 70.4667 272.561 70.76H282.601V67.8H273.281C272.321 67.8 271.601 67.8667 271.121 68C270.641 68.1067 270.214 68.2267 269.841 68.36C269.414 68.5467 268.974 68.64 268.521 68.64C268.334 68.64 268.001 68.5467 267.521 68.36C267.041 68.1467 266.614 67.7733 266.241 67.24C266.028 66.9467 265.801 66.56 265.561 66.08C265.348 65.5733 265.201 65.1733 265.121 64.88L267.161 64.4C267.508 64.6933 267.934 64.92 268.441 65.08C268.948 65.2133 269.388 65.28 269.761 65.28L282.521 65.24ZM276.761 51.32C276.094 51.8 275.268 52.36 274.281 53C273.294 53.6133 272.268 54.1867 271.201 54.72C270.108 55.2533 269.014 55.7067 267.921 56.08C266.854 56.4533 265.881 56.64 265.001 56.64C264.708 56.64 264.454 56.6133 264.241 56.56C264.028 56.48 263.841 56.4 263.681 56.32C263.494 56.2133 263.334 56.1067 263.201 56L263.401 54.16C263.641 54.24 263.894 54.3067 264.161 54.36C264.374 54.4133 264.601 54.44 264.841 54.44C265.081 54.44 265.294 54.4133 265.481 54.36C266.174 54.12 267.054 53.6133 268.121 52.84C269.214 52.0667 270.441 50.9867 271.801 49.6C272.734 48.64 273.468 47.7867 274.001 47.04C274.534 46.2933 274.828 45.64 274.881 45.08C274.961 44.4933 274.694 43.76 274.081 42.88L275.921 41.8C276.268 41.9333 276.761 42.1333 277.401 42.4C278.068 42.6667 278.721 42.9867 279.361 43.36C279.974 43.76 280.508 44.2 280.961 44.68C281.414 45.1333 281.628 45.6133 281.601 46.12C281.574 46.8667 281.201 47.6133 280.481 48.36C281.014 48.6533 281.548 48.96 282.081 49.28C282.641 49.5733 283.161 49.84 283.641 50.08C284.121 50.32 284.548 50.52 284.921 50.68C285.294 50.84 285.574 50.9333 285.761 50.96C285.974 51.0133 286.188 51.0133 286.401 50.96C286.641 50.88 286.854 50.8133 287.041 50.76L288.681 51C289.214 51.6133 289.681 52.2933 290.081 53.04C290.481 53.76 290.681 54.56 290.681 55.44C290.681 55.7333 290.601 56.0133 290.441 56.28C290.281 56.52 290.041 56.7067 289.721 56.84C289.188 57 288.641 56.9333 288.081 56.64C287.548 56.3467 287.054 56.0533 286.601 55.76C285.961 55.36 285.268 54.9467 284.521 54.52C283.801 54.0933 283.068 53.6533 282.321 53.2C281.548 52.7733 280.774 52.3333 280.001 51.88C279.254 51.4267 278.548 50.9867 277.881 50.56L276.761 51.32ZM293.241 62.2C292.574 62.04 291.881 61.9333 291.161 61.88C290.441 61.8267 289.454 61.8 288.201 61.8H268.601C267.828 61.8 267.028 61.8533 266.201 61.96C265.401 62.04 264.641 62.2667 263.921 62.64C263.734 62.72 263.494 62.8267 263.201 62.96C262.934 63.0667 262.654 63.12 262.361 63.12C261.774 63.12 261.254 62.96 260.801 62.64C260.348 62.32 259.948 61.92 259.601 61.44C259.254 60.9867 258.948 60.4933 258.681 59.96C258.441 59.4 258.241 58.88 258.081 58.4L260.241 57.44C260.881 58.08 261.654 58.5067 262.561 58.72C263.494 58.9067 264.428 59.0133 265.361 59.04H287.001C288.201 59.04 289.041 58.84 289.521 58.44C290.028 58.04 290.334 57.6667 290.441 57.32L292.241 56.88C292.508 57.04 292.788 57.2 293.081 57.36C293.321 57.4933 293.574 57.6667 293.841 57.88C294.108 58.0667 294.361 58.28 294.601 58.52C295.054 58.9733 295.361 59.3733 295.521 59.72C295.681 60.04 295.788 60.2933 295.841 60.48C295.948 60.7733 295.988 61.0667 295.961 61.36C295.934 61.6267 295.774 61.8667 295.481 62.08C295.188 62.3467 294.814 62.4667 294.361 62.44C293.908 62.3867 293.534 62.3067 293.241 62.2ZM328.97 77.8C328.89 78.2267 328.716 78.56 328.45 78.8C328.21 79.04 327.836 79.2667 327.33 79.48C326.956 79.6667 326.396 79.76 325.65 79.76C325.143 79.76 324.756 79.72 324.49 79.64C324.223 79.5867 323.97 79.52 323.73 79.44L323.45 79.32C323.05 79.16 322.65 78.92 322.25 78.6C321.876 78.28 321.596 78.0133 321.41 77.8L322.05 76.76C322.263 76.8133 322.49 76.8667 322.73 76.92C322.97 76.9467 323.13 76.96 323.21 76.96C323.29 76.88 323.33 76.5867 323.33 76.08V42.92C323.33 42.7333 323.263 42.5467 323.13 42.36C323.023 42.1467 322.89 41.9467 322.73 41.76L324.09 40.92C325.796 41.1333 327.05 41.4533 327.85 41.88C328.676 42.3067 329.09 42.6267 329.09 42.84V77.8H328.97ZM314.37 58.04C313.463 59.1333 312.556 60.16 311.65 61.12C310.743 62.08 309.783 62.9733 308.77 63.8C307.756 64.6533 306.663 65.44 305.49 66.16C304.343 66.88 303.063 67.5467 301.65 68.16C301.196 68.3733 300.783 68.5067 300.41 68.56C300.036 68.6133 299.623 68.64 299.17 68.64C298.716 68.64 298.37 68.5467 298.13 68.36C297.916 68.1733 297.716 68 297.53 67.84L298.21 65.68C298.636 66.0267 298.983 66.2 299.25 66.2C299.436 66.2 299.65 66.1467 299.89 66.04C300.156 65.9333 300.396 65.8133 300.61 65.68C301.623 65.0667 302.623 64.32 303.61 63.44C304.623 62.5333 305.69 61.3333 306.81 59.84C308.063 58.16 309.09 56.5733 309.89 55.08C310.716 53.5867 311.37 52.04 311.85 50.44H306.61C305.863 50.4667 305.316 50.5333 304.97 50.64C304.623 50.72 304.33 50.8133 304.09 50.92C303.85 51 303.61 51.08 303.37 51.16C303.13 51.24 302.863 51.28 302.57 51.28C302.383 51.28 302.036 51.1733 301.53 50.96C301.05 50.72 300.623 50.3333 300.25 49.8C300.036 49.5067 299.81 49.1067 299.57 48.6C299.356 48.0933 299.21 47.6933 299.13 47.4L301.05 46.96C301.316 47.1467 301.703 47.3333 302.21 47.52C302.663 47.6533 303.05 47.76 303.37 47.84C303.69 47.8933 303.876 47.92 303.93 47.92L311.57 47.88C311.89 47.7733 312.263 47.6533 312.69 47.52C313.116 47.36 313.543 47.2133 313.97 47.08C314.37 46.9733 314.743 46.88 315.09 46.8C315.463 46.72 315.756 46.68 315.97 46.68C316.103 46.68 316.33 46.7733 316.65 46.96C316.97 47.12 317.29 47.32 317.61 47.56C317.93 47.8 318.21 48.0533 318.45 48.32C318.716 48.5867 318.85 48.8133 318.85 49C318.85 49.4533 318.69 50.0933 318.37 50.92C318.076 51.72 317.703 52.56 317.25 53.44C316.77 54.3467 316.263 55.2267 315.73 56.08C315.223 56.9067 314.77 57.56 314.37 58.04ZM354.31 58.56L354.35 58.6C354.724 59.1333 355.057 59.6533 355.35 60.16C355.67 60.6667 355.884 61 355.99 61.16C356.15 61.3733 356.284 61.4933 356.39 61.52C356.524 61.52 356.604 61.4933 356.63 61.44L358.59 61.68C358.91 62.2933 359.15 62.9333 359.31 63.6C359.497 64.2667 359.564 65.1067 359.51 66.12C359.457 66.76 359.35 67.28 359.19 67.68C359.057 68.0533 358.67 68.2933 358.03 68.4C357.577 68.4533 357.217 68.3733 356.95 68.16C356.71 67.9467 356.43 67.6533 356.11 67.28C355.39 66.3467 354.697 65.4267 354.03 64.52C353.39 63.5867 352.75 62.6267 352.11 61.64C351.39 62.5733 350.63 63.4933 349.83 64.4C349.03 65.28 348.23 66.0667 347.43 66.76C346.604 67.48 345.79 68.0533 344.99 68.48C344.217 68.9067 343.484 69.12 342.79 69.12C342.257 69.12 341.857 69.0267 341.59 68.84C341.457 68.7333 341.337 68.6267 341.23 68.52L341.63 66.52C342.11 66.52 342.51 66.4933 342.83 66.44C343.177 66.3867 343.524 66.1867 343.87 65.84C344.484 65.2267 345.137 64.4133 345.83 63.4C345.537 63.2667 345.257 63.0667 344.99 62.8C344.75 62.5333 344.564 62.2933 344.43 62.08C344.137 61.7067 343.857 61.3467 343.59 61C343.324 60.6267 343.07 60.2667 342.83 59.92C342.297 60.5333 341.724 61.1467 341.11 61.76C340.524 62.3733 339.937 62.92 339.35 63.4C338.737 63.9067 338.137 64.32 337.55 64.64C336.964 64.9333 336.43 65.08 335.95 65.08C335.577 65.08 335.27 65.0533 335.03 65C334.79 64.92 334.537 64.8267 334.27 64.72L334.99 62.68C335.444 62.8133 335.95 62.6267 336.51 62.12C337.097 61.5867 337.67 60.9467 338.23 60.2C338.764 59.4533 339.244 58.6933 339.67 57.92C340.124 57.12 340.444 56.5067 340.63 56.08C340.95 55.36 341.217 54.7467 341.43 54.24C341.67 53.7067 341.87 53.2267 342.03 52.8C342.19 52.3733 342.324 51.9733 342.43 51.6C342.537 51.2267 342.644 50.8133 342.75 50.36H342.27C341.977 50.36 341.75 50.3733 341.59 50.4C341.457 50.4 341.35 50.4133 341.27 50.44C341.19 50.4933 341.124 50.5467 341.07 50.6C341.017 50.6533 340.95 50.7067 340.87 50.76C340.657 50.8933 340.43 51 340.19 51.08C339.977 51.16 339.71 51.2 339.39 51.2C338.964 51.2 338.564 51.08 338.19 50.84C337.844 50.5733 337.537 50.2533 337.27 49.88C336.977 49.5067 336.724 49.1067 336.51 48.68C336.324 48.2267 336.19 47.8133 336.11 47.44L337.99 46.96C338.444 47.2533 338.95 47.4667 339.51 47.6C340.07 47.7333 340.657 47.8 341.27 47.8H342.91C343.577 47.56 344.297 47.3333 345.07 47.12C345.87 46.9067 346.497 46.8 346.95 46.8C347.084 46.8 347.31 46.8933 347.63 47.08C347.977 47.2667 348.297 47.48 348.59 47.72C348.804 47.7733 349.03 47.8 349.27 47.8C349.51 47.8 349.75 47.8 349.99 47.8H351.67C351.99 47.6933 352.35 47.5867 352.75 47.48C353.15 47.3467 353.55 47.2267 353.95 47.12C354.35 47.0133 354.71 46.9333 355.03 46.88C355.377 46.8267 355.657 46.8 355.87 46.8C356.004 46.8 356.23 46.88 356.55 47.04C356.87 47.1733 357.19 47.3467 357.51 47.56C357.83 47.7733 358.11 48.0133 358.35 48.28C358.617 48.52 358.75 48.7333 358.75 48.92C358.75 49.3733 358.644 49.9333 358.43 50.6C358.217 51.24 357.95 51.92 357.63 52.64C357.31 53.36 356.95 54.0933 356.55 54.84C356.15 55.56 355.764 56.2267 355.39 56.84L354.31 58.56ZM367.75 76.64C367.75 77.4667 367.63 78.0533 367.39 78.4C367.15 78.7733 366.697 79.12 366.03 79.44C365.657 79.6267 365.097 79.72 364.35 79.72C363.497 79.72 362.724 79.56 362.03 79.24C361.337 78.92 360.657 78.44 359.99 77.8L360.59 76.88C360.75 76.9333 360.91 76.9867 361.07 77.04C361.23 77.0667 361.404 77.0533 361.59 77C361.724 76.9467 361.804 76.84 361.83 76.68C361.884 76.52 361.91 76.32 361.91 76.08V43.12C361.91 42.7733 361.724 42.4133 361.35 42.04L362.63 40.96C364.364 41.1733 365.644 41.4933 366.47 41.92C367.324 42.32 367.75 42.6267 367.75 42.84V56.92C368.417 56.8667 368.95 56.7867 369.35 56.68C369.75 56.5467 370.07 56.4 370.31 56.24C370.55 56.1067 370.724 55.96 370.83 55.8C370.964 55.64 371.057 55.4933 371.11 55.36L373.11 55.08C373.27 55.2133 373.47 55.3867 373.71 55.6C373.95 55.8133 374.19 56.04 374.43 56.28C374.67 56.5467 374.884 56.84 375.07 57.16C375.284 57.48 375.43 57.8133 375.51 58.16C375.564 58.4 375.59 58.6533 375.59 58.92C375.59 59.16 375.444 59.3867 375.15 59.6C374.99 59.7333 374.83 59.8133 374.67 59.84C374.537 59.84 374.39 59.8133 374.23 59.76C374.07 59.7333 373.91 59.6933 373.75 59.64C373.617 59.5867 373.484 59.56 373.35 59.56C373.137 59.5067 372.91 59.48 372.67 59.48C372.43 59.48 372.164 59.48 371.87 59.48H367.75V76.64ZM344.95 57.28C345.057 57.4133 345.177 57.5467 345.31 57.68C345.444 57.7867 345.577 57.8 345.71 57.72L347.19 57.84C347.297 58.2133 347.404 58.6133 347.51 59.04C347.617 59.4667 347.697 59.9067 347.75 60.36C347.964 60.0133 348.177 59.6667 348.39 59.32C348.604 58.9467 348.817 58.56 349.03 58.16C349.964 56.4533 350.657 55 351.11 53.8C351.564 52.5733 351.91 51.4267 352.15 50.36H351.47C351.097 50.36 350.79 50.3733 350.55 50.4C350.337 50.4 350.177 50.44 350.07 50.52C349.884 50.6533 349.684 50.7733 349.47 50.88C349.257 50.9867 349.03 51.0533 348.79 51.08C348.55 51.5867 348.27 52.12 347.95 52.68C347.657 53.24 347.35 53.7733 347.03 54.28C346.71 54.8133 346.39 55.3067 346.07 55.76C345.75 56.1867 345.47 56.56 345.23 56.88L344.95 57.28ZM407.604 77.8C407.524 78.2267 407.351 78.56 407.084 78.8C406.844 79.04 406.471 79.2667 405.964 79.48C405.591 79.6667 405.031 79.76 404.284 79.76C403.777 79.76 403.391 79.72 403.124 79.64C402.857 79.5867 402.604 79.52 402.364 79.44L402.084 79.32C401.684 79.16 401.284 78.92 400.884 78.6C400.511 78.28 400.231 78.0133 400.044 77.8L400.684 76.76C400.897 76.8133 401.124 76.8667 401.364 76.92C401.604 76.9467 401.764 76.96 401.844 76.96C401.924 76.88 401.964 76.5867 401.964 76.08V42.92C401.964 42.7333 401.897 42.5467 401.764 42.36C401.657 42.1467 401.524 41.9467 401.364 41.76L402.724 40.92C404.431 41.1333 405.684 41.4533 406.484 41.88C407.311 42.3067 407.724 42.6267 407.724 42.84V77.8H407.604ZM393.004 58.04C392.097 59.1333 391.191 60.16 390.284 61.12C389.377 62.08 388.417 62.9733 387.404 63.8C386.391 64.6533 385.297 65.44 384.124 66.16C382.977 66.88 381.697 67.5467 380.284 68.16C379.831 68.3733 379.417 68.5067 379.044 68.56C378.671 68.6133 378.257 68.64 377.804 68.64C377.351 68.64 377.004 68.5467 376.764 68.36C376.551 68.1733 376.351 68 376.164 67.84L376.844 65.68C377.271 66.0267 377.617 66.2 377.884 66.2C378.071 66.2 378.284 66.1467 378.524 66.04C378.791 65.9333 379.031 65.8133 379.244 65.68C380.257 65.0667 381.257 64.32 382.244 63.44C383.257 62.5333 384.324 61.3333 385.444 59.84C386.697 58.16 387.724 56.5733 388.524 55.08C389.351 53.5867 390.004 52.04 390.484 50.44H385.244C384.497 50.4667 383.951 50.5333 383.604 50.64C383.257 50.72 382.964 50.8133 382.724 50.92C382.484 51 382.244 51.08 382.004 51.16C381.764 51.24 381.497 51.28 381.204 51.28C381.017 51.28 380.671 51.1733 380.164 50.96C379.684 50.72 379.257 50.3333 378.884 49.8C378.671 49.5067 378.444 49.1067 378.204 48.6C377.991 48.0933 377.844 47.6933 377.764 47.4L379.684 46.96C379.951 47.1467 380.337 47.3333 380.844 47.52C381.297 47.6533 381.684 47.76 382.004 47.84C382.324 47.8933 382.511 47.92 382.564 47.92L390.204 47.88C390.524 47.7733 390.897 47.6533 391.324 47.52C391.751 47.36 392.177 47.2133 392.604 47.08C393.004 46.9733 393.377 46.88 393.724 46.8C394.097 46.72 394.391 46.68 394.604 46.68C394.737 46.68 394.964 46.7733 395.284 46.96C395.604 47.12 395.924 47.32 396.244 47.56C396.564 47.8 396.844 48.0533 397.084 48.32C397.351 48.5867 397.484 48.8133 397.484 49C397.484 49.4533 397.324 50.0933 397.004 50.92C396.711 51.72 396.337 52.56 395.884 53.44C395.404 54.3467 394.897 55.2267 394.364 56.08C393.857 56.9067 393.404 57.56 393.004 58.04ZM459.367 60.76C459.421 60.92 459.474 61.0933 459.527 61.28C459.607 61.44 459.647 61.6 459.647 61.76C459.647 61.9467 459.607 62.12 459.527 62.28C459.447 62.44 459.301 62.5733 459.087 62.68C458.794 62.8133 458.514 62.88 458.247 62.88C457.981 62.8533 457.701 62.8 457.407 62.72C457.247 62.6667 457.087 62.6267 456.927 62.6C456.794 62.5733 456.661 62.56 456.527 62.56H439.887C438.607 62.56 437.674 62.6533 437.087 62.84C436.501 63.0267 436.047 63.2133 435.727 63.4L435.447 63.52C435.314 63.6 435.127 63.6667 434.887 63.72C434.674 63.7733 434.487 63.8 434.327 63.8C434.114 63.8 433.794 63.7467 433.367 63.64C432.941 63.5067 432.501 63.2 432.047 62.72C431.541 62.1333 431.114 61.5067 430.767 60.84C430.447 60.1467 430.221 59.5733 430.087 59.12L432.007 58.52C432.354 58.7333 432.794 58.9867 433.327 59.28C433.861 59.5467 434.367 59.7333 434.847 59.84C435.007 59.8667 435.274 59.8933 435.647 59.92C436.047 59.9467 436.407 59.96 436.727 59.96C436.727 59.7733 436.714 59.32 436.687 58.6C436.687 57.88 436.687 57.0933 436.687 56.24C436.661 55.3867 436.634 54.56 436.607 53.76C436.607 52.96 436.607 52.3733 436.607 52C436.607 51.8133 436.554 51.6267 436.447 51.44C436.341 51.2267 436.221 51.04 436.087 50.88L437.287 50C438.861 50.2133 440.061 50.52 440.887 50.92C441.741 51.32 442.167 51.6267 442.167 51.84L442.287 60H447.487C447.754 59.9733 447.941 59.92 448.047 59.84C448.261 59.7067 448.461 59.4533 448.647 59.08C448.834 58.68 448.927 58.32 448.927 58V51.2C448.927 50.9867 448.901 50.8267 448.847 50.72C448.821 50.5867 448.781 50.4933 448.727 50.44C448.674 50.36 448.621 50.2933 448.567 50.24C448.541 50.1867 448.501 50.1333 448.447 50.08L449.567 49.32C450.341 49.4267 451.034 49.5733 451.647 49.76C452.287 49.9467 452.834 50.1333 453.287 50.32C453.714 50.5067 454.047 50.6933 454.287 50.88C454.527 51.04 454.647 51.1733 454.647 51.28V57.04C454.647 57.52 454.381 58 453.847 58.48C453.314 58.96 452.781 59.3867 452.247 59.76C453.261 59.6 454.007 59.3867 454.487 59.12C454.967 58.8533 455.287 58.6133 455.447 58.4L457.087 57.92L457.567 58.4C457.941 58.7733 458.287 59.1467 458.607 59.52C458.927 59.8933 459.181 60.3067 459.367 60.76ZM456.687 72.56H436.247C435.501 72.56 434.861 72.5867 434.327 72.64C433.794 72.6933 433.341 72.7733 432.967 72.88C432.567 72.96 432.221 73.0533 431.927 73.16C431.661 73.2667 431.407 73.3733 431.167 73.48C431.061 73.5333 430.887 73.6133 430.647 73.72C430.434 73.8 430.194 73.84 429.927 73.84C429.714 73.84 429.394 73.7867 428.967 73.68C428.541 73.5467 428.101 73.2133 427.647 72.68C427.114 72.04 426.674 71.4133 426.327 70.8C426.007 70.1867 425.781 69.6667 425.647 69.24L427.367 68.28C427.821 68.52 428.327 68.7867 428.887 69.08C429.447 69.3733 430.034 69.5733 430.647 69.68C430.967 69.7333 431.274 69.7733 431.567 69.8C431.887 69.8 432.234 69.8 432.607 69.8H453.447C453.874 69.8 454.327 69.8 454.807 69.8C455.314 69.8 455.807 69.7467 456.287 69.64C456.741 69.56 457.154 69.4133 457.527 69.2C457.927 68.9867 458.247 68.6533 458.487 68.2L460.407 67.56C460.967 67.9867 461.527 68.44 462.087 68.92C462.647 69.4 463.087 69.92 463.407 70.48C463.621 70.8 463.754 71.2133 463.807 71.72C463.861 72.2 463.727 72.6 463.407 72.92C463.221 73.08 462.941 73.16 462.567 73.16C462.194 73.16 461.794 73.12 461.367 73.04C460.914 72.96 460.474 72.88 460.047 72.8C459.621 72.6933 459.261 72.64 458.967 72.64L456.687 72.56ZM441.007 48.96C440.394 48.96 439.901 48.9733 439.527 49C439.154 49.0267 438.861 49.0667 438.647 49.12C438.407 49.1733 438.234 49.2267 438.127 49.28C438.021 49.3333 437.927 49.3867 437.847 49.44C437.794 49.4667 437.701 49.52 437.567 49.6C437.461 49.68 437.367 49.7333 437.287 49.76H437.327C437.114 49.8933 436.874 50 436.607 50.08C436.341 50.16 436.101 50.2 435.887 50.2C435.594 50.2 435.261 50.16 434.887 50.08C434.514 49.9733 434.074 49.6533 433.567 49.12C433.061 48.5867 432.674 48.0133 432.407 47.4C432.167 46.76 431.981 46.2267 431.847 45.8L433.407 44.88C433.861 45.1733 434.341 45.4533 434.847 45.72C435.381 45.96 435.901 46.1467 436.407 46.28C436.594 46.3333 436.887 46.3733 437.287 46.4C437.687 46.4 438.021 46.4 438.287 46.4H448.127C449.221 46.4 450.114 46.3467 450.807 46.24C451.527 46.1067 452.101 45.9467 452.527 45.76C452.927 45.6 453.221 45.4133 453.407 45.2C453.621 44.9867 453.781 44.7867 453.887 44.6L455.567 44.08C456.021 44.48 456.461 44.9067 456.887 45.36C457.341 45.7867 457.674 46.28 457.887 46.84C457.941 46.9733 457.994 47.1467 458.047 47.36C458.101 47.5467 458.127 47.7467 458.127 47.96C458.127 48.1733 458.087 48.3867 458.007 48.6C457.927 48.7867 457.781 48.9333 457.567 49.04C457.274 49.2 456.994 49.28 456.727 49.28C456.461 49.2533 456.167 49.2 455.847 49.12C455.687 49.0667 455.527 49.0267 455.367 49C455.234 48.9733 455.114 48.96 455.007 48.96H441.007ZM497.964 73.2C497.617 73.1733 497.204 73.16 496.724 73.16C496.244 73.16 495.724 73.16 495.164 73.16H475.564C474.79 73.16 473.964 73.2 473.084 73.28C472.23 73.36 471.457 73.5867 470.764 73.96C470.55 74.04 470.31 74.1333 470.044 74.24C469.777 74.3467 469.537 74.4 469.324 74.4C469.11 74.4 468.75 74.32 468.244 74.16C467.764 74 467.297 73.6667 466.844 73.16C466.31 72.6267 465.897 72.0667 465.604 71.48C465.337 70.8933 465.137 70.3867 465.004 69.96L467.204 69.08C467.844 69.72 468.617 70.12 469.524 70.28C470.457 70.44 471.39 70.5333 472.324 70.56H481.884V63.64H479.004C478.924 63.64 478.71 63.68 478.364 63.76C478.044 63.84 477.737 63.92 477.444 64C477.15 64.08 476.857 64.16 476.564 64.24C476.27 64.2933 476.004 64.32 475.764 64.32C475.364 64.32 474.937 64.2133 474.484 64C474.057 63.7867 473.67 63.5333 473.324 63.24C472.95 62.9467 472.644 62.6533 472.404 62.36C472.19 62.04 472.084 61.8 472.084 61.64C472.084 61.48 472.097 61.3067 472.124 61.12C472.15 60.9067 472.19 60.72 472.244 60.56L472.444 59.32V55.12C472.444 54.8 472.417 54.6 472.364 54.52C472.337 54.44 472.27 54.4 472.164 54.4C471.764 54.4 471.47 54.2667 471.284 54C471.097 53.7067 471.07 53.4267 471.204 53.16L471.164 53.2C471.217 53.0667 471.39 52.92 471.684 52.76C471.977 52.5733 472.364 52.4533 472.844 52.4C473.27 52.3467 473.697 52.32 474.124 52.32C474.55 52.32 475.084 52.36 475.724 52.44C476.444 52.5733 477.057 52.6933 477.564 52.8C478.07 52.88 478.377 52.9467 478.484 53H489.564V48.04H479.564C478.577 48.04 477.844 48.1067 477.364 48.24C476.884 48.3733 476.457 48.5067 476.084 48.64L475.724 48.76C475.59 48.8133 475.47 48.8667 475.364 48.92C475.284 48.9467 475.084 48.96 474.764 48.96C474.604 48.96 474.27 48.8267 473.764 48.56C473.257 48.2667 472.83 47.8533 472.484 47.32V47.36C472.27 47.04 472.057 46.7067 471.844 46.36C471.63 45.9867 471.497 45.6933 471.444 45.48L473.044 44.52C473.177 44.6 473.31 44.68 473.444 44.76C473.577 44.8133 473.697 44.88 473.804 44.96C473.91 45.0133 474.004 45.0533 474.084 45.08C474.75 45.2933 475.204 45.4133 475.444 45.44C475.684 45.4667 475.83 45.48 475.884 45.48H489.324C489.404 45.4533 489.59 45.3733 489.884 45.24C490.204 45.1067 490.577 44.96 491.004 44.8C491.43 44.6667 491.87 44.5467 492.324 44.44C492.804 44.3333 493.257 44.28 493.684 44.28C493.87 44.28 494.124 44.3467 494.444 44.48C494.764 44.6133 495.084 44.7733 495.404 44.96C495.724 45.1733 495.99 45.4 496.204 45.64C496.444 45.8533 496.564 46.0533 496.564 46.24C496.564 46.56 496.457 46.9867 496.244 47.52C496.057 48.0267 495.87 48.4533 495.684 48.8C495.604 49.5467 495.51 50.24 495.404 50.88C495.324 51.52 495.244 52.2267 495.164 53H495.244C495.724 53 496.124 53.1467 496.444 53.44C496.764 53.7067 496.924 54.0933 496.924 54.6C496.924 54.84 496.83 55.0667 496.644 55.28C496.484 55.4667 496.07 55.56 495.404 55.56H478.524V59.76C478.524 60.1067 478.59 60.4133 478.724 60.68C478.884 60.9467 479.124 61.08 479.444 61.08H490.844C491.457 61.08 491.924 61.0533 492.244 61C492.59 60.92 492.87 60.7733 493.084 60.56C493.217 60.4267 493.297 60.28 493.324 60.12C493.35 59.9333 493.35 59.7467 493.324 59.56L494.044 58.8C494.284 58.8 494.55 58.8133 494.844 58.84C495.057 58.8667 495.297 58.9067 495.564 58.96C495.857 59.0133 496.124 59.1067 496.364 59.24C496.63 59.4 496.87 59.6267 497.084 59.92C497.297 60.1867 497.47 60.48 497.604 60.8C497.71 61.12 497.777 61.44 497.804 61.76C497.857 62.0533 497.844 62.32 497.764 62.56C497.737 62.64 497.684 62.7467 497.604 62.88C497.524 63.0133 497.377 63.1333 497.164 63.24C496.95 63.3467 496.657 63.44 496.284 63.52C495.91 63.6 495.417 63.64 494.804 63.64H487.564V69.48C487.564 69.7733 487.59 70.04 487.644 70.28C487.724 70.4933 487.857 70.6 488.044 70.6H494.044C494.63 70.6 495.124 70.56 495.524 70.48C495.95 70.3733 496.297 70.24 496.564 70.08C496.83 69.9467 497.03 69.8 497.164 69.64C497.297 69.48 497.39 69.32 497.444 69.16L499.084 68.6C499.35 68.7333 499.63 68.8667 499.924 69C500.164 69.1333 500.43 69.2933 500.724 69.48C501.017 69.64 501.284 69.84 501.524 70.08C501.977 70.5333 502.284 70.9067 502.444 71.2C502.63 71.4933 502.75 71.72 502.804 71.88C502.91 72.1733 502.937 72.44 502.884 72.68C502.857 72.92 502.697 73.1733 502.404 73.44C502.164 73.6533 501.817 73.7467 501.364 73.72C500.91 73.6933 500.524 73.64 500.204 73.56C499.75 73.4533 499.35 73.3733 499.004 73.32C498.684 73.2667 498.337 73.2267 497.964 73.2ZM522.447 47.12C522.447 47.52 522.341 47.9867 522.127 48.52C521.914 49.0267 521.634 49.5733 521.287 50.16C520.914 50.7733 520.474 51.4133 519.967 52.08C519.487 52.72 518.954 53.3733 518.367 54.04C518.741 54.6 519.087 55.1467 519.407 55.68C519.754 56.2133 520.034 56.6 520.247 56.84C520.301 56.8933 520.367 56.9067 520.447 56.88C520.554 56.8267 520.607 56.7733 520.607 56.72L522.487 56.76C522.674 57 522.847 57.4133 523.007 58C523.167 58.5867 523.274 59.1867 523.327 59.8C523.381 60.6267 523.327 61.36 523.167 62C523.007 62.64 522.727 63.0533 522.327 63.24C521.954 63.3733 521.607 63.4 521.287 63.32C520.994 63.24 520.727 63.0933 520.487 62.88C520.221 62.6667 519.967 62.4 519.727 62.08C519.514 61.76 519.301 61.4267 519.087 61.08L516.087 56.48C515.394 57.1733 514.554 57.96 513.567 58.84C512.581 59.6933 511.567 60.48 510.527 61.2C509.487 61.9467 508.487 62.5467 507.527 63C506.567 63.4267 505.767 63.5467 505.127 63.36C504.834 63.28 504.554 63.1867 504.287 63.08C504.047 62.9467 503.834 62.76 503.647 62.52L504.367 60.64C504.847 60.8533 505.287 60.9067 505.687 60.8C505.954 60.72 506.261 60.56 506.607 60.32C506.954 60.0533 507.354 59.68 507.807 59.2C508.261 58.72 508.767 58.12 509.327 57.4C509.887 56.68 510.527 55.8133 511.247 54.8C511.807 54 512.287 53.2933 512.687 52.68C513.087 52.04 513.421 51.48 513.687 51C513.954 50.52 514.181 50.0933 514.367 49.72C514.554 49.32 514.727 48.9333 514.887 48.56H512.407C511.874 48.56 511.501 48.6133 511.287 48.72C511.101 48.8 510.781 48.9333 510.327 49.12C510.114 49.2 509.927 49.2667 509.767 49.32C509.607 49.3733 509.381 49.4 509.087 49.4C508.874 49.4 508.514 49.28 508.007 49.04C507.527 48.8 507.101 48.4133 506.727 47.88C506.514 47.5867 506.274 47.2133 506.007 46.76C505.767 46.28 505.621 45.8933 505.567 45.6L507.807 45.16C508.181 45.4 508.621 45.6133 509.127 45.8C509.634 45.96 510.114 46.04 510.567 46.04L515.167 45.96C515.461 45.8533 515.807 45.7333 516.207 45.6C516.607 45.4667 517.021 45.3333 517.447 45.2C517.847 45.0933 518.234 45 518.607 44.92C519.007 44.84 519.327 44.8 519.567 44.8C519.701 44.8 519.927 44.8933 520.247 45.08C520.567 45.24 520.887 45.44 521.207 45.68C521.527 45.92 521.807 46.1733 522.047 46.44C522.314 46.7067 522.447 46.9333 522.447 47.12ZM536.047 65.32C536.207 65.32 536.434 65.4 536.727 65.56C537.047 65.6933 537.354 65.8533 537.647 66.04C537.914 66.2533 538.154 66.48 538.367 66.72C538.581 66.9333 538.687 67.12 538.687 67.28C538.687 67.44 538.661 67.64 538.607 67.88C538.581 68.12 538.527 68.36 538.447 68.6C538.367 68.8667 538.287 69.12 538.207 69.36C538.127 69.5733 538.047 69.76 537.967 69.92C537.967 70.4267 537.967 71.0133 537.967 71.68C537.967 72.32 537.967 72.9733 537.967 73.64C537.941 74.3067 537.927 74.9733 537.927 75.64C537.927 76.28 537.927 76.8533 537.927 77.36C537.927 77.7333 537.847 78.0267 537.687 78.24C537.527 78.48 537.314 78.6667 537.047 78.8C536.781 78.9067 536.487 78.9733 536.167 79C535.847 79.0533 535.514 79.08 535.167 79.08C534.234 79.08 533.407 79 532.687 78.84C531.994 78.68 531.194 78.3733 530.287 77.92L530.567 76.28C530.941 76.4133 531.247 76.4667 531.487 76.44C531.727 76.3867 531.861 76.0933 531.887 75.56V69.08H521.687C520.914 69.08 520.301 69.16 519.847 69.32C519.421 69.4533 519.021 69.6 518.647 69.76C518.354 69.8933 518.021 70.0267 517.647 70.16C517.301 70.2667 516.967 70.2933 516.647 70.24C516.407 70.1867 516.074 70.0133 515.647 69.72C515.221 69.4267 514.847 69.04 514.527 68.56C514.314 68.2667 514.101 67.9333 513.887 67.56C513.701 67.1867 513.581 66.84 513.527 66.52L515.007 65.72C515.407 66.04 515.901 66.2533 516.487 66.36C517.101 66.4667 517.647 66.5333 518.127 66.56H531.967C532.634 66.3733 533.287 66.12 533.927 65.8C534.594 65.48 535.301 65.32 536.047 65.32ZM538.727 61.84C538.727 62.7733 538.474 63.52 537.967 64.08C537.461 64.64 536.687 64.92 535.647 64.92C534.767 64.92 534.034 64.7733 533.447 64.48C532.887 64.16 532.301 63.6533 531.687 62.96L532.367 61.96C532.714 62.1467 533.007 62.1733 533.247 62.04C533.407 61.96 533.501 61.8667 533.527 61.76C533.581 61.6267 533.607 61.4267 533.607 61.16V43.16C533.607 42.7867 533.421 42.4133 533.047 42.04L534.327 40.96C535.207 41.0667 535.927 41.2133 536.487 41.4C537.047 41.56 537.501 41.7333 537.847 41.92C538.167 42.1067 538.394 42.2933 538.527 42.48C538.661 42.64 538.727 42.7733 538.727 42.88V61.84ZM531.287 60.56C531.287 61.4933 531.034 62.2267 530.527 62.76C530.047 63.2933 529.274 63.56 528.207 63.56C527.434 63.56 526.754 63.4133 526.167 63.12C525.607 62.8267 525.074 62.3467 524.567 61.68L525.247 60.84C525.434 60.9467 525.581 61 525.687 61C525.794 60.9733 525.901 60.9333 526.007 60.88C526.114 60.8267 526.167 60.72 526.167 60.56C526.194 60.4 526.207 60.1733 526.207 59.88V54.6C525.941 54.6267 525.727 54.6667 525.567 54.72C525.434 54.7467 525.287 54.7867 525.127 54.84C524.967 54.8933 524.807 54.9467 524.647 55C524.514 55.0533 524.381 55.08 524.247 55.08C523.474 55.08 522.807 54.7733 522.247 54.16C521.687 53.5467 521.221 52.8667 520.847 52.12L521.967 51.12C522.394 51.2533 522.821 51.3733 523.247 51.48C523.701 51.5867 524.127 51.64 524.527 51.64H526.207V44.88C526.207 44.6933 526.154 44.5067 526.047 44.32C525.941 44.1067 525.821 43.9333 525.687 43.8L526.807 42.52C527.714 42.6267 528.447 42.7733 529.007 42.96C529.594 43.12 530.061 43.2933 530.407 43.48C530.727 43.6667 530.954 43.8533 531.087 44.04C531.221 44.2 531.287 44.3333 531.287 44.44V60.56ZM558.045 62.88C557.405 62.88 556.765 63.0133 556.125 63.28C555.485 63.52 554.818 63.64 554.125 63.64C553.725 63.64 553.311 63.5333 552.885 63.32C552.458 63.1067 552.071 62.8533 551.725 62.56C551.351 62.2667 551.045 61.9733 550.805 61.68C550.565 61.36 550.445 61.12 550.445 60.96C550.445 60.64 550.511 60.3067 550.645 59.96C550.778 59.5867 550.858 59.2 550.885 58.8V48.32C550.885 48.0267 550.858 47.8267 550.805 47.72C550.751 47.6133 550.591 47.56 550.325 47.56C550.191 47.56 550.031 47.5067 549.845 47.4C549.658 47.2933 549.565 47.12 549.565 46.88C549.565 46.4267 549.751 46.12 550.125 45.96C550.525 45.7733 550.911 45.6533 551.285 45.6C551.738 45.5467 552.178 45.5333 552.605 45.56C553.031 45.5867 553.538 45.64 554.125 45.72C554.498 45.7733 554.845 45.8267 555.165 45.88C555.511 45.9333 555.818 45.9867 556.085 46.04C556.378 46.12 556.658 46.1867 556.925 46.24H566.285C566.631 46.24 567.018 46.24 567.445 46.24C567.871 46.24 568.285 46.1867 568.685 46.08C569.058 46 569.405 45.8533 569.725 45.64C570.045 45.4 570.285 45.0667 570.445 44.64L572.085 44.36C572.458 44.6 572.885 44.8933 573.365 45.24C573.871 45.5867 574.245 46.0667 574.485 46.68C574.618 46.9733 574.671 47.36 574.645 47.84C574.645 48.2933 574.551 48.6267 574.365 48.84C574.151 48.9733 573.898 49.04 573.605 49.04C573.338 49.04 573.098 49.0133 572.885 48.96C572.485 48.88 572.005 48.84 571.445 48.84H556.925V53.08L565.765 53.12C566.191 53.12 566.631 53.12 567.085 53.12C567.565 53.12 568.018 53.0933 568.445 53.04C568.871 52.9867 569.258 52.88 569.605 52.72C569.951 52.5333 570.218 52.2533 570.405 51.88L571.805 51.4C572.205 51.64 572.578 51.9067 572.925 52.2C573.298 52.4667 573.605 52.9067 573.845 53.52C573.978 53.8133 574.045 54.2 574.045 54.68C574.045 55.16 573.938 55.4933 573.725 55.68C573.511 55.84 573.285 55.92 573.045 55.92C572.831 55.8933 572.565 55.8533 572.245 55.8C571.951 55.7467 571.685 55.72 571.445 55.72C571.231 55.6933 571.018 55.68 570.805 55.68H556.925V59.04C556.925 59.3867 557.005 59.68 557.165 59.92C557.325 60.16 557.685 60.2933 558.245 60.32H569.485C570.098 60.32 570.591 60.28 570.965 60.2C571.338 60.12 571.631 59.9333 571.845 59.64C571.951 59.5067 571.991 59.3733 571.965 59.24C571.965 59.08 571.951 58.92 571.925 58.76L572.365 57.92C572.925 57.92 573.431 57.9733 573.885 58.08C574.365 58.16 574.765 58.32 575.085 58.56C575.938 59.1733 576.365 60.0533 576.365 61.2C576.365 61.3067 576.338 61.4533 576.285 61.64C576.258 61.8267 576.151 62.0133 575.965 62.2C575.751 62.3867 575.445 62.5467 575.045 62.68C574.645 62.8133 574.085 62.88 573.365 62.88H558.045ZM576.725 72.64C576.378 72.6133 575.965 72.6 575.485 72.6C575.005 72.6 574.485 72.6 573.925 72.6H553.925C552.591 72.6 551.591 72.6933 550.925 72.88C550.285 73.04 549.791 73.2 549.445 73.36H549.485L549.245 73.44C549.058 73.52 548.818 73.6267 548.525 73.76C548.258 73.8667 547.978 73.92 547.685 73.92C547.471 73.92 547.111 73.84 546.605 73.68C546.125 73.4933 545.658 73.1333 545.205 72.6C544.671 71.9867 544.271 71.3867 544.005 70.8C543.738 70.1867 543.538 69.6533 543.405 69.2L545.565 68.24L545.925 68.56L545.765 68.52C545.818 68.5467 545.858 68.5733 545.885 68.6C545.938 68.6 545.991 68.6267 546.045 68.68C546.338 68.8133 546.711 68.9867 547.165 69.2C547.645 69.4133 548.018 69.5467 548.285 69.6C548.685 69.7067 549.111 69.7733 549.565 69.8C550.045 69.8267 550.418 69.84 550.685 69.84H572.725C573.925 69.84 574.765 69.64 575.245 69.24C575.751 68.84 576.058 68.4667 576.165 68.12L577.965 67.68C578.231 67.84 578.511 68 578.805 68.16C579.311 68.4533 579.818 68.8533 580.325 69.36V69.32C580.778 69.7733 581.085 70.1733 581.245 70.52C581.405 70.84 581.511 71.0933 581.565 71.28C581.671 71.5733 581.698 71.8667 581.645 72.16C581.618 72.4267 581.458 72.6667 581.165 72.88H581.205C580.911 73.1467 580.538 73.2667 580.085 73.24C579.631 73.1867 579.245 73.1067 578.925 73H578.965C578.511 72.8933 578.111 72.8133 577.765 72.76C577.445 72.7067 577.098 72.6667 576.725 72.64ZM590.639 44.2C591.412 44.2 592.012 44.44 592.439 44.92C592.866 45.3733 593.132 45.8667 593.239 46.4C593.292 46.6933 593.319 47.0133 593.319 47.36C593.319 47.7067 593.292 48.0667 593.239 48.44C592.839 49.9067 592.199 50.9733 591.319 51.64C590.466 52.28 589.799 52.76 589.319 53.08C589.106 53.16 588.932 53.1867 588.799 53.16C588.692 53.1067 588.612 52.9867 588.559 52.8C588.559 52.64 588.586 52.4933 588.639 52.36C588.719 52.2 588.812 52.08 588.919 52C589.346 51.84 589.759 51.5733 590.159 51.2C590.559 50.8267 590.919 50.1467 591.239 49.16C591.186 49.16 591.066 49.1733 590.879 49.2C590.719 49.2 590.519 49.2 590.279 49.2C589.692 49.2 589.212 48.96 588.839 48.48C588.466 48 588.279 47.3467 588.279 46.52C588.386 45.08 589.172 44.3067 590.639 44.2ZM584.679 44.2C585.399 44.2 585.972 44.44 586.399 44.92C586.826 45.3733 587.092 45.8667 587.199 46.4C587.252 46.6933 587.279 47.0133 587.279 47.36C587.279 47.7067 587.252 48.0667 587.199 48.44C586.852 49.9067 586.226 50.9733 585.319 51.64C584.439 52.28 583.786 52.76 583.359 53.08C583.146 53.16 582.972 53.1867 582.839 53.16C582.706 53.1067 582.612 52.9867 582.559 52.8C582.532 52.64 582.559 52.4933 582.639 52.36C582.746 52.2 582.852 52.08 582.959 52C583.359 51.84 583.759 51.5733 584.159 51.2C584.586 50.8267 584.932 50.1467 585.199 49.16C585.172 49.16 585.079 49.1733 584.919 49.2C584.759 49.2 584.546 49.2 584.279 49.2C583.692 49.2 583.199 48.96 582.799 48.48C582.426 48 582.239 47.3467 582.239 46.52C582.346 45.08 583.159 44.3067 584.679 44.2Z" fill="#72BF6B"/>
<path d="M76.0038 149.746L75.1578 151.204C73.3038 150.664 71.9538 149.548 71.2518 148.108C70.5138 149.674 69.1458 150.898 67.2378 151.492L66.3558 150.034C68.8578 149.296 70.2798 147.46 70.2798 145.48V145.39H66.8598V143.914H70.2798V142.078H72.1518V143.914H75.5538V145.39H72.1338V145.48C72.1338 147.316 73.5378 149.062 76.0038 149.746ZM70.5498 153.904V156.712H77.2818V153.904H70.5498ZM68.7138 158.188V152.428H79.0998V158.188H68.7138ZM81.4038 146.11V147.64H79.0998V151.708H77.2458V142.132H79.0998V146.11H81.4038ZM90.9604 150.718H94.2364V147.154H90.9064C91.0324 147.748 91.1044 148.36 91.1044 149.044C91.1044 149.656 91.0504 150.196 90.9604 150.718ZM86.9824 153.13C88.3864 153.13 89.3404 151.6 89.3404 149.044C89.3404 146.524 88.3864 144.994 86.9824 144.994C85.5964 144.994 84.6244 146.524 84.6244 149.044C84.6244 151.6 85.5964 153.13 86.9824 153.13ZM94.2364 142.114H96.1084V158.422H94.2364V152.248H90.4924C89.8084 153.85 88.5304 154.786 86.9824 154.786C84.5884 154.786 82.8784 152.572 82.8784 149.044C82.8784 145.552 84.5884 143.32 86.9824 143.32C88.4584 143.32 89.6644 144.166 90.4024 145.624H94.2364V142.114ZM104.495 145.282V146.848C104.495 149.368 106.097 152.248 108.563 153.418L107.537 154.876C105.719 154.012 104.333 152.212 103.595 150.16C102.875 152.428 101.435 154.372 99.563 155.29L98.501 153.814C100.985 152.626 102.641 149.548 102.641 146.848V145.282H99.095V143.752H107.933V145.282H104.495ZM113.927 148.54V150.07H111.389V158.386H109.535V142.132H111.389V148.54H113.927ZM127.984 146.092V147.586H116.896V142.564H127.822V144.058H118.732V146.092H127.984ZM118.606 155.416V156.784H128.326V158.224H116.77V154.066H126.04V152.806H116.734V151.384H127.858V155.416H118.606ZM115.024 148.702H129.73V150.196H115.024V148.702ZM142.706 142.114H144.578V158.422H142.706V142.114ZM135.92 143.32C138.35 143.32 140.114 145.552 140.114 149.044C140.114 152.572 138.35 154.786 135.92 154.786C133.508 154.786 131.744 152.572 131.744 149.044C131.744 145.552 133.508 143.32 135.92 143.32ZM135.92 144.994C134.516 144.994 133.526 146.524 133.526 149.044C133.526 151.6 134.516 153.13 135.92 153.13C137.342 153.13 138.332 151.6 138.332 149.044C138.332 146.524 137.342 144.994 135.92 144.994ZM164.478 142.114V150.376H162.624V142.114H164.478ZM153.192 146.326C153.192 147.622 154.236 148.468 155.64 148.468C157.062 148.468 158.124 147.622 158.124 146.326C158.124 145.03 157.062 144.184 155.64 144.184C154.236 144.184 153.192 145.03 153.192 146.326ZM159.924 146.326C159.924 148.468 158.106 149.98 155.64 149.98C153.192 149.98 151.392 148.468 151.392 146.326C151.392 144.184 153.192 142.654 155.64 142.654C158.106 142.654 159.924 144.184 159.924 146.326ZM155.676 156.73H164.964V158.188H153.858V153.922H162.642V152.572H153.822V151.114H164.478V155.29H155.676V156.73ZM176.734 149.566L175.762 151.024C174.016 150.394 172.72 149.152 172.036 147.622C171.316 149.386 169.984 150.79 168.112 151.474L167.122 149.998C169.678 149.116 171.064 146.902 171.064 144.562V142.96H172.936V144.706C172.936 146.794 174.322 148.774 176.734 149.566ZM174.736 156.928C177.004 156.928 178.318 156.37 178.318 155.326C178.318 154.318 177.004 153.742 174.736 153.742C172.468 153.742 171.154 154.318 171.154 155.326C171.154 156.37 172.468 156.928 174.736 156.928ZM174.736 152.284C178.102 152.284 180.154 153.418 180.154 155.326C180.154 157.252 178.102 158.386 174.736 158.386C171.388 158.386 169.318 157.252 169.318 155.326C169.318 153.418 171.388 152.284 174.736 152.284ZM179.974 146.146H182.278V147.676H179.974V151.888H178.12V142.114H179.974V146.146ZM201.008 147.298L200.306 148.738C197.696 148.324 195.518 147.118 194.474 145.372C193.448 147.1 191.288 148.342 188.66 148.738L187.976 147.298C191.18 146.866 193.538 145.03 193.538 143.014V142.402H195.446V143.014C195.446 145.066 197.75 146.866 201.008 147.298ZM188.786 154.552V153.058H200.054V158.404H198.2V154.552H188.786ZM195.41 150.16H201.89V151.654H187.148V150.16H193.556V147.856H195.41V150.16ZM218.045 147.244V144.328H210.719V147.244H218.045ZM219.863 142.852V148.72H208.901V142.852H219.863ZM210.683 153.382V156.568H220.133V158.08H208.829V153.382H210.683ZM207.029 150.322H221.771V151.816H215.471V154.858H213.617V151.816H207.029V150.322ZM228.178 145.426V146.596C228.178 149.368 229.222 152.176 231.49 153.49L230.41 154.84C228.88 153.94 227.872 152.338 227.296 150.448C226.72 152.5 225.676 154.246 224.11 155.236L222.994 153.868C225.298 152.428 226.378 149.494 226.378 146.596V145.426H223.516V143.896H230.86V145.426H228.178ZM232.066 147.838V142.438H233.812V157.594H232.066V149.35H229.672V147.838H232.066ZM235.342 142.114H237.106V158.368H235.342V142.114ZM250.479 144.904V143.806H241.281V142.528H252.315V146.11H243.135V147.262H252.603V148.558H241.317V144.904H250.479ZM243.009 155.686V156.928H252.855V158.206H241.173V154.48H250.533V153.328H241.137V152.05H252.369V155.686H243.009ZM239.427 149.584H254.169V150.952H239.427V149.584ZM273.42 150.07L272.61 151.6C269.964 151.06 267.678 149.368 266.616 147.136C265.554 149.368 263.268 151.06 260.622 151.6L259.83 150.07C263.034 149.476 265.644 146.974 265.644 144.4V143.176H267.606V144.4C267.606 146.992 270.216 149.494 273.42 150.07ZM259.326 154.768H274.05V156.298H259.326V154.768ZM289.619 150.07L288.809 151.6C286.163 151.06 283.877 149.368 282.815 147.136C281.753 149.368 279.467 151.06 276.821 151.6L276.029 150.07C279.233 149.476 281.843 146.974 281.843 144.4V143.176H283.805V144.4C283.805 146.992 286.415 149.494 289.619 150.07ZM275.525 154.768H290.249V156.298H275.525V154.768ZM299.985 154.948H306.447V156.478H291.723V154.948H298.131V152.176H293.505V146.938H302.865V144.76H293.469V143.266H304.701V148.414H295.323V150.682H305.061V152.176H299.985V154.948ZM317.995 148.45V146.38H314.017V148.45H317.995ZM319.831 142.816V149.926H312.163V142.816H314.017V144.958H317.995V142.816H319.831ZM315.655 155.344V156.784H324.835V158.242H313.837V153.976H322.459V152.626H313.801V151.186H324.295V155.344H315.655ZM324.295 145.462H326.581V146.992H324.295V150.466H322.441V142.132H324.295V145.462ZM339.414 146.884H335.652C334.518 149.404 332.106 151.294 328.83 152.356L328.038 150.862C331.638 149.728 334.032 147.568 334.374 144.886H328.884V143.392H336.372C336.372 144.094 336.3 144.742 336.156 145.372H339.414V142.132H341.268V154.192H339.414V150.538H335.418V149.026H339.414V146.884ZM332.7 156.568H341.682V158.08H330.846V153.004H332.7V156.568ZM348.736 153.364C350.05 153.364 351.004 152.464 351.004 151.096C351.004 149.728 350.05 148.828 348.736 148.828C347.422 148.828 346.468 149.728 346.468 151.096C346.468 152.464 347.422 153.364 348.736 153.364ZM348.736 147.298C351.058 147.298 352.768 148.882 352.768 151.096C352.768 153.328 351.058 154.894 348.736 154.894C346.396 154.894 344.704 153.328 344.704 151.096C344.704 148.882 346.396 147.298 348.736 147.298ZM349.636 142.384V144.634H353.434V146.146H343.912V144.634H347.782V142.384H349.636ZM359.122 148.666V150.214H356.62V158.404H354.748V142.132H356.62V148.666H359.122ZM371.433 145.246V145.156H361.731V143.644H373.305V145.246C373.305 147.262 373.305 149.512 372.675 152.878L370.803 152.68C371.433 149.494 371.433 147.19 371.433 145.246ZM367.545 154.732H374.889V156.262H360.201V154.732H365.673V149.008H367.545V154.732ZM389.676 149.89L388.83 151.33C386.994 150.808 385.644 149.692 384.924 148.288C384.204 149.89 382.854 151.132 380.928 151.744L380.046 150.286C382.548 149.548 383.952 147.64 383.952 145.606V145.444H380.532V143.968H383.952V142.06H385.824V143.968H389.226V145.444H385.806V145.606C385.806 147.46 387.21 149.188 389.676 149.89ZM387.534 156.946C389.802 156.946 391.116 156.388 391.116 155.38C391.116 154.372 389.802 153.814 387.534 153.814C385.266 153.814 383.952 154.372 383.952 155.38C383.952 156.388 385.266 156.946 387.534 156.946ZM387.534 152.374C390.9 152.374 392.952 153.49 392.952 155.38C392.952 157.27 390.9 158.386 387.534 158.386C384.168 158.386 382.116 157.27 382.116 155.38C382.116 153.49 384.168 152.374 387.534 152.374ZM392.772 146.164H395.076V147.694H392.772V152.014H390.918V142.114H392.772V146.164ZM401.519 143.266C404.057 143.266 405.947 144.868 405.947 147.172C405.947 149.476 404.057 151.078 401.519 151.078C398.981 151.078 397.109 149.476 397.109 147.172C397.109 144.868 398.981 143.266 401.519 143.266ZM401.519 144.85C400.025 144.85 398.927 145.75 398.927 147.172C398.927 148.576 400.025 149.494 401.519 149.494C403.031 149.494 404.129 148.576 404.129 147.172C404.129 145.75 403.031 144.85 401.519 144.85ZM407.783 142.114H409.655V158.404H407.783V142.114ZM396.587 154.966L396.353 153.436C399.269 153.436 403.319 153.418 406.811 152.896L406.937 154.246C403.355 154.93 399.467 154.966 396.587 154.966ZM422.146 149.836L421.228 151.276C419.428 150.646 418.132 149.368 417.43 147.802C416.71 149.548 415.342 150.952 413.416 151.618L412.462 150.16C414.982 149.296 416.458 147.154 416.458 144.958V144.634H413.02V143.14H421.714V144.634H418.33V144.94C418.33 146.956 419.716 148.99 422.146 149.836ZM414.982 154.138V152.644H425.944V158.386H424.09V154.138H414.982ZM424.09 142.114H425.944V151.834H424.09V147.73H421.246V146.2H424.09V142.114ZM436.022 143.05C439.406 143.05 441.998 144.886 441.998 147.64C441.998 150.412 439.406 152.23 436.022 152.23C432.62 152.23 430.046 150.412 430.046 147.64C430.046 144.886 432.62 143.05 436.022 143.05ZM436.022 144.58C433.61 144.58 431.846 145.768 431.846 147.64C431.846 149.512 433.61 150.7 436.022 150.7C438.416 150.7 440.198 149.512 440.198 147.64C440.198 145.768 438.416 144.58 436.022 144.58ZM428.678 154.804H443.402V156.334H428.678V154.804ZM453.139 154.948H459.601V156.478H444.877V154.948H451.285V152.176H446.659V146.938H456.019V144.76H446.623V143.266H457.855V148.414H448.477V150.682H458.215V152.176H453.139V154.948ZM468.718 153.202C469.816 153.202 470.59 152.32 470.59 150.97C470.59 149.62 469.816 148.72 468.718 148.72C467.62 148.72 466.846 149.62 466.846 150.97C466.846 152.32 467.62 153.202 468.718 153.202ZM468.718 147.19C470.77 147.19 472.246 148.72 472.246 150.97C472.246 153.202 470.77 154.75 468.718 154.75C466.666 154.75 465.19 153.202 465.19 150.97C465.19 148.72 466.666 147.19 468.718 147.19ZM469.636 142.6V144.778H472.678V146.272H464.722V144.778H467.8V142.6H469.636ZM476.836 142.132H478.6V158.386H476.836V150.394H475.108V157.63H473.38V142.474H475.108V148.864H476.836V142.132ZM492.567 145.786H488.805C487.797 148.27 485.403 149.926 481.821 150.736L481.173 149.224C485.025 148.396 487.023 146.614 487.275 144.346H482.055V142.852H489.327C489.327 143.374 489.291 143.878 489.201 144.346H492.567V142.132H494.421V150.376H492.567V148.9H488.589V147.46H492.567V145.786ZM485.727 156.748H494.871V158.242H483.873V153.868H492.567V152.518H483.837V151.042H494.421V155.254H485.727V156.748ZM501.115 153.202C502.213 153.202 502.987 152.32 502.987 150.97C502.987 149.62 502.213 148.72 501.115 148.72C500.017 148.72 499.243 149.62 499.243 150.97C499.243 152.32 500.017 153.202 501.115 153.202ZM501.115 147.19C503.167 147.19 504.643 148.72 504.643 150.97C504.643 153.202 503.167 154.75 501.115 154.75C499.063 154.75 497.587 153.202 497.587 150.97C497.587 148.72 499.063 147.19 501.115 147.19ZM502.033 142.6V144.778H505.075V146.272H497.119V144.778H500.197V142.6H502.033ZM509.233 142.132H510.997V158.386H509.233V150.394H507.505V157.63H505.777V142.474H507.505V148.864H509.233V142.132ZM519.449 143.716V152.788C521.645 152.77 523.985 152.59 526.451 152.086L526.667 153.616C523.913 154.156 521.393 154.336 518.945 154.336H517.595V143.716H519.449ZM532.085 148.468V149.998H529.619V158.386H527.765V142.132H529.619V148.468H532.085ZM534.028 143.842H541.57C541.57 148.558 539.554 152.734 534.244 155.416L533.218 153.994C537.196 151.96 539.338 149.098 539.716 145.354H534.028V143.842ZM548.284 148.54V150.088H545.818V158.368H543.964V142.114H545.818V148.54H548.284ZM562.484 146.794V148.306H551.324V142.708H553.178V146.794H562.484ZM553.07 153.238V156.532H562.574V158.026H551.216V153.238H553.07ZM549.416 150.25H564.176V151.744H549.416V150.25ZM577.83 151.276L576.012 151.114C576.426 148.594 576.462 146.704 576.462 145.336H570.018V143.842H578.28V144.922C578.28 146.344 578.28 148.396 577.83 151.276ZM574.194 148.504V153.364C575.886 153.292 577.596 153.184 579.18 152.986L579.27 154.336C575.922 154.894 572.196 154.966 569.352 154.966L569.154 153.436C570.144 153.436 571.242 153.418 572.376 153.4V148.504H574.194ZM584.31 148.81V150.376H581.916V158.386H580.044V142.132H581.916V148.81H584.31ZM594.244 146.218H597.124V142.132H598.978V151.816H597.124V147.73H594.244V146.218ZM595.18 149.836L594.262 151.294C592.462 150.664 591.166 149.386 590.482 147.82C589.762 149.602 588.394 151.042 586.468 151.726L585.514 150.25C588.034 149.35 589.492 147.19 589.492 144.958V144.724H586.054V143.23H594.748V144.724H591.364V144.94C591.364 146.974 592.75 148.99 595.18 149.836ZM593.578 156.964C595.864 156.964 597.196 156.388 597.196 155.326C597.196 154.264 595.864 153.688 593.578 153.688C591.256 153.688 589.942 154.264 589.942 155.326C589.942 156.388 591.256 156.964 593.578 156.964ZM593.578 152.248C596.962 152.248 599.05 153.4 599.05 155.326C599.05 157.27 596.962 158.404 593.578 158.404C590.176 158.404 588.088 157.27 588.088 155.326C588.088 153.4 590.176 152.248 593.578 152.248ZM609.057 143.77C606.537 143.77 605.187 144.256 605.187 145.192C605.187 146.11 606.537 146.596 609.057 146.596C611.577 146.596 612.927 146.11 612.927 145.192C612.927 144.256 611.577 143.77 609.057 143.77ZM609.057 147.982C605.403 147.982 603.261 146.992 603.261 145.192C603.261 143.374 605.403 142.384 609.057 142.384C612.693 142.384 614.853 143.374 614.853 145.192C614.853 146.992 612.693 147.982 609.057 147.982ZM605.313 155.47V156.82H615.033V158.242H603.477V154.156H612.747V152.986H603.441V151.582H614.565V155.47H605.313ZM601.695 148.936H616.419V150.412H601.695V148.936ZM630.901 148.504L631.081 149.998C628.975 150.448 627.067 150.538 623.575 150.538H622.261V143.176H629.461V144.67H624.115V149.026C627.193 149.008 628.939 148.918 630.901 148.504ZM625.735 153.562V156.694H632.467V153.562H625.735ZM623.899 158.188V152.104H634.285V158.188H623.899ZM636.589 145.966V147.496H634.285V151.294H632.431V142.114H634.285V145.966H636.589ZM645.137 144.13C642.743 144.13 641.249 144.796 641.249 145.93C641.249 147.082 642.743 147.748 645.137 147.748C647.513 147.748 649.007 147.082 649.007 145.93C649.007 144.796 647.513 144.13 645.137 144.13ZM645.137 149.242C641.627 149.242 639.341 148 639.341 145.93C639.341 143.878 641.627 142.636 645.137 142.636C648.647 142.636 650.933 143.878 650.933 145.93C650.933 148 648.647 149.242 645.137 149.242ZM641.501 153.346V156.568H650.843V158.08H639.629V153.346H641.501ZM637.775 150.556H652.481V152.068H637.775V150.556ZM666.873 150.466V145.156H663.129V150.466H666.873ZM661.275 150.466V145.156H658.881V143.662H671.103V145.156H668.709V150.466H671.067V151.978H658.935V150.466H661.275ZM657.657 154.858H672.417V156.388H657.657V154.858ZM682.135 154.948H688.597V156.478H673.873V154.948H680.281V152.176H675.655V146.938H685.015V144.76H675.619V143.266H686.851V148.414H677.473V150.682H687.211V152.176H682.135V154.948ZM696.786 146.236H698.928V142.474H700.656V151.942H698.928V147.766H696.786V146.236ZM698.064 150.016L697.128 151.438C695.688 150.862 694.698 149.782 694.14 148.486C693.564 149.926 692.52 151.132 690.972 151.78L690 150.358C692.142 149.458 693.204 147.478 693.204 145.588V144.886H690.414V143.392H697.614V144.886H695.022V145.588C695.022 147.37 696.03 149.188 698.064 150.016ZM692.808 154.21V152.716H703.824V158.386H701.97V154.21H692.808ZM702.06 142.132H703.824V152.05H702.06V142.132ZM719.356 150.718V152.212H708.088V143.446H719.23V144.94H709.978V147.028H718.87V148.486H709.978V150.718H719.356ZM706.27 154.876H721.012V156.388H706.27V154.876ZM734.007 142.132H735.861V150.862H734.007V142.132ZM725.241 151.618H727.077V153.418H734.025V151.618H735.861V158.188H725.241V151.618ZM727.077 154.858V156.694H734.025V154.858H727.077ZM727.095 142.87C729.579 142.87 731.397 144.418 731.397 146.65C731.397 148.882 729.579 150.43 727.095 150.43C724.611 150.43 722.775 148.882 722.775 146.65C722.775 144.418 724.611 142.87 727.095 142.87ZM727.095 144.4C725.619 144.4 724.593 145.3 724.593 146.65C724.593 148.018 725.619 148.9 727.095 148.9C728.553 148.9 729.597 148.018 729.597 146.65C729.597 145.3 728.553 144.4 727.095 144.4ZM741.458 143.716V152.698C743.762 152.68 746.192 152.482 748.748 151.96L748.946 153.508C746.156 154.084 743.528 154.282 741.008 154.282H739.622V143.716H741.458ZM750.242 142.132H752.096V158.386H750.242V142.132ZM757.368 145.174V152.86C759.996 152.842 761.976 152.734 764.244 152.338L764.442 153.868C761.976 154.318 759.78 154.408 756.846 154.408H755.514V143.662H763.074V145.174H757.368ZM769.986 148.378V149.908H767.448V158.404H765.594V142.114H767.448V148.378H769.986ZM772.829 157.234C772.055 157.234 771.443 156.64 771.443 155.794C771.443 154.93 772.055 154.318 772.829 154.318C773.603 154.318 774.215 154.93 774.215 155.794C774.215 156.64 773.603 157.234 772.829 157.234Z" fill="white"/>
<line y1="109.5" x2="840" y2="109.5" stroke="url(#paint0_linear_721_257)"/>
<line x1="212.5" y1="2.18557e-08" x2="212.5" y2="220" stroke="url(#paint1_linear_721_257)"/>
<line x1="628.5" y1="2.18557e-08" x2="628.5" y2="220" stroke="url(#paint2_linear_721_257)"/>
<rect x="208.5" y="106.5" width="7" height="7" fill="#72BF6B" stroke="url(#paint3_linear_721_257)"/>
<rect x="624.5" y="106.5" width="7" height="7" fill="#72BF6B" stroke="url(#paint4_linear_721_257)"/>
<defs>
<linearGradient id="paint0_linear_721_257" x1="0" y1="110.5" x2="840" y2="110.5" gradientUnits="userSpaceOnUse">
<stop stop-color="#72BF6B" stop-opacity="0"/>
<stop offset="0.0970248" stop-color="#72BF6B" stop-opacity="0.5"/>
<stop offset="0.601478" stop-color="#72BF6B" stop-opacity="0.3"/>
<stop offset="1" stop-color="#72BF6B" stop-opacity="0"/>
</linearGradient>
<linearGradient id="paint1_linear_721_257" x1="211.5" y1="-2.18557e-08" x2="211.5" y2="220" gradientUnits="userSpaceOnUse">
<stop stop-color="#72BF6B" stop-opacity="0"/>
<stop offset="0.2" stop-color="#72BF6B" stop-opacity="0.5"/>
<stop offset="0.8" stop-color="#72BF6B" stop-opacity="0.3"/>
<stop offset="1" stop-color="#72BF6B" stop-opacity="0"/>
</linearGradient>
<linearGradient id="paint2_linear_721_257" x1="627.5" y1="-2.18557e-08" x2="627.5" y2="220" gradientUnits="userSpaceOnUse">
<stop stop-color="#72BF6B" stop-opacity="0"/>
<stop offset="0.2" stop-color="#72BF6B" stop-opacity="0.5"/>
<stop offset="0.8" stop-color="#72BF6B" stop-opacity="0.3"/>
<stop offset="1" stop-color="#72BF6B" stop-opacity="0"/>
</linearGradient>
<linearGradient id="paint3_linear_721_257" x1="208" y1="110" x2="216" y2="110" gradientUnits="userSpaceOnUse">
<stop stop-color="#72BF6B" stop-opacity="0"/>
<stop offset="0.2" stop-color="#72BF6B"/>
<stop offset="0.8" stop-color="#72BF6B"/>
<stop offset="1" stop-color="#72BF6B" stop-opacity="0"/>
</linearGradient>
<linearGradient id="paint4_linear_721_257" x1="624" y1="110" x2="632" y2="110" gradientUnits="userSpaceOnUse">
<stop stop-color="#72BF6B" stop-opacity="0"/>
<stop offset="0.2" stop-color="#72BF6B"/>
<stop offset="0.8" stop-color="#72BF6B"/>
<stop offset="1" stop-color="#72BF6B" stop-opacity="0"/>
</linearGradient>
</defs>
</svg>
