<svg width="280" height="88" viewBox="0 0 280 88" fill="none" xmlns="http://www.w3.org/2000/svg">
<rect width="280" height="88" rx="16" fill="#72BF6B"/>
<path d="M95.4753 60.036H104.421V61.212H95.4753V60.036ZM94.1033 64.404H105.695V65.608H94.1033V64.404ZM99.1573 60.75H100.613V64.754H99.1573V60.75ZM95.4753 55.388H96.9453V60.54H95.4753V55.388ZM113.324 56.144H116.054V57.334H113.324V56.144ZM113.324 58.706H116.054V59.882H113.324V58.706ZM109.642 55.08H110.832V56.648C110.832 57.4973 110.697 58.3 110.426 59.056C110.156 59.8027 109.759 60.456 109.236 61.016C108.714 61.576 108.074 62.0007 107.318 62.29L106.534 61.142C107.048 60.9553 107.496 60.708 107.878 60.4C108.261 60.092 108.583 59.742 108.844 59.35C109.106 58.9487 109.302 58.5193 109.432 58.062C109.572 57.6047 109.642 57.1333 109.642 56.648V55.08ZM109.936 55.08H111.112V56.648C111.112 57.096 111.178 57.5393 111.308 57.978C111.439 58.4167 111.63 58.8273 111.882 59.21C112.144 59.5927 112.456 59.938 112.82 60.246C113.194 60.5447 113.623 60.7827 114.108 60.96L113.296 62.108C112.587 61.8187 111.98 61.4033 111.476 60.862C110.972 60.3113 110.59 59.6767 110.328 58.958C110.067 58.23 109.936 57.46 109.936 56.648V55.08ZM115.69 54.366H117.16V63.872H115.69V54.366ZM108.83 65.706H117.454V66.896H108.83V65.706ZM108.83 62.962H110.3V66.42H108.83V62.962ZM130.818 54.366H132.288V62.192H130.818V54.366ZM122.404 60.33H123.468C124.27 60.33 125.003 60.3207 125.666 60.302C126.338 60.2833 126.982 60.246 127.598 60.19C128.214 60.134 128.848 60.0547 129.502 59.952L129.67 61.128C128.998 61.24 128.344 61.3287 127.71 61.394C127.075 61.45 126.412 61.4873 125.722 61.506C125.04 61.5153 124.289 61.52 123.468 61.52H122.404V60.33ZM122.376 55.15H128.228V58.832H123.846V61.002H122.404V57.726H126.786V56.326H122.376V55.15ZM128.046 62.444C129.39 62.444 130.444 62.6493 131.21 63.06C131.984 63.4613 132.372 64.0353 132.372 64.782C132.372 65.5287 131.984 66.1073 131.21 66.518C130.444 66.938 129.39 67.148 128.046 67.148C126.702 67.148 125.642 66.938 124.868 66.518C124.102 66.1073 123.72 65.5287 123.72 64.782C123.72 64.0353 124.102 63.4613 124.868 63.06C125.642 62.6493 126.702 62.444 128.046 62.444ZM128.046 63.592C127.439 63.592 126.916 63.6387 126.478 63.732C126.048 63.8253 125.722 63.9607 125.498 64.138C125.274 64.306 125.162 64.5207 125.162 64.782C125.162 65.0527 125.274 65.2767 125.498 65.454C125.722 65.6313 126.048 65.7667 126.478 65.86C126.916 65.9533 127.439 66 128.046 66C128.652 66 129.17 65.9533 129.6 65.86C130.029 65.7667 130.356 65.6313 130.58 65.454C130.804 65.2767 130.916 65.0527 130.916 64.782C130.916 64.5207 130.804 64.306 130.58 64.138C130.356 63.9607 130.029 63.8253 129.6 63.732C129.17 63.6387 128.652 63.592 128.046 63.592ZM135.549 55.584H143.641V56.774H135.549V55.584ZM134.205 64.292H145.769V65.496H134.205V64.292ZM143.025 55.584H144.467V57.11C144.467 57.7353 144.457 58.3607 144.439 58.986C144.42 59.6113 144.373 60.2833 144.299 61.002C144.224 61.7207 144.089 62.528 143.893 63.424L142.437 63.298C142.633 62.458 142.768 61.688 142.843 60.988C142.927 60.2787 142.978 59.6067 142.997 58.972C143.015 58.3373 143.025 57.7167 143.025 57.11V55.584ZM143.347 59.098V60.19L135.395 60.61L135.199 59.406L143.347 59.098ZM146.663 64.446H158.255V65.65H146.663V64.446ZM151.703 61.842H153.173V64.936H151.703V61.842ZM148.035 55.248H156.883V59.308H149.505V61.674H148.063V58.146H155.427V56.438H148.035V55.248ZM148.063 61.086H157.177V62.262H148.063V61.086ZM170.905 54.352H172.375V67.176H170.905V54.352ZM165.571 55.29C166.206 55.29 166.77 55.4767 167.265 55.85C167.769 56.2233 168.161 56.746 168.441 57.418C168.721 58.09 168.861 58.8833 168.861 59.798C168.861 60.722 168.721 61.5247 168.441 62.206C168.161 62.878 167.769 63.4007 167.265 63.774C166.77 64.138 166.206 64.32 165.571 64.32C164.936 64.32 164.367 64.138 163.863 63.774C163.368 63.4007 162.976 62.878 162.687 62.206C162.407 61.5247 162.267 60.722 162.267 59.798C162.267 58.8833 162.407 58.09 162.687 57.418C162.976 56.746 163.368 56.2233 163.863 55.85C164.367 55.4767 164.936 55.29 165.571 55.29ZM165.571 56.62C165.198 56.62 164.866 56.746 164.577 56.998C164.297 57.25 164.078 57.614 163.919 58.09C163.76 58.566 163.681 59.1353 163.681 59.798C163.681 60.47 163.76 61.044 163.919 61.52C164.078 61.996 164.297 62.3647 164.577 62.626C164.866 62.878 165.198 63.004 165.571 63.004C165.944 63.004 166.271 62.878 166.551 62.626C166.831 62.3647 167.05 61.996 167.209 61.52C167.368 61.044 167.447 60.47 167.447 59.798C167.447 59.1353 167.368 58.566 167.209 58.09C167.05 57.614 166.831 57.25 166.551 56.998C166.271 56.746 165.944 56.62 165.571 56.62ZM174.32 60.54H185.884V61.716H174.32V60.54ZM179.36 58.538H180.816V61.002H179.36V58.538ZM175.748 58.076H184.54V59.252H175.748V58.076ZM175.748 54.926H184.47V56.088H177.204V58.804H175.748V54.926ZM180.06 62.5C181.441 62.5 182.519 62.7053 183.294 63.116C184.078 63.5173 184.47 64.0867 184.47 64.824C184.47 65.5707 184.078 66.1447 183.294 66.546C182.519 66.9473 181.441 67.148 180.06 67.148C178.697 67.148 177.624 66.9473 176.84 66.546C176.056 66.1447 175.664 65.5707 175.664 64.824C175.664 64.0867 176.056 63.5173 176.84 63.116C177.624 62.7053 178.697 62.5 180.06 62.5ZM180.06 63.634C179.444 63.634 178.916 63.6807 178.478 63.774C178.039 63.8673 177.703 64.0027 177.47 64.18C177.246 64.348 177.134 64.5627 177.134 64.824C177.134 65.0853 177.246 65.3093 177.47 65.496C177.703 65.6733 178.039 65.8087 178.478 65.902C178.916 65.986 179.444 66.028 180.06 66.028C180.694 66.028 181.226 65.986 181.656 65.902C182.094 65.8087 182.426 65.6733 182.65 65.496C182.874 65.3093 182.986 65.0853 182.986 64.824C182.986 64.5627 182.874 64.348 182.65 64.18C182.426 64.0027 182.094 63.8673 181.656 63.774C181.226 63.6807 180.694 63.634 180.06 63.634Z" fill="#365833"/>
<path d="M117.527 41V23.216H128.471V26.192H121.079V30.824H127.391V33.8H121.079V41H117.527ZM135.43 41.336C134.198 41.336 133.142 41.104 132.262 40.64C131.398 40.176 130.742 39.568 130.294 38.816C129.846 38.048 129.622 37.208 129.622 36.296C129.622 35.336 129.822 34.52 130.222 33.848C130.622 33.176 131.134 32.592 131.758 32.096C132.382 31.6 133.046 31.152 133.75 30.752C134.454 30.352 135.118 29.96 135.742 29.576C136.382 29.192 136.894 28.784 137.278 28.352C137.678 27.904 137.878 27.384 137.878 26.792C137.878 26.504 137.83 26.24 137.734 26C137.638 25.76 137.494 25.576 137.302 25.448C137.11 25.32 136.862 25.256 136.558 25.256C136.03 25.256 135.598 25.456 135.262 25.856C134.926 26.24 134.758 26.752 134.758 27.392C134.758 28.128 134.974 28.92 135.406 29.768C135.838 30.6 136.406 31.44 137.11 32.288C137.814 33.12 138.598 33.912 139.462 34.664C140.342 35.416 141.23 36.08 142.126 36.656C142.862 37.12 143.574 37.512 144.262 37.832C144.95 38.136 145.582 38.344 146.158 38.456L145.318 41.336C144.47 41.144 143.59 40.848 142.678 40.448C141.782 40.032 140.886 39.52 139.99 38.912C138.918 38.16 137.894 37.312 136.918 36.368C135.958 35.424 135.094 34.44 134.326 33.416C133.558 32.376 132.95 31.344 132.502 30.32C132.07 29.28 131.854 28.312 131.854 27.416C131.854 26.584 132.046 25.832 132.43 25.16C132.814 24.472 133.35 23.928 134.038 23.528C134.726 23.112 135.542 22.904 136.486 22.904C137.75 22.904 138.75 23.264 139.486 23.984C140.238 24.688 140.614 25.624 140.614 26.792C140.614 27.56 140.43 28.248 140.062 28.856C139.694 29.464 139.214 30.016 138.622 30.512C138.046 31.008 137.438 31.472 136.798 31.904C136.158 32.336 135.542 32.768 134.95 33.2C134.374 33.616 133.902 34.056 133.534 34.52C133.166 34.984 132.982 35.504 132.982 36.08C132.982 36.576 133.102 37.016 133.342 37.4C133.598 37.784 133.942 38.08 134.374 38.288C134.806 38.496 135.302 38.6 135.862 38.6C136.518 38.6 137.166 38.432 137.806 38.096C138.446 37.76 139.062 37.304 139.654 36.728C140.374 36.008 140.998 35.176 141.526 34.232C142.07 33.288 142.494 32.232 142.798 31.064H146.038C145.638 32.408 145.11 33.688 144.454 34.904C143.814 36.12 143.022 37.256 142.078 38.312C141.278 39.224 140.318 39.96 139.198 40.52C138.094 41.064 136.838 41.336 135.43 41.336ZM155.428 41.336C153.86 41.336 152.476 40.968 151.276 40.232C150.092 39.48 149.164 38.408 148.492 37.016C147.82 35.624 147.484 33.96 147.484 32.024C147.484 30.104 147.82 28.464 148.492 27.104C149.164 25.744 150.092 24.704 151.276 23.984C152.476 23.264 153.86 22.904 155.428 22.904C157.012 22.904 158.396 23.272 159.58 24.008C160.764 24.728 161.692 25.768 162.364 27.128C163.036 28.472 163.372 30.104 163.372 32.024C163.372 33.96 163.036 35.624 162.364 37.016C161.692 38.408 160.764 39.48 159.58 40.232C158.396 40.968 157.012 41.336 155.428 41.336ZM155.428 38.432C156.308 38.432 157.068 38.176 157.708 37.664C158.364 37.152 158.868 36.416 159.22 35.456C159.572 34.496 159.748 33.352 159.748 32.024C159.748 30.76 159.572 29.68 159.22 28.784C158.868 27.872 158.364 27.176 157.708 26.696C157.068 26.2 156.308 25.952 155.428 25.952C154.548 25.952 153.78 26.2 153.124 26.696C152.484 27.176 151.988 27.872 151.636 28.784C151.3 29.68 151.132 30.76 151.132 32.024C151.132 33.352 151.3 34.496 151.636 35.456C151.988 36.416 152.484 37.152 153.124 37.664C153.78 38.176 154.548 38.432 155.428 38.432ZM161.188 45.824C159.924 45.824 158.796 45.608 157.804 45.176C156.812 44.744 155.972 44.152 155.284 43.4C154.596 42.664 154.06 41.824 153.676 40.88L157.276 40.52C157.516 41.096 157.852 41.568 158.284 41.936C158.732 42.304 159.244 42.568 159.82 42.728C160.396 42.904 160.98 42.992 161.572 42.992C161.956 42.992 162.308 42.96 162.628 42.896C162.964 42.832 163.26 42.76 163.516 42.68L164.164 45.296C163.844 45.44 163.428 45.56 162.916 45.656C162.404 45.768 161.828 45.824 161.188 45.824Z" fill="#060606"/>
</svg>
