<svg width="280" height="88" viewBox="0 0 280 88" fill="none" xmlns="http://www.w3.org/2000/svg">
<rect width="280" height="88" rx="16" fill="#72BF6B"/>
<path d="M105.611 60.61V61.8H100.571V67.078H99.1153V61.8H94.1733V60.61H102.391C102.755 58.846 102.755 57.53 102.755 56.368H95.5453V55.206H104.169V56.312C104.169 57.502 104.169 58.818 103.847 60.61H105.611ZM109.418 64.628V65.818H116.992V66.952H107.976V63.55H115.228V62.416H107.948V61.268H116.67V64.628H109.418ZM116.39 59.028H118.084V60.19H106.632V59.028H114.948C115.2 57.824 115.242 56.9 115.242 56.116H108.074V54.954H116.656V55.794C116.656 56.62 116.656 57.684 116.39 59.028ZM124.602 64.026V65.776H130.44V64.026H124.602ZM123.174 66.924V62.878H131.854V66.924H123.174ZM126.058 55.962V58.286H128.97V55.962H126.058ZM128.242 60.694H133.254V61.842H121.788V60.694H126.786V59.448H122.894V58.286H124.616V55.962H122.824V54.8H132.19V55.962H130.412V58.286H132.12V59.448H128.242V60.694ZM139.987 55.15C142.619 55.15 144.635 56.578 144.635 58.72C144.635 60.876 142.619 62.29 139.987 62.29C137.341 62.29 135.339 60.876 135.339 58.72C135.339 56.578 137.341 55.15 139.987 55.15ZM139.987 56.34C138.111 56.34 136.739 57.264 136.739 58.72C136.739 60.176 138.111 61.1 139.987 61.1C141.849 61.1 143.235 60.176 143.235 58.72C143.235 57.264 141.849 56.34 139.987 56.34ZM134.275 64.292H145.727V65.482H134.275V64.292ZM153.159 64.404H158.185V65.594H146.733V64.404H151.717V62.248H148.119V58.174H155.399V56.48H148.091V55.318H156.827V59.322H149.533V61.086H157.107V62.248H153.159V64.404ZM170.863 54.422H172.319V67.106H170.863V54.422ZM165.585 55.36C167.475 55.36 168.847 57.096 168.847 59.812C168.847 62.556 167.475 64.278 165.585 64.278C163.709 64.278 162.337 62.556 162.337 59.812C162.337 57.096 163.709 55.36 165.585 55.36ZM165.585 56.662C164.493 56.662 163.723 57.852 163.723 59.812C163.723 61.8 164.493 62.99 165.585 62.99C166.691 62.99 167.461 61.8 167.461 59.812C167.461 57.852 166.691 56.662 165.585 56.662ZM180.06 65.972C181.908 65.972 182.958 65.566 182.958 64.782C182.958 64.012 181.908 63.592 180.06 63.592C178.212 63.592 177.176 64.012 177.176 64.782C177.176 65.566 178.212 65.972 180.06 65.972ZM180.06 62.486C182.776 62.486 184.414 63.326 184.414 64.782C184.414 66.252 182.776 67.092 180.06 67.092C177.358 67.092 175.706 66.252 175.706 64.782C175.706 63.326 177.358 62.486 180.06 62.486ZM180.816 60.54H185.814V61.716H174.39V60.54H179.374V59.28H175.804V54.996H184.414V56.144H177.232V58.118H184.498V59.28H180.816V60.54Z" fill="#365833"/>
<path d="M82.0629 26.688V27.912C82.0629 31.512 83.8389 35.328 87.5349 36.864L85.8069 39.36C83.2389 38.256 81.4869 36.096 80.5029 33.432C79.5189 36.312 77.7429 38.736 75.1509 39.912L73.3509 37.392C77.0469 35.736 78.8469 31.68 78.8469 27.912V26.688H74.2389V24.072H86.6229V26.688H82.0629ZM88.6629 21.96H91.8309V44.064H88.6629V21.96ZM100.589 38.208V41.328H109.589V38.208H100.589ZM97.469 43.8V35.736H112.685V43.8H97.469ZM112.277 30.912H115.133V33.432H95.117V30.912H109.133C109.589 28.704 109.661 27 109.661 25.464H97.589V22.944H112.781V24.72C112.781 26.496 112.781 28.368 112.277 30.912ZM130.217 26.688V27.912C130.217 31.512 131.993 35.328 135.689 36.864L133.961 39.36C131.393 38.256 129.641 36.096 128.657 33.432C127.673 36.312 125.897 38.736 123.305 39.912L121.505 37.392C125.201 35.736 127.001 31.68 127.001 27.912V26.688H122.393V24.072H134.777V26.688H130.217ZM136.817 21.96H139.985V44.064H136.817V21.96ZM154.551 34.8H158.703V21.96H161.871V38.712H158.703V36.96H154.551V34.8ZM150.303 25.008C148.815 25.008 147.783 25.584 147.783 26.664C147.783 27.744 148.815 28.296 150.303 28.296C151.767 28.296 152.799 27.744 152.799 26.664C152.799 25.584 151.767 25.008 150.303 25.008ZM150.303 30.6C147.063 30.6 144.807 29.016 144.807 26.664C144.807 24.312 147.063 22.704 150.303 22.704C153.519 22.704 155.799 24.312 155.799 26.664C155.799 29.016 153.519 30.6 150.303 30.6ZM149.127 41.16H162.351V43.68H145.959V37.104H149.031V34.152C147.087 34.248 145.239 34.272 143.583 34.272L143.175 31.752C147.207 31.728 152.583 31.68 157.239 31.08L157.455 33.336C155.727 33.624 153.951 33.816 152.175 33.96V38.136H149.127V41.16ZM171.253 36.96C172.741 36.96 173.821 35.952 173.821 34.248C173.821 32.592 172.741 31.56 171.253 31.56C169.765 31.56 168.661 32.592 168.661 34.272C168.661 35.952 169.765 36.96 171.253 36.96ZM171.253 28.992C174.445 28.992 176.821 31.176 176.821 34.248C176.821 37.368 174.445 39.552 171.253 39.552C168.037 39.552 165.637 37.368 165.637 34.248C165.637 31.176 168.037 28.992 171.253 28.992ZM172.813 22.344V25.224H177.613V27.744H164.749V25.224H169.645V22.344H172.813ZM185.389 30.6V33.216H182.221V44.064H179.053V21.96H182.221V30.6H185.389ZM187.691 24.24H198.299C198.299 31.008 196.019 36.528 188.171 40.32L186.515 37.824C192.155 35.112 194.603 31.656 195.059 26.76H187.691V24.24ZM201.683 21.936H204.875V44.04H201.683V21.936Z" fill="#060606"/>
</svg>
