<svg width="280" height="88" viewBox="0 0 280 88" fill="none" xmlns="http://www.w3.org/2000/svg">
<rect width="280" height="88" rx="16" fill="#72BF6B"/>
<path d="M105.611 60.61V61.8H100.571V67.078H99.1153V61.8H94.1733V60.61H102.391C102.755 58.846 102.755 57.53 102.755 56.368H95.5453V55.206H104.169V56.312C104.169 57.502 104.169 58.818 103.847 60.61H105.611ZM109.418 64.628V65.818H116.992V66.952H107.976V63.55H115.228V62.416H107.948V61.268H116.67V64.628H109.418ZM116.39 59.028H118.084V60.19H106.632V59.028H114.948C115.2 57.824 115.242 56.9 115.242 56.116H108.074V54.954H116.656V55.794C116.656 56.62 116.656 57.684 116.39 59.028ZM124.602 64.026V65.776H130.44V64.026H124.602ZM123.174 66.924V62.878H131.854V66.924H123.174ZM126.058 55.962V58.286H128.97V55.962H126.058ZM128.242 60.694H133.254V61.842H121.788V60.694H126.786V59.448H122.894V58.286H124.616V55.962H122.824V54.8H132.19V55.962H130.412V58.286H132.12V59.448H128.242V60.694ZM139.987 55.15C142.619 55.15 144.635 56.578 144.635 58.72C144.635 60.876 142.619 62.29 139.987 62.29C137.341 62.29 135.339 60.876 135.339 58.72C135.339 56.578 137.341 55.15 139.987 55.15ZM139.987 56.34C138.111 56.34 136.739 57.264 136.739 58.72C136.739 60.176 138.111 61.1 139.987 61.1C141.849 61.1 143.235 60.176 143.235 58.72C143.235 57.264 141.849 56.34 139.987 56.34ZM134.275 64.292H145.727V65.482H134.275V64.292ZM153.159 64.404H158.185V65.594H146.733V64.404H151.717V62.248H148.119V58.174H155.399V56.48H148.091V55.318H156.827V59.322H149.533V61.086H157.107V62.248H153.159V64.404ZM170.863 54.422H172.319V67.106H170.863V54.422ZM165.585 55.36C167.475 55.36 168.847 57.096 168.847 59.812C168.847 62.556 167.475 64.278 165.585 64.278C163.709 64.278 162.337 62.556 162.337 59.812C162.337 57.096 163.709 55.36 165.585 55.36ZM165.585 56.662C164.493 56.662 163.723 57.852 163.723 59.812C163.723 61.8 164.493 62.99 165.585 62.99C166.691 62.99 167.461 61.8 167.461 59.812C167.461 57.852 166.691 56.662 165.585 56.662ZM180.06 65.972C181.908 65.972 182.958 65.566 182.958 64.782C182.958 64.012 181.908 63.592 180.06 63.592C178.212 63.592 177.176 64.012 177.176 64.782C177.176 65.566 178.212 65.972 180.06 65.972ZM180.06 62.486C182.776 62.486 184.414 63.326 184.414 64.782C184.414 66.252 182.776 67.092 180.06 67.092C177.358 67.092 175.706 66.252 175.706 64.782C175.706 63.326 177.358 62.486 180.06 62.486ZM180.816 60.54H185.814V61.716H174.39V60.54H179.374V59.28H175.804V54.996H184.414V56.144H177.232V58.118H184.498V59.28H180.816V60.54Z" fill="#365833"/>
<path d="M78.8229 24.416H81.3669V26.912C81.3669 28.192 81.2309 29.448 80.9589 30.68C80.7029 31.912 80.3109 33.072 79.7829 34.16C79.2709 35.232 78.6229 36.184 77.8389 37.016C77.0549 37.832 76.1429 38.48 75.1029 38.96L73.2789 36.44C74.2069 36.008 75.0149 35.448 75.7029 34.76C76.4069 34.072 76.9829 33.304 77.4309 32.456C77.8949 31.592 78.2389 30.688 78.4629 29.744C78.7029 28.784 78.8229 27.84 78.8229 26.912V24.416ZM79.5189 24.416H82.0389V26.912C82.0389 27.792 82.1509 28.688 82.3749 29.6C82.6149 30.496 82.9589 31.352 83.4069 32.168C83.8549 32.968 84.4229 33.688 85.1109 34.328C85.7989 34.968 86.6149 35.48 87.5589 35.864L85.8069 38.408C84.7509 37.944 83.8309 37.32 83.0469 36.536C82.2629 35.752 81.6069 34.848 81.0789 33.824C80.5509 32.8 80.1589 31.704 79.9029 30.536C79.6469 29.352 79.5189 28.144 79.5189 26.912V24.416ZM74.1669 23.024H86.6469V25.664H74.1669V23.024ZM88.7109 20.912H91.9029V43.136H88.7109V20.912ZM97.541 21.896H111.605V24.416H97.541V21.896ZM95.069 29.888H115.205V32.408H95.069V29.888ZM109.685 21.896H112.829V23.672C112.829 24.616 112.805 25.632 112.757 26.72C112.709 27.808 112.517 29.072 112.181 30.512L108.989 30.488C109.341 29.032 109.541 27.768 109.589 26.696C109.653 25.624 109.685 24.616 109.685 23.672V21.896ZM97.421 34.736H112.733V42.896H97.421V34.736ZM109.613 37.232H100.565V40.376H109.613V37.232ZM126.977 24.416H129.521V26.912C129.521 28.192 129.385 29.448 129.113 30.68C128.857 31.912 128.465 33.072 127.937 34.16C127.425 35.232 126.777 36.184 125.993 37.016C125.209 37.832 124.297 38.48 123.257 38.96L121.433 36.44C122.361 36.008 123.169 35.448 123.857 34.76C124.561 34.072 125.137 33.304 125.585 32.456C126.049 31.592 126.393 30.688 126.617 29.744C126.857 28.784 126.977 27.84 126.977 26.912V24.416ZM127.673 24.416H130.193V26.912C130.193 27.792 130.305 28.688 130.529 29.6C130.769 30.496 131.113 31.352 131.561 32.168C132.009 32.968 132.577 33.688 133.265 34.328C133.953 34.968 134.769 35.48 135.713 35.864L133.961 38.408C132.905 37.944 131.985 37.32 131.201 36.536C130.417 35.752 129.761 34.848 129.233 33.824C128.705 32.8 128.313 31.704 128.057 30.536C127.801 29.352 127.673 28.144 127.673 26.912V24.416ZM122.321 23.024H134.801V25.664H122.321V23.024ZM136.865 20.912H140.057V43.136H136.865V20.912ZM149.007 32.312H152.199V37.16H149.007V32.312ZM158.727 20.888H161.919V37.736H158.727V20.888ZM145.911 40.184H162.423V42.752H145.911V40.184ZM145.911 36.128H149.103V40.88H145.911V36.128ZM143.535 33.272L143.127 30.728C144.487 30.712 145.967 30.696 147.567 30.68C149.167 30.648 150.799 30.584 152.463 30.488C154.127 30.392 155.727 30.248 157.263 30.056L157.479 32.336C155.895 32.608 154.279 32.816 152.631 32.96C150.999 33.088 149.407 33.168 147.855 33.2C146.303 33.232 144.863 33.256 143.535 33.272ZM154.551 33.8H159.447V35.984H154.551V33.8ZM150.279 21.656C151.367 21.656 152.327 21.824 153.159 22.16C153.991 22.496 154.639 22.96 155.103 23.552C155.583 24.144 155.823 24.84 155.823 25.64C155.823 26.424 155.583 27.12 155.103 27.728C154.639 28.32 153.991 28.776 153.159 29.096C152.327 29.416 151.367 29.576 150.279 29.576C149.191 29.576 148.223 29.416 147.375 29.096C146.543 28.776 145.895 28.32 145.431 27.728C144.967 27.12 144.735 26.424 144.735 25.64C144.735 24.84 144.967 24.144 145.431 23.552C145.895 22.96 146.543 22.496 147.375 22.16C148.223 21.824 149.191 21.656 150.279 21.656ZM150.279 23.984C149.543 23.984 148.935 24.12 148.455 24.392C147.991 24.664 147.759 25.08 147.759 25.64C147.759 26.168 147.991 26.576 148.455 26.864C148.935 27.136 149.543 27.272 150.279 27.272C151.031 27.272 151.631 27.136 152.079 26.864C152.543 26.576 152.775 26.168 152.775 25.64C152.775 25.272 152.671 24.968 152.463 24.728C152.255 24.488 151.967 24.304 151.599 24.176C151.231 24.048 150.791 23.984 150.279 23.984ZM179.053 20.912H182.245V43.136H179.053V20.912ZM181.525 29.576H185.437V32.216H181.525V29.576ZM164.701 24.176H177.661V26.72H164.701V24.176ZM171.229 27.992C172.301 27.992 173.261 28.224 174.109 28.688C174.957 29.136 175.621 29.752 176.101 30.536C176.597 31.32 176.845 32.232 176.845 33.272C176.845 34.312 176.597 35.232 176.101 36.032C175.621 36.816 174.957 37.44 174.109 37.904C173.277 38.352 172.317 38.576 171.229 38.576C170.157 38.576 169.189 38.352 168.325 37.904C167.477 37.44 166.805 36.816 166.309 36.032C165.829 35.232 165.589 34.312 165.589 33.272C165.589 32.232 165.829 31.32 166.309 30.536C166.805 29.752 167.477 29.136 168.325 28.688C169.189 28.224 170.157 27.992 171.229 27.992ZM171.229 30.584C170.717 30.584 170.269 30.688 169.885 30.896C169.501 31.104 169.197 31.408 168.973 31.808C168.749 32.208 168.637 32.696 168.637 33.272C168.637 33.832 168.749 34.32 168.973 34.736C169.197 35.136 169.501 35.448 169.885 35.672C170.269 35.88 170.717 35.984 171.229 35.984C171.725 35.984 172.165 35.88 172.549 35.672C172.933 35.448 173.237 35.136 173.461 34.736C173.685 34.32 173.797 33.832 173.797 33.272C173.797 32.696 173.685 32.208 173.461 31.808C173.237 31.408 172.933 31.104 172.549 30.896C172.165 30.688 171.725 30.584 171.229 30.584ZM169.597 21.272H172.813V25.16H169.597V21.272ZM201.731 20.888H204.923V43.112H201.731V20.888ZM195.179 23.192H198.323C198.323 24.888 198.155 26.512 197.819 28.064C197.499 29.6 196.955 31.048 196.187 32.408C195.435 33.768 194.395 35.032 193.067 36.2C191.755 37.352 190.115 38.408 188.147 39.368L186.467 36.848C188.611 35.808 190.315 34.664 191.579 33.416C192.859 32.152 193.779 30.728 194.339 29.144C194.899 27.544 195.179 25.752 195.179 23.768V23.192ZM187.667 23.192H196.667V25.736H187.667V23.192Z" fill="#060606"/>
</svg>
