<svg width="72" height="120" viewBox="0 0 72 120" fill="none" xmlns="http://www.w3.org/2000/svg">
<path d="M40.9064 51.514C24.2358 43.9904 14.5157 37.6626 14.5157 25.9329C14.5157 14.2033 24.2773 8.08308 35.1973 8.08308C46.1173 8.08308 52.4243 13.1528 57.3819 19.1401C64.3492 27.5523 64.7228 35.9852 64.7228 35.9852H65.2709V6.11914H64.7228C62.8336 28.3453 59.1964 6.66722 32.5026 6.66722C5.80878 6.66722 1.33697 26.5101 1.33697 33.0164C1.33697 39.5227 2.24213 51.2815 24.5804 61.4707C46.9228 71.6558 58.2829 78.3698 58.2829 90.8177C58.2829 103.266 47.0349 110.935 33.2085 110.935C19.382 110.935 10.3387 103.639 6.42744 98.0673C0.809657 90.0662 0.548073 83.1197 0.548073 83.1197H0V112.986H0.548073C0.548073 112.986 0.809654 102.971 4.04414 102.971C8.78998 102.971 16.7039 112.521 36.3848 112.521C56.0657 112.521 71.4575 100.251 71.4575 83.0242C71.4575 65.7972 57.5688 59.0376 40.9023 51.514H40.9064Z" fill="white"/>
</svg>
