<svg width="382" height="100" viewBox="0 0 382 100" fill="none" xmlns="http://www.w3.org/2000/svg">
<path d="M171.869 11.6748C171.869 0.527809 173.913 0.519931 182.693 0.519931V0H145.608V0.519931C154.388 0.519931 156.432 0.52387 156.432 11.6748V88.3213C156.432 99.4683 154.388 99.4762 145.608 99.4762V99.9961H182.693V99.4762C173.913 99.4762 171.869 99.4722 171.869 88.3213V11.6748Z" fill="white"/>
<path d="M94.2259 9.62256V37.9549H94.7458C94.7458 11.8835 103.352 11.1469 107.011 11.1469H130.755V20.0881C130.755 74.4091 94.2219 89.9677 94.2219 89.9677L94.6119 90.7712C142.162 68.6269 146.187 29.569 146.187 20.0881V9.62256H94.2219H94.2259Z" fill="white"/>
<path d="M370.774 11.6748C370.774 0.527809 372.818 0.519931 381.598 0.519931V0H344.514V0.519931C353.293 0.519931 355.338 0.52387 355.338 11.6748V88.3213C355.338 99.4683 353.293 99.4762 344.514 99.4762V99.9961H381.598V99.4762C372.818 99.4762 370.774 99.4722 370.774 88.3213V11.6748Z" fill="white"/>
<path d="M293.127 9.62256V37.9549H293.647C293.647 11.8835 302.253 11.1469 305.913 11.1469H329.656V20.0881C329.656 74.4091 293.123 89.9677 293.123 89.9677L293.513 90.7712C341.063 68.6269 345.089 29.569 345.089 20.0881V9.62256H293.123H293.127Z" fill="white"/>
<path d="M87.3169 36.1511C87.3169 46.8373 78.7104 46.8373 75.0512 46.8373H12.7856C9.12635 46.8373 0.51991 46.8373 0.51991 36.1511H0V59.0478H0.51991C0.51991 48.3616 9.12635 48.3616 12.7856 48.3616H75.0512C78.7104 48.3616 87.3169 48.3616 87.3169 59.0478H87.8368V36.1511H87.3169Z" fill="white"/>
<path d="M84.1106 61.2455V59.7212H7.64133V71.9317H8.16128C8.16128 61.2455 16.7677 61.2455 20.4269 61.2455H62.4547V78.4072H7.38139V79.9315H9.94166V87.4272C9.94166 98.4679 9.58715 98.4757 3.72217 98.4757V100H80.1914V87.7896H79.6715C79.6715 98.4757 71.0651 98.4757 67.4059 98.4757H25.3781V79.9315H80.4514V78.4072H77.8911V72.3138C77.8911 61.2534 78.2417 61.2455 84.1106 61.2455Z" fill="white"/>
<path d="M83.6106 33.0038C83.6106 33.0038 56.0347 23.3969 50.2681 12.3129C50.8747 11.0682 51.1701 9.76446 51.1701 8.38192V0H24.9097V0.519931C33.6894 0.519931 35.7337 0.519931 35.7337 8.38192C35.7337 21.0257 4.21484 33.0038 4.21484 33.0038L4.45511 33.89C23.9249 27.7257 36.7145 23.2433 43.9108 18.6427C51.1071 23.2433 63.8966 27.7257 83.3664 33.89L83.6068 33.0038H83.6106Z" fill="white"/>
<path d="M286.348 32.2672C286.348 49.8622 277.742 49.8622 274.083 49.8622H268.332V11.6748C268.332 0.527809 270.376 0.519931 279.156 0.519931V0H242.071V0.519931C250.851 0.519931 252.895 0.52387 252.895 11.6748V88.3213C252.895 99.4683 250.851 99.4762 242.071 99.4762V99.9961H279.156V99.4762C270.376 99.4762 268.332 99.4722 268.332 88.3213V51.3865H274.083C277.742 51.3865 286.348 51.3865 286.348 68.9814H286.868V32.2672H286.348Z" fill="white"/>
<path d="M232.925 59.205C241.626 42.1773 242.646 25.8152 242.646 20.092V9.62646H190.681V37.9588H191.2C191.2 11.8874 199.807 11.1508 203.466 11.1508H209.142V20.092C209.142 74.413 181.822 89.9716 181.822 89.9716L182.212 90.7751C194.194 83.2558 202.485 73.9325 208.216 64.4949C212.242 67.9415 215.385 71.3328 217.835 74.4485C210.812 85.8476 203.58 89.9676 203.58 89.9676L203.97 90.7712C210.332 86.7811 215.649 82.279 220.096 77.5247C224.823 84.4099 225.973 89.3295 225.973 89.3295L226.855 89.1838C225.492 84.2957 223.767 79.8093 221.778 75.6695C224.968 72.0339 227.674 68.2723 229.971 64.491C244.915 77.2845 247.727 89.3295 247.727 89.3295L248.61 89.1838C245.175 76.863 239.467 67.0198 232.921 59.2011L232.925 59.205ZM211.171 59.205C219.872 42.1773 220.892 25.8152 220.892 20.092V11.1508H230.9V20.092C230.9 44.131 225.551 60.5718 219.584 71.4392C217.051 66.8977 214.203 62.8327 211.171 59.205Z" fill="white"/>
</svg>
