<svg width="300" height="360" viewBox="0 0 300 360" fill="none" xmlns="http://www.w3.org/2000/svg">
<rect width="300" height="360" rx="16" fill="#1F1F1F"/>
<path d="M37.872 105.664H44.24C44.24 109.312 42.208 111.968 37.744 113.328L37.248 112.288C39.568 111.584 41.12 110.56 41.984 109.248L37.376 109.6L37.152 108.528L42.512 108.288C42.704 107.792 42.816 107.28 42.864 106.72H37.872V105.664ZM40.688 114.928V117.936H47.376V114.928H40.688ZM39.392 118.992V113.888H48.672V118.992H39.392ZM47.344 104.848H48.672V113.12H47.344V109.712H44.208V108.624H47.344V104.848ZM59.5188 110.56V106.704H55.9508V110.56H59.5188ZM54.6388 110.56V106.704H52.4788V105.632H62.9908V106.704H60.8308V110.56H62.9428V111.632H52.5268V110.56H54.6388ZM64.2388 113.28V114.352H60.8948V119.184H59.5828V114.352H55.9348V119.184H54.6228V114.352H51.2308V113.28H64.2388ZM67.6135 111.232V114.672C70.2055 114.672 71.8695 114.576 73.8215 114.224L73.9655 115.296C71.8855 115.664 70.1415 115.744 67.4055 115.744H66.3015V106.128H72.9415V107.216H67.6135V110.176H72.3175V111.232H67.6135ZM76.1575 104.816H77.4695V119.2H76.1575V111.328H73.1975V110.24H76.1575V104.816ZM93.3344 106.784V106.624H84.8544V105.568H94.6304V106.784C94.6304 107.936 94.6304 109.104 94.2304 110.576L92.9504 110.432C93.3344 108.96 93.3344 107.904 93.3344 106.784ZM89.7344 118.144C91.9904 118.144 93.4304 117.536 93.4304 116.544C93.4304 115.52 91.9904 114.912 89.7344 114.912C87.4944 114.912 86.0544 115.52 86.0544 116.544C86.0544 117.536 87.4944 118.144 89.7344 118.144ZM89.7344 113.904C92.7904 113.904 94.7424 114.88 94.7424 116.544C94.7424 118.176 92.7904 119.168 89.7344 119.168C86.6784 119.168 84.7424 118.176 84.7424 116.544C84.7424 114.88 86.6784 113.904 89.7344 113.904ZM89.9424 111.52H96.2464V112.576H83.3344V111.52H88.6304V108.768H89.9424V111.52ZM106.213 106.352V107.408H97.7491V106.352H101.317V104.752H102.629V106.352H106.213ZM99.7971 110.736C99.7971 111.696 100.661 112.32 101.973 112.32C103.285 112.32 104.165 111.696 104.165 110.736C104.165 109.792 103.285 109.168 101.973 109.168C100.661 109.168 99.7971 109.792 99.7971 110.736ZM105.413 110.736C105.413 112.32 104.021 113.328 101.973 113.328C99.9411 113.328 98.5491 112.32 98.5491 110.736C98.5491 109.168 99.9411 108.144 101.973 108.144C104.021 108.144 105.413 109.168 105.413 110.736ZM99.5251 115.664V114.592H108.837V119.2H107.525V115.664H99.5251ZM110.965 108.8V109.888H108.837V113.808H107.525V104.848H108.837V108.8H110.965ZM122.148 107.344V106.176H113.732V105.248H123.444V108.24H115.06V109.472H123.7V110.416H113.764V107.344H122.148ZM114.98 116.72V118.048H123.94V118.992H113.684V115.808H122.196V114.608H113.652V113.664H123.492V116.72H114.98ZM112.1 111.504H125.108V112.496H112.1V111.504ZM140.189 104.832H141.501V119.216H140.189V104.832ZM133.933 105.936C136.061 105.936 137.581 107.888 137.581 110.944C137.581 114 136.061 115.952 133.933 115.952C131.805 115.952 130.285 114 130.285 110.944C130.285 107.888 131.805 105.936 133.933 105.936ZM133.933 107.12C132.525 107.12 131.533 108.624 131.533 110.944C131.533 113.28 132.525 114.784 133.933 114.784C135.325 114.784 136.317 113.28 136.317 110.944C136.317 108.624 135.325 107.12 133.933 107.12ZM150.636 118.16C152.876 118.16 154.22 117.6 154.22 116.624C154.22 115.648 152.876 115.088 150.636 115.088C148.38 115.088 147.052 115.648 147.052 116.624C147.052 117.6 148.38 118.16 150.636 118.16ZM150.636 114.064C153.724 114.064 155.548 114.976 155.548 116.624C155.548 118.272 153.724 119.168 150.636 119.168C147.564 119.168 145.724 118.272 145.724 116.624C145.724 114.976 147.564 114.064 150.636 114.064ZM148.652 110.256V111.936H152.636V110.256C152.044 110.352 151.372 110.416 150.636 110.416C149.916 110.416 149.244 110.352 148.652 110.256ZM146.94 107.76C146.94 108.784 148.348 109.408 150.636 109.408C152.924 109.408 154.332 108.784 154.332 107.76C154.332 106.72 152.924 106.112 150.636 106.112C148.348 106.112 146.94 106.72 146.94 107.76ZM153.932 111.936H157.132V112.992H144.14V111.936H147.356V109.92C146.22 109.456 145.596 108.736 145.596 107.76C145.596 106.08 147.532 105.088 150.636 105.088C153.756 105.088 155.676 106.08 155.676 107.76C155.676 108.72 155.036 109.456 153.932 109.904V111.936ZM162.106 114.768C163.21 114.768 164.01 113.856 164.01 112.576C164.01 111.328 163.21 110.416 162.106 110.416C160.986 110.416 160.202 111.328 160.202 112.576C160.202 113.856 160.986 114.768 162.106 114.768ZM162.106 109.312C163.882 109.312 165.178 110.656 165.178 112.576C165.178 114.528 163.882 115.856 162.106 115.856C160.33 115.856 159.034 114.528 159.034 112.576C159.034 110.656 160.33 109.312 162.106 109.312ZM162.746 105.248V107.28H165.658V108.352H158.538V107.28H161.45V105.248H162.746ZM169.45 104.816H170.714V119.168H169.45V111.952H167.61V118.48H166.378V105.152H167.61V110.88H169.45V104.816ZM46.864 136.488V133.56H39.792V136.488H46.864ZM48.16 132.504V137.544H38.512V132.504H48.16ZM39.792 141.768V144.792H48.4V145.864H38.48V141.768H39.792ZM36.816 139.176H49.856V140.232H44.096V143.128H42.784V140.232H36.816V139.176ZM55.4548 134.584V135.88C55.4548 138.376 56.5268 140.872 58.5108 141.992L57.7108 142.952C56.3188 142.12 55.3268 140.584 54.8308 138.76C54.3348 140.728 53.2948 142.408 51.8708 143.304L51.0708 142.328C53.0708 141.128 54.1908 138.52 54.1908 135.88V134.584H51.4708V133.512H58.0148V134.584H55.4548ZM59.2948 136.984V132.152H60.5428V145.432H59.2948V138.056H56.9268V136.984H59.2948ZM62.1748 131.816H63.4388V146.168H62.1748V131.816ZM75.6935 134.344V133.176H67.2775V132.248H76.9895V135.24H68.6055V136.472H77.2455V137.416H67.3095V134.344H75.6935ZM68.5255 143.72V145.048H77.4855V145.992H67.2295V142.808H75.7415V141.608H67.1975V140.664H77.0375V143.72H68.5255ZM65.6455 138.504H78.6535V139.496H65.6455V138.504ZM86.8544 141.768C87.9584 141.768 88.7584 140.856 88.7584 139.576C88.7584 138.328 87.9584 137.416 86.8544 137.416C85.7344 137.416 84.9504 138.328 84.9504 139.576C84.9504 140.856 85.7344 141.768 86.8544 141.768ZM86.8544 136.312C88.6304 136.312 89.9264 137.656 89.9264 139.576C89.9264 141.528 88.6304 142.856 86.8544 142.856C85.0784 142.856 83.7824 141.528 83.7824 139.576C83.7824 137.656 85.0784 136.312 86.8544 136.312ZM87.4944 132.248V134.28H90.4064V135.352H83.2864V134.28H86.1984V132.248H87.4944ZM94.1984 131.816H95.4624V146.168H94.1984V138.952H92.3584V145.48H91.1264V132.152H92.3584V137.88H94.1984V131.816ZM108.197 134.936H104.661C103.765 137.192 101.573 138.728 98.4051 139.48L97.9251 138.408C101.429 137.592 103.429 135.88 103.669 133.608H98.6771V132.536H105.093C105.093 133.016 105.045 133.464 104.949 133.912H108.197V131.832H109.525V139.16H108.197V137.672H104.453V136.648H108.197V134.936ZM101.605 145H110.005V146.04H100.309V142.344H108.213V140.872H100.277V139.816H109.525V143.336H101.605V145ZM120.612 133.304V134.36H112.148V133.304H115.716V131.688H117.028V133.304H120.612ZM114.196 137.544C114.196 138.488 115.06 139.064 116.372 139.064C117.684 139.064 118.564 138.488 118.564 137.544C118.564 136.616 117.684 136.024 116.372 136.024C115.06 136.024 114.196 136.616 114.196 137.544ZM119.812 137.544C119.812 139.08 118.42 140.056 116.372 140.056C114.324 140.056 112.948 139.08 112.948 137.544C112.948 136.024 114.324 135.048 116.372 135.048C118.42 135.048 119.812 136.024 119.812 137.544ZM121.94 144.936V143.352H115.508V144.936H121.94ZM121.94 142.328V140.808H123.236V145.992H114.212V140.808H115.508V142.328H121.94ZM125.364 135.48V136.584H123.236V140.168H121.924V131.832H123.236V135.48H125.364ZM128.707 133.224V141.352C130.867 141.352 133.091 141.16 135.475 140.68L135.619 141.8C133.123 142.312 130.867 142.472 128.579 142.472H127.395V133.224H128.707ZM136.947 131.832H138.259V146.168H136.947V131.832ZM142.817 134.296V141.512C145.361 141.512 147.201 141.4 149.281 141.032L149.425 142.12C147.233 142.536 145.345 142.632 142.641 142.632H141.505V133.208H148.177V134.296H142.817ZM154.305 137.496V138.584H151.937V146.216H150.625V131.832H151.937V137.496H154.305ZM156.672 145.208C156.096 145.208 155.616 144.76 155.616 144.104C155.616 143.432 156.096 142.968 156.672 142.968C157.248 142.968 157.728 143.432 157.728 144.104C157.728 144.76 157.248 145.208 156.672 145.208Z" fill="#A1A1A1"/>
<path d="M62.736 62.448C62.736 68.4 57.696 72.528 50.352 72.528C43.968 72.528 41.088 69.408 40.128 69.408C39.744 69.408 39.648 69.936 39.792 71.472L39.84 72H39.36L38.352 60.912H38.832C39.36 66.528 43.248 72 50.064 72C54.96 72 58.368 69.264 58.368 65.28C58.368 55.44 37.824 56.88 37.824 45.552C37.824 40.176 42.576 36.192 49.536 36.192C55.68 36.192 58.464 39.264 59.424 39.264C59.808 39.264 59.856 38.736 59.712 37.2L59.664 36.672H60.192L61.2 47.76H60.672C60.192 42.144 56.304 36.672 49.632 36.672C45.12 36.672 42.192 39.168 42.192 42.672C42.192 52.128 62.736 50.448 62.736 62.448ZM65.9902 59.376C65.9902 51.84 70.9343 46.272 78.4223 46.272C85.8143 46.272 90.7583 51.84 90.7583 59.376C90.7583 66.96 85.8143 72.528 78.4223 72.528C70.9343 72.528 65.9902 66.96 65.9902 59.376ZM71.2703 59.376C71.2703 68.688 74.1023 72 78.4223 72C82.6463 72 85.4783 68.688 85.4783 59.376C85.4783 50.112 82.6463 46.752 78.4223 46.752C74.1023 46.752 71.2703 50.112 71.2703 59.376ZM100.669 36.672V68.448C100.669 70.272 101.869 71.472 103.693 71.472H104.173V72H92.0771V71.472H92.6051C94.3811 71.472 95.6291 70.272 95.6291 68.448V40.224C95.6291 38.4 94.3811 37.2 92.6051 37.2H92.0771V36.672H100.669ZM117.32 72H116.216L108.44 50.304C107.768 48.48 106.136 47.28 104.36 47.28H103.832V46.752H116.264V47.28H115.736C113.912 47.28 113.096 48.48 113.768 50.304L119.192 65.28L124.52 50.304C125.192 48.48 124.376 47.28 122.552 47.28H122.072V46.752H129.656V47.28H129.176C127.352 47.28 125.72 48.48 125.096 50.304L117.32 72ZM149.967 55.296H134.367C134.319 55.872 134.319 56.4 134.319 57.024C134.319 65.04 137.583 69.984 142.767 69.984C146.463 69.984 149.631 67.44 149.631 61.248H150.111C150.495 67.872 146.079 72.528 139.887 72.528C133.359 72.528 129.039 67.392 129.039 59.712C129.039 51.84 133.599 46.272 140.271 46.272C145.695 46.272 149.295 49.92 149.967 55.296ZM134.463 54.816H144.927C144.735 50.016 142.959 46.752 139.887 46.752C137.103 46.752 134.895 49.392 134.463 54.816Z" fill="white"/>
<mask id="mask0_519_52" style="mask-type:alpha" maskUnits="userSpaceOnUse" x="0" y="170" width="300" height="190">
<rect y="170" width="300" height="190" rx="16" fill="#202020"/>
</mask>
<g mask="url(#mask0_519_52)">
<circle cx="280" cy="380" r="179.5" fill="#72BF6B" stroke="white"/>
<g filter="url(#filter0_d_519_52)">
<path d="M164.648 227.006L192.842 222.501L177.293 246.447L175.831 233.565L164.648 227.006Z" fill="white"/>
</g>
</g>
<defs>
<filter id="filter0_d_519_52" x="152.648" y="210.5" width="52.1945" height="47.9468" filterUnits="userSpaceOnUse" color-interpolation-filters="sRGB">
<feFlood flood-opacity="0" result="BackgroundImageFix"/>
<feColorMatrix in="SourceAlpha" type="matrix" values="0 0 0 0 0 0 0 0 0 0 0 0 0 0 0 0 0 0 127 0" result="hardAlpha"/>
<feOffset/>
<feGaussianBlur stdDeviation="6"/>
<feComposite in2="hardAlpha" operator="out"/>
<feColorMatrix type="matrix" values="0 0 0 0 0 0 0 0 0 0 0 0 0 0 0 0 0 0 0.05 0"/>
<feBlend mode="normal" in2="BackgroundImageFix" result="effect1_dropShadow_519_52"/>
<feBlend mode="normal" in="SourceGraphic" in2="effect1_dropShadow_519_52" result="shape"/>
</filter>
</defs>
</svg>
