<svg width="1920" height="635" viewBox="0 0 1920 635" fill="none" xmlns="http://www.w3.org/2000/svg">
<path d="M294.742 173.83L294.238 174.946C291.682 174.604 289.27 173.47 288.262 171.724C287.236 173.47 284.806 174.604 282.25 174.946L281.746 173.83C284.68 173.506 287.506 171.886 287.506 169.906V169.294H289.018V169.906C289.018 171.886 291.826 173.506 294.742 173.83ZM284.194 182.362V184H294.166V185.152H282.754V181.282H292.222V179.77H282.7V178.654H293.68V182.362H284.194ZM280.936 175.972H295.552V177.16H280.936V175.972ZM298.107 170.932H305.667C305.667 175.594 303.525 179.698 298.161 182.326L297.369 181.12C301.707 179.05 303.867 175.954 304.173 172.12H298.107V170.932ZM308.925 169.186H310.401V185.332H308.925V169.186ZM321.523 172.03V173.992C321.523 176.386 322.063 179.41 324.025 180.886L323.089 181.948C321.901 181.03 321.217 179.536 320.821 177.88C320.461 179.554 319.795 181.138 318.571 182.092C317.347 181.12 316.681 179.536 316.321 177.862C315.907 179.5 315.223 181.012 314.071 181.948L313.135 180.886C315.079 179.374 315.619 176.278 315.619 173.992V172.03H313.639V170.824H318.211V172.03H317.023V173.992C317.023 175.774 317.257 178.366 318.571 180.112C319.867 178.402 320.119 175.846 320.119 173.992V172.03H318.913V170.824H323.377V172.03H321.523ZM328.381 175.594V176.836H326.149V185.332H324.673V169.204H326.149V175.594H328.381ZM330.504 170.932H338.064C338.064 175.594 335.922 179.698 330.558 182.326L329.766 181.12C334.104 179.05 336.264 175.954 336.57 172.12H330.504V170.932ZM341.322 169.186H342.798V185.332H341.322V169.186ZM349.402 180.418C350.662 180.418 351.49 178.78 351.49 176.134C351.49 173.542 350.662 171.904 349.402 171.904C348.106 171.904 347.296 173.542 347.296 176.134C347.296 178.78 348.106 180.418 349.402 180.418ZM354.856 175.468V169.546H356.26V184.54H354.856V176.674H352.822C352.696 179.842 351.382 181.786 349.402 181.786C347.296 181.786 345.946 179.626 345.946 176.134C345.946 172.696 347.296 170.536 349.402 170.536C351.346 170.536 352.642 172.426 352.822 175.468H354.856ZM358.06 169.186H359.464V185.332H358.06V169.186ZM367.599 170.572V173.47C367.599 176.404 369.435 179.338 371.775 180.454L370.911 181.624C369.075 180.706 367.599 178.78 366.861 176.512C366.159 178.906 364.665 180.94 362.847 181.912L361.947 180.742C364.287 179.572 366.123 176.458 366.123 173.47V170.572H367.599ZM373.773 169.186H375.249V185.35H373.773V175.864H370.029V174.658H373.773V169.186ZM391.088 174.046V175.252H380.108V169.78H381.584V174.046H391.088ZM381.476 180.22V183.73H391.178V184.936H380V180.22H381.476ZM378.128 177.412H392.762V178.6H378.128V177.412ZM407.586 170.896V172.084H398.064V170.896H402.078V169.096H403.554V170.896H407.586ZM400.368 175.828C400.368 176.908 401.34 177.61 402.816 177.61C404.292 177.61 405.282 176.908 405.282 175.828C405.282 174.766 404.292 174.064 402.816 174.064C401.34 174.064 400.368 174.766 400.368 175.828ZM406.686 175.828C406.686 177.61 405.12 178.744 402.816 178.744C400.53 178.744 398.964 177.61 398.964 175.828C398.964 174.064 400.53 172.912 402.816 172.912C405.12 172.912 406.686 174.064 406.686 175.828ZM400.062 181.372V180.166H410.538V185.35H409.062V181.372H400.062ZM412.932 173.65V174.874H410.538V179.284H409.062V169.204H410.538V173.65H412.932ZM426.016 181.156V175.558H421.462V174.388H426.016V172.48H421.462V171.292H426.016V169.204H427.51V181.156H426.016ZM423.352 176.944L423.514 178.168C420.922 178.636 418.744 178.762 416.368 178.762H415.144V170.356H416.62V177.52C418.834 177.502 420.94 177.376 423.352 176.944ZM418.636 183.766H427.924V184.972H417.16V180.13H418.636V183.766ZM442.215 172.642H438.489V174.424H442.215V172.642ZM437.031 175.792V173.398H432.675V175.792H437.031ZM438.489 175.576V176.98H431.217V169.942H432.675V172.246H437.031V169.96H438.489V171.49H442.215V169.204H443.691V177.628H442.215V175.576H438.489ZM434.781 183.946H444.303V185.116H433.323V181.12H442.233V179.572H433.287V178.402H443.691V182.236H434.781V183.946ZM463.537 169.186V177.574H462.061V169.186H463.537ZM454.015 171.436V175.738C454.879 175.72 455.761 175.684 456.643 175.63V171.436H454.015ZM460.441 175.324L460.513 176.404C457.309 176.89 453.547 176.998 450.703 177.016L450.559 175.792C451.189 175.792 451.873 175.792 452.575 175.774V171.436H450.991V170.266H459.649V171.436H458.065V175.54C458.875 175.486 459.667 175.396 460.441 175.324ZM454.501 183.982H464.149V185.152H453.043V181.12H462.079V179.5H452.989V178.348H463.537V182.218H454.501V183.982ZM480.365 175.342L479.753 176.53C477.251 176.098 474.821 174.694 473.777 172.75C472.769 174.712 470.339 176.098 467.819 176.53L467.225 175.342C470.159 174.91 473.003 172.966 473.003 170.662V169.762H474.551V170.662C474.551 172.912 477.431 174.91 480.365 175.342ZM481.067 178.276L481.085 179.5H474.479V185.35H473.003V179.5H466.487V178.276H481.067ZM500.247 177.304L499.581 178.528C497.133 177.97 494.613 176.242 493.587 173.866C492.561 176.224 490.041 177.952 487.611 178.528L486.945 177.304C489.771 176.746 492.813 174.316 492.813 171.562V170.32H494.361V171.562C494.361 174.316 497.421 176.764 500.247 177.304ZM486.333 181.948H500.967V183.172H486.333V181.948ZM504.746 176.386V180.256C507.662 180.256 509.534 180.148 511.73 179.752L511.892 180.958C509.552 181.372 507.59 181.462 504.512 181.462H503.27V170.644H510.74V171.868H504.746V175.198H510.038V176.386H504.746ZM514.358 169.168H515.834V185.35H514.358V176.494H511.028V175.27H514.358V169.168ZM521.232 171.958V180.094C524.346 180.094 526.38 180.004 528.756 179.554L528.918 180.796C526.434 181.246 524.328 181.354 521.07 181.354H519.774V170.716H527.406V171.958H521.232ZM530.466 169.186H531.942V185.368H530.466V169.186ZM535.325 187.42L534.929 186.448C536.063 185.944 536.729 185.062 536.729 184C536.657 184.018 536.603 184.018 536.531 184.018C535.901 184.018 535.325 183.622 535.325 182.866C535.325 182.164 535.901 181.714 536.567 181.714C537.431 181.714 537.953 182.452 537.953 183.658C537.953 185.386 536.945 186.736 535.325 187.42ZM553.108 177.07L552.388 178.24C550.534 177.592 549.058 176.26 548.32 174.568C547.636 176.404 546.142 177.844 544.234 178.546L543.46 177.394C545.908 176.53 547.546 174.424 547.546 172.156V171.508H543.856V170.32H552.712V171.508H549.058V172.156C549.058 174.316 550.732 176.278 553.108 177.07ZM545.692 180.994V179.806H556.492V185.332H555.016V180.994H545.692ZM555.016 169.186H556.492V178.96H555.016V169.186ZM562.755 179.932V183.766H572.529V184.972H561.279V179.932H562.755ZM571.809 176.314H574.095V177.502H567.561V181.39H566.085V177.502H559.425V176.314H570.315C570.747 174.226 570.747 172.696 570.747 171.328V171.238H561.297V170.05H572.205V171.328C572.205 172.678 572.205 174.244 571.809 176.314ZM587.449 172.642H583.723V174.424H587.449V172.642ZM582.265 175.792V173.398H577.909V175.792H582.265ZM583.723 175.576V176.98H576.451V169.942H577.909V172.246H582.265V169.96H583.723V171.49H587.449V169.204H588.925V177.628H587.449V175.576H583.723ZM580.015 183.946H589.537V185.116H578.557V181.12H587.467V179.572H578.521V178.402H588.925V182.236H580.015V183.946ZM608.771 169.186V177.574H607.295V169.186H608.771ZM599.249 171.436V175.738C600.113 175.72 600.995 175.684 601.877 175.63V171.436H599.249ZM605.675 175.324L605.747 176.404C602.543 176.89 598.781 176.998 595.937 177.016L595.793 175.792C596.423 175.792 597.107 175.792 597.809 175.774V171.436H596.225V170.266H604.883V171.436H603.299V175.54C604.109 175.486 604.901 175.396 605.675 175.324ZM599.735 183.982H609.383V185.152H598.277V181.12H607.313V179.5H598.223V178.348H608.771V182.218H599.735V183.982ZM625.6 175.342L624.988 176.53C622.486 176.098 620.056 174.694 619.012 172.75C618.004 174.712 615.574 176.098 613.054 176.53L612.46 175.342C615.394 174.91 618.238 172.966 618.238 170.662V169.762H619.786V170.662C619.786 172.912 622.666 174.91 625.6 175.342ZM626.302 178.276L626.32 179.5H619.714V185.35H618.238V179.5H611.722V178.276H626.302ZM645.482 177.304L644.816 178.528C642.368 177.97 639.848 176.242 638.822 173.866C637.796 176.224 635.276 177.952 632.846 178.528L632.18 177.304C635.006 176.746 638.048 174.316 638.048 171.562V170.32H639.596V171.562C639.596 174.316 642.656 176.764 645.482 177.304ZM631.568 181.948H646.202V183.172H631.568V181.948ZM649.981 176.386V180.256C652.897 180.256 654.769 180.148 656.965 179.752L657.127 180.958C654.787 181.372 652.825 181.462 649.747 181.462H648.505V170.644H655.975V171.868H649.981V175.198H655.273V176.386H649.981ZM659.593 169.168H661.069V185.35H659.593V176.494H656.263V175.27H659.593V169.168ZM666.467 171.958V180.094C669.581 180.094 671.615 180.004 673.991 179.554L674.153 180.796C671.669 181.246 669.563 181.354 666.305 181.354H665.009V170.716H672.641V171.958H666.467ZM675.701 169.186H677.177V185.368H675.701V169.186ZM691.468 172.012V170.698H682V169.654H692.926V173.02H683.494V174.406H693.214V175.468H682.036V172.012H691.468ZM683.404 182.56V184.054H693.484V185.116H681.946V181.534H691.522V180.184H681.91V179.122H692.98V182.56H683.404ZM680.164 176.692H694.798V177.808H680.164V176.692ZM713.276 169.204V181.012H711.8V169.204H713.276ZM709.892 177.538L709.172 178.708C707.318 178.06 705.842 176.728 705.104 175.036C704.42 176.872 702.926 178.33 701.018 179.014L700.244 177.862C702.692 177.016 704.33 174.91 704.33 172.606V171.724H700.64V170.536H709.496V171.724H705.842V172.606C705.842 174.784 707.516 176.746 709.892 177.538ZM704.366 183.766H713.762V184.972H702.89V179.896H704.366V183.766ZM726.378 174.784V178.816H724.974V169.492H726.378V173.578H728.43V169.186H729.852V179.41H728.43V174.784H726.378ZM724.326 171.112L724.344 172.282H716.136V171.112H719.52V169.312H720.978V171.112H724.326ZM718.134 175.882C718.134 176.89 718.98 177.556 720.258 177.556C721.518 177.556 722.382 176.89 722.382 175.882C722.382 174.892 721.518 174.226 720.258 174.226C718.98 174.226 718.134 174.892 718.134 175.882ZM723.696 175.882C723.696 177.574 722.292 178.654 720.258 178.654C718.224 178.654 716.802 177.574 716.802 175.882C716.802 174.226 718.224 173.128 720.258 173.128C722.292 173.128 723.696 174.226 723.696 175.882ZM724.542 184.18C726.99 184.18 728.466 183.568 728.466 182.506C728.466 181.426 726.99 180.814 724.542 180.814C722.076 180.814 720.6 181.426 720.6 182.506C720.6 183.568 722.076 184.18 724.542 184.18ZM724.542 179.68C727.908 179.68 729.942 180.688 729.942 182.506C729.942 184.306 727.908 185.314 724.542 185.314C721.176 185.314 719.142 184.306 719.142 182.506C719.142 180.688 721.176 179.68 724.542 179.68ZM742.001 170.842V172.03H732.479V170.842H736.493V169.024H737.969V170.842H742.001ZM734.783 175.612C734.783 176.674 735.755 177.322 737.231 177.322C738.707 177.322 739.697 176.674 739.697 175.612C739.697 174.568 738.707 173.902 737.231 173.902C735.755 173.902 734.783 174.568 734.783 175.612ZM741.101 175.612C741.101 177.34 739.535 178.438 737.231 178.438C734.927 178.438 733.379 177.34 733.379 175.612C733.379 173.902 734.927 172.804 737.231 172.804C739.535 172.804 741.101 173.902 741.101 175.612ZM743.495 183.928V182.146H736.259V183.928H743.495ZM743.495 180.994V179.284H744.953V185.116H734.801V179.284H736.259V180.994H743.495ZM747.347 173.29V174.532H744.953V178.564H743.477V169.186H744.953V173.29H747.347ZM751.108 170.752V179.896C753.538 179.896 756.04 179.68 758.722 179.14L758.884 180.4C756.076 180.976 753.538 181.156 750.964 181.156H749.632V170.752H751.108ZM760.378 169.186H761.854V185.314H760.378V169.186ZM766.982 171.958V180.076C769.844 180.076 771.914 179.95 774.254 179.536L774.416 180.76C771.95 181.228 769.826 181.336 766.784 181.336H765.506V170.734H773.012V171.958H766.982ZM779.906 175.558V176.782H777.242V185.368H775.766V169.186H777.242V175.558H779.906ZM782.569 184.234C781.921 184.234 781.381 183.73 781.381 182.992C781.381 182.236 781.921 181.714 782.569 181.714C783.217 181.714 783.757 182.236 783.757 182.992C783.757 183.73 783.217 184.234 782.569 184.234ZM281.566 205.274H287.866C287.866 209.432 286.408 213.284 281.818 215.876L280.954 214.814C284.662 212.744 286.192 209.828 286.408 206.48H281.566V205.274ZM293.23 203.186H294.652V219.332H293.23V210.89H291.034V218.522H289.648V203.618H291.034V209.684H293.23V203.186ZM310.401 203.204V214.994H308.925V203.204H310.401ZM298.971 208.28C298.971 209.882 300.159 210.998 301.725 210.998C303.327 210.998 304.515 209.882 304.515 208.28C304.515 206.714 303.327 205.598 301.725 205.598C300.159 205.598 298.971 206.714 298.971 208.28ZM305.955 208.28C305.955 210.62 304.137 212.276 301.725 212.276C299.331 212.276 297.531 210.62 297.531 208.28C297.531 205.958 299.331 204.32 301.725 204.32C304.137 204.32 305.955 205.958 305.955 208.28ZM301.491 217.766H310.887V218.972H300.015V213.788H301.491V217.766ZM325.087 203.186H326.563V219.368H325.087V203.186ZM318.049 204.428C320.443 204.428 322.153 206.624 322.153 210.062C322.153 213.5 320.443 215.696 318.049 215.696C315.655 215.696 313.945 213.5 313.945 210.062C313.945 206.624 315.655 204.428 318.049 204.428ZM318.049 205.76C316.465 205.76 315.349 207.452 315.349 210.062C315.349 212.69 316.465 214.382 318.049 214.382C319.615 214.382 320.731 212.69 320.731 210.062C320.731 207.452 319.615 205.76 318.049 205.76ZM334.655 211.034L334.097 209.864C336.905 209.45 339.695 207.596 339.695 205.472V205.382H334.601V204.194H346.391V205.382H341.333V205.472C341.333 207.596 344.123 209.45 346.967 209.864L346.391 211.034C343.889 210.602 341.495 209.252 340.523 207.344C339.533 209.252 337.157 210.602 334.655 211.034ZM347.813 212.384L347.831 213.59H341.225V219.332H339.749V213.59H333.233V212.384H347.813ZM357.46 216.074H364.066V217.298H349.396V216.074H355.966V211.934H351.268V204.482H362.212V205.688H352.744V210.746H362.374V211.934H357.46V216.074ZM370.346 214.508C371.822 214.508 372.884 213.464 372.884 212.024C372.884 210.566 371.822 209.522 370.346 209.522C368.888 209.522 367.826 210.566 367.826 212.024C367.826 213.464 368.888 214.508 370.346 214.508ZM370.346 208.298C372.65 208.298 374.288 209.846 374.288 212.024C374.288 214.22 372.65 215.732 370.346 215.732C368.078 215.732 366.44 214.22 366.44 212.024C366.44 209.846 368.078 208.298 370.346 208.298ZM371.066 203.384V205.778H375.044V206.966H365.522V205.778H369.59V203.384H371.066ZM380.696 209.828V211.07H378.05V219.332H376.574V203.204H378.05V209.828H380.696ZM394.753 208.046V209.252H383.773V203.78H385.249V208.046H394.753ZM385.141 214.22V217.73H394.843V218.936H383.665V214.22H385.141ZM381.793 211.412H396.427V212.6H381.793V211.412ZM402.287 205.274H408.587C408.587 209.432 407.129 213.284 402.539 215.876L401.675 214.814C405.383 212.744 406.913 209.828 407.129 206.48H402.287V205.274ZM413.951 203.186H415.373V219.332H413.951V210.89H411.755V218.522H410.369V203.618H411.755V209.684H413.951V203.186ZM429.682 206.642H425.956V208.424H429.682V206.642ZM424.498 209.792V207.398H420.142V209.792H424.498ZM425.956 209.576V210.98H418.684V203.942H420.142V206.246H424.498V203.96H425.956V205.49H429.682V203.204H431.158V211.628H429.682V209.576H425.956ZM422.248 217.946H431.77V219.116H420.79V215.12H429.7V213.572H420.754V212.402H431.158V216.236H422.248V217.946ZM443.174 206.066V208.118C443.174 210.692 445.01 213.554 447.35 214.652L446.504 215.84C444.704 214.94 443.192 213.05 442.454 210.89C441.716 213.248 440.15 215.3 438.332 216.236L437.468 215.066C439.772 213.914 441.716 210.854 441.716 208.118V206.066H438.026V204.842H446.756V206.066H443.174ZM452.822 209.702V210.944H450.158V219.332H448.682V203.204H450.158V209.702H452.822ZM461.226 204.482C458.598 204.482 457.068 205.094 457.068 206.174C457.068 207.254 458.598 207.866 461.226 207.866C463.872 207.866 465.384 207.254 465.384 206.174C465.384 205.094 463.872 204.482 461.226 204.482ZM461.226 208.964C457.68 208.964 455.556 207.992 455.556 206.174C455.556 204.356 457.68 203.366 461.226 203.366C464.79 203.366 466.896 204.356 466.896 206.174C466.896 207.992 464.79 208.964 461.226 208.964ZM463.026 212.726V211.124H459.354V212.726H463.026ZM468.516 211.124H464.484V212.726H466.662V216.362H457.176V218H467.148V219.152H455.736V215.282H465.204V213.842H455.7V212.726H457.896V211.124H453.936V209.936H468.516V211.124ZM487.714 211.304L487.048 212.528C484.6 211.97 482.08 210.242 481.054 207.866C480.028 210.224 477.508 211.952 475.078 212.528L474.412 211.304C477.238 210.746 480.28 208.316 480.28 205.562V204.32H481.828V205.562C481.828 208.316 484.888 210.764 487.714 211.304ZM473.8 215.948H488.434V217.172H473.8V215.948ZM492.213 210.386V214.256C495.129 214.256 497.001 214.148 499.197 213.752L499.359 214.958C497.019 215.372 495.057 215.462 491.979 215.462H490.737V204.644H498.207V205.868H492.213V209.198H497.505V210.386H492.213ZM501.825 203.168H503.301V219.35H501.825V210.494H498.495V209.27H501.825V203.168ZM508.699 205.958V214.094C511.813 214.094 513.847 214.004 516.223 213.554L516.385 214.796C513.901 215.246 511.795 215.354 508.537 215.354H507.241V204.716H514.873V205.958H508.699ZM517.933 203.186H519.409V219.368H517.933V203.186ZM522.792 221.42L522.396 220.448C523.53 219.944 524.196 219.062 524.196 218C524.124 218.018 524.07 218.018 523.998 218.018C523.368 218.018 522.792 217.622 522.792 216.866C522.792 216.164 523.368 215.714 524.034 215.714C524.898 215.714 525.42 216.452 525.42 217.658C525.42 219.386 524.412 220.736 522.792 221.42ZM544.607 209.342L543.995 210.53C541.493 210.098 539.063 208.694 538.019 206.75C537.011 208.712 534.581 210.098 532.061 210.53L531.467 209.342C534.401 208.91 537.245 206.966 537.245 204.662V203.762H538.793V204.662C538.793 206.912 541.673 208.91 544.607 209.342ZM545.309 212.276L545.327 213.5H538.721V219.35H537.245V213.5H530.729V212.276H545.309ZM548.35 210.332L547.792 209.144C550.654 208.766 553.264 207.164 553.264 205.202V205.184H548.242V203.996H560.194V205.184H555.172V205.202C555.172 207.164 557.782 208.766 560.626 209.144L560.086 210.332C557.458 209.936 555.082 208.64 554.218 206.768C553.336 208.64 550.96 209.936 548.35 210.332ZM550.222 214.4V217.766H559.906V218.972H548.746V214.4H550.222ZM546.874 211.502H561.526V212.69H555.064V215.966H553.588V212.69H546.874V211.502ZM574.916 206.642H571.19V208.424H574.916V206.642ZM569.732 209.792V207.398H565.376V209.792H569.732ZM571.19 209.576V210.98H563.918V203.942H565.376V206.246H569.732V203.96H571.19V205.49H574.916V203.204H576.392V211.628H574.916V209.576H571.19ZM567.482 217.946H577.004V219.116H566.024V215.12H574.934V213.572H565.988V212.402H576.392V216.236H567.482V217.946ZM583.321 212.708C582.673 212.708 582.133 212.186 582.133 211.466C582.133 210.71 582.673 210.188 583.321 210.188C583.969 210.188 584.509 210.71 584.509 211.466C584.509 212.186 583.969 212.708 583.321 212.708ZM597.515 210.08L596.057 209.918C596.435 208.064 596.489 206.678 596.489 205.652H589.901V204.446H597.929V205.292C597.929 206.354 597.929 207.956 597.515 210.08ZM599.045 211.052L599.153 212.132C595.805 212.69 591.935 212.78 589.073 212.78L588.929 211.574C589.955 211.574 591.125 211.556 592.349 211.538V208.046H593.807V211.484C595.571 211.412 597.407 211.268 599.045 211.052ZM592.871 214.238V217.766H602.123V218.972H591.395V214.238H592.871ZM601.601 208.442H603.905V209.666H601.601V215.354H600.125V203.186H601.601V208.442ZM615.009 210.494L614.271 211.664C612.417 211.016 610.941 209.648 610.203 207.902C609.501 209.774 608.007 211.268 606.099 211.97L605.343 210.818C607.791 209.936 609.447 207.776 609.447 205.4V203.834H610.923V205.4C610.923 207.686 612.615 209.702 615.009 210.494ZM609.483 214.472V217.928H617.043V214.472H609.483ZM608.043 219.116V213.302H618.483V219.116H608.043ZM617.007 203.204H618.483V212.384H617.007V203.204ZM626.852 204.59V207.488C626.852 210.332 628.688 213.266 630.956 214.4L630.038 215.57C628.328 214.652 626.87 212.762 626.132 210.548C625.43 212.906 623.936 214.922 622.118 215.894L621.236 214.706C623.558 213.518 625.394 210.422 625.394 207.488V204.59H626.852ZM636.518 209.738V210.962H633.854V219.332H632.378V203.204H633.854V209.738H636.518ZM649.44 206.642H645.714V208.424H649.44V206.642ZM644.256 209.792V207.398H639.9V209.792H644.256ZM645.714 209.576V210.98H638.442V203.942H639.9V206.246H644.256V203.96H645.714V205.49H649.44V203.204H650.916V211.628H649.44V209.576H645.714ZM642.006 217.946H651.528V219.116H640.548V215.12H649.458V213.572H640.512V212.402H650.916V216.236H642.006V217.946ZM661.877 216.128H668.483V217.334H653.813V216.128H660.383V213.086H655.649V208.1H665.225V205.58H655.613V204.374H666.665V209.288H657.107V211.898H667.043V213.086H661.877V216.128ZM683.289 204.41V205.472H674.019V204.41H677.925V203.024H679.401V204.41H683.289ZM676.287 208.1C676.287 208.82 677.205 209.27 678.663 209.27C680.103 209.27 681.021 208.82 681.021 208.1C681.021 207.38 680.103 206.948 678.663 206.948C677.205 206.948 676.287 207.38 676.287 208.1ZM683.775 210.782L683.865 211.718C680.427 212.33 676.611 212.348 673.785 212.348L673.623 211.25C674.883 211.25 676.377 211.25 677.925 211.196V210.206C676.053 210.062 674.883 209.306 674.883 208.1C674.883 206.768 676.359 205.976 678.663 205.976C680.931 205.976 682.425 206.768 682.425 208.1C682.425 209.288 681.255 210.044 679.401 210.206V211.16C680.877 211.088 682.389 210.962 683.775 210.782ZM677.241 216.722V218.09H686.817V219.152H675.801V215.732H684.747V214.472H675.747V213.428H686.205V216.722H677.241ZM686.205 207.308H688.581V208.55H686.205V212.726H684.729V203.186H686.205V207.308ZM697.202 218.18C699.722 218.18 701.216 217.55 701.216 216.416C701.216 215.282 699.722 214.652 697.202 214.652C694.646 214.652 693.152 215.282 693.152 216.416C693.152 217.55 694.646 218.18 697.202 218.18ZM697.202 213.5C700.622 213.5 702.71 214.544 702.71 216.416C702.71 218.288 700.622 219.332 697.202 219.332C693.746 219.332 691.658 218.288 691.658 216.416C691.658 214.544 693.746 213.5 697.202 213.5ZM697.94 211.16H704.51V212.348H689.894V211.16H696.464V209.288H691.73V203.924H702.692V205.112H693.206V208.1H702.8V209.288H697.94V211.16ZM710.826 214.508C712.302 214.508 713.364 213.464 713.364 212.024C713.364 210.566 712.302 209.522 710.826 209.522C709.368 209.522 708.306 210.566 708.306 212.024C708.306 213.464 709.368 214.508 710.826 214.508ZM710.826 208.298C713.13 208.298 714.768 209.846 714.768 212.024C714.768 214.22 713.13 215.732 710.826 215.732C708.558 215.732 706.92 214.22 706.92 212.024C706.92 209.846 708.558 208.298 710.826 208.298ZM711.546 203.384V205.778H715.524V206.966H706.002V205.778H710.07V203.384H711.546ZM721.176 209.828V211.07H718.53V219.332H717.054V203.204H718.53V209.828H721.176ZM735.233 208.046V209.252H724.253V203.78H725.729V208.046H735.233ZM725.621 214.22V217.73H735.323V218.936H724.145V214.22H725.621ZM722.273 211.412H736.907V212.6H722.273V211.412ZM756.069 211.304L755.403 212.528C752.955 211.97 750.435 210.242 749.409 207.866C748.383 210.224 745.863 211.952 743.433 212.528L742.767 211.304C745.593 210.746 748.635 208.316 748.635 205.562V204.32H750.183V205.562C750.183 208.316 753.243 210.764 756.069 211.304ZM742.155 215.948H756.789V217.172H742.155V215.948ZM760.567 210.386V214.256C763.483 214.256 765.355 214.148 767.551 213.752L767.713 214.958C765.373 215.372 763.411 215.462 760.333 215.462H759.091V204.644H766.561V205.868H760.567V209.198H765.859V210.386H760.567ZM770.179 203.168H771.655V219.35H770.179V210.494H766.849V209.27H770.179V203.168ZM777.054 205.958V214.094C780.168 214.094 782.202 214.004 784.578 213.554L784.74 214.796C782.256 215.246 780.15 215.354 776.892 215.354H775.596V204.716H783.228V205.958H777.054ZM786.288 203.186H787.764V219.368H786.288V203.186ZM807.322 208.136V209.324H796.252V203.834H807.214V205.022H797.728V208.136H807.322ZM801.706 218.162C804.226 218.162 805.738 217.532 805.738 216.398C805.738 215.264 804.244 214.634 801.706 214.634C799.168 214.634 797.674 215.264 797.674 216.398C797.674 217.532 799.168 218.162 801.706 218.162ZM801.706 213.482C805.144 213.482 807.232 214.526 807.232 216.398C807.232 218.27 805.144 219.314 801.706 219.314C798.268 219.314 796.18 218.27 796.18 216.398C796.18 214.526 798.268 213.482 801.706 213.482ZM794.416 210.872H809.032V212.096H794.416V210.872ZM816.44 205.958V214.076C819.302 214.076 821.372 213.95 823.712 213.536L823.874 214.76C821.408 215.228 819.284 215.336 816.242 215.336H814.964V204.734H822.47V205.958H816.44ZM829.364 209.558V210.782H826.7V219.368H825.224V203.186H826.7V209.558H829.364ZM832.225 207.938C832.225 209.45 833.377 210.512 834.997 210.512C836.599 210.512 837.769 209.45 837.769 207.938C837.769 206.426 836.599 205.382 834.997 205.382C833.377 205.382 832.225 206.426 832.225 207.938ZM839.209 207.938C839.209 210.188 837.427 211.754 834.997 211.754C832.549 211.754 830.785 210.188 830.785 207.938C830.785 205.706 832.549 204.158 834.997 204.158C837.427 204.158 839.209 205.706 839.209 207.938ZM837.877 218.144C840.253 218.144 841.711 217.442 841.711 216.29C841.711 215.12 840.253 214.436 837.877 214.436C835.483 214.436 834.025 215.12 834.025 216.29C834.025 217.442 835.483 218.144 837.877 218.144ZM837.877 213.266C841.135 213.266 843.187 214.364 843.187 216.29C843.187 218.198 841.135 219.314 837.877 219.314C834.601 219.314 832.549 218.198 832.549 216.29C832.549 214.364 834.601 213.266 837.877 213.266ZM845.365 206.804H843.025V209.036H845.365V210.26H843.025V212.762H841.549V203.204H843.025V205.598H845.365V206.804ZM856.253 205.166V206.354H846.731V205.166H850.745V203.186H852.221V205.166H856.253ZM849.035 210.242C849.035 211.376 850.025 212.096 851.483 212.096C852.941 212.096 853.949 211.376 853.949 210.242C853.949 209.126 852.941 208.406 851.483 208.406C850.025 208.406 849.035 209.126 849.035 210.242ZM855.353 210.242C855.353 212.06 853.769 213.248 851.483 213.248C849.197 213.248 847.631 212.06 847.631 210.242C847.631 208.442 849.197 207.254 851.483 207.254C853.769 207.254 855.353 208.442 855.353 210.242ZM850.637 214.346V217.766H859.925V218.972H849.161V214.346H850.637ZM859.205 208.514H861.581V209.756H859.205V215.3H857.729V203.186H859.205V208.514ZM880.455 211.304L879.789 212.528C877.341 211.97 874.821 210.242 873.795 207.866C872.769 210.224 870.249 211.952 867.819 212.528L867.153 211.304C869.979 210.746 873.021 208.316 873.021 205.562V204.32H874.569V205.562C874.569 208.316 877.629 210.764 880.455 211.304ZM866.541 215.948H881.175V217.172H866.541V215.948ZM884.954 210.386V214.256C887.87 214.256 889.742 214.148 891.938 213.752L892.1 214.958C889.76 215.372 887.798 215.462 884.72 215.462H883.478V204.644H890.948V205.868H884.954V209.198H890.246V210.386H884.954ZM894.566 203.168H896.042V219.35H894.566V210.494H891.236V209.27H894.566V203.168ZM901.44 205.958V214.094C904.554 214.094 906.588 214.004 908.964 213.554L909.126 214.796C906.642 215.246 904.536 215.354 901.278 215.354H899.982V204.716H907.614V205.958H901.44ZM910.674 203.186H912.15V219.368H910.674V203.186ZM926.441 206.012V204.698H916.973V203.654H927.899V207.02H918.467V208.406H928.187V209.468H917.009V206.012H926.441ZM918.377 216.56V218.054H928.457V219.116H916.919V215.534H926.495V214.184H916.883V213.122H927.953V216.56H918.377ZM915.137 210.692H929.771V211.808H915.137V210.692ZM942.291 204.788C939.825 204.788 938.187 205.562 938.187 206.84C938.187 208.1 939.825 208.874 942.291 208.874C944.775 208.874 946.395 208.1 946.395 206.84C946.395 205.562 944.775 204.788 942.291 204.788ZM942.291 210.08C938.871 210.08 936.639 208.838 936.639 206.84C936.639 204.842 938.871 203.6 942.291 203.6C945.711 203.6 947.943 204.842 947.943 206.84C947.943 208.838 945.711 210.08 942.291 210.08ZM938.331 214.256V217.748H948.015V218.972H936.855V214.256H938.331ZM934.983 211.376H949.617V212.582H943.173V215.84H941.679V212.582H934.983V211.376ZM952.855 207.974C952.855 209.486 954.043 210.566 955.609 210.566C957.193 210.566 958.345 209.486 958.345 207.974C958.345 206.48 957.193 205.4 955.609 205.4C954.043 205.4 952.855 206.48 952.855 207.974ZM963.007 206.714H959.551C959.677 207.092 959.749 207.506 959.749 207.974C959.749 208.424 959.677 208.838 959.533 209.234H963.007V206.714ZM963.007 210.44H958.867C958.129 211.304 956.977 211.826 955.609 211.826C953.215 211.826 951.451 210.242 951.451 207.974C951.451 205.724 953.215 204.158 955.609 204.158C956.977 204.158 958.129 204.68 958.867 205.508H963.007V203.186H964.501V212.744H963.007V210.44ZM959.155 218.144C961.621 218.144 963.097 217.424 963.097 216.218C963.097 214.994 961.621 214.274 959.155 214.274C956.725 214.274 955.249 214.994 955.249 216.218C955.249 217.424 956.725 218.144 959.155 218.144ZM959.155 213.122C962.485 213.122 964.555 214.256 964.555 216.218C964.555 218.18 962.485 219.314 959.155 219.314C955.843 219.314 953.791 218.18 953.791 216.218C953.791 214.256 955.843 213.122 959.155 213.122ZM972.413 209.774L971.891 208.604C974.717 208.28 977.291 206.894 977.417 205.112H972.413V203.924H984.347V205.112H979.325C979.451 206.894 982.025 208.28 984.851 208.604L984.329 209.774C981.683 209.45 979.271 208.262 978.371 206.48C977.489 208.262 975.059 209.45 972.413 209.774ZM982.385 216.47C982.385 215.39 980.873 214.778 978.353 214.778C975.815 214.778 974.321 215.39 974.321 216.47C974.321 217.55 975.815 218.18 978.353 218.18C980.873 218.18 982.385 217.55 982.385 216.47ZM985.661 211.934H979.109V213.662C982.115 213.806 983.879 214.796 983.879 216.47C983.879 218.306 981.809 219.314 978.371 219.314C974.915 219.314 972.827 218.306 972.827 216.47C972.827 214.796 974.609 213.806 977.615 213.662V211.934H971.063V210.746H985.661V211.934ZM999.034 203.204H1000.51V211.862H999.034V203.204ZM990.106 212.654H991.564V214.634H999.052V212.654H1000.51V219.116H990.106V212.654ZM991.564 215.786V217.928H999.052V215.786H991.564ZM991.834 203.96C994.282 203.96 996.064 205.472 996.064 207.668C996.064 209.9 994.282 211.394 991.834 211.394C989.404 211.394 987.64 209.9 987.64 207.668C987.64 205.472 989.404 203.96 991.834 203.96ZM991.834 205.184C990.232 205.184 989.08 206.21 989.08 207.668C989.08 209.144 990.232 210.17 991.834 210.17C993.472 210.17 994.624 209.144 994.624 207.668C994.624 206.21 993.472 205.184 991.834 205.184ZM1005.94 204.752V213.896C1008.37 213.896 1010.88 213.68 1013.56 213.14L1013.72 214.4C1010.91 214.976 1008.37 215.156 1005.8 215.156H1004.47V204.752H1005.94ZM1015.21 203.186H1016.69V219.314H1015.21V203.186ZM1021.82 205.958V214.076C1024.68 214.076 1026.75 213.95 1029.09 213.536L1029.25 214.76C1026.79 215.228 1024.66 215.336 1021.62 215.336H1020.34V204.734H1027.85V205.958H1021.82ZM1034.74 209.558V210.782H1032.08V219.368H1030.6V203.186H1032.08V209.558H1034.74ZM1037.41 218.234C1036.76 218.234 1036.22 217.73 1036.22 216.992C1036.22 216.236 1036.76 215.714 1037.41 215.714C1038.05 215.714 1038.59 216.236 1038.59 216.992C1038.59 217.73 1038.05 218.234 1037.41 218.234ZM293.914 242.604V243.81H282.826V238.014H284.32V242.604H293.914ZM295.606 246.24V247.446H288.964V253.332H287.488V247.446H280.936V246.24H295.606ZM311.769 245.178V246.384H305.181V253.35H303.687V246.384H297.171V245.178H307.881C308.385 242.856 308.385 241.146 308.385 239.634V239.418H298.989V238.23H309.825V239.634C309.825 241.146 309.825 242.856 309.375 245.178H311.769ZM315.457 238.752V248.004C317.779 248.004 320.173 247.806 322.783 247.284L322.963 248.508C320.209 249.066 317.743 249.246 315.277 249.246H313.999V238.752H315.457ZM328.363 243.63V244.854H325.771V253.332H324.295V237.186H325.771V243.63H328.363ZM341.675 246.726H344.951V237.186H346.427V249.48H344.951V247.824H341.675V246.726ZM338.381 238.932C336.851 238.932 335.807 239.616 335.807 240.642C335.807 241.686 336.851 242.37 338.381 242.37C339.911 242.37 340.955 241.686 340.955 240.642C340.955 239.616 339.911 238.932 338.381 238.932ZM338.381 243.468C336.023 243.468 334.403 242.37 334.403 240.642C334.403 238.95 336.023 237.834 338.381 237.834C340.739 237.834 342.359 238.95 342.359 240.642C342.359 242.37 340.739 243.468 338.381 243.468ZM337.805 248.904V245.79C336.203 245.862 334.655 245.88 333.323 245.88L333.125 244.656C336.113 244.656 340.109 244.62 343.529 244.188L343.655 245.25C342.233 245.466 340.739 245.628 339.281 245.718V248.904H337.805ZM336.905 251.766H346.841V252.972H335.429V248.274H336.905V251.766ZM354.148 248.508C355.624 248.508 356.686 247.464 356.686 246.024C356.686 244.566 355.624 243.522 354.148 243.522C352.69 243.522 351.628 244.566 351.628 246.024C351.628 247.464 352.69 248.508 354.148 248.508ZM354.148 242.298C356.452 242.298 358.09 243.846 358.09 246.024C358.09 248.22 356.452 249.732 354.148 249.732C351.88 249.732 350.242 248.22 350.242 246.024C350.242 243.846 351.88 242.298 354.148 242.298ZM354.868 237.384V239.778H358.846V240.966H349.324V239.778H353.392V237.384H354.868ZM364.498 243.828V245.07H361.852V253.332H360.376V237.204H361.852V243.828H364.498ZM378.554 242.046V243.252H367.574V237.78H369.05V242.046H378.554ZM368.942 248.22V251.73H378.644V252.936H367.466V248.22H368.942ZM365.594 245.412H380.228V246.6H365.594V245.412ZM386.916 245.034L386.358 243.864C389.166 243.45 391.956 241.596 391.956 239.472V239.382H386.862V238.194H398.652V239.382H393.594V239.472C393.594 241.596 396.384 243.45 399.228 243.864L398.652 245.034C396.15 244.602 393.756 243.252 392.784 241.344C391.794 243.252 389.418 244.602 386.916 245.034ZM400.074 246.384L400.092 247.59H393.486V253.332H392.01V247.59H385.494V246.384H400.074ZM406.409 240.282V241.74C406.409 244.548 407.615 247.356 409.847 248.616L408.947 249.696C407.381 248.76 406.265 247.032 405.707 244.98C405.149 247.194 403.979 249.084 402.377 250.092L401.477 248.994C403.727 247.644 404.987 244.71 404.987 241.74V240.282H401.927V239.076H409.289V240.282H406.409ZM410.729 242.982V237.546H412.133V252.486H410.729V244.188H408.065V242.982H410.729ZM413.969 237.168H415.391V253.314H413.969V237.168ZM429.178 240.012V238.698H419.71V237.654H430.636V241.02H421.204V242.406H430.924V243.468H419.746V240.012H429.178ZM421.114 250.56V252.054H431.194V253.116H419.656V249.534H429.232V248.184H419.62V247.122H430.69V250.56H421.114ZM417.874 244.692H432.508V245.808H417.874V244.692ZM442.472 240.282V241.74C442.472 244.548 443.678 247.356 445.91 248.616L445.01 249.696C443.444 248.76 442.328 247.032 441.77 244.98C441.212 247.194 440.042 249.084 438.44 250.092L437.54 248.994C439.79 247.644 441.05 244.71 441.05 241.74V240.282H437.99V239.076H445.352V240.282H442.472ZM446.792 242.982V237.546H448.196V252.486H446.792V244.188H444.128V242.982H446.792ZM450.032 237.168H451.454V253.314H450.032V237.168ZM455.682 242.298C455.682 243.882 456.87 244.998 458.454 244.998C460.038 244.998 461.226 243.882 461.226 242.298C461.226 240.714 460.038 239.598 458.454 239.598C456.87 239.598 455.682 240.714 455.682 242.298ZM462.666 242.298C462.666 244.638 460.866 246.276 458.454 246.276C456.042 246.276 454.242 244.638 454.242 242.298C454.242 239.958 456.042 238.32 458.454 238.32C460.866 238.32 462.666 239.958 462.666 242.298ZM457.896 247.86V251.766H467.184V252.972H456.42V247.86H457.896ZM466.464 242.1H468.84V243.324H466.464V249.066H464.988V237.186H466.464V242.1ZM474.869 248.508C476.345 248.508 477.407 247.464 477.407 246.024C477.407 244.566 476.345 243.522 474.869 243.522C473.411 243.522 472.349 244.566 472.349 246.024C472.349 247.464 473.411 248.508 474.869 248.508ZM474.869 242.298C477.173 242.298 478.811 243.846 478.811 246.024C478.811 248.22 477.173 249.732 474.869 249.732C472.601 249.732 470.963 248.22 470.963 246.024C470.963 243.846 472.601 242.298 474.869 242.298ZM475.589 237.384V239.778H479.567V240.966H470.045V239.778H474.113V237.384H475.589ZM485.219 243.828V245.07H482.573V253.332H481.097V237.204H482.573V243.828H485.219ZM497.727 240.408V240.012H487.881V238.806H499.203V240.408C499.203 242.406 499.203 244.62 498.591 247.878L497.115 247.716C497.727 244.62 497.727 242.352 497.727 240.408ZM493.497 249.858H500.949V251.064H486.351V249.858H492.021V244.08H493.497V249.858ZM502.928 255.42L502.532 254.448C503.666 253.944 504.332 253.062 504.332 252C504.26 252.018 504.206 252.018 504.134 252.018C503.504 252.018 502.928 251.622 502.928 250.866C502.928 250.164 503.504 249.714 504.17 249.714C505.034 249.714 505.556 250.452 505.556 251.658C505.556 253.386 504.548 254.736 502.928 255.42ZM520.423 238.896V240.084H510.901V238.896H514.915V237.042H516.391V238.896H520.423ZM513.205 243.774C513.205 244.836 514.177 245.538 515.653 245.538C517.129 245.538 518.119 244.836 518.119 243.774C518.119 242.712 517.129 242.01 515.653 242.01C514.177 242.01 513.205 242.712 513.205 243.774ZM519.523 243.774C519.523 245.52 517.957 246.636 515.653 246.636C513.349 246.636 511.801 245.52 511.801 243.774C511.801 242.01 513.349 240.894 515.653 240.894C517.957 240.894 519.523 242.01 519.523 243.774ZM514.681 248.994V251.928H521.917V248.994H514.681ZM513.241 253.116V247.824H523.375V253.116H513.241ZM525.769 241.488V242.712H523.375V246.906H521.899V237.204H523.375V241.488H525.769ZM527.424 239.112H531.006C531.006 242.568 530.556 246.366 528.234 249.498L527.082 248.85C529.08 246.276 529.638 243.324 529.746 240.318H527.424V239.112ZM536.424 243.522V237.6H537.81V252.504H536.424V244.728H534.174C533.796 246.744 533.112 248.778 531.816 250.542L530.664 249.876C532.86 246.996 533.238 243.36 533.292 240.318H531.546V239.112H534.57C534.57 240.444 534.534 241.956 534.354 243.522H536.424ZM539.412 237.186H540.816V253.314H539.412V237.186ZM556.486 238.896V240.084H546.964V238.896H550.978V237.096H552.454V238.896H556.486ZM549.268 243.828C549.268 244.908 550.24 245.61 551.716 245.61C553.192 245.61 554.182 244.908 554.182 243.828C554.182 242.766 553.192 242.064 551.716 242.064C550.24 242.064 549.268 242.766 549.268 243.828ZM555.586 243.828C555.586 245.61 554.02 246.744 551.716 246.744C549.43 246.744 547.864 245.61 547.864 243.828C547.864 242.064 549.43 240.912 551.716 240.912C554.02 240.912 555.586 242.064 555.586 243.828ZM548.962 249.372V248.166H559.438V253.35H557.962V249.372H548.962ZM561.832 241.65V242.874H559.438V247.284H557.962V237.204H559.438V241.65H561.832ZM576.878 242.226L576.338 243.414C573.836 243.018 571.442 241.758 570.416 239.958C569.408 241.758 566.996 243.018 564.476 243.414L563.936 242.226C566.834 241.866 569.66 240.138 569.66 238.086V237.366H571.172V238.086C571.172 240.084 574.016 241.866 576.878 242.226ZM574.34 251.928V249.876H566.402V251.928H574.34ZM574.34 248.742V246.852H575.798V253.116H564.944V246.852H566.402V248.742H574.34ZM563.09 244.548H577.706V245.736H563.09V244.548ZM584.041 248.508C585.517 248.508 586.579 247.464 586.579 246.024C586.579 244.566 585.517 243.522 584.041 243.522C582.583 243.522 581.521 244.566 581.521 246.024C581.521 247.464 582.583 248.508 584.041 248.508ZM584.041 242.298C586.345 242.298 587.983 243.846 587.983 246.024C587.983 248.22 586.345 249.732 584.041 249.732C581.773 249.732 580.135 248.22 580.135 246.024C580.135 243.846 581.773 242.298 584.041 242.298ZM584.761 237.384V239.778H588.739V240.966H579.217V239.778H583.285V237.384H584.761ZM594.391 243.828V245.07H591.745V253.332H590.269V237.204H591.745V243.828H594.391ZM603.497 245.502H607.331V242.262H603.497V245.502ZM602.039 248.076V239.94H597.593V248.076H602.039ZM607.331 237.186H608.807V253.368H607.331V246.708H603.497V249.246H596.153V238.77H603.497V241.056H607.331V237.186ZM628.599 237.204V245.556H627.123V237.204H628.599ZM625.143 243.936L624.405 245.088C622.551 244.44 621.075 243.09 620.337 241.38C619.635 243.234 618.141 244.71 616.233 245.394L615.477 244.242C617.907 243.396 619.581 241.236 619.581 238.896V237.672H621.057V238.896C621.057 241.128 622.749 243.144 625.143 243.936ZM619.653 251.982H629.157V253.152H618.195V249.138H627.159V247.518H618.159V246.366H628.617V250.254H619.653V251.982ZM640.1 244.8L640.244 245.988C638.264 246.33 636.626 246.384 633.404 246.384H632.252V241.596H637.724V239.364H632.198V238.158H639.164V242.73H633.692V245.178C636.68 245.178 638.228 245.106 640.1 244.8ZM634.052 249.192V247.986H644.87V253.35H643.376V249.192H634.052ZM643.376 237.204H644.87V247.122H643.376V244.134H640.226V242.946H643.376V240.786H640.226V239.58H643.376V237.204ZM655.057 238.572C652.411 238.572 650.899 239.184 650.899 240.264C650.899 241.344 652.411 241.956 655.057 241.956C657.703 241.956 659.215 241.344 659.215 240.264C659.215 239.184 657.703 238.572 655.057 238.572ZM655.057 243.054C651.511 243.054 649.387 242.082 649.387 240.264C649.387 238.446 651.511 237.456 655.057 237.456C658.603 237.456 660.727 238.446 660.727 240.264C660.727 242.082 658.603 243.054 655.057 243.054ZM651.007 250.362V252H660.979V253.152H649.567V249.282H659.035V247.842H649.513V246.726H660.493V250.362H651.007ZM647.749 244.152H662.365V245.34H647.749V244.152ZM668.837 238.86H676.217C676.217 243.54 674.543 247.842 668.747 250.704L667.955 249.534C670.925 248.094 672.779 246.24 673.769 244.08L668.261 244.602L668.009 243.306L674.237 242.892C674.543 241.992 674.687 241.056 674.759 240.066H668.837V238.86ZM679.403 237.186H680.879V253.332H679.403V237.186ZM691.119 238.482C688.473 238.482 686.961 239.094 686.961 240.174C686.961 241.254 688.473 241.866 691.119 241.866C693.765 241.866 695.277 241.254 695.277 240.174C695.277 239.094 693.765 238.482 691.119 238.482ZM691.119 242.964C687.573 242.964 685.449 241.992 685.449 240.174C685.449 238.356 687.573 237.366 691.119 237.366C694.683 237.366 696.789 238.356 696.789 240.174C696.789 241.992 694.683 242.964 691.119 242.964ZM698.409 245.214H691.857V246.726H696.555V250.362H687.069V252H697.041V253.152H685.629V249.282H695.097V247.842H685.593V246.726H690.381V245.214H683.829V244.026H698.409V245.214ZM717.589 243.342L716.977 244.53C714.475 244.098 712.045 242.694 711.001 240.75C709.993 242.712 707.563 244.098 705.043 244.53L704.449 243.342C707.383 242.91 710.227 240.966 710.227 238.662V237.762H711.775V238.662C711.775 240.912 714.655 242.91 717.589 243.342ZM718.291 246.276L718.309 247.5H711.703V253.35H710.227V247.5H703.711V246.276H718.291ZM736.805 237.204V246.42H735.329V237.204H736.805ZM728.129 239.364C726.527 239.364 725.375 240.426 725.375 241.902C725.375 243.396 726.527 244.44 728.129 244.44C729.731 244.44 730.919 243.396 730.919 241.902C730.919 240.426 729.731 239.364 728.129 239.364ZM728.129 245.664C725.699 245.664 723.935 244.134 723.935 241.902C723.935 239.67 725.699 238.14 728.129 238.14C730.577 238.14 732.359 239.67 732.359 241.902C732.359 244.134 730.577 245.664 728.129 245.664ZM735.005 247.122V247.986C735.005 249.66 736.193 251.316 738.245 252L737.507 253.116C735.923 252.54 734.807 251.424 734.267 250.074C733.763 251.388 732.773 252.612 731.279 253.26C729.731 252.648 728.759 251.478 728.273 250.128C727.697 251.424 726.599 252.54 725.087 253.116L724.349 252C726.383 251.28 727.589 249.534 727.589 247.986V247.122H729.011V247.986C729.011 249.408 729.749 250.938 731.243 251.82C732.791 250.866 733.565 249.246 733.565 247.986V247.122H735.005ZM753.526 242.226L752.986 243.414C750.484 243.018 748.09 241.758 747.064 239.958C746.056 241.758 743.644 243.018 741.124 243.414L740.584 242.226C743.482 241.866 746.308 240.138 746.308 238.086V237.366H747.82V238.086C747.82 240.084 750.664 241.866 753.526 242.226ZM750.988 251.928V249.876H743.05V251.928H750.988ZM750.988 248.742V246.852H752.446V253.116H741.592V246.852H743.05V248.742H750.988ZM739.738 244.548H754.354V245.736H739.738V244.548ZM758.438 238.752V247.896C760.868 247.896 763.37 247.68 766.052 247.14L766.214 248.4C763.406 248.976 760.868 249.156 758.294 249.156H756.962V238.752H758.438ZM767.708 237.186H769.184V253.314H767.708V237.186ZM774.313 239.958V248.076C777.175 248.076 779.245 247.95 781.585 247.536L781.747 248.76C779.281 249.228 777.157 249.336 774.115 249.336H772.837V238.734H780.343V239.958H774.313ZM787.237 243.558V244.782H784.573V253.368H783.097V237.186H784.573V243.558H787.237ZM789.899 252.234C789.251 252.234 788.711 251.73 788.711 250.992C788.711 250.236 789.251 249.714 789.899 249.714C790.547 249.714 791.087 250.236 791.087 250.992C791.087 251.73 790.547 252.234 789.899 252.234Z" fill="#A1A1A1"/>
<path d="M286.786 570.234C283.51 570.234 281.044 567.696 281.044 563.412C281.044 559.146 283.546 556.554 286.894 556.554C288.496 556.554 289.756 557.346 290.512 558.192L289.612 559.272C288.928 558.534 288.046 558.012 286.912 558.012C284.41 558.012 282.754 560.064 282.754 563.358C282.754 566.688 284.338 568.776 286.858 568.776C288.118 568.776 289.072 568.218 289.918 567.3L290.836 568.344C289.792 569.55 288.496 570.234 286.786 570.234ZM291.317 573.222L296.717 555.708H297.905L292.523 573.222H291.317ZM304.4 570.234C301.124 570.234 298.658 567.696 298.658 563.412C298.658 559.146 301.16 556.554 304.508 556.554C306.11 556.554 307.37 557.346 308.126 558.192L307.226 559.272C306.542 558.534 305.66 558.012 304.526 558.012C302.024 558.012 300.368 560.064 300.368 563.358C300.368 566.688 301.952 568.776 304.472 568.776C305.732 568.776 306.686 568.218 307.532 567.3L308.45 568.344C307.406 569.55 306.11 570.234 304.4 570.234ZM313.071 567.912V563.97H309.417V562.746H313.071V558.804H314.385V562.746H318.039V563.97H314.385V567.912H313.071ZM322.695 567.912V563.97H319.041V562.746H322.695V558.804H324.009V562.746H327.663V563.97H324.009V567.912H322.695ZM329.331 573.42L328.935 572.448C330.069 571.944 330.735 571.062 330.735 570C330.663 570.018 330.609 570.018 330.537 570.018C329.907 570.018 329.331 569.622 329.331 568.866C329.331 568.164 329.907 567.714 330.573 567.714C331.437 567.714 331.959 568.452 331.959 569.658C331.959 571.386 330.951 572.736 329.331 573.42ZM340.562 570.234C338.888 570.234 337.7 569.514 336.926 568.146L338.114 567.3C338.708 568.344 339.446 568.776 340.4 568.776C341.822 568.776 342.524 567.966 342.524 565.968V556.788H344.18V566.13C344.18 568.398 343.136 570.234 340.562 570.234ZM349.493 570.234C347.855 570.234 346.631 569.226 346.631 567.462C346.631 565.338 348.485 564.276 352.643 563.808C352.643 562.548 352.229 561.342 350.627 561.342C349.493 561.342 348.467 561.864 347.693 562.386L347.045 561.252C347.945 560.676 349.331 559.974 350.897 559.974C353.273 559.974 354.281 561.576 354.281 563.988V570H352.931L352.787 568.83H352.733C351.797 569.604 350.699 570.234 349.493 570.234ZM349.961 568.92C350.915 568.92 351.689 568.47 352.643 567.624V564.888C349.349 565.284 348.233 566.094 348.233 567.354C348.233 568.47 348.989 568.92 349.961 568.92ZM359.149 570L355.621 560.226H357.331L359.167 565.788C359.473 566.742 359.779 567.75 360.085 568.668H360.157C360.463 567.75 360.769 566.742 361.057 565.788L362.911 560.226H364.531L361.057 570H359.149ZM367.915 570.234C366.277 570.234 365.053 569.226 365.053 567.462C365.053 565.338 366.907 564.276 371.065 563.808C371.065 562.548 370.651 561.342 369.049 561.342C367.915 561.342 366.889 561.864 366.115 562.386L365.467 561.252C366.367 560.676 367.753 559.974 369.319 559.974C371.695 559.974 372.703 561.576 372.703 563.988V570H371.353L371.209 568.83H371.155C370.219 569.604 369.121 570.234 367.915 570.234ZM368.383 568.92C369.337 568.92 370.111 568.47 371.065 567.624V564.888C367.771 565.284 366.655 566.094 366.655 567.354C366.655 568.47 367.411 568.92 368.383 568.92ZM375.16 573.42L374.764 572.448C375.898 571.944 376.564 571.062 376.564 570C376.492 570.018 376.438 570.018 376.366 570.018C375.736 570.018 375.16 569.622 375.16 568.866C375.16 568.164 375.736 567.714 376.402 567.714C377.266 567.714 377.788 568.452 377.788 569.658C377.788 571.386 376.78 572.736 375.16 573.42ZM383.781 570V555.672H385.419V559.596L385.365 561.612C386.265 560.712 387.273 559.974 388.605 559.974C390.657 559.974 391.593 561.306 391.593 563.808V570H389.955V564.024C389.955 562.188 389.397 561.414 388.101 561.414C387.093 561.414 386.409 561.918 385.419 562.908V570H383.781ZM397.432 570.234C395.344 570.234 394.642 568.92 394.642 566.976V561.558H393.184V560.316L394.714 560.226L394.912 557.472H396.28V560.226H398.926V561.558H396.28V567.012C396.28 568.218 396.658 568.902 397.792 568.902C398.134 568.902 398.584 568.776 398.908 568.65L399.232 569.874C398.674 570.054 398.026 570.234 397.432 570.234ZM400.779 570V560.226H402.129L402.273 561.648H402.327C403.173 560.712 404.199 559.974 405.369 559.974C406.863 559.974 407.673 560.694 408.069 561.846C409.077 560.748 410.103 559.974 411.291 559.974C413.307 559.974 414.261 561.306 414.261 563.808V570H412.623V564.024C412.623 562.188 412.047 561.414 410.805 561.414C410.049 561.414 409.257 561.9 408.339 562.908V570H406.701V564.024C406.701 562.188 406.125 561.414 404.883 561.414C404.145 561.414 403.317 561.9 402.417 562.908V570H400.779ZM418.812 570.234C417.588 570.234 417.084 569.442 417.084 568.056V555.672H418.722V568.164C418.722 568.668 418.938 568.866 419.19 568.866C419.28 568.866 419.352 568.866 419.532 568.83L419.766 570.09C419.532 570.18 419.262 570.234 418.812 570.234ZM421.55 573.42L421.154 572.448C422.288 571.944 422.954 571.062 422.954 570C422.882 570.018 422.828 570.018 422.756 570.018C422.126 570.018 421.55 569.622 421.55 568.866C421.55 568.164 422.126 567.714 422.792 567.714C423.656 567.714 424.178 568.452 424.178 569.658C424.178 571.386 423.17 572.736 421.55 573.42ZM434.023 570.234C431.431 570.234 429.433 568.362 429.433 565.122C429.433 561.864 431.647 559.974 434.149 559.974C435.427 559.974 436.309 560.514 437.011 561.126L436.165 562.206C435.589 561.702 434.995 561.342 434.221 561.342C432.439 561.342 431.143 562.872 431.143 565.122C431.143 567.372 432.367 568.866 434.167 568.866C435.067 568.866 435.859 568.452 436.471 567.894L437.191 568.992C436.309 569.784 435.193 570.234 434.023 570.234ZM441.526 570.234C440.14 570.234 438.808 569.658 437.872 568.884L438.682 567.804C439.528 568.488 440.41 568.956 441.58 568.956C442.876 568.956 443.506 568.272 443.506 567.426C443.506 566.418 442.354 565.986 441.274 565.572C439.906 565.068 438.412 564.402 438.412 562.746C438.412 561.198 439.672 559.974 441.796 559.974C443.002 559.974 444.064 560.478 444.82 561.072L444.028 562.134C443.362 561.63 442.678 561.27 441.814 561.27C440.572 561.27 439.996 561.918 439.996 562.674C439.996 563.61 441.004 563.952 442.102 564.366C443.524 564.906 445.09 565.482 445.09 567.336C445.09 568.92 443.83 570.234 441.526 570.234ZM449.586 570.234C448.2 570.234 446.868 569.658 445.932 568.884L446.742 567.804C447.588 568.488 448.47 568.956 449.64 568.956C450.936 568.956 451.566 568.272 451.566 567.426C451.566 566.418 450.414 565.986 449.334 565.572C447.966 565.068 446.472 564.402 446.472 562.746C446.472 561.198 447.732 559.974 449.856 559.974C451.062 559.974 452.124 560.478 452.88 561.072L452.088 562.134C451.422 561.63 450.738 561.27 449.874 561.27C448.632 561.27 448.056 561.918 448.056 562.674C448.056 563.61 449.064 563.952 450.162 564.366C451.584 564.906 453.15 565.482 453.15 567.336C453.15 568.92 451.89 570.234 449.586 570.234ZM454.784 573.42L454.388 572.448C455.522 571.944 456.188 571.062 456.188 570C456.116 570.018 456.062 570.018 455.99 570.018C455.36 570.018 454.784 569.622 454.784 568.866C454.784 568.164 455.36 567.714 456.026 567.714C456.89 567.714 457.412 568.452 457.412 569.658C457.412 571.386 456.404 572.736 454.784 573.42ZM466.015 570.234C464.341 570.234 463.153 569.514 462.379 568.146L463.567 567.3C464.161 568.344 464.899 568.776 465.853 568.776C467.275 568.776 467.977 567.966 467.977 565.968V556.788H469.633V566.13C469.633 568.398 468.589 570.234 466.015 570.234ZM474.945 570.234C473.307 570.234 472.083 569.226 472.083 567.462C472.083 565.338 473.937 564.276 478.095 563.808C478.095 562.548 477.681 561.342 476.079 561.342C474.945 561.342 473.919 561.864 473.145 562.386L472.497 561.252C473.397 560.676 474.783 559.974 476.349 559.974C478.725 559.974 479.733 561.576 479.733 563.988V570H478.383L478.239 568.83H478.185C477.249 569.604 476.151 570.234 474.945 570.234ZM475.413 568.92C476.367 568.92 477.141 568.47 478.095 567.624V564.888C474.801 565.284 473.685 566.094 473.685 567.354C473.685 568.47 474.441 568.92 475.413 568.92ZM484.601 570L481.073 560.226H482.783L484.619 565.788C484.925 566.742 485.231 567.75 485.537 568.668H485.609C485.915 567.75 486.221 566.742 486.509 565.788L488.363 560.226H489.983L486.509 570H484.601ZM493.368 570.234C491.73 570.234 490.506 569.226 490.506 567.462C490.506 565.338 492.36 564.276 496.518 563.808C496.518 562.548 496.104 561.342 494.502 561.342C493.368 561.342 492.342 561.864 491.568 562.386L490.92 561.252C491.82 560.676 493.206 559.974 494.772 559.974C497.148 559.974 498.156 561.576 498.156 563.988V570H496.806L496.662 568.83H496.608C495.672 569.604 494.574 570.234 493.368 570.234ZM493.836 568.92C494.79 568.92 495.564 568.47 496.518 567.624V564.888C493.224 565.284 492.108 566.094 492.108 567.354C492.108 568.47 492.864 568.92 493.836 568.92ZM504.734 570.234C502.862 570.234 501.26 569.478 500.108 568.272L501.116 567.138C502.052 568.128 503.384 568.776 504.752 568.776C506.48 568.776 507.524 567.912 507.524 566.616C507.524 565.266 506.57 564.834 505.328 564.276L503.42 563.448C502.196 562.926 500.738 561.99 500.738 560.064C500.738 558.03 502.502 556.554 504.896 556.554C506.462 556.554 507.848 557.22 508.784 558.192L507.902 559.254C507.092 558.498 506.12 558.012 504.896 558.012C503.402 558.012 502.43 558.768 502.43 559.956C502.43 561.234 503.582 561.72 504.608 562.152L506.498 562.962C508.028 563.628 509.216 564.528 509.216 566.49C509.216 568.578 507.488 570.234 504.734 570.234ZM515.15 570.234C512.558 570.234 510.56 568.362 510.56 565.122C510.56 561.864 512.774 559.974 515.276 559.974C516.554 559.974 517.436 560.514 518.138 561.126L517.292 562.206C516.716 561.702 516.122 561.342 515.348 561.342C513.566 561.342 512.27 562.872 512.27 565.122C512.27 567.372 513.494 568.866 515.294 568.866C516.194 568.866 516.986 568.452 517.598 567.894L518.318 568.992C517.436 569.784 516.32 570.234 515.15 570.234ZM520.096 570V560.226H521.446L521.59 562.008H521.644C522.328 560.766 523.318 559.974 524.416 559.974C524.848 559.974 525.154 560.028 525.46 560.19L525.154 561.63C524.83 561.504 524.596 561.468 524.2 561.468C523.39 561.468 522.382 562.044 521.734 563.718V570H520.096ZM526.715 570V560.226H528.353V570H526.715ZM527.543 558.21C526.895 558.21 526.445 557.778 526.445 557.112C526.445 556.482 526.895 556.05 527.543 556.05C528.191 556.05 528.641 556.482 528.641 557.112C528.641 557.778 528.191 558.21 527.543 558.21ZM531.312 574.122V560.226H532.662L532.806 561.342H532.86C533.742 560.622 534.84 559.974 535.974 559.974C538.494 559.974 539.862 561.954 539.862 564.96C539.862 568.308 537.864 570.234 535.614 570.234C534.732 570.234 533.796 569.82 532.914 569.1L532.95 570.81V574.122H531.312ZM535.344 568.866C536.964 568.866 538.152 567.408 538.152 564.978C538.152 562.818 537.432 561.36 535.578 561.36C534.75 561.36 533.904 561.828 532.95 562.71V567.84C533.832 568.596 534.696 568.866 535.344 568.866ZM544.858 570.234C542.77 570.234 542.068 568.92 542.068 566.976V561.558H540.61V560.316L542.14 560.226L542.338 557.472H543.706V560.226H546.352V561.558H543.706V567.012C543.706 568.218 544.084 568.902 545.218 568.902C545.56 568.902 546.01 568.776 546.334 568.65L546.658 569.874C546.1 570.054 545.452 570.234 544.858 570.234ZM548.022 573.42L547.626 572.448C548.76 571.944 549.426 571.062 549.426 570C549.354 570.018 549.3 570.018 549.228 570.018C548.598 570.018 548.022 569.622 548.022 568.866C548.022 568.164 548.598 567.714 549.264 567.714C550.128 567.714 550.65 568.452 550.65 569.658C550.65 571.386 549.642 572.736 548.022 573.42ZM561.971 570.234C558.515 570.234 556.031 567.696 556.031 563.412C556.031 559.146 558.587 556.554 562.079 556.554C563.915 556.554 565.121 557.382 565.877 558.192L564.977 559.272C564.311 558.57 563.465 558.012 562.115 558.012C559.469 558.012 557.741 560.064 557.741 563.358C557.741 566.688 559.307 568.776 562.151 568.776C563.087 568.776 564.005 568.488 564.527 568.002V564.546H561.737V563.16H566.057V568.704C565.211 569.586 563.753 570.234 561.971 570.234ZM568.693 570V560.226H570.331V570H568.693ZM569.521 558.21C568.873 558.21 568.423 557.778 568.423 557.112C568.423 556.482 568.873 556.05 569.521 556.05C570.169 556.05 570.619 556.482 570.619 557.112C570.619 557.778 570.169 558.21 569.521 558.21ZM576.368 570.234C574.28 570.234 573.578 568.92 573.578 566.976V561.558H572.12V560.316L573.65 560.226L573.848 557.472H575.216V560.226H577.862V561.558H575.216V567.012C575.216 568.218 575.594 568.902 576.728 568.902C577.07 568.902 577.52 568.776 577.844 568.65L578.168 569.874C577.61 570.054 576.962 570.234 576.368 570.234ZM585.523 559.65C585.523 560.37 585.757 561.18 586.153 561.99C587.359 561.18 588.403 560.37 588.403 559.2C588.403 558.426 588.043 557.724 587.161 557.724C586.153 557.724 585.523 558.552 585.523 559.65ZM586.387 570.234C583.993 570.234 582.373 568.704 582.373 566.58C582.373 564.798 583.615 563.7 584.965 562.764C584.425 561.702 584.101 560.64 584.101 559.686C584.101 557.922 585.325 556.554 587.143 556.554C588.781 556.554 589.735 557.634 589.735 559.164C589.735 560.892 588.241 562.008 586.765 563.07C587.629 564.438 588.853 565.77 590.113 566.796C590.941 565.716 591.571 564.402 591.985 562.89H593.497C592.993 564.636 592.255 566.238 591.193 567.606C592.075 568.236 592.921 568.668 593.659 568.866L593.227 570.234C592.291 569.982 591.265 569.478 590.203 568.722C589.195 569.64 587.953 570.234 586.387 570.234ZM583.975 566.49C583.975 567.948 585.109 568.92 586.585 568.92C587.485 568.92 588.349 568.506 589.105 567.858C587.809 566.724 586.567 565.338 585.631 563.916C584.695 564.672 583.975 565.464 583.975 566.49ZM607.291 556.806V557.994H598.255V556.806H602.107V555.024H603.583V556.806H607.291ZM600.559 561.702C600.559 562.782 601.477 563.484 602.827 563.484C604.177 563.484 605.095 562.782 605.095 561.702C605.095 560.622 604.177 559.92 602.827 559.92C601.477 559.92 600.559 560.622 600.559 561.702ZM606.481 561.702C606.481 563.448 604.969 564.6 602.827 564.6C600.667 564.6 599.173 563.448 599.173 561.702C599.173 559.956 600.667 558.804 602.827 558.804C604.969 558.804 606.481 559.956 606.481 561.702ZM610.063 569.946V568.236H602.521V569.946H610.063ZM610.063 567.102V565.446H611.521V571.116H601.063V565.446H602.521V567.102H610.063ZM610.027 555.204H611.521V564.726H610.027V563.304H607.291V562.098H610.027V560.154H607.309V558.966H610.027V555.204ZM626.243 569.928V567.84H618.845V569.928H626.243ZM626.243 566.688V564.636H627.719V571.116H617.387V564.636H618.845V566.688H626.243ZM618.827 562.188C620.429 562.188 621.581 561.144 621.581 559.668C621.581 558.192 620.429 557.166 618.827 557.166C617.225 557.166 616.073 558.192 616.073 559.668C616.073 561.144 617.225 562.188 618.827 562.188ZM626.225 555.204H627.719V563.862H626.225V560.244H622.949C622.661 562.152 621.041 563.412 618.827 563.412C616.415 563.412 614.669 561.9 614.669 559.668C614.669 557.454 616.415 555.942 618.827 555.942C621.005 555.942 622.625 557.166 622.931 559.038H626.225V555.204ZM647.169 560.262V561.342H636.189V555.51H647.079V556.572H637.665V557.85H646.647V558.876H637.665V560.262H647.169ZM648.861 563.628H642.309V565.014H647.007V568.524H637.521V570.054H647.493V571.152H636.081V567.48H645.549V566.094H636.027V565.014H640.833V563.628H634.299V562.512H648.861V563.628ZM650.876 573.42L650.48 572.448C651.614 571.944 652.28 571.062 652.28 570C652.208 570.018 652.154 570.018 652.082 570.018C651.452 570.018 650.876 569.622 650.876 568.866C650.876 568.164 651.452 567.714 652.118 567.714C652.982 567.714 653.504 568.452 653.504 569.658C653.504 571.386 652.496 572.736 650.876 573.42ZM659.641 570V556.788H667.255V558.21H661.315V562.674H666.355V564.078H661.315V570H659.641ZM669.069 570V560.226H670.707V570H669.069ZM669.897 558.21C669.249 558.21 668.799 557.778 668.799 557.112C668.799 556.482 669.249 556.05 669.897 556.05C670.545 556.05 670.995 556.482 670.995 557.112C670.995 557.778 670.545 558.21 669.897 558.21ZM676.96 574.5C674.566 574.5 672.928 573.564 672.928 571.872C672.928 571.044 673.45 570.252 674.368 569.658V569.586C673.846 569.28 673.468 568.758 673.468 567.984C673.468 567.174 674.062 566.526 674.566 566.166V566.094C673.918 565.572 673.288 564.636 673.288 563.466C673.288 561.324 674.98 559.974 676.96 559.974C677.5 559.974 677.986 560.1 678.328 560.226H681.73V561.486H679.732C680.2 561.936 680.524 562.656 680.524 563.502C680.524 565.59 678.94 566.904 676.96 566.904C676.474 566.904 675.934 566.778 675.502 566.562C675.142 566.868 674.872 567.192 674.872 567.732C674.872 568.362 675.268 568.794 676.582 568.794H678.49C680.758 568.794 681.91 569.514 681.91 571.116C681.91 572.934 679.984 574.5 676.96 574.5ZM676.96 565.788C678.076 565.788 679.048 564.888 679.048 563.466C679.048 562.044 678.112 561.18 676.96 561.18C675.808 561.18 674.872 562.026 674.872 563.466C674.872 564.888 675.826 565.788 676.96 565.788ZM677.194 573.384C679.066 573.384 680.308 572.394 680.308 571.368C680.308 570.468 679.606 570.162 678.31 570.162H676.618C676.258 570.162 675.79 570.108 675.358 570C674.656 570.504 674.368 571.08 674.368 571.656C674.368 572.7 675.43 573.384 677.194 573.384ZM683.448 570V560.226H684.798L684.942 561.648H684.996C685.842 560.712 686.868 559.974 688.038 559.974C689.532 559.974 690.342 560.694 690.738 561.846C691.746 560.748 692.772 559.974 693.96 559.974C695.976 559.974 696.93 561.306 696.93 563.808V570H695.292V564.024C695.292 562.188 694.716 561.414 693.474 561.414C692.718 561.414 691.926 561.9 691.008 562.908V570H689.37V564.024C689.37 562.188 688.794 561.414 687.552 561.414C686.814 561.414 685.986 561.9 685.086 562.908V570H683.448ZM702.002 570.234C700.364 570.234 699.14 569.226 699.14 567.462C699.14 565.338 700.994 564.276 705.152 563.808C705.152 562.548 704.738 561.342 703.136 561.342C702.002 561.342 700.976 561.864 700.202 562.386L699.554 561.252C700.454 560.676 701.84 559.974 703.406 559.974C705.782 559.974 706.79 561.576 706.79 563.988V570H705.44L705.296 568.83H705.242C704.306 569.604 703.208 570.234 702.002 570.234ZM702.47 568.92C703.424 568.92 704.198 568.47 705.152 567.624V564.888C701.858 565.284 700.742 566.094 700.742 567.354C700.742 568.47 701.498 568.92 702.47 568.92Z" fill="#A1A1A1"/>
<path d="M1151.65 369.458V366.794H1147.08V369.458H1151.65ZM1153.09 363.212V370.646H1145.62V363.212H1147.08V365.642H1151.65V363.212H1153.09ZM1152.35 377.162C1154.73 377.162 1156.19 376.478 1156.19 375.326C1156.19 374.174 1154.73 373.508 1152.35 373.508C1149.94 373.508 1148.5 374.174 1148.5 375.326C1148.5 376.478 1149.94 377.162 1152.35 377.162ZM1152.35 372.32C1155.63 372.32 1157.66 373.418 1157.66 375.326C1157.66 377.234 1155.63 378.332 1152.35 378.332C1149.06 378.332 1147.02 377.234 1147.02 375.326C1147.02 373.418 1149.06 372.32 1152.35 372.32ZM1157.48 366.254H1159.88V367.478H1157.48V371.906H1156.01V362.186H1157.48V366.254ZM1170.73 363.896V365.084H1161.21V363.896H1165.22V362.096H1166.7V363.896H1170.73ZM1163.51 368.828C1163.51 369.908 1164.48 370.61 1165.96 370.61C1167.43 370.61 1168.42 369.908 1168.42 368.828C1168.42 367.766 1167.43 367.064 1165.96 367.064C1164.48 367.064 1163.51 367.766 1163.51 368.828ZM1169.83 368.828C1169.83 370.61 1168.26 371.744 1165.96 371.744C1163.67 371.744 1162.11 370.61 1162.11 368.828C1162.11 367.064 1163.67 365.912 1165.96 365.912C1168.26 365.912 1169.83 367.064 1169.83 368.828ZM1163.2 374.372V373.166H1173.68V378.35H1172.2V374.372H1163.2ZM1176.07 366.65V367.874H1173.68V372.284H1172.2V362.204H1173.68V366.65H1176.07ZM1190.3 370.61V364.994H1186.29V370.61H1190.3ZM1184.81 370.61V364.994H1182.31V363.806H1194.28V364.994H1191.78V370.61H1194.25V371.816H1182.35V370.61H1184.81ZM1181.02 375.038H1195.65V376.262H1181.02V375.038ZM1205.26 375.128H1211.87V376.334H1197.2V375.128H1203.77V372.086H1199.03V367.1H1208.61V364.58H1199V363.374H1210.05V368.288H1200.49V370.898H1210.43V372.086H1205.26V375.128ZM1220.07 366.344H1222.5V362.546H1223.91V371.942H1222.5V367.55H1220.07V366.344ZM1221.33 370.16L1220.6 371.294C1219.12 370.646 1218.06 369.476 1217.5 368.072C1216.94 369.638 1215.83 370.97 1214.26 371.672L1213.49 370.538C1215.57 369.638 1216.76 367.55 1216.76 365.624V364.706H1213.79V363.5H1220.96V364.706H1218.18V365.606C1218.18 367.388 1219.32 369.296 1221.33 370.16ZM1216.19 373.976V372.788H1227.04V378.35H1225.56V373.976H1216.19ZM1225.62 362.204H1227.04V372.068H1225.62V362.204ZM1242.57 370.898V372.086H1231.48V363.59H1242.41V364.778H1232.98V367.172H1242.05V368.342H1232.98V370.898H1242.57ZM1229.59 375.038H1244.25V376.244H1229.59V375.038ZM1251.05 363.374C1253.57 363.374 1255.37 364.904 1255.37 367.172C1255.37 369.422 1253.57 370.97 1251.05 370.97C1248.55 370.97 1246.73 369.422 1246.73 367.172C1246.73 364.904 1248.55 363.374 1251.05 363.374ZM1251.05 364.634C1249.39 364.634 1248.17 365.66 1248.17 367.172C1248.17 368.666 1249.39 369.71 1251.05 369.71C1252.72 369.71 1253.93 368.666 1253.93 367.172C1253.93 365.66 1252.72 364.634 1251.05 364.634ZM1257.49 362.186H1258.97V378.368H1257.49V362.186ZM1246.1 374.822L1245.92 373.58C1248.85 373.58 1252.9 373.562 1256.43 373.022L1256.56 374.12C1252.92 374.786 1249.01 374.822 1246.1 374.822ZM1267.76 364.994V373.04H1272.28V364.994H1267.76ZM1266.32 374.228V363.806H1273.72V374.228H1266.32ZM1280.76 368.63V369.872H1278.09V378.332H1276.62V362.204H1278.09V368.63H1280.76ZM1287.63 365.066V367.118C1287.63 369.854 1289.58 372.644 1291.95 373.652L1291.13 374.84C1289.25 373.976 1287.67 372.122 1286.9 369.908C1286.16 372.266 1284.57 374.3 1282.74 375.236L1281.87 374.048C1284.2 372.95 1286.16 369.908 1286.16 367.118V365.066H1282.41V363.842H1291.43V365.066H1287.63ZM1293.61 362.204H1295.09V378.332H1293.61V362.204ZM1304.71 369.35V364.562H1300.18V369.35H1304.71ZM1306.15 363.392V370.538H1298.74V363.392H1306.15ZM1300.11 373.814V372.608H1310.6V378.35H1309.12V373.814H1300.11ZM1312.99 366.38V367.604H1310.6V371.762H1309.12V362.204H1310.6V366.38H1312.99ZM1319.38 370.034L1318.82 368.864C1321.63 368.45 1324.42 366.596 1324.42 364.472V364.382H1319.32V363.194H1331.11V364.382H1326.05V364.472C1326.05 366.596 1328.84 368.45 1331.69 368.864L1331.11 370.034C1328.61 369.602 1326.22 368.252 1325.24 366.344C1324.25 368.252 1321.88 369.602 1319.38 370.034ZM1332.53 371.384L1332.55 372.59H1325.95V378.332H1324.47V372.59H1317.95V371.384H1332.53ZM1339.89 364.994V373.04H1344.41V364.994H1339.89ZM1338.45 374.228V363.806H1345.85V374.228H1338.45ZM1352.88 368.63V369.872H1350.22V378.332H1348.74V362.204H1350.22V368.63H1352.88ZM1359.76 365.066V367.118C1359.76 369.854 1361.7 372.644 1364.08 373.652L1363.25 374.84C1361.38 373.976 1359.79 372.122 1359.02 369.908C1358.28 372.266 1356.7 374.3 1354.86 375.236L1354 374.048C1356.32 372.95 1358.28 369.908 1358.28 367.118V365.066H1354.54V363.842H1363.56V365.066H1359.76ZM1365.73 362.204H1367.21V378.332H1365.73V362.204ZM1376.84 369.35V364.562H1372.3V369.35H1376.84ZM1378.28 363.392V370.538H1370.86V363.392H1378.28ZM1372.23 373.814V372.608H1382.73V378.35H1381.25V373.814H1372.23ZM1385.12 366.38V367.604H1382.73V371.762H1381.25V362.204H1382.73V366.38H1385.12ZM1399.44 367.604L1399.64 368.846C1396.92 369.386 1394.53 369.548 1392.11 369.548H1390.85V362.888H1392.31V368.324C1394.58 368.306 1396.88 368.126 1399.44 367.604ZM1393.84 375.074V376.928H1403.18V378.116H1392.38V373.94H1401.13V372.284H1392.33V371.096H1402.59V375.074H1393.84ZM1402.59 365.534H1404.98V366.758H1402.59V370.322H1401.11V362.186H1402.59V365.534ZM1409.91 373.418C1411.17 373.418 1412 371.78 1412 369.134C1412 366.542 1411.17 364.904 1409.91 364.904C1408.62 364.904 1407.81 366.542 1407.81 369.134C1407.81 371.78 1408.62 373.418 1409.91 373.418ZM1415.37 368.468V362.546H1416.77V377.54H1415.37V369.674H1413.33C1413.21 372.842 1411.89 374.786 1409.91 374.786C1407.81 374.786 1406.46 372.626 1406.46 369.134C1406.46 365.696 1407.81 363.536 1409.91 363.536C1411.86 363.536 1413.15 365.426 1413.33 368.468H1415.37ZM1418.57 362.186H1419.98V378.332H1418.57V362.186ZM1435.4 367.046V368.252H1424.42V362.78H1425.9V367.046H1435.4ZM1425.79 373.22V376.73H1435.49V377.936H1424.31V373.22H1425.79ZM1422.44 370.412H1437.07V371.6H1422.44V370.412ZM1456.11 366.83L1455.61 367.946C1453.05 367.604 1450.64 366.47 1449.63 364.724C1448.6 366.47 1446.17 367.604 1443.62 367.946L1443.11 366.83C1446.05 366.506 1448.87 364.886 1448.87 362.906V362.294H1450.39V362.906C1450.39 364.886 1453.19 366.506 1456.11 366.83ZM1445.56 375.362V377H1455.53V378.152H1444.12V374.282H1453.59V372.77H1444.07V371.654H1455.05V375.362H1445.56ZM1442.3 368.972H1456.92V370.16H1442.3V368.972ZM1470.33 374.156V368.558H1465.78V367.388H1470.33V365.48H1465.78V364.292H1470.33V362.204H1471.82V374.156H1470.33ZM1467.67 369.944L1467.83 371.168C1465.24 371.636 1463.06 371.762 1460.68 371.762H1459.46V363.356H1460.93V370.52C1463.15 370.502 1465.25 370.376 1467.67 369.944ZM1462.95 376.766H1472.24V377.972H1461.47V373.13H1462.95V376.766ZM1484.96 364.166V365.354H1475.15V364.166H1479.33V362.186H1480.8V364.166H1484.96ZM1477.58 369.26C1477.58 370.376 1478.59 371.096 1480.07 371.096C1481.52 371.096 1482.53 370.376 1482.53 369.26C1482.53 368.126 1481.52 367.406 1480.07 367.406C1478.59 367.406 1477.58 368.126 1477.58 369.26ZM1480.8 372.212V373.904C1482.33 373.832 1483.9 373.724 1485.38 373.526L1485.48 374.624C1481.88 375.218 1478 375.272 1475.03 375.272L1474.81 374.03C1476.18 374.03 1477.73 374.012 1479.33 373.958V372.23C1477.42 371.996 1476.18 370.88 1476.18 369.26C1476.18 367.442 1477.76 366.272 1480.07 366.272C1482.37 366.272 1483.94 367.442 1483.94 369.26C1483.94 370.862 1482.71 371.978 1480.8 372.212ZM1486.4 362.186H1487.88V378.332H1486.4V362.186ZM1491.78 363.914H1499.16C1499.16 368.504 1497.06 372.662 1491.84 375.272L1491.03 374.12C1495.15 372.05 1497.36 368.954 1497.7 365.138H1491.78V363.914ZM1505.93 368.738V369.962H1503.34V378.332H1501.86V362.186H1503.34V368.738H1505.93ZM1512.44 366.416C1512.44 367.856 1513.59 368.882 1515.19 368.882C1516.78 368.882 1517.93 367.856 1517.93 366.416C1517.93 364.958 1516.78 363.95 1515.19 363.95C1513.59 363.95 1512.44 364.958 1512.44 366.416ZM1522.59 365.3H1519.17C1519.28 365.642 1519.33 366.02 1519.33 366.416C1519.33 366.776 1519.28 367.136 1519.19 367.46H1522.59V365.3ZM1522.59 368.63H1518.58C1517.82 369.53 1516.63 370.088 1515.19 370.07C1512.78 370.07 1511.03 368.558 1511.03 366.416C1511.03 364.238 1512.78 362.744 1515.19 362.744C1516.6 362.744 1517.78 363.266 1518.52 364.13H1522.59V362.186H1524.07V370.466H1522.59V368.63ZM1515.16 376.946H1524.68V378.116H1513.7V374.066H1522.61V372.464H1513.66V371.294H1524.07V375.182H1515.16V376.946ZM1536.79 369.008L1536.95 370.196C1534.31 370.628 1532.11 370.718 1529.12 370.718H1527.83V366.2H1533.66V364.166H1527.77V362.978H1535.12V367.334H1529.27V369.512C1532.13 369.512 1534.23 369.422 1536.79 369.008ZM1538.77 376.91V374.93H1531.23V376.91H1538.77ZM1538.77 373.778V371.87H1540.23V378.116H1529.77V371.87H1531.23V373.778H1538.77ZM1538.75 362.204H1540.23V371.06H1538.75V362.204ZM1545.66 363.752V372.896C1548.09 372.896 1550.6 372.68 1553.28 372.14L1553.44 373.4C1550.63 373.976 1548.09 374.156 1545.52 374.156H1544.19V363.752H1545.66ZM1554.93 362.186H1556.41V378.314H1554.93V362.186ZM1561.54 364.958V373.076C1564.4 373.076 1566.47 372.95 1568.81 372.536L1568.97 373.76C1566.51 374.228 1564.38 374.336 1561.34 374.336H1560.06V363.734H1567.57V364.958H1561.54ZM1574.46 368.558V369.782H1571.8V378.368H1570.32V362.186H1571.8V368.558H1574.46ZM1577.12 377.234C1576.48 377.234 1575.94 376.73 1575.94 375.992C1575.94 375.236 1576.48 374.714 1577.12 374.714C1577.77 374.714 1578.31 375.236 1578.31 375.992C1578.31 376.73 1577.77 377.234 1577.12 377.234ZM1147.24 400.11C1147.24 401.352 1148.3 402.162 1149.85 402.162C1151.36 402.162 1152.44 401.352 1152.44 400.11C1152.44 398.886 1151.36 398.058 1149.85 398.058C1148.3 398.058 1147.24 398.886 1147.24 400.11ZM1155 404.412L1155.09 405.492C1151.72 406.104 1147.89 406.158 1145.13 406.158L1144.94 404.952C1146.18 404.952 1147.62 404.934 1149.13 404.88V403.26C1147.17 403.026 1145.87 401.838 1145.87 400.11C1145.87 398.22 1147.49 396.942 1149.85 396.942C1152.19 396.942 1153.83 398.22 1153.83 400.11C1153.83 401.82 1152.53 403.008 1150.61 403.242V404.826C1152.1 404.736 1153.59 404.628 1155 404.412ZM1148.73 407.508V410.748H1158.04V411.954H1147.26V407.508H1148.73ZM1157.46 401.658H1159.82V402.882H1157.46V408.552H1155.99V396.204H1157.46V401.658ZM1172.96 405.744V400.83H1169.45V399.624H1172.96V396.204H1174.45V405.744H1172.96ZM1170.62 403.836L1169.83 404.988C1168.06 404.322 1166.7 403.044 1165.99 401.37C1165.31 403.278 1163.85 404.736 1161.91 405.474L1161.13 404.268C1163.62 403.386 1165.22 401.226 1165.22 398.76V397.104H1166.7V398.706C1166.7 401.01 1168.26 403.008 1170.62 403.836ZM1169.13 411.144C1171.56 411.144 1173.03 410.442 1173.03 409.272C1173.03 408.084 1171.56 407.382 1169.13 407.382C1166.7 407.382 1165.22 408.084 1165.22 409.272C1165.22 410.442 1166.7 411.144 1169.13 411.144ZM1169.13 406.23C1172.44 406.23 1174.51 407.328 1174.51 409.272C1174.51 411.198 1172.44 412.314 1169.13 412.314C1165.81 412.314 1163.74 411.198 1163.74 409.272C1163.74 407.328 1165.81 406.23 1169.13 406.23ZM1190.56 396.186V408.264H1189.09V396.186H1190.56ZM1187.79 404.574L1187.9 405.636C1184.48 406.122 1180.65 406.23 1177.64 406.23L1177.42 405.024C1178.83 405.024 1180.39 405.006 1181.98 404.952V402.666H1178.86V397.23H1186.55V398.436H1180.34V401.478H1186.66V402.666H1183.45V404.898C1184.95 404.826 1186.41 404.736 1187.79 404.574ZM1181.6 410.766H1191.1V411.972H1180.12V407.472H1181.6V410.766ZM1206.5 404.61V398.994H1202.49V404.61H1206.5ZM1201.01 404.61V398.994H1198.51V397.806H1210.48V398.994H1207.98V404.61H1210.45V405.816H1198.55V404.61H1201.01ZM1197.22 409.038H1211.85V410.262H1197.22V409.038ZM1221.46 409.128H1228.07V410.334H1213.4V409.128H1219.97V406.086H1215.23V401.1H1224.81V398.58H1215.2V397.374H1226.25V402.288H1216.69V404.898H1226.63V406.086H1221.46V409.128ZM1236.27 400.344H1238.7V396.546H1240.11V405.942H1238.7V401.55H1236.27V400.344ZM1237.53 404.16L1236.79 405.294C1235.32 404.646 1234.26 403.476 1233.7 402.072C1233.14 403.638 1232.02 404.97 1230.46 405.672L1229.68 404.538C1231.77 403.638 1232.96 401.55 1232.96 399.624V398.706H1229.99V397.5H1237.15V398.706H1234.38V399.606C1234.38 401.388 1235.52 403.296 1237.53 404.16ZM1232.38 407.976V406.788H1243.24V412.35H1241.76V407.976H1232.38ZM1241.82 396.204H1243.24V406.068H1241.82V396.204ZM1258.77 404.898V406.086H1247.68V397.59H1258.61V398.778H1249.18V401.172H1258.25V402.342H1249.18V404.898H1258.77ZM1245.79 409.038H1260.44V410.244H1245.79V409.038ZM1273.31 399.012V397.698H1263.85V396.654H1274.77V400.02H1265.34V401.406H1275.06V402.468H1263.88V399.012H1273.31ZM1265.25 409.56V411.054H1275.33V412.116H1263.79V408.534H1273.37V407.184H1263.76V406.122H1274.83V409.56H1265.25ZM1262.01 403.692H1276.64V404.808H1262.01V403.692ZM1288.57 402.72V400.308H1284V402.72H1288.57ZM1290.01 396.852V403.908H1282.54V396.852H1284V399.174H1288.57V396.852H1290.01ZM1285.64 409.218V410.982H1295V412.152H1284.2V408.12H1292.94V406.464H1284.14V405.294H1294.4V409.218H1285.64ZM1294.4 399.66H1296.8V400.884H1294.4V404.538H1292.93V396.204H1294.4V399.66ZM1303.6 405.33V409.164H1307.11V405.33H1303.6ZM1303.35 398.868V404.142H1307.36V398.868H1303.35ZM1308.58 409.164H1312.71V410.37H1298.05V409.164H1302.12V405.33H1299.4V404.142H1301.87V398.868H1299.37V397.68H1311.34V398.868H1308.84V404.142H1311.32V405.33H1308.58V409.164ZM1319 407.508C1320.48 407.508 1321.54 406.464 1321.54 405.024C1321.54 403.566 1320.48 402.522 1319 402.522C1317.55 402.522 1316.48 403.566 1316.48 405.024C1316.48 406.464 1317.55 407.508 1319 407.508ZM1319 401.298C1321.31 401.298 1322.95 402.846 1322.95 405.024C1322.95 407.22 1321.31 408.732 1319 408.732C1316.74 408.732 1315.1 407.22 1315.1 405.024C1315.1 402.846 1316.74 401.298 1319 401.298ZM1319.72 396.384V398.778H1323.7V399.966H1314.18V398.778H1318.25V396.384H1319.72ZM1329.35 402.828V404.07H1326.71V412.332H1325.23V396.204H1326.71V402.828H1329.35ZM1341.86 399.408V399.012H1332.02V397.806H1343.34V399.408C1343.34 401.406 1343.34 403.62 1342.73 406.878L1341.25 406.716C1341.86 403.62 1341.86 401.352 1341.86 399.408ZM1337.63 408.858H1345.09V410.064H1330.49V408.858H1336.16V403.08H1337.63V408.858ZM1347.06 414.42L1346.67 413.448C1347.8 412.944 1348.47 412.062 1348.47 411C1348.4 411.018 1348.34 411.018 1348.27 411.018C1347.64 411.018 1347.06 410.622 1347.06 409.866C1347.06 409.164 1347.64 408.714 1348.31 408.714C1349.17 408.714 1349.69 409.452 1349.69 410.658C1349.69 412.386 1348.68 413.736 1347.06 414.42ZM1368.77 400.83L1368.27 401.946C1365.71 401.604 1363.3 400.47 1362.29 398.724C1361.27 400.47 1358.84 401.604 1356.28 401.946L1355.78 400.83C1358.71 400.506 1361.54 398.886 1361.54 396.906V396.294H1363.05V396.906C1363.05 398.886 1365.86 400.506 1368.77 400.83ZM1358.22 409.362V411H1368.2V412.152H1356.78V408.282H1366.25V406.77H1356.73V405.654H1367.71V409.362H1358.22ZM1354.97 402.972H1369.58V404.16H1354.97V402.972ZM1372.14 397.932H1379.7C1379.7 402.594 1377.55 406.698 1372.19 409.326L1371.4 408.12C1375.74 406.05 1377.9 402.954 1378.2 399.12H1372.14V397.932ZM1382.95 396.186H1384.43V412.332H1382.95V396.186ZM1395.55 399.03V400.992C1395.55 403.386 1396.09 406.41 1398.05 407.886L1397.12 408.948C1395.93 408.03 1395.25 406.536 1394.85 404.88C1394.49 406.554 1393.82 408.138 1392.6 409.092C1391.38 408.12 1390.71 406.536 1390.35 404.862C1389.94 406.5 1389.25 408.012 1388.1 408.948L1387.16 407.886C1389.11 406.374 1389.65 403.278 1389.65 400.992V399.03H1387.67V397.824H1392.24V399.03H1391.05V400.992C1391.05 402.774 1391.29 405.366 1392.6 407.112C1393.9 405.402 1394.15 402.846 1394.15 400.992V399.03H1392.94V397.824H1397.41V399.03H1395.55ZM1402.41 402.594V403.836H1400.18V412.332H1398.7V396.204H1400.18V402.594H1402.41ZM1404.53 397.932H1412.09C1412.09 402.594 1409.95 406.698 1404.59 409.326L1403.79 408.12C1408.13 406.05 1410.29 402.954 1410.6 399.12H1404.53V397.932ZM1415.35 396.186H1416.83V412.332H1415.35V396.186ZM1429.17 411.234C1425.85 411.234 1423.53 408.588 1423.53 404.358C1423.53 400.128 1425.85 397.554 1429.17 397.554C1432.48 397.554 1434.8 400.128 1434.8 404.358C1434.8 408.588 1432.48 411.234 1429.17 411.234ZM1429.17 409.776C1431.52 409.776 1433.09 407.652 1433.09 404.358C1433.09 401.046 1431.52 399.012 1429.17 399.012C1426.79 399.012 1425.24 401.046 1425.24 404.358C1425.24 407.652 1426.79 409.776 1429.17 409.776ZM1437.29 411V397.788H1441.21C1443.89 397.788 1445.75 398.706 1445.75 401.028C1445.75 402.342 1445.05 403.494 1443.82 403.89V403.98C1445.39 404.286 1446.5 405.33 1446.5 407.13C1446.5 409.722 1444.45 411 1441.5 411H1437.29ZM1438.96 403.422H1440.92C1443.19 403.422 1444.11 402.576 1444.11 401.244C1444.11 399.696 1443.05 399.12 1441 399.12H1438.96V403.422ZM1438.96 409.668H1441.27C1443.53 409.668 1444.87 408.858 1444.87 407.076C1444.87 405.438 1443.57 404.682 1441.27 404.682H1438.96V409.668ZM1463.39 408.264V401.208H1459.86V399.984H1463.39V396.204H1464.88V408.264H1463.39ZM1461.01 404.448L1460.24 405.582C1458.45 404.88 1457.07 403.494 1456.38 401.748C1455.7 403.674 1454.26 405.204 1452.37 405.96L1451.6 404.79C1454.01 403.908 1455.63 401.622 1455.63 399.156V397.158H1457.1V399.21C1457.1 401.46 1458.69 403.584 1461.01 404.448ZM1455.97 410.766H1465.26V411.972H1454.49V406.932H1455.97V410.766ZM1473.14 407.094V402.828H1469.76V407.094H1473.14ZM1473.14 401.658V397.716H1474.53V408.282H1468.35V397.716H1469.76V401.658H1473.14ZM1480.09 396.186H1481.49V412.332H1480.09V403.782H1477.91V411.54H1476.52V396.546H1477.91V402.576H1480.09V396.186ZM1493.98 402.144L1494.18 403.368C1491.5 403.908 1489.07 404.106 1486.28 404.106H1484.96V397.122H1486.44V402.864C1489.09 402.864 1491.44 402.666 1493.98 402.144ZM1488.2 407.274V410.91H1495.76V407.274H1488.2ZM1486.76 412.098V406.104H1497.2V412.098H1486.76ZM1495.73 396.168H1497.2V405.33H1495.73V396.168ZM1513.04 400.434V401.622H1502.12V396.726H1512.88V397.914H1503.59V400.434H1513.04ZM1503.41 409.326V410.982H1513.39V412.134H1501.97V408.228H1511.44V406.68H1501.92V405.528H1512.9V409.326H1503.41ZM1500.17 402.918H1514.79V404.124H1500.17V402.918ZM1524.8 405.24L1523.32 405.096C1523.77 402.414 1523.81 400.452 1523.81 399.156H1517.09V397.95H1525.25V398.832C1525.25 400.128 1525.25 402.234 1524.8 405.24ZM1521.09 402.558V407.49C1522.85 407.418 1524.65 407.31 1526.29 407.112L1526.38 408.192C1523.03 408.732 1519.23 408.804 1516.37 408.804L1516.21 407.58C1517.24 407.58 1518.42 407.562 1519.63 407.526V402.558H1521.09ZM1531.33 402.936V404.178H1528.76V412.332H1527.28V396.186H1528.76V402.936H1531.33ZM1542.88 403.926V398.814H1538.34V403.926H1542.88ZM1544.32 397.626V405.096H1536.9V397.626H1544.32ZM1540.2 406.896V410.766H1549.48V411.972H1538.72V406.896H1540.2ZM1548.76 401.1H1551.14V402.342H1548.76V407.994H1547.29V396.168H1548.76V401.1ZM1554.54 397.752V407.004C1556.86 407.004 1559.26 406.806 1561.87 406.284L1562.05 407.508C1559.29 408.066 1556.83 408.246 1554.36 408.246H1553.08V397.752H1554.54ZM1567.45 402.63V403.854H1564.85V412.332H1563.38V396.186H1564.85V402.63H1567.45ZM1148.57 433.12V441.058C1149.45 441.04 1150.35 441.004 1151.27 440.968V433.12H1148.57ZM1152.71 433.12V440.878C1153.59 440.842 1154.48 440.752 1155.32 440.644L1155.41 441.724C1151.94 442.282 1148.05 442.318 1145.12 442.336L1144.95 441.094C1145.64 441.094 1146.38 441.094 1147.15 441.076V433.12H1145.35V431.932H1154.49V433.12H1152.71ZM1156.73 430.204H1158.2V446.332H1156.73V430.204ZM1174.09 437.926V439.132H1163.01V431.662H1173.93V432.886H1164.46V437.926H1174.09ZM1161.13 442.93H1175.79V444.154H1161.13V442.93ZM1182.95 437.548V434.938H1179.48V437.548H1182.95ZM1184.34 431.23V438.736H1178.07V431.23H1179.48V433.768H1182.95V431.23H1184.34ZM1180.12 442.048V440.86H1190.98V446.332H1189.5V442.048H1180.12ZM1189.56 430.204H1190.98V439.87H1189.56V435.604H1187.5V439.798H1186.1V430.492H1187.5V434.398H1189.56V430.204ZM1200.84 431.572C1198.19 431.572 1196.68 432.184 1196.68 433.264C1196.68 434.344 1198.19 434.956 1200.84 434.956C1203.49 434.956 1205 434.344 1205 433.264C1205 432.184 1203.49 431.572 1200.84 431.572ZM1200.84 436.054C1197.29 436.054 1195.17 435.082 1195.17 433.264C1195.17 431.446 1197.29 430.456 1200.84 430.456C1204.39 430.456 1206.51 431.446 1206.51 433.264C1206.51 435.082 1204.39 436.054 1200.84 436.054ZM1196.79 443.362V445H1206.76V446.152H1195.35V442.282H1204.82V440.842H1195.3V439.726H1206.28V443.362H1196.79ZM1193.53 437.152H1208.15V438.34H1193.53V437.152ZM1220.11 437.422V434.722H1215.54V437.422H1220.11ZM1221.55 431.086V438.61H1214.08V431.086H1215.54V433.552H1220.11V431.086H1221.55ZM1217.34 441.706V444.91H1226.36V446.098H1215.86V440.518H1226.07V441.706H1217.34ZM1225.94 434.074H1228.34V435.298H1225.94V439.636H1224.47V430.204H1225.94V434.074ZM1241.01 433.408V433.012H1231.16V431.806H1242.48V433.408C1242.48 435.406 1242.48 437.62 1241.87 440.878L1240.39 440.716C1241.01 437.62 1241.01 435.352 1241.01 433.408ZM1236.78 442.858H1244.23V444.064H1229.63V442.858H1235.3V437.08H1236.78V442.858ZM1261.28 434.362H1257.25C1256.21 436.954 1253.76 438.844 1250.29 439.852L1249.69 438.682C1253.54 437.53 1255.94 435.388 1256.21 432.598H1250.52V431.41H1257.81C1257.81 432.004 1257.74 432.598 1257.63 433.156H1261.28V430.204H1262.78V439.852H1261.28V437.728H1257.05V436.522H1261.28V434.362ZM1257.5 445.108C1259.88 445.108 1261.39 444.37 1261.39 443.146C1261.39 441.94 1259.88 441.202 1257.5 441.202C1255.13 441.202 1253.62 441.94 1253.62 443.146C1253.62 444.37 1255.13 445.108 1257.5 445.108ZM1257.5 440.032C1260.76 440.032 1262.85 441.202 1262.85 443.146C1262.85 445.09 1260.76 446.26 1257.5 446.26C1254.25 446.26 1252.16 445.09 1252.16 443.146C1252.16 441.202 1254.25 440.032 1257.5 440.032ZM1275.05 431.878V433.066H1265.69V431.878H1269.63V430.024H1271.11V431.878H1275.05ZM1268.03 436.774C1268.03 437.818 1269 438.538 1270.37 438.538C1271.74 438.538 1272.71 437.818 1272.71 436.774C1272.71 435.73 1271.74 435.01 1270.37 435.01C1269 435.01 1268.03 435.73 1268.03 436.774ZM1274.1 436.774C1274.1 438.502 1272.55 439.636 1270.37 439.636C1268.18 439.636 1266.63 438.502 1266.63 436.774C1266.63 435.046 1268.18 433.894 1270.37 433.894C1272.55 433.894 1274.1 435.046 1274.1 436.774ZM1269.92 441.994V444.928H1277.54V441.994H1269.92ZM1268.48 446.116V440.824H1278.98V446.116H1268.48ZM1277.48 430.204H1278.98V439.96H1277.48V436.306H1274.8V435.1H1277.48V430.204ZM1289.16 431.572C1286.52 431.572 1285.01 432.184 1285.01 433.264C1285.01 434.344 1286.52 434.956 1289.16 434.956C1291.81 434.956 1293.32 434.344 1293.32 433.264C1293.32 432.184 1291.81 431.572 1289.16 431.572ZM1289.16 436.054C1285.62 436.054 1283.49 435.082 1283.49 433.264C1283.49 431.446 1285.62 430.456 1289.16 430.456C1292.71 430.456 1294.83 431.446 1294.83 433.264C1294.83 435.082 1292.71 436.054 1289.16 436.054ZM1285.11 443.362V445H1295.09V446.152H1283.67V442.282H1293.14V440.842H1283.62V439.726H1294.6V443.362H1285.11ZM1281.86 437.152H1296.47V438.34H1281.86V437.152ZM1303.84 431.752V441.004C1306.17 441.004 1308.56 440.806 1311.17 440.284L1311.35 441.508C1308.6 442.066 1306.13 442.246 1303.66 442.246H1302.39V431.752H1303.84ZM1316.75 436.63V437.854H1314.16V446.332H1312.68V430.186H1314.16V436.63H1316.75ZM1330.9 435.604V436.81H1319.81V431.014H1321.3V435.604H1330.9ZM1332.59 439.24V440.446H1325.95V446.332H1324.47V440.446H1317.92V439.24H1332.59ZM1347.08 435.046V436.252H1336.1V430.78H1337.57V435.046H1347.08ZM1337.46 441.22V444.73H1347.17V445.936H1335.99V441.22H1337.46ZM1334.12 438.412H1348.75V439.6H1334.12V438.412ZM1367.93 438.07L1367.3 439.294C1364.83 438.772 1362.3 437.098 1361.25 434.794C1360.21 437.098 1357.69 438.772 1355.2 439.294L1354.59 438.07C1357.42 437.566 1360.48 435.19 1360.48 432.508V431.266H1362.03V432.508C1362.03 435.19 1365.1 437.566 1367.93 438.07ZM1361.99 443.02H1368.65V444.226H1354V443.02H1360.51V439.096H1361.99V443.02ZM1371.55 436.774L1371.03 435.604C1373.85 435.28 1376.43 433.894 1376.55 432.112H1371.55V430.924H1383.48V432.112H1378.46C1378.59 433.894 1381.16 435.28 1383.99 435.604L1383.46 436.774C1380.82 436.45 1378.41 435.262 1377.51 433.48C1376.62 435.262 1374.19 436.45 1371.55 436.774ZM1381.52 443.47C1381.52 442.39 1380.01 441.778 1377.49 441.778C1374.95 441.778 1373.46 442.39 1373.46 443.47C1373.46 444.55 1374.95 445.18 1377.49 445.18C1380.01 445.18 1381.52 444.55 1381.52 443.47ZM1384.8 438.934H1378.24V440.662C1381.25 440.806 1383.01 441.796 1383.01 443.47C1383.01 445.306 1380.94 446.314 1377.51 446.314C1374.05 446.314 1371.96 445.306 1371.96 443.47C1371.96 441.796 1373.74 440.806 1376.75 440.662V438.934H1370.2V437.746H1384.8V438.934ZM1395.97 432.166V433.354H1386.45V432.166H1390.46V430.186H1391.94V432.166H1395.97ZM1388.75 437.242C1388.75 438.376 1389.74 439.096 1391.2 439.096C1392.66 439.096 1393.67 438.376 1393.67 437.242C1393.67 436.126 1392.66 435.406 1391.2 435.406C1389.74 435.406 1388.75 436.126 1388.75 437.242ZM1395.07 437.242C1395.07 439.06 1393.49 440.248 1391.2 440.248C1388.92 440.248 1387.35 439.06 1387.35 437.242C1387.35 435.442 1388.92 434.254 1391.2 434.254C1393.49 434.254 1395.07 435.442 1395.07 437.242ZM1390.36 441.346V444.766H1399.64V445.972H1388.88V441.346H1390.36ZM1398.92 435.514H1401.3V436.756H1398.92V442.3H1397.45V430.186H1398.92V435.514ZM1411.7 433.066V435.118C1411.7 437.692 1413.53 440.554 1415.87 441.652L1415.03 442.84C1413.23 441.94 1411.71 440.05 1410.98 437.89C1410.24 440.248 1408.67 442.3 1406.85 443.236L1405.99 442.066C1408.29 440.914 1410.24 437.854 1410.24 435.118V433.066H1406.55V431.842H1415.28V433.066H1411.7ZM1421.34 436.702V437.944H1418.68V446.332H1417.2V430.204H1418.68V436.702H1421.34ZM1424.87 437.44V441.22C1427.52 441.22 1429.89 441.094 1432.72 440.644L1432.86 441.85C1429.95 442.336 1427.5 442.444 1424.73 442.444H1423.39V436.252H1429.33V432.886H1423.34V431.68H1430.83V437.44H1424.87ZM1434.23 430.168H1435.71V446.35H1434.23V430.168ZM1450.43 430.204H1451.91V438.862H1450.43V430.204ZM1441.5 439.654H1442.96V441.634H1450.45V439.654H1451.91V446.116H1441.5V439.654ZM1442.96 442.786V444.928H1450.45V442.786H1442.96ZM1443.23 430.96C1445.68 430.96 1447.46 432.472 1447.46 434.668C1447.46 436.9 1445.68 438.394 1443.23 438.394C1440.8 438.394 1439.04 436.9 1439.04 434.668C1439.04 432.472 1440.8 430.96 1443.23 430.96ZM1443.23 432.184C1441.63 432.184 1440.48 433.21 1440.48 434.668C1440.48 436.144 1441.63 437.17 1443.23 437.17C1444.87 437.17 1446.02 436.144 1446.02 434.668C1446.02 433.21 1444.87 432.184 1443.23 432.184ZM1457.34 431.752V440.896C1459.77 440.896 1462.27 440.68 1464.95 440.14L1465.12 441.4C1462.31 441.976 1459.77 442.156 1457.2 442.156H1455.86V431.752H1457.34ZM1466.61 430.186H1468.09V446.314H1466.61V430.186ZM1473.21 432.958V441.076C1476.08 441.076 1478.15 440.95 1480.49 440.536L1480.65 441.76C1478.18 442.228 1476.06 442.336 1473.02 442.336H1471.74V431.734H1479.24V432.958H1473.21ZM1486.14 436.558V437.782H1483.47V446.368H1482V430.186H1483.47V436.558H1486.14ZM1488.8 445.234C1488.15 445.234 1487.61 444.73 1487.61 443.992C1487.61 443.236 1488.15 442.714 1488.8 442.714C1489.45 442.714 1489.99 443.236 1489.99 443.992C1489.99 444.73 1489.45 445.234 1488.8 445.234Z" fill="#A1A1A1"/>
<path d="M294.85 132.524L294.22 133.928C291.52 133.604 289.306 132.452 288.262 130.832C287.218 132.452 285.004 133.604 282.304 133.928L281.674 132.524C284.95 132.182 287.308 130.544 287.308 128.708V128.24H289.216V128.708C289.216 130.544 291.592 132.182 294.85 132.524ZM284.518 141.452V142.82H294.238V144.242H282.682V140.156H291.952V138.914H282.646V137.51H293.77V141.452H284.518ZM280.9 134.792H295.624V136.268H280.9V134.792ZM298.035 129.842H305.739C305.739 134.684 303.795 138.788 298.215 141.488L297.225 140.012C301.491 137.96 303.507 135.098 303.831 131.354H298.035V129.842ZM308.673 128.132H310.527V144.386H308.673V128.132ZM321.775 131.174V132.614C321.775 135.17 322.207 138.104 324.187 139.634L323.035 140.966C321.937 140.102 321.253 138.734 320.875 137.168C320.479 138.77 319.777 140.21 318.589 141.11C317.419 140.21 316.717 138.77 316.339 137.168C315.943 138.734 315.277 140.102 314.179 140.966L313.027 139.634C315.007 138.086 315.439 135.098 315.439 132.614V131.174H313.585V129.662H318.283V131.174H317.185V132.614C317.185 134.468 317.401 136.898 318.607 138.644C319.777 136.916 319.993 134.54 319.993 132.614V131.174H318.913V129.662H323.413V131.174H321.775ZM328.399 134.45V135.98H326.365V144.404H324.511V128.132H326.365V134.45H328.399ZM330.432 129.842H338.136C338.136 134.684 336.192 138.788 330.612 141.488L329.622 140.012C333.888 137.96 335.904 135.098 336.228 131.354H330.432V129.842ZM341.07 128.132H342.924V144.386H341.07V128.132ZM363.489 136.07L362.679 137.6C360.033 137.06 357.747 135.368 356.685 133.136C355.623 135.368 353.337 137.06 350.691 137.6L349.899 136.07C353.103 135.476 355.713 132.974 355.713 130.4V129.176H357.675V130.4C357.675 132.992 360.285 135.494 363.489 136.07ZM349.395 140.768H364.119V142.298H349.395V140.768ZM368.168 135.584V139.094C370.76 139.076 372.614 138.986 374.738 138.626L374.9 140.12C372.578 140.534 370.544 140.606 367.592 140.606H366.314V129.536H373.856V131.066H368.168V134.108H373.19V135.584H368.168ZM377.222 128.096H379.094V144.404H377.222V135.602H374.108V134.072H377.222V128.096ZM384.637 131.156V138.896C387.661 138.878 389.605 138.788 391.783 138.374L391.981 139.922C389.623 140.354 387.517 140.444 384.151 140.444H382.801V129.626H390.541V131.156H384.637ZM393.295 128.114H395.167V144.422H393.295V128.114Z" fill="white"/>
<path d="M294.31 514.15V525.976H292.456V514.15H294.31ZM290.944 522.34L290.008 523.798C288.136 523.186 286.768 521.926 286.048 520.324C285.328 522.052 283.96 523.438 282.016 524.086L281.044 522.646C283.618 521.782 285.076 519.676 285.076 517.48V516.886H281.548V515.392H290.44V516.886H286.966V517.48C286.966 519.55 288.442 521.53 290.944 522.34ZM285.562 528.568H294.778V530.08H283.69V524.896H285.562V528.568ZM307.413 519.892V523.816H305.685V514.438H307.413V518.362H309.105V514.114H310.869V524.374H309.105V519.892H307.413ZM305.127 515.95V517.408H297.027V515.95H300.177V514.276H301.995V515.95H305.127ZM299.277 520.918C299.277 521.8 299.997 522.376 301.095 522.376C302.193 522.376 302.931 521.8 302.931 520.918C302.931 520.036 302.193 519.46 301.095 519.46C299.997 519.46 299.277 520.036 299.277 520.918ZM304.587 520.918C304.587 522.61 303.147 523.726 301.095 523.726C299.061 523.726 297.621 522.61 297.621 520.918C297.621 519.244 299.061 518.11 301.095 518.11C303.147 518.11 304.587 519.244 304.587 520.918ZM305.469 528.982C307.809 528.982 309.105 528.46 309.105 527.488C309.105 526.516 307.809 526.012 305.469 526.012C303.147 526.012 301.815 526.516 301.815 527.488C301.815 528.46 303.147 528.982 305.469 528.982ZM305.469 524.608C308.889 524.608 310.959 525.652 310.959 527.488C310.959 529.324 308.889 530.386 305.469 530.386C302.031 530.386 299.961 529.324 299.961 527.488C299.961 525.652 302.031 524.608 305.469 524.608ZM318.384 520.81L317.718 519.352C320.724 519.046 322.812 517.786 323.064 516.328H318.348V514.834H330.354V516.328H325.602C325.854 517.786 327.942 519.046 330.948 519.352L330.3 520.81C327.438 520.504 325.206 519.334 324.342 517.66C323.46 519.334 321.228 520.504 318.384 520.81ZM328.032 527.506C328.032 526.534 326.682 526.03 324.306 526.03C321.93 526.03 320.598 526.534 320.598 527.506C320.598 528.442 321.93 528.964 324.306 528.964C326.682 528.964 328.032 528.442 328.032 527.506ZM331.686 523.114H325.26V524.626C328.194 524.806 329.904 525.814 329.904 527.506C329.904 529.342 327.816 530.386 324.306 530.386C320.814 530.386 318.708 529.342 318.708 527.506C318.708 525.814 320.454 524.788 323.406 524.608V523.114H316.98V521.638H331.686V523.114ZM336.178 532.24L341.182 514.618H342.622L337.618 532.24H336.178ZM354.236 522.898H356.108V519.424H354.236C354.326 519.964 354.362 520.54 354.362 521.17C354.362 521.8 354.326 522.358 354.236 522.898ZM350.87 525.184C351.986 525.184 352.688 523.744 352.688 521.17C352.688 518.596 351.986 517.138 350.87 517.138C349.754 517.138 349.052 518.596 349.052 521.17C349.052 523.744 349.754 525.184 350.87 525.184ZM356.108 517.894V514.438H357.836V529.612H356.108V524.41H353.876C353.3 525.994 352.238 526.93 350.87 526.93C348.764 526.93 347.378 524.734 347.378 521.17C347.378 517.588 348.764 515.392 350.87 515.392C352.22 515.392 353.3 516.292 353.858 517.894H356.108ZM359.33 514.132H361.094V530.368H359.33V514.132ZM372.145 518.218H375.025V514.132H376.879V523.816H375.025V519.73H372.145V518.218ZM373.081 521.836L372.163 523.294C370.363 522.664 369.067 521.386 368.383 519.82C367.663 521.602 366.295 523.042 364.369 523.726L363.415 522.25C365.935 521.35 367.393 519.19 367.393 516.958V516.724H363.955V515.23H372.649V516.724H369.265V516.94C369.265 518.974 370.651 520.99 373.081 521.836ZM371.479 528.964C373.765 528.964 375.097 528.388 375.097 527.326C375.097 526.264 373.765 525.688 371.479 525.688C369.157 525.688 367.843 526.264 367.843 527.326C367.843 528.388 369.157 528.964 371.479 528.964ZM371.479 524.248C374.863 524.248 376.951 525.4 376.951 527.326C376.951 529.27 374.863 530.404 371.479 530.404C368.077 530.404 365.989 529.27 365.989 527.326C365.989 525.4 368.077 524.248 371.479 524.248ZM393.006 514.114V526.336H391.152V514.114H393.006ZM390 522.448L390.126 523.798C386.706 524.284 382.944 524.374 379.92 524.374L379.668 522.88C381.018 522.88 382.53 522.862 384.078 522.808V520.81H381.072V515.14H388.884V516.652H382.926V519.298H388.974V520.81H385.932V522.736C387.336 522.682 388.704 522.592 390 522.448ZM384.15 528.568H393.51V530.08H382.296V525.49H384.15V528.568ZM413.589 522.07L412.779 523.6C410.133 523.06 407.847 521.368 406.785 519.136C405.723 521.368 403.437 523.06 400.791 523.6L399.999 522.07C403.203 521.476 405.813 518.974 405.813 516.4V515.176H407.775V516.4C407.775 518.992 410.385 521.494 413.589 522.07ZM399.495 526.768H414.219V528.298H399.495V526.768ZM418.268 521.584V525.094C420.86 525.076 422.714 524.986 424.838 524.626L425 526.12C422.678 526.534 420.644 526.606 417.692 526.606H416.414V515.536H423.956V517.066H418.268V520.108H423.29V521.584H418.268ZM427.322 514.096H429.194V530.404H427.322V521.602H424.208V520.072H427.322V514.096ZM434.736 517.156V524.896C437.76 524.878 439.704 524.788 441.882 524.374L442.08 525.922C439.722 526.354 437.616 526.444 434.25 526.444H432.9V515.626H440.64V517.156H434.736ZM443.394 514.114H445.266V530.422H443.394V514.114Z" fill="white"/>
<path d="M1158.85 325.524L1158.22 326.928C1155.52 326.604 1153.31 325.452 1152.26 323.832C1151.22 325.452 1149 326.604 1146.3 326.928L1145.67 325.524C1148.95 325.182 1151.31 323.544 1151.31 321.708V321.24H1153.22V321.708C1153.22 323.544 1155.59 325.182 1158.85 325.524ZM1148.52 334.452V335.82H1158.24V337.242H1146.68V333.156H1155.95V331.914H1146.65V330.51H1157.77V334.452H1148.52ZM1144.9 327.792H1159.62V329.268H1144.9V327.792ZM1172.73 333.138V327.666H1168.41V326.19H1172.73V324.588H1168.41V323.112H1172.73V321.132H1174.58V333.138H1172.73ZM1170.21 328.782L1170.39 330.294C1167.87 330.744 1165.71 330.852 1163.29 330.852H1162.03V322.248H1163.89V329.322C1165.99 329.304 1167.96 329.178 1170.21 328.782ZM1165.89 335.568H1174.99V337.08H1164.03V332.076H1165.89V335.568ZM1187.56 323.022V324.516H1177.73V323.022H1181.73V321.168H1183.58V323.022H1187.56ZM1180.45 328.332C1180.45 329.34 1181.35 329.952 1182.66 329.952C1183.96 329.952 1184.86 329.34 1184.86 328.332C1184.86 327.342 1183.96 326.73 1182.66 326.73C1181.35 326.73 1180.45 327.342 1180.45 328.332ZM1183.58 331.302V332.832C1185.04 332.742 1186.51 332.652 1187.9 332.454L1188.03 333.804C1184.44 334.416 1180.59 334.47 1177.64 334.47L1177.41 332.94C1178.7 332.94 1180.2 332.94 1181.73 332.886V331.302C1179.89 331.014 1178.68 329.898 1178.68 328.332C1178.68 326.514 1180.3 325.308 1182.66 325.308C1185 325.308 1186.62 326.514 1186.62 328.332C1186.62 329.916 1185.42 331.014 1183.58 331.302ZM1188.82 321.114H1190.69V337.386H1188.82V321.114Z" fill="white"/>
<line y1="95.5" x2="1156" y2="95.5" stroke="url(#paint0_linear_706_213)"/>
<line y1="288.5" x2="1920" y2="288.5" stroke="url(#paint1_linear_706_213)"/>
<line x1="-4.37114e-08" y1="481.5" x2="1920" y2="481.5" stroke="url(#paint2_linear_706_213)"/>
<line y1="606.5" x2="1920" y2="606.5" stroke="url(#paint3_linear_706_213)"/>
<line x1="240.5" y1="2.18557e-08" x2="240.5" y2="635" stroke="url(#paint4_linear_706_213)"/>
<line x1="1680.5" y1="2.18557e-08" x2="1680.5" y2="635" stroke="url(#paint5_linear_706_213)"/>
<line x1="829.5" y1="454" x2="829.5" y2="635" stroke="url(#paint6_linear_706_213)"/>
<line x1="1104.5" y1="2.18557e-08" x2="1104.5" y2="510" stroke="url(#paint7_linear_706_213)"/>
<rect x="1100" y="92" width="8" height="8" fill="#1F1F1F"/>
<rect x="236" y="92" width="8" height="8" fill="#1F1F1F"/>
<rect x="236" y="285" width="8" height="8" fill="#1F1F1F"/>
<rect x="236" y="478" width="8" height="8" fill="#1F1F1F"/>
<rect x="825" y="478" width="8" height="8" fill="#1F1F1F"/>
<rect x="236" y="603" width="8" height="8" fill="#1F1F1F"/>
<rect x="1676" y="603" width="8" height="8" fill="#1F1F1F"/>
<rect x="825" y="603" width="8" height="8" fill="#1F1F1F"/>
<rect x="1100" y="285" width="8" height="8" fill="#1F1F1F"/>
<rect x="1676" y="285" width="8" height="8" fill="#1F1F1F"/>
<rect x="1100" y="478" width="8" height="8" fill="#1F1F1F"/>
<rect x="1676" y="478" width="8" height="8" fill="#1F1F1F"/>
<defs>
<linearGradient id="paint0_linear_706_213" x1="0" y1="96.5" x2="1156" y2="96.5" gradientUnits="userSpaceOnUse">
<stop stop-color="#1F1F1F" stop-opacity="0"/>
<stop offset="0.2" stop-color="#1F1F1F"/>
<stop offset="0.8" stop-color="#1F1F1F"/>
<stop offset="1" stop-color="#1F1F1F" stop-opacity="0"/>
</linearGradient>
<linearGradient id="paint1_linear_706_213" x1="0" y1="289.5" x2="1920" y2="289.5" gradientUnits="userSpaceOnUse">
<stop stop-color="#1F1F1F" stop-opacity="0"/>
<stop offset="0.2" stop-color="#1F1F1F"/>
<stop offset="0.8" stop-color="#1F1F1F"/>
<stop offset="1" stop-color="#1F1F1F" stop-opacity="0"/>
</linearGradient>
<linearGradient id="paint2_linear_706_213" x1="4.37114e-08" y1="482.5" x2="1920" y2="482.5" gradientUnits="userSpaceOnUse">
<stop stop-color="#1F1F1F" stop-opacity="0"/>
<stop offset="0.2" stop-color="#1F1F1F"/>
<stop offset="0.8" stop-color="#1F1F1F"/>
<stop offset="1" stop-color="#1F1F1F" stop-opacity="0"/>
</linearGradient>
<linearGradient id="paint3_linear_706_213" x1="0" y1="607.5" x2="1920" y2="607.5" gradientUnits="userSpaceOnUse">
<stop stop-color="#1F1F1F" stop-opacity="0"/>
<stop offset="0.2" stop-color="#1F1F1F"/>
<stop offset="0.8" stop-color="#1F1F1F"/>
<stop offset="1" stop-color="#1F1F1F" stop-opacity="0"/>
</linearGradient>
<linearGradient id="paint4_linear_706_213" x1="239.5" y1="-2.18557e-08" x2="239.5" y2="635" gradientUnits="userSpaceOnUse">
<stop stop-color="#1F1F1F" stop-opacity="0"/>
<stop offset="0.2" stop-color="#1F1F1F"/>
<stop offset="0.8" stop-color="#1F1F1F"/>
<stop offset="1" stop-color="#1F1F1F" stop-opacity="0"/>
</linearGradient>
<linearGradient id="paint5_linear_706_213" x1="1679.5" y1="-2.18557e-08" x2="1679.5" y2="635" gradientUnits="userSpaceOnUse">
<stop stop-color="#1F1F1F" stop-opacity="0"/>
<stop offset="0.2" stop-color="#1F1F1F"/>
<stop offset="0.8" stop-color="#1F1F1F"/>
<stop offset="1" stop-color="#1F1F1F" stop-opacity="0"/>
</linearGradient>
<linearGradient id="paint6_linear_706_213" x1="828.5" y1="454" x2="828.5" y2="635" gradientUnits="userSpaceOnUse">
<stop stop-color="#1F1F1F" stop-opacity="0"/>
<stop offset="0.2" stop-color="#1F1F1F"/>
<stop offset="0.8" stop-color="#1F1F1F"/>
<stop offset="1" stop-color="#1F1F1F" stop-opacity="0"/>
</linearGradient>
<linearGradient id="paint7_linear_706_213" x1="1103.5" y1="-2.18557e-08" x2="1103.5" y2="510" gradientUnits="userSpaceOnUse">
<stop stop-color="#1F1F1F" stop-opacity="0"/>
<stop offset="0.2" stop-color="#1F1F1F"/>
<stop offset="0.8" stop-color="#1F1F1F"/>
<stop offset="1" stop-color="#1F1F1F" stop-opacity="0"/>
</linearGradient>
</defs>
</svg>
