<svg width="280" height="88" viewBox="0 0 280 88" fill="none" xmlns="http://www.w3.org/2000/svg">
<rect width="280" height="88" rx="16" fill="#72BF6B"/>
<path d="M81.1689 65.972C83.0169 65.972 84.0669 65.566 84.0669 64.782C84.0669 64.012 83.0169 63.592 81.1689 63.592C79.3209 63.592 78.2849 64.012 78.2849 64.782C78.2849 65.566 79.3209 65.972 81.1689 65.972ZM81.1689 62.486C83.8849 62.486 85.5229 63.326 85.5229 64.782C85.5229 66.252 83.8849 67.092 81.1689 67.092C78.4669 67.092 76.8149 66.252 76.8149 64.782C76.8149 63.326 78.4669 62.486 81.1689 62.486ZM81.9249 60.54H86.9229V61.716H75.4989V60.54H80.4829V59.28H76.9129V54.996H85.5229V56.144H78.3409V58.118H85.6069V59.28H81.9249V60.54ZM91.3038 62.99C92.3958 62.99 93.1658 61.8 93.1658 59.826C93.1658 57.852 92.3958 56.662 91.3038 56.662C90.1978 56.662 89.4418 57.852 89.4418 59.826C89.4418 61.8 90.1978 62.99 91.3038 62.99ZM91.3038 55.36C93.1938 55.36 94.5518 57.096 94.5518 59.826C94.5518 62.556 93.1938 64.278 91.3038 64.278C89.4138 64.278 88.0558 62.556 88.0558 59.826C88.0558 57.096 89.4138 55.36 91.3038 55.36ZM99.7038 59.378V60.568H97.7298V67.092H96.2878V54.436H97.7298V59.378H99.7038ZM102.573 60.246V62.906C104.575 62.892 106.325 62.794 108.327 62.472L108.481 63.648C106.311 64.026 104.421 64.096 102.195 64.096H101.117V59.084H105.527V56.732H101.089V55.556H106.983V60.246H102.573ZM109.377 54.408H110.833V67.106H109.377V54.408ZM126.548 60.414L125.946 61.618C123.874 61.212 122.082 59.952 121.27 58.272C120.43 59.952 118.638 61.212 116.58 61.618L115.964 60.414C118.47 59.994 120.5 58.104 120.5 56.158V55.206H122.026V56.158C122.026 58.118 124.056 59.994 126.548 60.414ZM121.97 64.32H127.038V65.51H115.586V64.32H120.528V61.366H121.97V64.32ZM128.507 56.032H133.477C133.477 59.406 132.371 62.388 128.815 64.432L127.975 63.41C130.705 61.828 131.853 59.756 132.049 57.208H128.507V56.032ZM137.425 54.436H138.797V67.078H137.425V60.554H135.983V66.49H134.625V54.772H135.983V59.378H137.425V54.436ZM147.653 56.886V58.104C147.653 60.064 148.899 62.304 150.817 63.214L150.019 64.348C148.605 63.676 147.527 62.276 146.953 60.68C146.393 62.444 145.273 63.956 143.817 64.67L142.991 63.522C144.923 62.598 146.211 60.204 146.211 58.104V56.886H143.453V55.696H150.327V56.886H147.653ZM154.989 59.42V60.61H153.015V67.078H151.573V54.436H153.015V59.42H154.989ZM159.565 55.598V57.81C159.565 59.854 160.335 61.996 162.029 63.06L161.217 64.18C160.069 63.48 159.313 62.248 158.879 60.834C158.431 62.388 157.605 63.718 156.387 64.46L155.505 63.368C157.297 62.304 158.165 60.036 158.165 57.88V55.598H159.565ZM162.533 58.86V54.674H163.891V66.49H162.533V60.036H160.671V58.86H162.533ZM165.109 54.436H166.481V67.078H165.109V54.436ZM172.206 63.172C173.242 63.172 173.998 62.472 173.998 61.408C173.998 60.344 173.242 59.644 172.206 59.644C171.17 59.644 170.414 60.344 170.414 61.408C170.414 62.472 171.17 63.172 172.206 63.172ZM172.206 58.454C174.04 58.454 175.384 59.686 175.384 61.408C175.384 63.144 174.04 64.362 172.206 64.362C170.372 64.362 169.028 63.144 169.028 61.408C169.028 59.686 170.372 58.454 172.206 58.454ZM172.92 54.604V56.41H175.958V57.572H168.412V56.41H171.464V54.604H172.92ZM177.092 54.436H178.548V67.078H177.092V54.436ZM186.046 58.566V60.638H192.038V58.566H186.046ZM189.756 64.348H194.782V65.538H183.33V64.348H188.314V61.8H184.618V55.276H186.046V57.404H192.038V55.276H193.466V61.8H189.756V64.348ZM196.503 55.766H202.495C202.495 59.532 200.983 62.724 196.643 64.824L195.873 63.676C199.191 62.08 200.759 59.854 201.011 56.942H196.503V55.766ZM204.777 54.436H206.219V67.078H204.777V54.436Z" fill="#365833"/>
<path d="M66.4143 42V24.216H69.9663V39.024H77.1903V42H66.4143ZM85.0258 42.336C81.2578 42.336 78.3298 39.72 78.3298 35.28C78.3298 30.936 81.4018 28.224 84.5938 28.224C88.2898 28.224 90.2098 30.936 90.2098 34.632C90.2098 35.304 90.1378 35.952 90.0418 36.264H81.7618C82.0498 38.472 83.4898 39.624 85.4818 39.624C86.5858 39.624 87.5458 39.288 88.5058 38.688L89.7058 40.848C88.3858 41.76 86.6818 42.336 85.0258 42.336ZM81.7138 33.912H87.1858C87.1858 32.112 86.3698 30.96 84.6418 30.96C83.2258 30.96 81.9778 31.968 81.7138 33.912ZM95.6189 42.336C93.2189 42.336 91.6349 40.632 91.6349 38.352C91.6349 35.472 93.9629 33.96 99.3869 33.384C99.3149 32.064 98.7389 31.056 97.0829 31.056C95.8349 31.056 94.6349 31.608 93.3869 32.328L92.1149 30C93.6989 29.016 95.6189 28.224 97.7309 28.224C101.139 28.224 102.891 30.264 102.891 34.152V42H100.011L99.7709 40.56H99.6749C98.4989 41.568 97.1549 42.336 95.6189 42.336ZM96.7709 39.576C97.7789 39.576 98.5229 39.096 99.3869 38.256V35.544C96.0989 35.952 94.9949 36.864 94.9949 38.064C94.9949 39.12 95.7389 39.576 96.7709 39.576ZM106.007 42V28.56H108.887L109.151 30.936H109.223C110.207 29.184 111.647 28.224 113.039 28.224C113.783 28.224 114.215 28.344 114.623 28.512L114.023 31.56C113.543 31.416 113.159 31.344 112.607 31.344C111.551 31.344 110.279 32.04 109.535 33.984V42H106.007ZM115.98 42V28.56H118.86L119.124 30.336H119.196C120.372 29.184 121.74 28.224 123.564 28.224C126.468 28.224 127.716 30.24 127.716 33.624V42H124.188V34.056C124.188 31.968 123.612 31.248 122.292 31.248C121.188 31.248 120.492 31.776 119.508 32.76V42H115.98ZM135.832 42V28.56H138.712L138.976 30.36H139.048C140.176 29.184 141.424 28.224 143.176 28.224C145.096 28.224 146.224 29.088 146.872 30.576C148.096 29.28 149.392 28.224 151.144 28.224C154 28.224 155.32 30.24 155.32 33.624V42H151.792V34.056C151.792 31.968 151.192 31.248 149.92 31.248C149.152 31.248 148.288 31.752 147.328 32.76V42H143.824V34.056C143.824 31.968 143.2 31.248 141.928 31.248C141.16 31.248 140.296 31.752 139.36 32.76V42H135.832ZM164.101 42.336C160.741 42.336 157.645 39.744 157.645 35.28C157.645 30.816 160.741 28.224 164.101 28.224C167.461 28.224 170.557 30.816 170.557 35.28C170.557 39.744 167.461 42.336 164.101 42.336ZM164.101 39.456C165.925 39.456 166.957 37.824 166.957 35.28C166.957 32.76 165.925 31.104 164.101 31.104C162.277 31.104 161.245 32.76 161.245 35.28C161.245 37.824 162.277 39.456 164.101 39.456ZM173.029 42V28.56H175.909L176.173 30.936H176.245C177.229 29.184 178.669 28.224 180.061 28.224C180.805 28.224 181.237 28.344 181.645 28.512L181.045 31.56C180.565 31.416 180.181 31.344 179.629 31.344C178.573 31.344 177.301 32.04 176.557 33.984V42H173.029ZM188.576 42.336C184.808 42.336 181.88 39.72 181.88 35.28C181.88 30.936 184.952 28.224 188.144 28.224C191.84 28.224 193.76 30.936 193.76 34.632C193.76 35.304 193.688 35.952 193.592 36.264H185.312C185.6 38.472 187.04 39.624 189.032 39.624C190.136 39.624 191.096 39.288 192.056 38.688L193.256 40.848C191.936 41.76 190.232 42.336 188.576 42.336ZM185.264 33.912H190.736C190.736 32.112 189.92 30.96 188.192 30.96C186.776 30.96 185.528 31.968 185.264 33.912Z" fill="#060606"/>
<path d="M211.175 40L212.825 41.6497L220.65 33.8248L212.825 26L211.175 27.6497L216.184 32.6582H205V34.9915H216.184L211.175 40Z" fill="#060606"/>
</svg>
